<svg width="319" height="96" viewBox="0 0 319 96" fill="none" xmlns="http://www.w3.org/2000/svg">
<g clip-path="url(#clip0_554_2957)">
<path d="M222.156 49.0547C221.595 58.2786 216.378 72.6478 199.998 56.3327C179.523 35.9387 184.39 73.7914 174.948 50.3223C165.507 26.8532 140.921 -5.79324 130.697 50.1279C120.473 106.049 97.3759 89.9819 77.1819 45.2071C62.0643 11.6879 26.0021 14.1602 1.99992 34.5513" stroke="#FFCD00" stroke-width="4.8782"/>
<path d="M219.625 30.9625L227.4 48.7618L318.174 29.8535L219.625 30.9625Z" fill="black"/>
<path d="M238.346 67.999L255.864 77.0944L314.06 30.6277L238.346 67.999Z" fill="black"/>
<path d="M318.172 29.8536L204.233 95.0677L216.184 49.1304L318.172 29.8536Z" fill="#FFCD00"/>
<path d="M219.625 30.9624L318.174 29.8535L225.38 0.599782L219.625 30.9624Z" fill="#FFCD00"/>
</g>
<defs>
<clipPath id="clip0_554_2957">
<rect width="319" height="96" fill="white"/>
</clipPath>
</defs>
</svg>
