<svg width="127" height="117" viewBox="0 0 127 117" fill="none" xmlns="http://www.w3.org/2000/svg">
<path d="M93.3761 9.81914C94.057 12.9091 92.896 16.1587 91.1317 18.7737C89.3675 21.3887 87.0206 23.5266 84.9342 25.8793C82.6019 28.507 80.5567 31.4561 79.38 34.7899C78.2033 38.1237 77.9428 41.8653 79.1241 45.1813C80.3053 48.4974 83.0456 51.2986 86.6535 52.09C92.5316 50.0683 97.959 46.3679 101.56 41.1924C105.16 36.0169 106.809 29.3285 105.441 23.1536C104.077 16.9907 99.5155 11.5379 93.3761 9.81914Z" fill="#090909"/>
<path d="M87.5483 43.3032C91.6555 41.4094 95.5915 39.1162 99.279 36.4603L87.5483 43.3032Z" fill="#333333"/>
<path d="M87.5483 43.3032C91.6555 41.4094 95.5915 39.1162 99.279 36.4603" stroke="#FFCD00" stroke-width="2.79584" stroke-miterlimit="10" stroke-linecap="round" stroke-linejoin="round"/>
<path d="M89.1975 38.7798C88.817 36.5582 88.4427 34.3317 88.0623 32.1101L89.1975 38.7798Z" fill="#333333"/>
<path d="M89.1975 38.7798C88.817 36.5582 88.4427 34.3317 88.0623 32.1101" stroke="#FFCD00" stroke-width="2.79584" stroke-miterlimit="10" stroke-linecap="round" stroke-linejoin="round"/>
<path d="M82.9408 36.4484C84.2173 39.483 85.4993 42.5182 86.7758 45.5528L82.9408 36.4484Z" fill="#333333"/>
<path d="M82.9408 36.4484C84.2173 39.483 85.4993 42.5182 86.7758 45.5528" stroke="#FFCD00" stroke-width="2.79584" stroke-miterlimit="10" stroke-linecap="round" stroke-linejoin="round"/>
<path d="M120.514 46.6023C115.127 47.1838 109.923 49.4754 105.798 53.0782C101.672 56.681 98.6321 61.5787 97.2281 67.0559C98.4173 68.8455 100.352 70.0291 102.415 70.5102C104.478 70.9914 106.654 70.8027 108.697 70.2305C113.35 68.9301 117.43 65.5744 119.679 61.1969C121.922 56.8244 122.298 51.4946 120.514 46.6023Z" fill="#333333"/>
<path d="M77.6507 58.0182C81.6056 59.0979 85.2037 61.4787 87.785 64.7203L77.6507 58.0182Z" fill="#333333"/>
<path d="M77.6507 58.0182C81.6056 59.0979 85.2037 61.4787 87.785 64.7203" stroke="#FFCD00" stroke-width="2.79584" stroke-miterlimit="10" stroke-linecap="round" stroke-linejoin="round"/>
<path d="M76.4378 56.2315C75.908 51.2129 74.5077 46.2974 72.3249 41.7826C71.6997 40.4851 70.9889 39.2003 69.9369 38.2367C69.492 37.8277 68.9118 37.4715 68.3234 37.6081C67.793 37.7287 67.4178 38.241 67.2867 38.7766C67.1556 39.3123 67.223 39.8773 67.3089 40.4273C68.0179 45.025 69.6994 49.4629 72.2113 53.3336C69.4939 49.1628 64.6449 46.5469 59.7354 46.6053C58.7638 46.6159 57.6406 46.8152 57.1511 47.6757C56.535 48.7507 57.2847 50.086 58.0892 51.0087C60.9927 54.3231 65.0637 56.5478 69.3802 57.1825C65.9882 56.4627 62.3592 56.932 59.2345 58.4892C58.0772 59.0692 56.8697 59.9762 56.7478 61.2823C56.6393 62.4293 57.4601 63.4975 58.4733 63.9857C59.4865 64.4738 60.6553 64.5039 61.7795 64.4368C67.5445 64.1185 73.1113 61.7439 76.4378 56.2315Z" fill="#333333"/>
<path d="M93.3868 9.65959C93.843 13.4118 92.0743 17.1001 89.7914 20.0668C87.5079 23.0391 84.6748 25.5383 82.4425 28.5512C80.2102 31.5641 78.3643 35.9953 79.0146 39.719" fill="#333333"/>
<path d="M93.3868 9.65959C93.843 13.4118 92.0743 17.1001 89.7914 20.0668C87.5079 23.0391 84.6748 25.5383 82.4425 28.5512C80.2102 31.5641 78.3643 35.9953 79.0146 39.719" stroke="#FFCD00" stroke-width="2.79584" stroke-miterlimit="10" stroke-linecap="round" stroke-linejoin="round"/>
<path d="M86.4487 51.7847C91.3864 51.2071 95.8558 47.9668 99.1591 44.157C102.462 40.3472 104.626 36.0227 105.321 30.9892" fill="#333333"/>
<path d="M86.4487 51.7847C91.3864 51.2071 95.8558 47.9668 99.1591 44.157C102.462 40.3472 104.626 36.0227 105.321 30.9892" stroke="#FFCD00" stroke-width="2.79584" stroke-miterlimit="10" stroke-linecap="round" stroke-linejoin="round"/>
<path d="M56.6794 48.4466C59.0741 53.1131 63.7263 56.4865 68.829 57.255L56.6794 48.4466Z" fill="#333333"/>
<path d="M56.6794 48.4466C59.0741 53.1131 63.7263 56.4865 68.829 57.255" stroke="#FFCD00" stroke-width="2.79584" stroke-miterlimit="10" stroke-linecap="round" stroke-linejoin="round"/>
<path d="M71.8485 52.7621C69.4855 49.2421 67.5953 45.2846 67.0747 41.0366C67.0045 40.4483 66.9592 39.84 67.1385 39.2757C67.3179 38.7113 67.7767 38.2033 68.3515 38.1339C69.0403 38.0494 69.6376 38.5914 70.1023 39.1176C71.7138 40.9403 73.0159 43.0534 73.9108 45.3362" fill="#333333"/>
<path d="M71.8485 52.7621C69.4855 49.2421 67.5953 45.2846 67.0747 41.0366C67.0045 40.4483 66.9592 39.84 67.1385 39.2757C67.3179 38.7113 67.7767 38.2033 68.3515 38.1339C69.0403 38.0494 69.6376 38.5914 70.1023 39.1176C71.7138 40.9403 73.0159 43.0534 73.9108 45.3362" stroke="#FFCD00" stroke-width="2.79584" stroke-miterlimit="10" stroke-linecap="round" stroke-linejoin="round"/>
<path d="M91.8696 74.939C97.3926 66.1969 105.342 59.076 114.543 54.6363L91.8696 74.939Z" fill="#333333"/>
<path d="M91.8696 74.939C97.3926 66.1969 105.342 59.076 114.543 54.6363" stroke="#FFCD00" stroke-width="2.79584" stroke-miterlimit="10" stroke-linecap="round" stroke-linejoin="round"/>
<path d="M103.455 61.9131C106.548 61.9426 109.646 61.9728 112.739 62.0024L103.455 61.9131Z" fill="#333333"/>
<path d="M103.455 61.9131C106.548 61.9426 109.646 61.9728 112.739 62.0024" stroke="#FFCD00" stroke-width="2.79584" stroke-miterlimit="10" stroke-linecap="round" stroke-linejoin="round"/>
<path d="M57.0893 63.137C60.1961 64.3683 63.7251 64.2202 66.915 63.199C70.1043 62.1835 72.9987 60.3462 75.6588 58.2628" fill="#333333"/>
<path d="M57.0893 63.137C60.1961 64.3683 63.7251 64.2202 66.915 63.199C70.1043 62.1835 72.9987 60.3462 75.6588 58.2628" stroke="#FFCD00" stroke-width="2.79584" stroke-miterlimit="10" stroke-linecap="round" stroke-linejoin="round"/>
<path d="M97.4673 67.4922C98.5275 61.2275 102.384 55.5026 107.731 52.2461L97.4673 67.4922Z" fill="#333333"/>
<path d="M97.4673 67.4922C98.5275 61.2275 102.384 55.5026 107.731 52.2461" stroke="#FFCD00" stroke-width="2.79584" stroke-miterlimit="10" stroke-linecap="round" stroke-linejoin="round"/>
<path d="M78.7146 57.9902C78.258 56.9252 77.7594 55.8839 77.2194 54.8607C77.0456 54.5299 76.8456 54.1845 76.525 54.0028C75.8944 53.6463 75.114 54.0759 74.5584 54.5495C73.9456 55.0794 73.3752 55.7235 73.1737 56.5207C72.9674 57.3115 73.2287 58.2728 73.9341 58.6611C74.3612 58.89 74.8664 58.887 75.3466 58.8581C76.5662 58.7909 77.7814 58.6198 78.7146 57.9902Z" fill="#333333"/>
<path d="M120.337 46.4789C121.782 49.9412 122.043 53.9171 121.065 57.5617C120.087 61.2063 117.877 64.4975 114.9 66.7441" fill="#333333"/>
<path d="M120.337 46.4789C121.782 49.9412 122.043 53.9171 121.065 57.5617C120.087 61.2063 117.877 64.4975 114.9 66.7441" stroke="#FFCD00" stroke-width="2.79584" stroke-miterlimit="10" stroke-linecap="round" stroke-linejoin="round"/>
<path d="M41.998 75.3511C45.286 75.9552 47.2966 79.5135 47.7345 82.9018C48.1724 86.2901 47.4984 89.7355 47.6862 93.1515C47.999 98.8619 50.8953 104.403 55.4842 107.649C60.0732 110.894 66.2887 111.692 71.4731 109.513C76.6576 107.334 80.5885 102.163 81.1714 96.4675C81.5644 92.6499 80.396 88.5659 77.5902 86.0325C74.7898 83.4998 70.2786 82.8994 67.2097 85.1179C64.3622 87.1732 63.2797 91.2705 64.3112 94.6663C65.3435 98.0565 68.218 100.673 71.5035 101.816C74.7889 102.96 78.4319 102.75 81.7718 101.741C87.7059 99.956 93.1246 95.198 94.2575 88.9822C95.3693 82.8959 92.3585 76.9502 90.0367 71.2475C87.5721 65.1889 85.7912 58.7122 85.952 52.1337C86.1129 45.5551 88.3812 38.8486 93.0416 34.2874" stroke="#FFCD00" stroke-width="4" stroke-miterlimit="10" stroke-linecap="round" stroke-linejoin="round"/>
<path d="M17.8504 57.3962C14.4153 53.3638 10.9712 49.3132 8.01325 44.9012C7.62796 44.3213 7.23566 43.7062 7.1845 43.0053C7.13335 42.3044 7.55258 41.516 8.23166 41.4188C8.91694 41.3167 9.49028 41.919 9.93074 42.4595C13.4405 46.7592 16.9448 51.0582 20.4546 55.3578C19.7704 56.063 18.9657 56.6505 17.8504 57.3962Z" fill="#090909"/>
<path d="M31.2874 48.3845C27.8523 44.3521 24.4082 40.3015 21.4503 35.8895C21.065 35.3096 20.6727 34.6944 20.6215 33.9935C20.5704 33.2927 20.9896 32.5042 21.6687 32.4071C22.354 32.305 22.9273 32.9073 23.3678 33.4478C26.8776 37.7475 30.3818 42.0465 33.8916 46.3461C33.2068 47.057 32.4027 47.6388 31.2874 48.3845Z" fill="#090909"/>
<path d="M37.3916 39.6139C28.0387 46.5562 18.6851 53.5041 9.37428 60.4227C11.9573 64.2617 14.3561 67.9525 16.8822 71.7043C19.4076 75.4618 22.9807 78.9479 27.4223 79.3793C30.1226 79.6434 32.8111 78.7348 35.2519 77.5038C38.8796 75.6792 42.1141 73.1532 45.3245 70.6415C47.5578 68.892 49.926 66.9518 50.6821 64.1823C51.3774 61.641 50.5497 58.9355 49.4887 56.541C46.7006 50.2314 42.3277 44.7954 37.3916 39.6139Z" fill="#090909"/>
<path d="M9.77228 60.418C12.7676 65.0813 15.772 69.7629 19.2548 74.0536C20.6879 75.8205 22.2584 77.5637 24.3 78.5074C26.7831 79.6529 29.7046 79.4726 32.3047 78.5994C34.9049 77.7262 37.2501 76.2139 39.5651 74.7211" fill="#090909"/>
<path d="M9.77228 60.418C12.7676 65.0813 15.772 69.7629 19.2548 74.0536C20.6879 75.8205 22.2584 77.5637 24.3 78.5074C26.7831 79.6529 29.7046 79.4726 32.3047 78.5994C34.9049 77.7262 37.2501 76.2139 39.5651 74.7211" stroke="white" stroke-width="2.79584" stroke-miterlimit="10" stroke-linecap="round" stroke-linejoin="round"/>
<path d="M38.1584 44.0973C42.7632 48.4815 46.3167 54.0151 48.4267 60.0832L38.1584 44.0973Z" fill="#090909"/>
<path d="M38.1584 44.0973C42.7632 48.4815 46.3167 54.0151 48.4267 60.0832" stroke="white" stroke-width="2.79584" stroke-miterlimit="10" stroke-linecap="round" stroke-linejoin="round"/>
<path d="M48.405 62.5741C48.5029 63.872 48.0921 65.2012 47.2769 66.2065L48.405 62.5741Z" fill="#090909"/>
<path d="M48.405 62.5741C48.5029 63.872 48.0921 65.2012 47.2769 66.2065" stroke="white" stroke-width="2.79584" stroke-miterlimit="10" stroke-linecap="round" stroke-linejoin="round"/>
<path d="M37.7224 55.2946C35.6135 56.0942 33.6509 56.8424 31.6562 57.4834C30.785 55.2838 30.588 53.1702 30.3903 51.0622C27.8127 52.7822 25.6241 54.4394 23.5341 56.0682C23.9182 56.7054 25.4082 64.1179 25.3553 64.9384C26.1562 65.1372 29.7584 63.5277 32.5356 62.4861C33.5775 65.6535 34.6133 68.8259 35.9767 72.2613C36.2534 70.2673 37.2595 59.0407 37.7224 55.2946Z" fill="#090909"/>
<path d="M23.8564 56.1872C26.1859 54.4779 28.5209 52.7692 30.8504 51.0599C30.895 53.2759 31.2147 55.4902 31.9224 57.6015C33.9546 56.7869 35.9917 55.9787 38.0239 55.1642C37.0771 60.7591 36.4657 66.4112 36.1888 72.0801" fill="#090909"/>
<path d="M23.8564 56.1872C26.1859 54.4779 28.5209 52.7692 30.8504 51.0599C30.895 53.2759 31.2147 55.4902 31.9224 57.6015C33.9546 56.7869 35.9917 55.9787 38.0239 55.1642C37.0771 60.7591 36.4657 66.4112 36.1888 72.0801" stroke="white" stroke-width="2.79584" stroke-miterlimit="10" stroke-linecap="round" stroke-linejoin="round"/>
<path d="M42.6341 70.3842C43.6545 71.6599 44.7611 72.8712 45.9394 73.9992C44.4615 75.0577 42.9842 76.1106 41.5008 77.1685C41.3539 77.2716 41.1953 77.379 41.0176 77.3636C40.8178 77.3455 40.6708 77.1672 40.55 77.0036C39.7459 75.9374 38.9472 74.8718 38.1192 73.9119C39.6245 72.7648 41.1291 71.6233 42.6341 70.3842Z" fill="#090909"/>
<path d="M38.1055 73.2726C38.6321 74.4091 39.2297 75.5139 39.8887 76.5743C40.0769 76.878 40.3129 77.2047 40.6586 77.2689C40.9829 77.3247 41.292 77.1318 41.5665 76.9463C42.957 76.0094 44.3475 75.0725 45.7324 74.135" fill="#090909"/>
<path d="M38.1055 73.2726C38.6321 74.4091 39.2297 75.5139 39.8887 76.5743C40.0769 76.878 40.3129 77.2047 40.6586 77.2689C40.9829 77.3247 41.292 77.1318 41.5665 76.9463C42.957 76.0094 44.3475 75.0725 45.7324 74.135" stroke="white" stroke-width="2.79584" stroke-miterlimit="10" stroke-linecap="round" stroke-linejoin="round"/>
</svg>
