<svg width="256" height="207" viewBox="0 0 256 207" fill="none" xmlns="http://www.w3.org/2000/svg">
<path d="M170.048 1C162.823 1 159.511 10.6348 158.759 15.4522C153.49 10.6348 141.825 2.33405 137.309 7.67026C132.794 13.0065 153.49 26.9399 164.403 33.2396C169.295 22.4931 177.273 1 170.048 1Z" fill="#FFCD00" stroke="#151C35" stroke-width="2" stroke-linejoin="round"/>
<path d="M171.944 57.2015C174.742 56.8163 176.563 60.3123 177.123 62.1085C178.895 59.9914 182.949 56.2054 184.996 57.9987C187.043 59.792 179.805 66.2065 175.931 69.1895C173.436 65.354 169.146 57.5867 171.944 57.2015Z" fill="#FFCD00" stroke="#151C35" stroke-width="2" stroke-linejoin="round"/>
<path d="M169.486 46.4581C168.026 43.0116 160.989 46.0935 158.479 47.5517C158.479 44.6353 157.784 39.0213 155.003 39.8962C152.222 40.7711 153.844 49.0099 155.003 53.02C160.989 51.9263 170.645 49.1922 169.486 46.4581Z" fill="#FFCD00" stroke="#151C35" stroke-width="2" stroke-linejoin="round"/>
<path d="M49.9538 106.207C63.4319 116.657 82.2049 128.6 89.9067 133.266L102.422 101.541C99.3735 100.919 90.8695 99.2088 81.2423 97.3427C69.2082 95.01 53.8047 86.6124 48.5097 80.5475C43.2148 74.4826 40.8079 69.8172 34.5503 71.6834C28.2926 73.5495 23.4789 74.9491 16.7398 73.5495C10.0008 72.1499 -1.07051 72.6164 1.33629 76.8152C3.7431 81.014 12.889 84.7463 24.923 89.4116C36.957 94.0769 33.1061 93.1439 49.9538 106.207Z" fill="white" stroke="#151C35"/>
<path d="M132.267 192.983C144.204 191.117 150.077 181.319 151.521 176.654C140.129 169.811 117.056 157.433 115.9 162.658C114.456 169.189 107.236 170.123 92.7951 173.388C78.3543 176.654 73.0593 174.321 69.6898 171.989C66.3202 169.656 60.5439 171.056 55.7303 175.254C50.9167 179.453 38.4013 191.117 38.8826 193.916C39.364 196.715 41.2895 197.181 52.3608 193.916C63.4321 190.65 63.9134 189.25 78.3542 191.117C92.7951 192.983 117.344 195.315 132.267 192.983Z" fill="white" stroke="#151C35"/>
<path d="M203.507 176.655C201.582 165.084 200.78 148.196 200.619 141.198C209.925 139.487 228.346 137.093 227.575 141.198C226.613 146.33 223.243 169.657 222.762 176.655C222.28 183.653 221.799 188.318 226.613 190.184C231.426 192.05 243.942 195.782 242.498 198.115C241.053 200.448 209.765 200.448 206.877 199.048C203.989 197.648 205.914 191.117 203.507 176.655Z" fill="white" stroke="#151C35"/>
<path d="M128.416 104.809C137.658 106.675 146.066 110.563 149.115 112.273C153.286 120.204 161.534 137.186 161.149 141.665C160.764 146.144 154.57 166.858 151.521 176.655C131.497 177.401 119.431 167.635 115.901 162.659C117.056 157.06 117.666 148.507 117.826 144.931C110.124 143.064 96.0045 136.377 89.9072 133.267C92.2178 116.099 99.2135 104.964 102.423 101.543C107.236 101.854 119.174 102.943 128.416 104.809Z" fill="#FFCD00"/>
<path d="M117.826 144.931C110.124 143.064 96.0045 136.377 89.9072 133.267C92.2178 116.099 99.2135 104.964 102.423 101.543C107.236 101.854 119.174 102.943 128.416 104.809C137.658 106.675 146.066 110.563 149.115 112.273C153.286 120.204 161.534 137.186 161.149 141.665C160.764 146.144 154.57 166.858 151.521 176.655C131.497 177.401 119.431 167.635 115.901 162.659C117.056 157.06 117.666 148.507 117.826 144.931ZM117.826 144.931C117.505 136.844 120.907 119.738 137.081 116.005" stroke="#151C35" stroke-width="2"/>
<path d="M225.651 108.539C228.347 103.314 233.192 98.8978 235.278 97.3427L229.983 84.2798C225.972 84.2798 217.757 84.7463 216.987 86.6124C216.216 88.4786 211.852 93.9215 209.766 96.4096C213.938 102.63 222.955 113.765 225.651 108.539Z" fill="white" stroke="#151C35" stroke-width="0.778875"/>
<path d="M244.424 53.9558C251.355 60.6739 252.767 68.5738 252.607 71.6841C246.189 74.9498 232.39 82.4143 228.539 86.1466C223.725 90.8119 220.356 90.8119 217.467 90.3454C214.579 89.8788 215.542 88.0127 214.098 86.1466C212.654 84.2804 209.766 84.747 210.728 79.6151C211.691 74.4833 211.21 72.6171 209.766 70.751C208.322 68.8849 205.433 66.0857 209.766 62.8199C214.098 59.5542 212.172 59.0877 212.172 53.9558C212.172 48.8239 217.949 46.0247 222.762 48.8239C227.576 51.6231 226.613 51.1566 228.057 48.8239C229.501 46.4913 235.759 45.5582 244.424 53.9558Z" fill="#151C35" stroke="#151C35" stroke-width="0.778875"/>
<path d="M221.319 74.4837C224.015 74.4837 225.972 76.6608 226.614 77.7494C226.935 75.7278 227.384 70.8447 226.614 67.4857C225.651 63.2869 229.502 64.6865 231.909 66.5526C234.316 68.4187 236.723 69.3518 236.723 67.0191C236.723 64.6865 234.797 61.4207 240.092 62.3538C245.387 63.2869 252.608 68.8853 252.608 71.6845C252.608 74.4837 252.608 82.4147 254.052 85.6805C255.496 88.9462 255.496 88.9462 252.608 89.8793C249.72 90.8123 249.72 96.4107 246.35 98.7434C242.98 101.076 236.723 99.6764 231.909 97.3438C228.058 95.4777 225.812 89.4127 225.17 86.6135C223.245 86.458 219.105 85.4005 217.95 82.4147C216.506 78.6825 217.95 74.4837 221.319 74.4837Z" fill="white" stroke="#151C35"/>
<path d="M223.389 77.5283C222.265 77.2173 220.019 77.3417 220.019 80.3275C220.019 83.3133 223.549 84.0598 225.314 84.0598" stroke="#151C35" stroke-width="0.778875" stroke-linecap="round"/>
<path d="M228.559 114.641C228.944 122.852 230.324 137.034 230.966 143.099C229.201 144.188 223.745 146.458 216.043 146.832C208.342 147.205 202.886 145.743 201.121 144.965C188.124 150.564 170.314 153.363 162.612 153.363C154.91 153.363 153.948 153.83 147.209 137.967C141.817 125.278 144.962 114.33 147.209 110.442C160.205 111.842 165.019 108.109 182.348 102.978C199.677 97.8456 204.972 93.1803 214.118 95.9795C223.264 98.7787 228.077 104.377 228.559 114.641Z" fill="#151C35" stroke="#151C35" stroke-width="0.778875"/>
<path d="M199.658 136.999C204.15 139.176 216.024 142.224 227.577 136.999" stroke="white" stroke-width="0.778875" stroke-linecap="round"/>
<path d="M132.748 171.523C133.212 167.922 134.349 162.105 136.266 156.127M145.263 138.866C141.277 143.115 138.322 149.714 136.266 156.127M136.266 156.127C138.623 155.816 144.878 154.168 151.039 150.063" stroke="#151C35" stroke-width="0.778875" stroke-linecap="round"/>
<path d="M199.177 143.997C198.214 143.375 196.289 141.945 196.289 141.198C196.289 140.265 198.214 116.939 201.584 107.608" stroke="white" stroke-width="0.778875" stroke-linecap="round"/>
<path d="M242.593 88.457C243.555 89.5456 246.347 91.7228 249.813 91.7228" stroke="#151C35" stroke-width="0.778875" stroke-linecap="round"/>
<path d="M241.055 73.0844C242.017 72.1513 244.809 70.4718 248.275 71.2182" stroke="#151C35" stroke-linecap="round"/>
<ellipse cx="246.35" cy="77.7497" rx="1.44408" ry="1.3996" fill="#151C35"/>
<path d="M163.353 129.613L170.676 135.891C171.521 135.618 173.774 134.69 179.407 134.253C185.04 133.816 188.89 134.708 190.955 135.072C193.02 132.16 197.377 126.391 198.278 126.61C199.179 126.828 198.654 133.98 198.278 137.529C199.217 138.894 201.32 143.261 202.221 149.813C203.348 158.002 201.376 168.648 203.348 177.656C204.925 184.863 209.262 193.762 211.234 197.31C209.882 198.839 207.854 199.221 207.009 199.221C203.629 200.313 193.02 200.768 188.139 200.859C186.918 201.405 184.308 202.442 183.632 202.224C182.956 202.006 181.473 201.223 180.816 200.859H168.141C157.439 200.859 154.059 199.221 148.426 199.221C142.793 199.221 125.894 201.951 117.162 203.862C108.431 205.773 103.362 206.865 102.798 203.862C102.235 200.859 102.798 198.675 112.938 195.127C121.049 192.288 135.658 188.484 141.948 186.937C139.131 157.456 152.087 118.421 153.777 117.329C155.467 116.237 163.353 116.237 163.353 117.329V129.613Z" fill="white" stroke="#151C35" stroke-linecap="round"/>
<path d="M192.082 181.751L197.715 191.032" stroke="#151C35" stroke-width="0.778875" stroke-linecap="round"/>
<path d="M163.353 129.613C162.695 129.067 161.268 127.975 160.818 127.975C160.367 127.975 161.569 135.618 162.226 139.44C161.099 142.625 158.846 151.342 158.846 160.732C158.846 170.122 162.789 178.476 164.761 181.478" stroke="#151C35" stroke-width="0.778875" stroke-linecap="round"/>
<path d="M180.815 200.859C178.468 198.948 172.591 193.434 167.859 186.665" stroke="#151C35" stroke-width="0.778875" stroke-linecap="round"/>
<path d="M188.443 201.22C189.194 200.856 190.753 199.965 190.978 199.309C191.203 198.654 185.063 185.934 181.965 179.655" stroke="#151C35" stroke-width="0.778875" stroke-linecap="round"/>
<path d="M186.447 189.394C192.174 190.213 203.966 191.905 205.318 192.124C207.008 192.397 207.571 192.397 207.571 194.308C207.571 196.218 207.289 198.402 207.008 199.221" stroke="#151C35" stroke-width="0.778875" stroke-linecap="round"/>
<path d="M145.608 186.665L149.833 188.575" stroke="#151C35" stroke-width="0.389437" stroke-linecap="round"/>
<path d="M148.143 185.573L147.017 190.214" stroke="#151C35" stroke-width="0.389437" stroke-linecap="round"/>
<path d="M153.214 191.304C152.463 190.486 151.186 188.193 152.087 185.572C153.214 182.296 157.157 181.477 159.41 182.569C161.213 183.443 161.851 185.299 161.945 186.118" stroke="#151C35" stroke-width="0.778875" stroke-linecap="round"/>
<path d="M161.945 187.757C161.945 188.758 161.212 190.978 158.283 191.851" stroke="#151C35" stroke-width="0.778875" stroke-linecap="round"/>
<path d="M152.65 184.48C151.711 184.298 149.721 183.333 149.27 180.931C148.707 177.929 150.96 176.018 153.213 175.745C155.466 175.472 158.565 176.837 158.283 180.385" stroke="#151C35" stroke-width="0.778875" stroke-linecap="round"/>
<path d="M177.717 149.376C177.942 149.594 179.876 151.104 180.815 151.832C181.942 151.013 183.913 149.649 184.195 149.376C184.64 148.944 182.787 148.284 180.815 148.284C178.844 148.284 177.435 149.103 177.717 149.376Z" fill="#151C35"/>
<path d="M180.815 150.632V154.454C181.19 155.091 182.449 156.419 184.476 156.638C186.504 156.856 187.95 156.001 188.42 155.546" stroke="#151C35" stroke-width="0.778875" stroke-linecap="round"/>
<path d="M180.815 154.453C180.064 155.727 177.604 157.783 173.774 155.818" stroke="#151C35" stroke-width="0.778875" stroke-linecap="round"/>
<ellipse cx="171.239" cy="142.989" rx="1.40826" ry="1.63785" fill="#151C35"/>
<ellipse cx="189.829" cy="142.989" rx="1.40826" ry="1.63785" fill="#151C35"/>
<path d="M170.675 135.891C169.924 136.164 168.197 136.819 167.295 137.256" stroke="#151C35" stroke-width="0.778875" stroke-linecap="round"/>
<path d="M190.955 135.072C191.893 135.345 193.996 136 194.898 136.437" stroke="#151C35" stroke-width="0.778875" stroke-linecap="round"/>
<path d="M163.635 150.085L169.268 148.174" stroke="#151C35" stroke-width="0.389437" stroke-linecap="round"/>
<path d="M197.996 150.085L192.363 148.174" stroke="#151C35" stroke-width="0.389437" stroke-linecap="round"/>
<path d="M167.578 151.997L170.395 149.813" stroke="#151C35" stroke-width="0.389437" stroke-linecap="round"/>
<path d="M194.053 151.997L191.236 149.813" stroke="#151C35" stroke-width="0.389437" stroke-linecap="round"/>
</svg>
