<svg width="156" height="107" viewBox="0 0 156 107" fill="none" xmlns="http://www.w3.org/2000/svg">
<path d="M103.494 1C99.1133 1 97.1055 5.92879 96.6492 8.39319C93.4551 5.92879 86.3823 1.68245 83.6444 4.41224C80.9065 7.14204 93.4551 14.2698 100.072 17.4925C103.038 11.995 107.874 1 103.494 1Z" fill="#FFCD00" stroke="#151C35" stroke-width="2" stroke-linejoin="round"/>
<path d="M104.643 29.7505C106.339 29.5534 107.443 31.3419 107.783 32.2607C108.857 31.1777 111.315 29.2409 112.556 30.1583C113.797 31.0757 109.409 34.3571 107.06 35.8831C105.548 33.921 102.946 29.9475 104.643 29.7505Z" fill="#FFCD00" stroke="#151C35" stroke-width="2" stroke-linejoin="round"/>
<path d="M103.153 24.2547C102.268 22.4916 98.0015 24.0682 96.4794 24.8142C96.4794 23.3222 96.0579 20.4503 94.3719 20.8979C92.6858 21.3455 93.6693 25.5601 94.3719 27.6115C98.0015 27.052 103.856 25.6534 103.153 24.2547Z" fill="#FFCD00" stroke="#151C35" stroke-width="2" stroke-linejoin="round"/>
<path d="M30.6806 54.8196C38.8524 60.1656 50.2345 66.2752 54.9041 68.6618L62.4922 52.433C60.6438 52.1148 55.4878 51.2397 49.6508 50.285C42.3546 49.0917 33.0154 44.7959 29.8051 41.6933C26.5948 38.5907 25.1355 36.2041 21.3415 37.1587C17.5475 38.1134 14.6289 38.8294 10.5431 38.1134C6.45717 37.3974 -0.25535 37.6361 1.20389 39.784C2.66314 41.9319 8.20826 43.8412 15.5045 46.2278C22.8007 48.6144 20.4659 48.1371 30.6806 54.8196Z" fill="white" stroke="#151C35"/>
<path d="M80.5868 99.2109C87.8247 98.2562 91.3852 93.2444 92.2608 90.8578C85.3537 87.3574 71.3644 81.025 70.664 83.698C69.7884 87.0392 65.4107 87.5165 56.6552 89.1872C47.8998 90.8578 44.6894 89.6645 42.6465 88.4712C40.6035 87.2779 37.1013 87.9938 34.1829 90.1418C31.2644 92.2897 23.6763 98.2562 23.9681 99.6882C24.26 101.12 25.4274 101.359 32.1399 99.6882C38.8524 98.0176 39.1443 97.3016 47.8997 98.2562C56.6552 99.2109 71.5395 100.404 80.5868 99.2109Z" fill="white" stroke="#151C35"/>
<path d="M123.78 90.8578C122.613 84.9391 122.126 76.2996 122.029 72.7197C127.671 71.8446 138.839 70.6195 138.372 72.7197C137.789 75.345 135.746 87.2779 135.454 90.8578C135.162 94.4377 134.87 96.8243 137.789 97.779C140.707 98.7336 148.295 100.643 147.42 101.836C146.544 103.029 127.574 103.029 125.823 102.314C124.072 101.598 125.239 98.2563 123.78 90.8578Z" fill="white" stroke="#151C35"/>
<path d="M78.2522 54.1042C83.8557 55.0589 88.9533 57.0477 90.8017 57.9228C93.3311 61.98 98.3314 70.6672 98.0979 72.9583C97.8644 75.2495 94.1093 85.846 92.2609 90.8578C80.12 91.2397 72.8044 86.2437 70.6641 83.698C71.3646 80.8341 71.7342 76.4587 71.8315 74.629C67.1619 73.6743 58.601 70.2535 54.9043 68.6625C56.3052 59.8798 60.5467 54.1838 62.4924 52.4336C65.4109 52.5927 72.6487 53.1496 78.2522 54.1042Z" fill="#FFCD00"/>
<path d="M71.8315 74.629C67.1619 73.6743 58.601 70.2535 54.9043 68.6625C56.3052 59.8798 60.5467 54.1838 62.4924 52.4336C65.4109 52.5927 72.6487 53.1496 78.2522 54.1042C83.8557 55.0589 88.9533 57.0477 90.8017 57.9228C93.3311 61.98 98.3314 70.6672 98.0979 72.9583C97.8644 75.2495 94.1093 85.846 92.2609 90.8578C80.12 91.2397 72.8044 86.2437 70.6641 83.698C71.3646 80.8341 71.7342 76.4587 71.8315 74.629ZM71.8315 74.629C71.637 70.4922 73.6994 61.7413 83.5055 59.832" stroke="#151C35" stroke-width="2"/>
<path d="M137.206 56.0128C138.84 53.3399 141.778 51.0805 143.043 50.285L139.832 43.6025C137.4 43.6025 132.419 43.8412 131.952 44.7958C131.485 45.7505 128.839 48.5348 127.575 49.8077C130.104 52.9898 135.571 58.6858 137.206 56.0128Z" fill="white" stroke="#151C35" stroke-width="0.778875"/>
<path d="M148.587 28.0899C152.79 31.5266 153.646 35.5679 153.549 37.159C149.658 38.8296 141.291 42.6481 138.956 44.5574C136.038 46.944 133.995 46.944 132.244 46.7054C130.493 46.4667 131.076 45.5121 130.201 44.5574C129.325 43.6028 127.574 43.8414 128.158 41.2162C128.742 38.5909 128.45 37.6363 127.574 36.6817C126.699 35.727 124.948 34.2951 127.574 32.6244C130.201 30.9538 129.034 30.7152 129.034 28.0899C129.034 25.4646 132.536 24.0327 135.454 25.4646C138.373 26.8966 137.789 26.6579 138.665 25.4646C139.54 24.2713 143.334 23.794 148.587 28.0899Z" fill="#151C35" stroke="#151C35" stroke-width="0.778875"/>
<path d="M134.579 38.5915C136.214 38.5915 137.4 39.7052 137.79 40.2621C137.984 39.2279 138.257 36.7299 137.79 35.0116C137.206 32.8636 139.541 33.5796 141 34.5343C142.459 35.4889 143.918 35.9662 143.918 34.7729C143.918 33.5796 142.751 31.909 145.961 32.3863C149.172 32.8636 153.549 35.7276 153.549 37.1595C153.549 38.5915 153.549 42.6487 154.425 44.3193C155.301 45.9899 155.301 45.9899 153.549 46.4672C151.798 46.9446 151.798 49.8085 149.755 51.0018C147.712 52.1951 143.918 51.4791 141 50.2858C138.665 49.3312 137.303 46.2286 136.914 44.7966C135.747 44.7171 133.237 44.1761 132.536 42.6487C131.661 40.7394 132.536 38.5915 134.579 38.5915Z" fill="white" stroke="#151C35"/>
<path d="M135.834 40.1488C135.153 39.9897 133.791 40.0533 133.791 41.5808C133.791 43.1082 135.931 43.49 137.001 43.49" stroke="#151C35" stroke-width="0.778875" stroke-linecap="round"/>
<path d="M138.969 59.1342C139.202 63.3347 140.039 70.5899 140.428 73.6925C139.358 74.2494 136.05 75.4108 131.381 75.6018C126.711 75.7927 123.403 75.0449 122.333 74.6471C114.453 77.5111 103.655 78.943 98.9853 78.943C94.3157 78.943 93.732 79.1817 89.6461 71.0672C86.3774 64.5757 88.2842 58.9751 89.6461 56.9863C97.526 57.7023 100.445 55.793 110.951 53.1678C121.458 50.5425 124.668 48.1559 130.213 49.5879C135.758 51.0198 138.677 53.8837 138.969 59.1342Z" fill="#151C35" stroke="#151C35" stroke-width="0.778875"/>
<path d="M121.446 70.5713C124.17 71.685 131.369 73.2443 138.373 70.5713" stroke="white" stroke-width="0.778875" stroke-linecap="round"/>
<path d="M80.8784 88.233C81.16 86.3908 81.8492 83.4154 83.0115 80.3573M88.4665 71.5269C86.0497 73.7008 84.2584 77.0766 83.0115 80.3573M83.0115 80.3573C84.4407 80.1982 88.233 79.3549 91.9687 77.2547" stroke="#151C35" stroke-width="0.778875" stroke-linecap="round"/>
<path d="M121.154 74.1521C120.571 73.8339 119.403 73.102 119.403 72.7201C119.403 72.2428 120.571 60.3098 122.614 55.5366" stroke="white" stroke-width="0.778875" stroke-linecap="round"/>
<path d="M147.478 45.7397C148.061 46.2966 149.754 47.4104 151.855 47.4104" stroke="#151C35" stroke-width="0.778875" stroke-linecap="round"/>
<path d="M146.545 37.8755C147.129 37.3982 148.821 36.539 150.923 36.9208" stroke="#151C35" stroke-linecap="round"/>
<ellipse cx="149.755" cy="40.2619" rx="0.875546" ry="0.71598" fill="#151C35"/>
<path d="M99.4349 66.7932L103.875 70.005C104.387 69.8654 105.753 69.3906 109.168 69.1671C112.584 68.9437 114.918 69.3999 116.17 69.5861C117.422 68.0965 120.063 65.1454 120.61 65.2571C121.156 65.3689 120.837 69.0275 120.61 70.8429C121.179 71.5411 122.454 73.7754 123 77.1268C123.683 81.3161 122.488 86.7622 123.683 91.3704C124.64 95.057 127.27 99.6094 128.465 101.425C127.645 102.207 126.416 102.402 125.903 102.402C123.854 102.961 117.422 103.194 114.462 103.24C113.722 103.519 112.14 104.05 111.73 103.938C111.32 103.827 110.421 103.426 110.022 103.24H102.338C95.8488 103.24 93.7996 102.402 90.3843 102.402C86.969 102.402 76.7231 103.799 71.4294 104.776C66.1357 105.754 63.0619 106.312 62.7204 104.776C62.3789 103.24 62.7204 102.123 68.8679 100.308C73.786 98.8553 82.643 96.9096 86.4567 96.1183C84.7491 81.0368 92.6043 61.0678 93.6288 60.5093C94.6534 59.9507 99.4349 59.9507 99.4349 60.5093V66.7932Z" fill="white" stroke="#151C35" stroke-linecap="round"/>
<path d="M116.853 93.4648L120.268 98.2127" stroke="#151C35" stroke-width="0.778875" stroke-linecap="round"/>
<path d="M99.4344 66.7934C99.0359 66.5141 98.1707 65.9556 97.8975 65.9556C97.6243 65.9556 98.3529 69.8656 98.7513 71.8206C98.0683 73.4498 96.7021 77.909 96.7021 82.7128C96.7021 87.5165 99.0929 91.7896 100.288 93.3257" stroke="#151C35" stroke-width="0.778875" stroke-linecap="round"/>
<path d="M110.022 103.24C108.599 102.262 105.035 99.4417 102.167 95.9785" stroke="#151C35" stroke-width="0.778875" stroke-linecap="round"/>
<path d="M114.647 103.425C115.102 103.239 116.047 102.783 116.184 102.447C116.32 102.112 112.598 95.6049 110.719 92.3931" stroke="#151C35" stroke-width="0.778875" stroke-linecap="round"/>
<path d="M113.437 97.375C116.909 97.7939 124.058 98.6597 124.878 98.7714C125.902 98.9111 126.244 98.9111 126.244 99.8886C126.244 100.866 126.073 101.983 125.902 102.402" stroke="#151C35" stroke-width="0.778875" stroke-linecap="round"/>
<path d="M88.6758 95.9785L91.2373 96.956" stroke="#151C35" stroke-width="0.389437" stroke-linecap="round"/>
<path d="M90.2128 95.4204L89.5298 97.7943" stroke="#151C35" stroke-width="0.389437" stroke-linecap="round"/>
<path d="M93.287 98.3522C92.8316 97.9333 92.0575 96.7603 92.604 95.4197C93.287 93.744 95.6777 93.3251 97.0438 93.8836C98.1367 94.3305 98.5238 95.2801 98.5807 95.699" stroke="#151C35" stroke-width="0.778875" stroke-linecap="round"/>
<path d="M98.5808 96.5376C98.5808 97.0496 98.1368 98.1854 96.3608 98.6322" stroke="#151C35" stroke-width="0.778875" stroke-linecap="round"/>
<path d="M92.945 94.8609C92.3758 94.7678 91.1691 94.2744 90.8959 93.0455C90.5543 91.5094 91.9204 90.5319 93.2866 90.3923C94.6527 90.2527 96.5311 90.9509 96.3603 92.7662" stroke="#151C35" stroke-width="0.778875" stroke-linecap="round"/>
<path d="M108.143 76.9033C108.28 77.015 109.453 77.7877 110.022 78.1601C110.705 77.7412 111.9 77.0429 112.071 76.9033C112.341 76.6825 111.217 76.3447 110.022 76.3447C108.826 76.3447 107.973 76.7637 108.143 76.9033Z" fill="#151C35"/>
<path d="M110.021 77.5459V79.5009C110.249 79.8267 111.012 80.5063 112.241 80.6181C113.471 80.7298 114.348 80.2922 114.632 80.0595" stroke="#151C35" stroke-width="0.778875" stroke-linecap="round"/>
<path d="M110.022 79.5005C109.567 80.1522 108.075 81.2041 105.753 80.1987" stroke="#151C35" stroke-width="0.778875" stroke-linecap="round"/>
<ellipse cx="104.216" cy="73.6357" rx="0.853825" ry="0.83786" fill="#151C35"/>
<ellipse cx="115.487" cy="73.6357" rx="0.853825" ry="0.83786" fill="#151C35"/>
<path d="M103.874 70.0049C103.419 70.1445 102.371 70.4797 101.825 70.7031" stroke="#151C35" stroke-width="0.778875" stroke-linecap="round"/>
<path d="M116.169 69.5859C116.739 69.7256 118.014 70.0607 118.56 70.2842" stroke="#151C35" stroke-width="0.778875" stroke-linecap="round"/>
<path d="M99.6055 77.2661L103.021 76.2886" stroke="#151C35" stroke-width="0.389437" stroke-linecap="round"/>
<path d="M120.438 77.2661L117.023 76.2886" stroke="#151C35" stroke-width="0.389437" stroke-linecap="round"/>
<path d="M101.996 78.2441L103.704 77.127" stroke="#151C35" stroke-width="0.389437" stroke-linecap="round"/>
<path d="M118.048 78.2441L116.34 77.127" stroke="#151C35" stroke-width="0.389437" stroke-linecap="round"/>
</svg>
