<svg width="172" height="52" viewBox="0 0 172 52" fill="none" xmlns="http://www.w3.org/2000/svg">
<g clip-path="url(#clip0_554_2957)">
<path d="M119.784 26.5711C119.481 31.5674 116.668 39.3507 107.836 30.5134C96.7967 19.4667 99.4205 39.9702 94.3298 27.2578C89.2391 14.5453 75.9828 -3.13817 70.4701 27.1524C64.9574 57.443 52.504 48.74 41.6157 24.487C33.4645 6.3308 14.0203 7.66994 1.07869 18.7151" stroke="#FFCD00" stroke-width="4.8782"/>
<path d="M118.419 16.7753L122.61 26.4158L171.555 16.1662L118.419 16.7753Z" fill="black"/>
<path d="M128.513 36.8354L137.957 41.7602L169.337 16.5881L128.513 36.8354Z" fill="black"/>
<path d="M171.554 16.1662L110.118 51.4978L116.565 26.6158L171.554 16.1662Z" fill="#FFCD00"/>
<path d="M118.418 16.7749L171.555 16.1658L121.523 0.327868L118.418 16.7749Z" fill="#FFCD00"/>
</g>
<defs>
<clipPath id="clip0_554_2957">
<rect width="172" height="52" fill="white"/>
</clipPath>
</defs>
</svg>
