<svg width="325" height="522" viewBox="0 0 325 522" fill="none" xmlns="http://www.w3.org/2000/svg">
<path d="M34.1982 21.2161C34.1025 21.1461 34.0265 21.0525 33.9776 20.9444C33.9288 20.8362 33.9087 20.7173 33.9194 20.599C33.93 20.4808 33.9708 20.3672 34.0382 20.2695C34.1055 20.1718 34.197 20.0932 34.3036 20.0414L63.1895 8.17618L64.0105 7.80576L64.8318 7.43538C71.2945 5.10413 79.3816 6.61935 87.9039 12.6145L199.77 91.7332C209.33 99.3026 216.98 109.019 222.102 120.099C227.223 131.178 229.673 143.31 229.253 155.515L223.077 224.336C222.088 235.35 217.58 242.791 211.042 245.954L210.749 245.928L171.087 262.106C170.942 263.721 170.325 264.554 169.26 264.902L168.918 264.872L162.514 267.652L139.838 277.805C139.838 277.805 128.13 223.908 128.2 223.125C128.27 222.342 141.521 209.123 141.521 209.123L163.137 237.658L147.021 207.643C142.549 198.863 136.125 191.23 128.243 185.332L86.7959 156.103C77.244 148.536 69.5996 138.827 64.4779 127.757C59.3562 116.687 56.9004 104.566 57.3083 92.3699L61.8723 41.5124L34.1982 21.2161Z" fill="#FFBE2E"/>
<path d="M188.958 155.155C188.569 156.748 188.148 157.599 187.079 157.996L186.737 157.965L180.332 160.746L157.652 170.948C157.652 170.948 143.732 153.218 143.807 152.386C143.882 151.554 160.433 131.723 160.433 131.723L181.027 131.055L104.96 76.0699C99.8934 66.6842 106.3 93.5095 98.9244 88.4561L57.9093 79.101L56.7979 91.485C56.3818 103.689 58.8334 115.82 63.9546 126.899C69.0759 137.977 76.7236 147.694 86.2814 155.266L127.973 184.518C135.847 190.421 142.284 198.033 146.804 206.784L162.916 236.849L141.25 208.309C141.25 208.309 128.005 221.479 127.93 222.311C127.855 223.143 139.568 276.991 139.568 276.991L162.292 266.842L168.648 264.057L168.99 264.088C170.055 263.74 170.476 262.889 170.865 261.296L210.479 245.114L210.772 245.14C217.305 242.026 221.863 234.589 222.855 223.527L229.067 154.313C229.462 149.227 229.193 144.11 228.266 139.093L188.958 155.155Z" fill="#FFCD00"/>
<path d="M138.826 279.786L138.518 278.279C126.778 224.182 126.844 223.447 126.888 222.958C126.932 222.468 127.002 221.685 140.576 208.15L141.601 207.156L154.375 223.944L145.923 208.383C141.479 199.83 135.159 192.397 127.439 186.642L85.9871 157.461C76.2561 149.756 68.4693 139.867 63.2545 128.591C58.0396 117.315 55.5429 104.968 55.9654 92.5456L60.4899 42.1286L33.4204 22.232C33.0922 22.0247 32.8345 21.7223 32.6819 21.3649C32.5293 21.0075 32.4888 20.612 32.5658 20.2309C32.615 19.8917 32.7542 19.5718 32.9687 19.3046C33.1832 19.0375 33.465 18.8328 33.7853 18.712L62.7289 6.75336L63.3458 6.46332L65.0858 5.7313C69.1671 4.80182 73.4064 4.82428 77.4769 5.797C81.5475 6.76972 85.3403 8.66667 88.5626 11.3414L200.428 90.4601C210.171 98.1543 217.966 108.041 223.182 119.32C228.398 130.598 230.888 142.951 230.45 155.376L224.274 224.197C223.316 234.868 219.114 242.731 212.431 246.424L211.148 247L172.103 262.888C171.978 263.576 171.678 264.22 171.233 264.759C170.788 265.298 170.212 265.714 169.561 265.966L163.21 268.702L138.826 279.786ZM129.438 223.631C129.964 226.54 136.4 255.786 140.674 276.202L168.711 263.916C169.275 263.67 169.537 263.496 169.926 261.903L169.983 261.266L210.183 245.137L210.525 245.168C216.911 242.04 220.963 234.755 221.876 224.574L228.105 155.165C228.536 143.187 226.15 131.276 221.139 120.395C216.128 109.514 208.632 99.967 199.258 92.5262L87.3214 13.6478C84.335 11.1213 80.7887 9.34694 76.9783 8.47284C73.168 7.59874 69.2043 7.6502 65.4172 8.6229L64.7025 8.90417L63.8856 9.22561L35.8165 20.7694L63.1618 40.888L58.5144 92.6756C58.0912 104.646 60.4818 116.547 65.4935 127.419C70.5052 138.292 77.9976 147.83 87.3661 155.266L128.813 184.495C136.842 190.505 143.403 198.264 148 207.188L164.112 237.252L161.968 238.639L141.237 211.219C136.033 216.525 130.502 222.197 129.438 223.631Z" fill="#101828" stroke="#101828" stroke-width="0.5" stroke-linejoin="round"/>
<path d="M57.0267 34.0707C54.0007 31.5325 50.4393 29.7155 46.6105 28.7565C42.7816 27.7976 38.7853 27.7216 34.9222 28.5344L63.253 16.8167C69.7158 14.4855 77.8032 16.0007 86.3255 21.9958L198.191 101.115C204.999 106.14 210.771 112.439 215.189 119.663L186.637 132.743C182.077 125.005 175.975 118.293 168.71 113.025L57.0267 34.0707Z" fill="white"/>
<path d="M58.7573 24.6535L170.623 103.772C180.195 111.331 187.854 121.046 192.976 132.128C198.099 143.21 200.542 155.347 200.106 167.554L193.93 236.375C191.927 258.696 175.488 266.3 157.194 253.408L151.68 249.558C147.37 246.556 143.567 248.336 143.084 253.721L141.186 274.866C140.637 280.985 134.495 280.286 130.906 273.648L105.612 226.279C101.108 217.505 94.6701 209.874 86.7855 203.964L45.3246 174.338C35.7512 166.776 28.0895 157.061 22.959 145.98C17.8285 134.899 15.3733 122.763 15.7922 110.552L21.9682 41.7306C23.9669 19.459 40.4641 11.7617 58.7573 24.6535Z" fill="#FFCD00"/>
<path d="M137.234 279.949C135.609 279.596 134.091 278.86 132.807 277.801C131.523 276.741 130.51 275.39 129.853 273.859L104.559 226.49C100.135 217.903 93.8391 210.423 86.1376 204.606L44.4415 175.404C34.7304 167.693 26.9661 157.801 21.7764 146.526C16.5866 135.252 14.1168 122.911 14.5663 110.501L20.7424 41.6797C21.7527 30.4216 26.3583 22.4466 33.7168 18.9128C41.0754 15.379 50.2197 17.1865 59.484 23.6923L171.35 102.811C181.076 110.474 188.87 120.319 194.105 131.553C199.34 142.787 201.87 155.096 201.491 167.49L195.315 236.312C194.305 247.57 189.699 255.545 182.292 259.075C174.884 262.604 165.789 260.801 156.573 254.3L151.064 250.4C150.472 249.864 149.752 249.491 148.974 249.318C148.195 249.144 147.385 249.176 146.622 249.41C145.942 249.837 145.386 250.437 145.011 251.148C144.636 251.86 144.455 252.658 144.486 253.462L142.588 274.607C142.632 275.789 142.272 276.95 141.57 277.901C140.867 278.851 139.862 279.533 138.722 279.836C138.235 279.956 137.733 279.994 137.234 279.949ZM43.4289 19.8831C40.4758 19.5872 37.4963 20.0682 34.7848 21.2784C28.2562 24.3439 24.0051 31.6599 23.0782 41.988L16.9109 110.712C16.4759 122.684 18.8614 134.589 23.874 145.463C28.8865 156.337 36.3852 165.874 45.7626 173.302L87.1612 202.527C95.2172 208.542 101.795 216.322 106.392 225.273L131.69 272.593C133.589 276.119 136.162 277.633 137.716 277.328C139.269 277.023 139.472 275.315 139.56 274.336L141.457 253.19C141.456 251.944 141.789 250.721 142.423 249.649C143.056 248.577 143.966 247.696 145.057 247.098C146.22 246.654 147.481 246.529 148.709 246.734C149.936 246.94 151.087 247.469 152.043 248.268L157.553 252.167C165.977 258.153 174.255 259.735 180.78 256.719C187.304 253.702 191.555 246.386 192.482 236.058L198.658 167.236C199.082 155.259 196.692 143.351 191.681 132.471C186.671 121.591 179.179 112.043 169.811 104.597L57.9451 25.4786C53.6578 22.3663 48.6469 20.4049 43.3888 19.7808L43.4289 19.8831Z" fill="#101828" stroke="#101828" stroke-width="0.5" stroke-linejoin="round"/>
<path d="M221.832 229.326L192.152 241.651L193.127 244.012L222.808 231.687L221.832 229.326Z" fill="#101828" stroke="#101828" stroke-width="0.5" stroke-linejoin="round"/>
<path d="M205.241 95.1421L175.563 107.472L176.539 109.833L206.217 97.5026L205.241 95.1421Z" fill="#101828" stroke="#101828" stroke-width="0.5" stroke-linejoin="round"/>
<path d="M228.716 138.542L199.033 150.862L200.008 153.223L229.691 140.903L228.716 138.542Z" fill="#101828" stroke="#101828" stroke-width="0.5" stroke-linejoin="round"/>
<path d="M100.665 156.311L101.209 150.241C101.28 146.638 102.453 143.144 104.57 140.23C106.985 137.923 110.214 136.669 113.549 136.743C116.082 136.761 118.582 136.173 120.843 135.029C121.67 134.443 122.341 133.664 122.8 132.76C123.259 131.855 123.491 130.852 123.475 129.838C123.596 127.639 122.976 125.463 121.715 123.66C120.296 121.365 118.409 119.396 116.177 117.883C109.954 113.679 102.675 111.315 95.1724 111.064L88.8743 86.321C100.057 86.7628 110.831 90.641 119.736 97.4294C127.77 102.91 134.446 110.159 139.254 118.622C143.473 125.813 145.374 134.134 144.699 142.45C144.63 147.004 143.021 151.4 140.133 154.918C136.976 157.755 132.894 159.337 128.655 159.365C125.848 159.352 123.068 159.908 120.482 161C119.852 161.494 119.344 162.126 118.997 162.848C118.651 163.57 118.475 164.362 118.483 165.163L118.163 168.737L100.665 156.311ZM96.0026 179.182C96.3935 174.826 97.7096 172.23 99.9555 171.346C102.201 170.462 105.364 171.437 109.545 174.23C113.185 176.7 116.123 180.075 118.071 184.025C119.884 187.795 120.632 191.992 120.232 196.159C119.848 200.434 118.488 202.977 116.15 203.787C114.545 204.1 112.889 204.024 111.32 203.566C109.75 203.108 108.314 202.28 107.129 201.151C103.495 198.662 100.531 195.311 98.5009 191.397C96.5187 187.649 95.6516 183.41 96.0026 179.182Z" fill="white"/>
<path d="M107.997 199.7C105.363 199.29 102.881 198.2 100.796 196.537C97.0273 193.913 93.9605 190.402 91.8652 186.311C89.8254 182.336 88.963 177.858 89.3794 173.407C89.8187 168.512 91.4587 165.6 94.1662 164.511C96.0474 164.116 97.9958 164.186 99.844 164.712C101.692 165.239 103.385 166.208 104.777 167.535C108.565 170.156 111.634 173.689 113.703 177.81C115.52 181.786 116.232 186.18 115.762 190.528C115.332 195.325 113.692 198.237 110.842 199.264C109.932 199.6 108.965 199.748 107.997 199.7ZM96.7793 166.67C96.1767 166.592 95.5639 166.655 94.9898 166.854C93.2499 167.586 92.16 169.857 91.8218 173.626C91.4407 177.609 92.2089 181.617 94.0353 185.174C95.9754 188.896 98.8015 192.082 102.263 194.448C105.547 196.815 108.181 197.644 110.116 196.929C112.051 196.215 113.031 194.082 113.365 190.362C113.739 186.437 113.038 182.485 111.338 178.93C109.473 175.189 106.672 171.996 103.207 169.664C101.349 168.142 99.1387 167.112 96.7793 166.67ZM113.98 165.401L93.9267 151.265L94.5373 144.462C94.6096 140.59 95.8938 136.839 98.2081 133.738C99.4921 132.427 101.029 131.392 102.726 130.696C104.422 129.999 106.242 129.657 108.075 129.689C110.392 129.717 112.682 129.195 114.76 128.168C115.409 127.678 115.933 127.042 116.29 126.31C116.646 125.579 116.825 124.774 116.812 123.96C116.903 122.012 116.348 120.089 115.235 118.49C113.884 116.363 112.124 114.527 110.057 113.091C104.059 108.955 97.0121 106.612 89.7359 106.333L88.8566 106.254L81.899 78.9844L83.5596 79.1334C94.9343 79.7027 105.861 83.7483 114.87 90.7263C123.059 96.2917 129.875 103.653 134.802 112.252C139.198 119.684 141.226 128.283 140.616 136.902C140.511 141.742 138.773 146.403 135.687 150.128C132.335 153.224 127.945 154.944 123.387 154.945C120.797 154.934 118.228 155.424 115.822 156.388C115.348 156.778 114.969 157.271 114.714 157.829C114.459 158.388 114.335 158.998 114.351 159.612L113.98 165.401ZM96.5987 150.025L111.879 160.821L112.007 159.401C112.008 158.409 112.242 157.431 112.689 156.545C113.136 155.66 113.784 154.892 114.581 154.303C117.319 152.984 120.331 152.341 123.367 152.427C127.282 152.452 131.071 151.036 134.015 148.448C136.69 145.129 138.171 141.002 138.218 136.737C138.771 128.633 136.87 120.551 132.765 113.549C127.992 105.314 121.442 98.2521 113.594 92.8815C105.301 86.6042 95.3867 82.8379 85.0234 82.028L90.7109 104.249C98.12 104.58 105.298 106.93 111.471 111.047C113.809 112.669 115.799 114.743 117.325 117.148C118.741 119.21 119.436 121.684 119.303 124.184C119.293 125.387 118.996 126.57 118.438 127.636C117.88 128.701 117.077 129.618 116.094 130.31C113.645 131.556 110.939 132.209 108.193 132.216C106.699 132.158 105.207 132.399 103.807 132.926C102.407 133.453 101.126 134.255 100.039 135.284C98.1379 137.999 97.0938 141.223 97.0417 144.538L96.5987 150.025Z" fill="#101828" stroke="#101828" stroke-width="0.5" stroke-linejoin="round"/>
<g clip-path="url(#clip0_503_1354)">
<path d="M30.9778 233.546C29.8673 234.425 28.347 235.158 27.6332 235.158C24.9231 235.158 21.5785 237.65 21.1026 240.062C20.8646 241.341 19.6616 243.1 18.3925 243.993C17.1234 244.952 15.6824 247.204 14.8892 249.456C14.1753 251.548 12.893 254.679 12.0205 256.518C8.91383 263.181 10.9893 268.884 16.4095 268.884C17.6786 268.884 19.9921 269.284 21.433 269.844C23.5086 270.563 24.6984 270.643 26.6152 269.844C28.7701 269.044 29.3253 269.124 31.3215 270.723C33.0798 272.175 33.5557 273.135 33.5557 275.787C33.635 278.838 33.4764 279.158 31.2422 279.558C27.263 280.437 19.0535 284.621 15.3783 287.833C11.8751 290.884 7.24812 297.387 4.85532 302.69C0.149048 312.977 1.43138 327.675 7.64472 336.669C9.64092 339.481 11.9544 341.973 12.589 341.973C12.8269 341.973 13.5408 342.532 14.1886 343.172C14.9024 343.812 16.1848 344.371 17.0573 344.371C18.4982 344.371 18.5776 344.771 18.2471 347.742C18.0884 349.675 17.1366 354.645 16.1715 358.829C11.5446 379.23 8.27927 417.473 8.19995 452.092C8.12063 472.013 7.96199 471.293 12.9062 471.293H15.2197L13.9506 475.144C13.2367 477.236 12.4303 479.315 12.0337 479.728C11.7164 480.208 11.1612 483.02 10.8439 485.991C10.2094 492.574 9.97141 492.414 21.7635 492.494C33.0004 492.574 32.8418 492.734 33.3177 480.927C33.635 472.413 34.3489 469.841 36.1071 470.974C37.7067 471.933 38.2619 467.762 38.6585 452.252C38.9758 442.857 39.5311 432.89 39.9277 430.159C40.4036 427.347 41.1174 421.644 41.6859 417.473C43.6028 400.763 45.5858 387.265 47.106 379.883C47.1854 379.803 47.5026 379.723 47.8199 379.723C48.7717 379.723 53.1608 394.74 54.7471 403.335C55.6196 408.079 55.9369 412.17 55.6196 415.381C54.2712 428.32 51.2306 445.096 47.6481 458.834C45.7312 466.31 45.6519 466.949 46.9342 467.909C48.124 468.788 48.2033 469.441 47.3308 473.532C45.2553 483.486 46.6962 491.441 50.7547 492.494C51.6272 492.734 59.7575 492.973 68.7602 492.973C86.7657 492.973 88.5239 492.574 87.4928 488.723C86.5409 484.712 83.3549 482.06 77.287 480.128C68.6809 477.316 67.8877 476.677 67.8877 472.013C67.8877 468.482 68.0463 468.082 69.7253 468.082C70.6771 468.082 71.8801 467.762 72.356 467.442C73.2285 466.883 74.9868 461.819 77.0623 454.024C77.7762 451.372 78.8205 447.361 79.4551 445.189C80.0896 442.937 80.8035 439.726 81.134 437.954C81.372 436.182 81.9272 434.343 82.2445 433.943C82.6411 433.463 83.117 431.291 83.4343 429.119C83.7515 426.867 84.3068 424.695 84.6241 424.296C85.8932 422.603 87.3341 410.237 87.3341 400.603C87.3341 391.049 86.065 381.002 84.5447 379.403C84.1481 378.923 83.8309 377.871 83.8309 376.991C83.8309 376.032 83.3549 374.339 82.7204 373.14C82.0858 371.941 81.372 369.849 81.0415 368.476C80.711 367.104 80.0103 365.025 79.3625 363.813C78.7148 362.6 78.2521 361.081 78.2521 360.441C78.2521 359.802 77.6968 358.509 77.0623 357.71C76.4277 356.83 75.8725 355.378 75.8725 354.418C75.8725 353.459 75.6345 352.406 75.3173 352.086C74.5241 351.287 71.8933 344.211 71.8933 342.932C71.8933 342.212 72.4485 342.053 73.4929 342.372C76.203 343.252 81.2265 341.973 83.3682 339.961C84.4786 338.921 86.2369 336.509 87.1887 334.577C88.7883 331.526 88.9866 325.503 89.0263 321.479C89.0924 313.044 88.7883 311.192 87.0301 307.021C85.9196 304.369 84.8752 302.037 84.6373 301.797C84.3993 301.557 83.5268 300.025 82.7204 298.426C80.9622 294.895 76.322 290.617 75.4627 289.458C74.4976 288.179 69.831 284.728 69.527 284.475C67.6233 282.862 58.1711 278.505 54.0333 277.785C50.6886 277.146 48.8511 276.013 48.7718 274.494C48.7718 274.254 50.4507 273.535 52.513 272.962C54.5092 272.322 56.8227 271.189 57.6952 270.31C58.4884 269.51 60.088 268.857 61.1984 268.857C62.3882 268.857 63.9878 268.058 64.8603 267.085C66.1294 265.553 66.3806 264.513 65.9708 260.822C65.6535 258.411 65.3363 255.119 65.2569 253.587C64.9397 249.163 63.9878 246.924 61.0398 244.193C59.5063 242.78 58.3165 240.941 58.3165 240.048C58.3165 238.356 54.8132 235.958 52.3411 235.958C51.6272 235.958 50.107 235.078 48.9172 233.946C46.4451 231.614 44.2902 231.374 41.7388 233.226C40.1392 234.345 39.8219 234.345 38.2355 233.226C35.8427 231.534 33.4499 231.614 30.9778 233.546ZM38.7907 235.718C39.8219 237.077 39.9012 237.077 41.3422 235.718C43.5763 233.786 47.7142 233.866 48.3487 235.958C48.7453 237.157 49.5385 237.57 51.5347 237.57C54.3241 237.57 57.5101 240.062 57.5101 242.234C57.5101 242.793 58.7792 244.486 60.2995 245.925C62.6923 248.257 63.0889 249.136 63.0889 252.188C63.0889 254.2 63.6441 257.411 64.2787 259.25C64.9132 261.089 65.4684 262.941 65.4684 263.181C65.4684 264.713 61.9652 267.272 59.969 267.272C58.7792 267.272 57.1003 267.991 56.3864 268.804C54.3902 270.976 50.3317 272.415 50.3317 270.896C50.3317 270.257 50.7283 269.537 51.2042 269.284C51.6801 268.964 52.9625 266.552 54.0729 263.98C55.4213 260.769 56.545 259.237 57.4969 259.237C58.2901 259.237 59.3344 258.677 59.8897 258.037C61.0795 256.585 60.3656 254.426 58.7792 254.426C58.1446 254.426 57.1796 253.387 56.6244 252.094C55.7518 250.242 55.1041 249.763 53.2004 249.763C51.6801 249.842 50.3317 249.203 49.4592 248.15C48.5867 246.951 47.225 246.378 45.4007 246.378C42.1354 246.378 40.7737 245.179 40.7737 242.207C40.7737 239.076 39.5046 239.396 38.8568 242.767C38.2091 246.138 35.2743 248.63 31.0439 249.269C29.365 249.589 28.0165 250.069 28.0165 250.389C28.0165 251.428 22.8344 254.4 21.01 254.4C19.3311 254.4 19.3311 254.48 20.6927 256.812C21.4066 258.091 22.6889 259.223 23.4821 259.223C24.2753 259.223 25.2404 260.183 25.7163 261.395C26.1922 262.675 26.9061 264.287 27.3952 265.086C28.9948 268.298 23.1781 270.47 20.7853 267.578C20.1507 266.779 19.027 266.459 17.6786 266.779C14.8892 267.258 12.0998 265.326 12.0998 262.928C12.0998 260.676 14.096 255.532 15.2858 254.813C15.6824 254.573 16.079 253.04 16.079 251.601C16.079 248.63 19.7409 243.966 22.0544 243.966C22.8476 243.966 23.2442 243.247 23.2442 241.794C23.2442 238.823 25.399 236.73 28.4264 236.73C30.026 236.73 31.2158 236.251 31.533 235.531C32.1808 233.786 37.5084 233.946 38.7907 235.718ZM44.7661 247.844C46.3657 248.084 48.1108 248.963 48.9833 250.096C49.7765 251.135 51.2174 252.028 52.1693 252.028C54.0068 252.028 58.6206 256.279 57.748 257.171C57.4308 257.411 56.4789 257.651 55.5139 257.651C54.0729 257.651 53.597 258.211 53.2797 260.383C52.0899 267.858 45.5461 272.748 37.905 271.869C33.3574 271.389 29.4575 267.445 28.1091 262.155C27.4745 259.423 26.84 258.544 25.4783 258.304C22.8476 257.984 22.6096 255.412 25.1611 254.773C26.1922 254.533 27.7125 253.653 28.5057 252.761C29.2196 251.961 30.5019 251.228 31.2158 251.228C33.0533 251.228 37.8257 248.816 38.6321 247.457C39.108 246.738 39.8219 246.498 40.6283 246.898C41.4215 247.204 43.2458 247.604 44.7661 247.844ZM47.9521 276.759C47.9521 283.995 42.294 287.366 37.9843 282.782C36.464 281.09 35.9881 279.651 35.9881 277.159V273.708H40.2053C42.4394 273.708 44.9115 273.388 45.5461 272.908C47.0796 271.949 47.9521 273.308 47.9521 276.759ZM57.1135 284.634C56.241 285.274 54.5621 286.087 53.3723 286.327C51.4554 286.727 51.1381 287.206 51.1381 289.298C51.1381 290.751 50.7415 292.27 50.1863 292.829C48.8378 294.189 45.1627 294.029 43.9729 292.59C42.7831 291.137 41.2629 291.057 39.8351 292.43C36.7284 295.561 32.8286 293.549 32.8286 288.978C32.8286 286.647 32.7493 286.567 28.8494 286.567C23.4292 286.567 23.7465 285.207 29.246 284.794C33.635 284.555 33.9523 284.794 33.7143 287.526C33.4764 289.698 35.1553 292.19 36.821 292.19C37.6142 292.19 39.0551 291.23 39.9277 290.098L41.6066 287.926L43.6028 290.098C45.7576 292.43 48.0711 292.829 49.6575 290.897C50.4507 289.938 50.4507 289.285 49.7368 288.086C47.9786 285.274 48.547 284.315 52.0503 284.315C53.8878 284.235 55.5535 284.075 55.7915 283.835C56.0295 283.595 56.7433 283.355 57.4704 283.355C58.4751 283.435 58.3958 283.675 57.1135 284.634ZM64.9264 305.275C66.1162 307.127 67.4779 310.099 67.9538 311.858C69.0643 316.362 71.3777 318.84 74.8017 319.413C76.4013 319.653 77.829 320.373 78.067 321.025C78.3843 321.905 77.9084 321.985 75.7535 321.505C74.2332 321.185 72.0916 320.786 70.8886 320.786C69.6195 320.706 68.8131 320.306 68.9717 319.906C69.1304 319.426 68.5751 317.734 67.7819 316.135C66.9094 314.443 66.2616 312.524 66.2616 311.711C66.2616 310.912 64.9925 308.34 63.4722 305.928C60.3656 301.184 60.2863 300.944 61.714 301.504C62.2957 301.664 63.7366 303.436 64.9264 305.275ZM19.5823 312.671C18.9477 316.362 19.5823 318.853 22.1337 321.825C25.2404 325.596 29.8673 325.196 40.2978 320.213C43.3252 318.76 44.7661 318.853 44.7661 320.373C44.7661 320.772 44.2109 321.092 43.497 321.092C42.8625 321.092 40.7869 321.812 38.8701 322.625C27.5539 327.848 20.5473 326.396 18.3925 318.374C17.52 315.003 18.0752 309.859 19.3443 309.859C19.8202 309.859 19.8995 310.978 19.5823 312.671ZM61.5025 315.882C61.8198 318.933 61.5818 320.626 60.392 322.864C59.1229 325.356 59.0436 326.236 59.7575 327.928C61.3571 331.459 60.9473 332.099 56.9681 332.592C54.8132 332.832 52.9096 332.832 52.5791 332.672C52.3411 332.512 52.5791 330.979 53.2136 329.3C54.5621 325.929 53.6895 321.905 51.614 321.905C50.1731 321.905 49.5385 320.133 49.5385 315.882C49.5385 312.671 49.6971 312.351 51.7727 312.031C52.9625 311.871 55.5139 311.711 57.5101 311.791L61.0927 311.871L61.5025 315.882ZM66.6847 323.997C64.7678 326.969 62.8641 329.141 62.137 329.141C61.1059 329.141 61.4232 323.917 62.4543 322.878C63.0096 322.318 64.4505 321.918 65.7196 321.918C68.0331 321.905 68.0331 321.905 66.6847 323.997ZM51.4554 323.917C52.4865 324.717 52.8038 325.609 52.4072 327.048C51.7727 329.78 50.649 329.7 49.1419 326.729C47.0796 322.704 48.1901 321.425 51.4554 323.917ZM49.869 337.162C50.4242 337.162 51.3893 336.683 51.9445 336.043C52.4204 335.403 54.1787 334.684 55.7651 334.511C57.3647 334.351 59.1097 334.191 59.5063 334.111C59.9822 334.031 62.4543 336.123 65.1644 338.615C69.1436 342.386 70.3466 344.158 71.8537 348.409C72.8055 351.3 74.0878 354.672 74.5637 356.044C75.8328 359.095 77.0358 362.467 79.5873 370.102C80.6978 373.393 81.9008 376.845 82.2974 377.737C82.694 378.617 83.4078 380.949 83.897 382.961C87.1623 396.619 87.083 404.401 83.421 421.111C82.7072 424.162 81.8214 428.346 81.4248 430.345C81.0282 432.357 80.1557 435.729 79.508 437.98C76.4013 448.587 75.8461 450.666 75.8461 451.959C75.8461 453.411 73.8499 459.834 72.1842 463.845L71.0737 466.496H59.5063H47.8728L48.3487 463.445C48.666 461.832 49.3799 458.861 49.9483 456.862C50.5036 454.85 51.5479 450.519 52.1825 447.228C52.817 443.937 53.8614 439.193 54.3373 436.781C54.8926 434.369 55.7783 427.627 56.3335 421.844C57.6819 407.146 56.5715 399.671 50.5961 380.962C49.1551 376.618 48.9172 370.915 49.9615 365.465C50.3581 363.373 50.2788 362.094 49.8029 362.094C49.327 362.094 48.6131 364.186 48.124 366.677C47.6481 369.249 46.683 374.073 45.9691 377.364C44.1316 386.199 42.4659 396.646 41.2629 406.68C40.6283 411.503 39.9144 416.074 39.6633 416.727C39.4253 417.366 38.7114 426.441 37.9843 436.808C37.2572 447.175 36.5434 458.661 36.2261 462.272L35.7502 468.935H22.755H9.70702V460.26C9.78634 442.511 11.3066 406.36 12.4964 395.833C14.4926 378.484 16.079 366.837 17.3613 361.934C17.9959 359.362 18.4718 356.71 18.4718 355.991C18.4718 355.271 19.027 352.779 19.7409 350.367L20.9307 346.023H25.8749C28.585 345.944 32.4055 345.544 34.4017 344.984M26.1922 482.153C27.8711 483.606 28.1091 484.086 27.144 484.165C26.4302 484.165 25.3858 483.606 24.8306 482.966C23.6408 481.514 16.7797 481.354 15.4312 482.726C14.9553 483.206 14.2414 483.446 13.9109 483.126C12.8005 482.007 16.621 480.235 20.2036 480.155C23.0855 480.141 24.4472 480.621 26.1922 482.153Z" fill="#020203"/>
<path d="M40.4565 256.199C39.346 258.691 40.2185 262.062 42.2147 262.302C44.1316 262.621 44.6075 261.262 42.8493 260.609C42.2147 260.369 41.5801 258.917 41.4083 257.478C41.1836 255.479 40.9456 255.159 40.4565 256.199Z" fill="#020203"/>
<path d="M38.394 266.073C38.394 266.952 39.2666 267.272 41.6594 267.272C43.4969 267.272 44.6867 266.952 44.3694 266.472C44.1315 266.073 43.4176 265.913 42.7698 266.153C42.2146 266.393 40.9323 266.233 40.0597 265.673C38.7113 264.953 38.394 265.033 38.394 266.073Z" fill="#020203"/>
<path d="M54.8924 314.749C53.2135 315.709 53.1342 317.321 54.7338 318.68C55.7649 319.56 56.1747 319.56 56.9679 318.68C57.6818 317.881 57.6818 317.561 56.8886 317.321C56.1747 317.001 56.0954 316.682 56.73 315.869C57.8405 314.51 56.6374 313.79 54.8924 314.749Z" fill="#020203"/>
<path d="M34.3753 280.65C33.7804 281.37 27.9637 281.743 24.9231 284.035C21.8825 286.327 13.0913 288.925 7.60508 301.291C2.11883 313.657 3.04422 319.493 5.45024 326.382C7.85626 333.271 9.89212 338.242 17.3349 341.146C24.7777 344.051 34.1374 343.505 40.6283 340.027C47.1193 336.549 51.191 333.285 51.191 333.285C51.191 333.285 45.3346 329.167 45.5065 323.73C45.6783 318.294 46.4054 313.03 47.9654 311.551C49.5121 310.059 56.6376 310.032 57.8803 309.872C59.1229 309.699 63.2079 308.327 63.3269 311.551C63.4458 314.776 63.2872 320.586 64.5695 320.466C65.8519 320.346 69.831 318.28 69.527 321.918C69.2229 325.556 65.3363 329.061 64.5695 330.513C63.8028 331.965 62.613 333.258 63.3269 334.124C64.0407 334.99 69.9236 340.733 74.9736 340.04C80.0103 339.348 84.4919 338.988 86.2766 326.755C88.0612 314.536 85.4173 306.181 81.5835 300.252C77.7497 294.322 68.9717 285.447 63.4591 283.355C57.9331 281.263 50.3714 279.198 50.3714 279.198C50.3714 279.198 50.7415 285.807 46.1807 286.873C41.6198 287.939 39.0948 287.18 36.5698 284.888C34.0184 282.582 34.3753 280.65 34.3753 280.65Z" fill="#FFCD08"/>
<path d="M19.3441 309.859C19.3441 309.859 21.38 308.473 21.1685 311.538C20.957 314.603 20.1902 319.666 22.1335 321.825C24.0769 323.984 24.0769 326.582 34.0314 322.904C43.986 319.227 43.4836 317.121 45.4931 316.828C47.5025 316.535 46.9869 317.867 46.9869 317.867C46.9869 317.867 47.7272 319.24 44.766 320.372C41.8047 321.505 41.2759 321.772 37.7859 323.104C34.2958 324.437 29.3912 327.728 23.3762 325.889C21.0892 325.196 17.9032 321.412 17.9693 317.294C18.0354 313.19 18.075 313.883 18.075 313.883L19.3441 309.859Z" fill="#020203"/>
<path d="M60.4316 301.291C60.4316 301.291 63.7102 303.983 65.4816 309.486C67.2531 314.989 68.2181 315.722 68.8527 318.813C69.5005 321.918 71.8801 320.759 73.8102 321.132C75.7403 321.505 77.9348 319.653 78.067 321.025C78.1992 322.398 81.9139 319.133 77.1151 318.773C72.3163 318.414 72.5939 321.812 70.2804 316.841C67.967 311.871 66.6185 306.648 64.0274 302.437C62.7319 300.318 60.8415 299.652 60.8415 299.652L60.4316 301.291Z" fill="#020203"/>
<path d="M24.9233 285.967C24.9233 285.967 26.6947 284.741 30.6475 284.874C34.6134 285.008 33.3443 285.86 34.2433 288.645C35.1555 291.43 35.2216 292.83 36.7815 292.19C38.3414 291.55 41.5671 287.939 41.5671 287.939C41.5671 287.939 43.5633 290.111 45.4802 291.657C47.5293 293.296 49.5255 293.722 49.6048 290.911C49.6841 288.099 47.9259 286.087 48.9438 284.888C49.9617 283.688 51.3762 284.621 53.5575 284.235C55.7388 283.848 57.735 282.076 57.4177 283.369C57.1004 284.648 57.0211 284.568 53.3592 286.34C49.6973 288.112 51.7861 288.872 50.9796 290.857C50.1732 292.843 49.5122 294.548 45.4802 293.962C41.4481 293.376 42.5982 290.551 39.8089 292.443C37.0195 294.335 34.9572 294.695 34.9572 294.695C31.2953 294.295 33.622 291.737 32.7891 288.979C31.9562 286.22 32.7891 286.46 29.9204 286.46C27.0517 286.46 27.2235 287.06 24.9101 287.18C22.5966 287.3 24.9233 285.967 24.9233 285.967Z" fill="#020203"/>
<path d="M35.6973 256.945C35.7766 255.719 35.2743 254.04 34.177 254.226C33.0798 254.413 32.5113 256.772 33.1459 257.171C33.7804 257.584 35.6973 256.945 35.6973 256.945Z" fill="#020203"/>
<path d="M48.0054 256.399C48.0847 255.173 47.5824 253.494 46.4851 253.68C45.3879 253.867 44.8194 256.225 45.454 256.625C46.0753 257.038 48.0054 256.399 48.0054 256.399Z" fill="#020203"/>
</g>
<path fill-rule="evenodd" clip-rule="evenodd" d="M245.022 443.786C244.805 446.051 245.248 448.213 246.305 450.042L246.649 450.636L245.994 450.865C244.804 451.282 243.48 451.485 241.947 451.485C240.369 451.485 238.728 451.265 237.409 451.088L236.565 450.975L236.98 450.241C237.313 449.651 237.375 448.937 237.441 448.18C237.458 447.977 237.476 447.767 237.5 447.559C238.749 436.385 240.328 425.065 241.856 414.118C242.258 411.238 242.673 408.259 243.076 405.329L244.232 405.373C244.544 410.797 244.845 416.312 245.137 421.646C245.266 423.991 245.394 426.336 245.524 428.681C245.985 434.61 245.826 439.411 245.022 443.786M244.55 510.792C246.248 510.792 247.95 510.615 249.607 510.266C254.793 509.177 259.505 506.606 263.514 504.283C263.719 504.167 263.927 504.05 264.14 503.931C265.71 503.052 267.663 501.959 268.887 500.625C270.23 499.162 270.461 497.704 269.614 496.036L269.48 495.772L269.62 495.512C270.497 493.879 270.432 491.858 269.462 490.598L268.647 489.539L269.987 489.682C271.339 489.825 272.701 490.02 274.019 490.208C275.48 490.417 276.992 490.632 278.481 490.777L278.895 490.817L278.99 491.216C279.043 491.438 279.108 491.573 279.568 491.573C279.966 491.573 280.501 491.456 281.068 491.333C281.771 491.179 282.568 491.006 283.336 491.006C283.674 491.006 283.978 491.038 284.266 491.104L284.433 491.143L284.552 491.265C284.628 491.343 284.758 491.391 284.89 491.391C284.99 491.391 285.083 491.363 285.145 491.315L285.333 491.168L285.571 491.194C289.722 491.65 293.301 492.45 296.512 493.641L296.527 493.646L296.597 493.676C297.758 494.178 298.959 494.696 300.052 494.696C300.851 494.696 301.5 494.424 302.095 493.84L302.263 493.675L302.5 493.673C304.904 493.651 306.003 490.845 306.155 488.965L306.174 488.728L306.357 488.574C310.547 485.055 313.021 480.222 313.92 473.799C314.738 467.949 314.11 461.78 313.387 456.518C311.715 442.88 309.971 430.654 305.538 419.059L305.331 418.517L305.883 418.318C307.798 417.63 309.261 416.808 310.356 415.807L310.432 415.738L310.528 415.698C312.098 415.053 312.867 412.67 313.065 411.955L313.081 411.897L313.109 411.844C313.429 411.229 313.503 410.374 313.312 409.497L313.291 409.402L313.303 409.306C313.406 408.474 313.063 407.604 312.699 406.683C312.533 406.262 312.362 405.827 312.236 405.393C311.805 404.155 311.374 402.895 310.957 401.676C310.022 398.941 309.055 396.113 308.025 393.362L307.885 392.986L308.195 392.726C308.725 392.283 308.548 391.762 307.784 390.516C307.603 390.222 307.433 389.943 307.303 389.669C306.324 387.976 305.274 386.35 304.183 384.838L304.161 384.806L304.143 384.773C298.544 374.31 288.614 368.547 276.18 368.547L275.927 368.548L275.787 368.464C273.456 367.061 271.793 364.655 270.701 361.108L270.666 360.995L270.68 360.877C270.717 360.55 270.758 360.122 270.744 359.706C270.708 358.652 270.296 357.712 269.612 357.127C268.315 356.016 266.345 355.923 264.439 355.923L264.165 355.923C261.728 355.93 260.008 356.353 258.751 357.256C257.29 358.304 256.483 359.996 256.283 362.429C256.223 363.157 256.225 363.911 256.227 364.641L256.228 364.844L256.203 364.925C256.028 365.503 255.823 366.059 255.593 366.576L255.357 367.109L254.821 366.869C254.474 366.714 254.034 366.634 253.475 366.625C253.314 366.621 253.157 366.619 252.999 366.619C251.702 366.619 250.315 366.738 248.974 366.852C247.963 366.939 246.918 367.028 245.907 367.068L245.893 367.068C245.893 367.068 245.753 367.067 245.69 367.067C243.232 367.067 241.449 367.454 240.081 368.285C238.608 369.18 237.549 370.615 236.748 372.803C232.452 385.344 230.686 398.852 229.128 410.769C228.245 417.002 227.976 423.391 227.716 429.569C227.442 436.091 227.158 442.835 226.153 449.427L226.074 449.948L225.541 449.913C223.193 449.762 220.656 449.435 217.971 449.09C213.89 448.564 209.671 448.021 205.592 448.021C199.889 448.021 195.564 449.144 192.374 451.454C190.15 453.551 188.999 456.391 189.046 459.668C189.113 464.298 191.561 469.417 195.282 472.71L195.296 472.723C199.999 477.169 208.584 481.025 220.812 484.184C232.057 487.09 243.688 488.669 249.621 489.351L251.089 489.52L249.897 490.382C249.415 490.731 248.975 491.039 248.552 491.322L248.279 491.504L247.98 491.367C247.127 490.976 246.586 490.894 246.281 490.894C246.011 490.894 245.686 490.952 245.668 491.232C245.656 491.415 245.786 491.687 246.061 491.721L247.521 491.904L246.329 492.754C245.533 493.322 244.345 494.007 242.97 494.8C238.471 497.394 231.672 501.314 232.842 504.756L232.918 504.982L232.81 505.196C232.496 505.812 232.469 506.384 232.728 506.945C233.283 508.146 235.02 509.058 236.494 509.429L236.52 509.435L236.544 509.444C239.111 510.338 241.804 510.792 244.55 510.792" fill="white"/>
<path fill-rule="evenodd" clip-rule="evenodd" d="M249.487 488.677C249.309 488.496 249.235 488.259 249.4 487.981C250.041 487.163 251.369 487.723 252.195 487.912C252.507 487.652 252.817 487.391 253.116 487.116C253.012 486.473 253.785 486.045 254.103 485.548C254.415 485.183 254.708 484.767 255.082 484.461C255.994 483.749 257.257 484.23 258.315 484.198C259.13 483.161 259.969 482.156 260.744 481.085C259.851 479.583 259.788 477.823 260.084 476.149C246.383 470.946 234.523 461.096 219.704 458.819C219.195 458.734 218.909 458.115 219.036 457.66C220.07 455.191 234.924 461.561 237.144 462.715C243.693 465.852 249.828 469.764 256.193 473.215C257.52 473.921 258.98 474.3 260.431 474.667C262.661 467.342 266.434 460.628 269.326 453.566C269.139 453.24 268.979 452.899 268.843 452.547C268.939 456.431 265.165 456.377 264.643 452.692C264.858 454.613 263.407 458.726 261.313 456.027C260.821 455.349 260.647 454.481 260.564 453.605C260.456 454.211 260.334 454.813 260.199 455.414C259.661 456.604 258.193 455.157 257.852 454.536C257.655 454.501 257.471 454.411 257.337 454.301C253.633 454.816 249.271 454.787 246.553 451.861C241.944 453.63 236.842 452.045 232.18 451.338C222.694 450.247 213.17 448.583 203.598 448.71C199.325 448.959 194.283 449.649 191.58 453.298C188.113 458.558 190.073 465.661 193.898 470.215C203.098 481.872 234.68 486.94 249.487 488.677M249.228 492.876C249.061 492.831 248.892 492.79 248.724 492.75C246.039 494.988 233.391 500.798 234.353 504.268C234.693 504.7 235.507 504.798 236.022 504.937C236.918 505.18 237.823 505.39 238.736 505.556C241.689 506.094 244.747 506.188 247.696 505.574C248.781 505.409 249.761 504.946 250.749 504.498C253.942 503.093 257.459 501.54 260.637 500.146C264.673 498.544 271.754 495.388 268.842 490.062C266.083 493.168 262.581 492.896 260.817 489.037C260.208 487.865 259.677 486.285 258.248 485.812C257.495 485.302 256.531 485.196 255.901 485.764C255.855 485.693 255.815 485.594 255.793 485.506C255.083 486.518 254.47 487.582 253.638 488.507C253.924 488.522 256.898 490.725 256.02 490.726C254.964 490.182 253.915 489.728 252.775 489.435C251.948 490.267 251.04 491.04 250.098 491.755C251.013 492.36 251.834 493.1 252.495 493.903C252.552 493.974 252.482 494.065 252.397 494.027C251.371 493.57 250.316 493.168 249.228 492.876M235.615 507.882C245.887 512.499 256.762 507.357 265.521 501.876C267.543 500.746 270.203 499.145 269.794 496.485C268.305 498.665 265.85 499.907 263.494 500.983C259.535 502.774 255.551 504.507 251.582 506.275C251.208 507.52 249.415 507.567 248.332 507.843C243.51 508.779 238.327 508.314 233.79 506.448C234.052 507.227 234.912 507.584 235.615 507.882M276.598 489.903C276.852 489.935 277.106 489.965 277.36 489.994C277.334 489.657 277.536 489.321 277.862 489.217C277.715 488.505 277.661 487.768 277.74 487.046C277.315 488.143 275.945 487.81 275.075 487.493C273.832 487.155 272.597 486.792 271.369 486.404C270.884 487.304 270.371 488.192 269.74 489.007C272.036 489.211 274.311 489.617 276.598 489.903M277.609 486.452C277.67 486.581 277.757 486.717 277.759 486.872C277.821 486.338 277.942 485.811 278.126 485.306C277.954 485.688 277.781 486.07 277.609 486.452M279.058 483.59C280.188 482.116 282.275 480.912 284.205 481.322C284.329 481.349 284.332 481.549 284.205 481.574C281.613 481.926 279.336 483.984 279.246 486.644C279.042 487.849 279.879 489.031 279.597 490.186C279.653 490.19 279.709 490.193 279.764 490.197C279.785 490.274 279.803 490.343 279.827 490.403C279.547 490.45 279.465 490.901 279.795 490.981C279.991 491.029 280.195 491.053 280.404 491.064C281.461 490.778 282.576 490.712 283.586 490.29C284.586 489.848 284.336 488.606 284.689 487.746C284.947 486.753 285.245 485.765 285.62 484.813C285.647 484.736 285.75 484.754 285.759 484.831C286.024 486.73 286.015 488.662 285.951 490.577C286.298 490.612 286.643 490.651 286.989 490.694C286.966 490.16 288.57 483.644 289.414 485.316C288.989 487.154 288.938 489.075 288.892 490.966C291.4 491.38 293.872 491.996 296.276 492.834C297.971 493.348 299.986 494.869 301.631 493.494C302.905 492.44 303.334 490.601 303.214 489.036C301.557 479.776 288.473 478.694 280.749 479.378C280.019 481.063 279.276 482.742 278.523 484.417C278.679 484.128 278.858 483.851 279.058 483.59M305.402 488.855C305.544 486.752 305.19 484.135 303.633 482.568C300.07 479.553 295.081 478.605 290.628 477.513C288.554 477.104 286.452 476.831 284.341 476.696C283.592 476.637 282.641 476.807 282.112 476.194C281.839 476.839 281.563 477.484 281.287 478.128C290.152 476.966 308.646 481.004 303.467 493.155C304.563 491.966 305.29 490.519 305.402 488.855M261.362 481.904C260.954 482.924 260.455 483.895 259.803 484.783C260.544 485.268 261.149 485.985 261.575 486.756C264.307 493.909 267.229 490.078 270.859 486.24C267.787 485.079 263.718 484.21 261.362 481.904M306.836 487.4C313.94 480.377 315.319 468.678 312.694 459.482C312.461 456.072 311.269 452.822 310.202 449.594C306.802 439.8 302.331 430.377 296.969 421.481C290.316 423.31 283.675 425.187 277.007 426.956C276.089 427.155 275.169 427.55 274.227 427.607C273.89 427.822 273.552 428.059 273.201 428.267C273.711 430.77 273.241 433.325 273.121 435.843C273.013 437.826 273.227 439.767 273.49 441.729C273.783 444.582 274.991 453.863 272.57 455.562C271.75 455.958 271.016 454.785 270.663 455.107C270.344 454.885 270.046 454.596 269.804 454.277C268.869 457.302 267.342 460.108 266.398 463.137C265.143 467.587 261.019 474.79 261.935 479.034C262.643 481.656 265.741 482.221 267.977 483.078C270.561 483.977 273.174 484.803 275.829 485.474C277.125 482.721 278.364 479.942 279.58 477.152C285.137 464.283 290.059 451.144 294.457 437.85C294.539 437.555 295.551 434.357 295.736 435.249C295.751 435.158 295.867 434.921 295.91 435.123C295.164 438.245 294.408 441.366 293.589 444.47C295.6 444.189 297.762 444.079 299.603 445.065C299.698 445.116 299.628 445.241 299.534 445.226C297.355 444.847 295.252 445.562 293.159 446.075C290.219 456.09 286.425 465.851 282.409 475.491C283.651 475.094 285.093 475.533 286.389 475.564C290.471 475.986 294.507 476.88 298.364 478.271C303.212 479.843 306.639 481.895 306.836 487.4M310.747 414.313C311.941 413.027 312.879 411.384 312.697 409.641C311.981 408.685 311.743 407.437 311.326 406.331C309.693 401.703 308.178 397.04 306.401 392.462C302.622 393.625 298.904 395.02 295.397 396.853C294.752 397.182 294.113 397.524 293.482 397.878C292.822 398.249 292.101 398.893 291.309 398.708C292.175 399.935 293.958 401.212 294.259 402.63C294.324 403.079 294.007 403.495 293.518 403.395C285.876 408.828 277.983 414.146 270.759 420.197C265.349 424.483 261.196 427.959 259.34 434.913C258.09 439.418 258.086 444.126 258.27 448.757C258.306 449.657 258.307 450.579 258.379 451.485C258.271 452.163 258.477 453.543 259.239 453.568C259.221 453.732 259.167 453.884 259.081 454.018C259.105 454.05 259.13 454.081 259.156 454.112C259.194 453.927 259.231 453.743 259.266 453.558C259.859 450.93 259.938 447.88 259.839 445.082C259.798 444.28 261.027 444.299 261.096 445.082C261.281 447.198 261.466 449.313 261.651 451.427C261.873 452.797 261.523 454.59 262.618 455.632C263.731 454.602 263.363 452.572 263.309 451.244C263.222 449.077 263.127 446.911 263.047 444.744C263.022 444.058 264.158 443.881 264.287 444.579C264.652 446.569 265.048 448.554 265.473 450.532C265.73 451.297 265.906 454.729 267.189 454.133C267.953 453.611 267.402 450.549 267.503 449.534C267.455 447.527 267.427 445.523 267.28 443.52C267.22 442.712 268.534 442.54 268.714 443.329C269.007 444.606 269.287 445.883 269.541 447.168C270.098 449.335 269.895 452.272 271.907 453.712C272.694 448.084 271.561 442.495 271.402 436.886C271.497 435.069 271.809 433.27 272.084 431.474C272.388 429.489 272.565 427.328 271.853 425.413C272.048 424.556 272.813 426.875 272.885 427.068C273.462 425.932 274.865 425.844 275.976 425.49C278.443 424.691 280.971 424.088 283.467 423.377C290.088 421.537 296.716 419.726 303.347 417.918C305.995 417.185 308.784 416.317 310.747 414.313M244.448 444.252C245.362 439.296 245.337 434.275 244.946 429.266C244.517 421.496 244.1 413.725 243.655 405.956C241.72 420.017 239.658 434.061 238.081 448.167C237.968 449.149 237.985 450.188 237.49 451.063C240.226 451.43 243.142 451.8 245.803 450.868C244.635 448.849 244.224 446.549 244.448 444.252M230.625 409.349C228.556 422.675 229.736 436.236 227.73 449.547C230.513 449.859 233.275 450.321 236.03 450.829C235.728 449.185 236.3 447.487 236.399 445.831C237.895 434.02 239.546 422.217 241.735 410.509C242.272 407.708 242.814 404.917 243.436 402.131C243.342 400.443 243.26 398.756 243.205 397.068C240.168 395.157 236.744 393.92 233.202 393.297C232.245 398.633 231.288 403.965 230.625 409.349M254.568 367.473C254.689 367.266 254.804 367.054 254.915 366.839C254.541 366.853 254.177 366.867 253.808 366.928C253.825 367.521 253.792 368.119 253.785 368.716C253.969 368.279 254.33 367.88 254.568 367.473M192.099 450.984C200.933 444.555 215.444 448.651 225.678 449.312C227.629 436.509 226.832 423.497 228.651 410.673C230.326 397.861 232.092 384.871 236.299 372.596C238.035 367.85 241.038 366.441 245.983 366.479C248.492 366.38 251.145 365.978 253.584 366.036C254.118 366.044 254.677 366.115 255.16 366.331C255.838 364.801 256.206 363.158 256.392 361.503C256.404 361.398 256.537 361.379 256.577 361.48C257.151 362.921 257.212 364.493 256.9 366.002C256.674 367.083 255.33 371.338 253.77 369.673C253.646 373.163 254.412 377.332 257.829 379.143C263.799 381.748 272.053 379.376 275.511 373.847C276.18 372.742 276.756 371.567 277.496 370.506C272.339 369.045 269.445 362.861 270.659 358.153C271.41 361.815 272.779 365.907 276.188 367.958C288.602 367.93 298.924 373.588 304.756 384.486C305.897 386.069 306.952 387.713 307.919 389.386C308.439 390.505 309.963 392.062 308.67 393.143C310.164 397.133 311.489 401.178 312.89 405.199C313.275 406.539 314.154 407.944 313.979 409.353C314.169 410.221 314.16 411.248 313.725 412.082C313.312 413.57 312.386 415.572 310.851 416.203C309.548 417.394 307.9 418.214 306.181 418.832C310.764 430.818 312.509 443.745 314.062 456.41C315.584 467.489 316.37 480.966 306.833 488.974C306.648 491.265 305.29 494.184 302.604 494.209C300.744 496.036 298.477 495.034 296.407 494.14C292.913 492.845 289.248 492.127 285.606 491.727C285.216 492.032 284.58 491.982 284.232 491.626C282.026 491.117 278.969 493.177 278.523 491.31C275.679 491.034 272.865 490.517 270.024 490.215C271.221 491.77 271.135 494.062 270.233 495.742C272.53 500.264 267.18 502.882 263.908 504.738C259.491 507.297 254.879 509.726 249.828 510.786C245.387 511.721 240.735 511.438 236.45 509.944C234.198 509.378 231.053 507.519 232.39 504.899C230.696 499.914 242.589 494.749 246.087 492.253C244.657 492.074 244.605 489.104 248.324 490.811C248.774 490.51 249.215 490.2 249.652 489.884C234.609 488.153 205.88 483.393 194.992 473.102C189.011 467.811 185.56 457.108 192.099 450.984" fill="black"/>
<path fill-rule="evenodd" clip-rule="evenodd" d="M245.255 343.786C245.363 341.712 245.458 339.568 245.856 337.525C246.051 336.524 246.44 335.599 247.071 334.796C247.647 334.06 248.373 333.49 249.109 332.923C250.589 331.784 252.011 330.523 253.667 329.642C255.256 328.797 256.974 328.287 258.754 328.058C262.183 327.617 265.784 328.351 268.762 330.113C271.65 331.823 273.971 334.476 275.408 337.5C276.122 339.003 276.658 340.589 276.947 342.229C277.291 344.185 277.26 346.146 277.248 348.123C277.243 348.787 277.249 349.452 277.282 350.114C277.336 350.436 277.366 350.762 277.366 351.111C278.019 351.972 278.285 353.123 277.876 354.183C277.222 355.874 275.368 356.643 273.685 356.348C273.609 356.787 273.428 357.22 273.202 357.642C272.815 358.362 272.383 359.068 271.924 359.745C270.976 361.145 269.893 362.414 268.601 363.508C266.04 365.679 262.796 367.101 259.432 367.307C256.369 367.494 253.139 366.622 250.641 364.824C249.345 363.891 248.223 362.747 247.389 361.377C246.415 359.777 245.887 357.935 245.613 356.094C245.011 352.052 245.043 347.858 245.255 343.786V343.786Z" fill="white"/>
<path fill-rule="evenodd" clip-rule="evenodd" d="M269.408 322.348C269.524 321.042 268.321 320.06 267.206 320.426C267.001 320.451 266.802 320.516 266.624 320.624C266.111 320.938 265.998 321.445 266.132 321.882C265.891 322.064 265.701 322.311 265.606 322.609C265.508 322.916 265.518 323.213 265.61 323.473C265.26 323.704 264.996 324.053 264.934 324.486C264.905 324.691 264.917 324.895 264.966 325.082C264.436 325.262 264.003 325.665 264.01 326.276C263.702 326.295 263.394 326.3 263.081 326.282C263.036 326.156 262.981 326.033 262.9 325.919C262.735 325.691 262.502 325.533 262.244 325.436L262.208 325.423L262.209 325.353C262.407 325.134 262.499 324.857 262.289 324.555C262.252 324.504 262.208 324.461 262.159 324.425C262.142 324.294 262.113 324.164 262.079 324.037C262.253 323.793 262.235 323.389 261.942 323.268C261.982 323.03 261.985 322.784 261.941 322.536C261.76 321.519 260.779 320.826 259.768 320.865C259.642 320.87 259.519 320.889 259.4 320.919C259.154 320.945 258.909 321 258.668 321.082C258.39 321.176 258.319 321.409 258.38 321.605C258.002 322.11 257.895 322.796 258.275 323.413C258.29 323.436 258.306 323.458 258.321 323.481C258.245 323.538 258.179 323.614 258.129 323.711C258.006 323.955 258.036 324.266 258.225 324.47C258.275 324.524 258.34 324.565 258.411 324.591L258.413 324.612V324.612C258.437 324.939 258.489 325.267 258.587 325.577C258.187 325.949 257.922 326.455 257.875 327C257.726 327.014 257.577 327.03 257.428 327.047C257.406 326.898 257.315 326.763 257.178 326.659C257.062 326.572 256.94 326.502 256.813 326.45C256.753 326.136 256.604 325.836 256.353 325.597C256.259 325.509 256.158 325.431 256.049 325.364C256.055 325.024 255.98 324.685 255.791 324.363C255.635 324.096 255.407 323.902 255.147 323.778C254.958 323.397 254.607 323.086 254.097 322.91C253.715 322.778 253.312 322.934 253.022 323.181L252.957 323.238V323.238C252.691 323.473 252.595 323.905 252.693 324.238C252.739 324.394 252.816 324.577 252.928 324.726C252.81 325.247 253.045 325.682 253.405 325.926C253.282 326.101 253.178 326.295 253.091 326.503C252.94 326.862 253.11 327.309 253.382 327.591C253.263 327.781 253.185 328.003 253.157 328.226C253.035 328.233 252.915 328.255 252.796 328.289C252.731 328.069 252.61 327.866 252.424 327.699C252.343 327.54 252.246 327.392 252.138 327.263C251.968 327.059 251.747 326.912 251.506 326.852C251.474 326.776 251.429 326.703 251.372 326.637C251.429 325.973 250.989 325.287 250.312 325.286C250.264 325.131 250.206 324.978 250.136 324.828C249.998 324.533 249.708 324.357 249.392 324.299C249.207 323.847 248.843 323.518 248.218 323.464C246.823 323.341 245.945 325.035 246.286 326.251C246.387 326.612 246.624 326.944 246.939 327.148C247.022 327.202 247.105 327.24 247.189 327.272C247.273 327.39 247.386 327.494 247.531 327.579C247.563 327.598 247.596 327.615 247.631 327.63C247.627 328.173 248.002 328.614 248.466 328.755C248.436 329.097 248.524 329.44 248.783 329.705L248.802 329.723V329.723L248.839 329.757L248.843 329.772C248.75 330.01 248.76 330.272 248.892 330.488C248.881 330.686 248.846 330.88 248.779 331.064C248.523 331.272 248.296 331.511 248.094 331.77C247.959 331.647 247.755 331.592 247.578 331.659C247.529 331.642 247.479 331.631 247.43 331.626C247.35 331.618 247.271 331.619 247.194 331.624C247.158 331.572 247.117 331.523 247.07 331.476C246.74 331.15 246.262 331.157 245.882 331.36C245.815 331.31 245.738 331.266 245.651 331.23C244.683 330.821 244.049 332.05 243.955 332.816C243.903 333.234 244.263 333.492 244.632 333.514C244.706 333.767 244.947 333.95 245.216 334.012C245.168 334.325 245.375 334.644 245.658 334.763C245.784 334.816 245.906 334.831 246.021 334.815L246.015 334.889V334.889C245.993 335.183 246.142 335.371 246.345 335.454C246.381 335.599 246.48 335.705 246.604 335.759C246.129 336.861 245.754 338.015 245.451 339.154C244.952 341.034 244.616 342.948 244.391 344.879C243.994 348.274 243.979 351.739 244.376 355.135C244.577 356.864 244.913 358.553 245.599 360.158C246.171 361.497 246.967 362.659 247.884 363.783C249.704 366.017 252.309 367.662 255.181 368.07C256.688 368.285 258.234 368.215 259.705 367.804C261.17 367.395 262.732 366.693 263.654 365.447C263.904 365.109 263.782 364.562 263.504 364.283C263.187 363.966 262.73 363.945 262.342 364.133C261.654 364.467 261.036 364.923 260.337 365.242C259.706 365.529 259.024 365.714 258.344 365.844C256.999 366.101 255.536 366.036 254.194 365.676C251.761 365.025 249.618 363.452 248.257 361.332C246.649 358.826 246.075 355.891 245.813 352.965C245.525 349.763 245.555 346.517 245.936 343.324C246.126 341.74 246.417 340.171 246.761 338.615C247.006 337.507 247.283 336.406 247.543 335.301C247.779 335.076 248.008 334.843 248.228 334.602L248.234 334.601V334.601C248.262 334.608 248.291 334.613 248.322 334.616C249.629 334.715 251.045 334.584 252.16 333.83C252.613 333.524 252.996 333.136 253.281 332.69C253.682 332.412 254.047 332.062 254.321 331.657C254.515 331.443 254.699 331.22 254.875 330.989C255.31 330.413 255.542 329.808 255.802 329.143C255.808 329.128 255.812 329.113 255.815 329.098C255.865 329.017 255.9 328.927 255.917 328.837C256.497 328.768 257.08 328.723 257.657 328.695C257.861 328.686 258.066 328.678 258.27 328.671C258.217 328.872 258.184 329.079 258.177 329.293C258.012 329.3 257.843 329.319 257.671 329.347C256.861 329.476 256.342 329.891 255.85 330.541C255.372 331.174 254.991 331.935 254.707 332.675C254.533 333.128 254.765 333.629 255.146 333.92C256.135 334.005 257.107 334.217 258.017 334.639C258.049 334.654 258.072 334.68 258.088 334.71C258.815 334.927 259.547 335.125 260.279 335.294C260.985 335.456 261.699 335.524 262.409 335.344C262.714 335.267 263.013 335.153 263.307 335.025C263.465 335.044 263.635 335.014 263.809 334.914C264.072 334.764 264.337 334.599 264.598 334.421C265.058 334.2 265.511 333.963 265.944 333.691L265.946 333.688V333.688C266.291 333.269 266.784 332.842 267.335 332.519C267.396 332.426 267.45 332.328 267.493 332.223C267.73 331.646 267.631 330.948 267.13 330.551C267.123 330.414 267.064 330.28 266.931 330.172C266.827 330.087 266.719 330.006 266.609 329.929C266.632 329.911 266.655 329.895 266.678 329.877C266.724 329.843 266.767 329.806 266.81 329.768C267.144 329.951 267.481 330.13 267.825 330.29C267.834 330.296 267.842 330.303 267.851 330.309C268.499 330.734 269.112 331.223 269.768 331.633C269.925 331.731 270.081 331.826 270.237 331.922C270.295 332.001 270.352 332.082 270.407 332.164C270.43 332.291 270.466 332.417 270.51 332.54C270.424 332.608 270.355 332.698 270.307 332.805C270.103 332.883 269.912 332.981 269.733 333.099L269.574 333.169V333.169C269.37 333.006 269.155 332.858 268.923 332.735C268.197 332.782 267.411 333.297 266.859 333.822C266.821 333.866 266.783 333.91 266.747 333.955C266.712 333.983 266.677 334.013 266.641 334.043C266.584 334.104 266.531 334.165 266.482 334.224C266.427 334.291 266.365 334.327 266.302 334.343C265.964 334.661 265.648 335.018 265.431 335.39C265.083 335.986 265.327 336.73 265.581 337.315C265.623 337.411 265.667 337.505 265.713 337.598C266.2 338.254 266.662 338.929 267.123 339.605C267.434 339.905 267.743 340.208 268.038 340.523C268.087 340.555 268.138 340.586 268.194 340.615C269.053 341.058 269.885 340.56 270.704 340.249L270.795 340.215C271.639 339.91 272.69 339.709 272.743 338.609C272.751 338.459 272.745 338.305 272.73 338.15C272.522 337.599 272.284 337.058 272.019 336.531C272.072 336.473 272.12 336.409 272.16 336.337C272.246 336.229 272.318 336.112 272.372 335.988C272.764 336.74 273.137 337.546 273.641 338.205C273.919 338.568 274.265 338.699 274.632 338.698C274.787 338.777 274.96 338.803 275.127 338.783L275.11 338.984C275.094 339.152 275.076 339.32 275.051 339.484C274.696 339.478 274.325 339.576 273.994 339.706C273.024 340.09 272.088 340.622 271.152 341.083C270.7 341.306 270.079 341.492 269.71 341.84C269.427 342.107 269.459 342.437 269.567 342.781C269.585 342.839 269.605 342.897 269.624 342.956L269.625 342.975V342.975C269.927 343.355 270.134 343.809 270.284 344.278C270.529 344.695 270.7 345.164 270.817 345.622C270.911 345.995 270.978 346.375 271.022 346.759L271.033 346.864L271.039 346.876L271.043 346.967V346.967C271.105 347.643 271.097 348.328 271.041 348.998C271.025 349.185 271.006 349.372 270.982 349.558C271.087 349.888 271.588 349.934 271.848 349.732C272.134 349.509 272.434 349.306 272.745 349.123C273.17 349.317 273.662 349.35 274.137 349.191C274.17 349.18 274.203 349.166 274.235 349.153C274.591 349.197 274.943 349.28 275.281 349.379L275.382 349.409C275.92 349.571 276.432 349.773 276.837 350.185C277.557 350.916 277.789 352.097 277.642 353.086C277.499 354.049 276.941 355.148 275.936 355.428C275.525 355.543 275.081 355.539 274.681 355.379C274.529 355.319 274.399 355.231 274.271 355.134C274.114 355.015 273.989 354.882 273.802 354.807C273.632 354.738 273.337 354.743 273.254 354.739C272.994 354.727 272.774 354.93 272.697 355.163C272.464 355.875 272.814 356.397 273.378 356.746C273.141 357.105 272.919 357.48 272.684 357.819C272.246 358.453 271.783 359.065 271.304 359.668C270.811 360.287 270.287 360.876 269.715 361.422C269.456 361.668 269.19 361.907 268.916 362.135L268.765 362.261C268.51 362.474 268.286 362.692 268.295 363.065C268.3 363.274 268.438 363.468 268.643 363.523C269.369 363.72 270.131 362.767 270.603 362.279L270.641 362.241C271.213 361.661 271.745 361.038 272.227 360.381C272.723 359.703 273.13 358.955 273.457 358.183C273.609 357.824 273.775 357.414 273.892 356.999C274.522 357.244 275.255 357.332 275.757 357.274C276.22 357.221 276.642 357.088 277.024 356.894C277.102 357.069 277.207 357.232 277.334 357.367C277.807 357.869 278.495 358.013 279.162 358.007C280.015 357.999 280.781 357.46 280.812 356.551C280.832 355.962 280.527 355.456 280.082 355.112C279.917 354.704 279.604 354.368 279.15 354.259C279.45 353.329 279.503 352.304 279.277 351.365C279.054 350.436 278.543 349.555 277.789 348.975L277.746 348.943L277.764 348.953C277.942 349.051 278.116 349.157 278.293 349.259L278.372 349.304C279.155 349.746 280.062 350.127 280.974 349.89C282.422 349.514 282.547 347.707 281.302 346.994C280.871 346.748 280.374 346.655 279.883 346.593C279.805 346.492 279.713 346.401 279.611 346.328C279.596 345.996 279.429 345.664 279.134 345.455C278.833 345.243 278.495 345.222 278.18 345.319C278.063 345.231 277.935 345.154 277.796 345.094C277.674 345.041 277.551 345.003 277.428 344.977C277.43 344.878 277.431 344.778 277.432 344.679C277.452 344.587 277.464 344.49 277.477 344.389C277.499 344.385 277.521 344.382 277.543 344.377C277.864 344.307 278.154 344.163 278.406 343.969C278.809 344.224 279.299 344.32 279.881 344.148C280.422 343.987 280.931 343.484 281.183 342.906C281.528 342.836 281.864 342.735 282.157 342.544C282.701 342.673 283.286 342.464 283.507 341.901C283.67 341.483 283.474 340.979 283.123 340.72C283.021 340.644 282.911 340.659 282.823 340.717C282.802 340.649 282.778 340.582 282.748 340.516C282.736 340.49 282.723 340.464 282.71 340.438C282.723 339.885 282.522 339.351 282.021 339.054C281.648 338.834 281.204 338.81 280.804 338.937C280.584 338.732 280.306 338.575 279.96 338.489C279.352 338.338 278.712 338.511 278.279 338.967C278.185 338.939 278.088 338.92 277.989 338.907C277.953 338.653 277.866 338.408 277.686 338.217C277.556 338.08 277.401 337.97 277.233 337.894C277.156 337.605 277.031 337.347 276.82 337.131C276.923 337.044 277.016 336.946 277.096 336.837C277.185 336.823 277.272 336.803 277.358 336.776C277.816 336.629 278.131 336.34 278.345 335.981C278.741 336.082 279.161 336.045 279.573 335.786C279.871 335.599 280.096 335.3 280.215 334.965L280.553 334.846V334.846C280.872 334.733 281.101 334.522 281.232 334.271C281.398 334.331 281.581 334.329 281.731 334.214C282.605 333.538 282.008 332.419 281.072 332.197C280.691 332.107 280.359 332.158 280.063 332.296C279.853 332.093 279.589 331.941 279.288 331.872C278.935 331.792 278.564 331.851 278.24 332.006L278.156 332.005V332.005C277.828 331.762 277.409 331.653 276.896 331.771C276.315 331.904 275.919 332.229 275.65 332.653C275.564 332.575 275.467 332.506 275.361 332.448C275.06 332.285 274.739 332.244 274.432 332.296C274.329 332.148 274.223 332.003 274.113 331.86C274.373 331.657 274.55 331.342 274.56 330.992C274.638 330.944 274.714 330.888 274.787 330.837C275.142 330.586 275.444 330.272 275.581 329.85C275.649 329.639 275.674 329.419 275.666 329.199C275.704 329.191 275.742 329.182 275.78 329.171C277.291 328.736 277.917 326.652 276.723 325.534C276.096 324.946 275.143 325.279 274.523 325.713C274.1 326.009 273.764 326.376 273.46 326.783C273.445 326.786 273.431 326.787 273.417 326.79C272.98 326.893 272.632 327.174 272.375 327.533C271.921 327.454 271.438 327.542 271.008 327.857C270.694 328.087 270.497 328.371 270.395 328.68C269.987 328.467 269.568 328.281 269.139 328.116C269.111 328.048 269.081 327.981 269.047 327.913C268.981 327.783 268.895 327.669 268.795 327.573C268.904 327.451 269.001 327.315 269.078 327.163C269.447 326.443 269.314 325.715 268.906 325.163C269.085 324.761 269.139 324.306 269.034 323.872C269.014 323.792 268.99 323.714 268.961 323.64C269.208 323.254 269.367 322.809 269.408 322.348ZM276.032 351.469C275.77 351.406 275.708 351.322 275.414 351.346C275.186 351.365 274.953 351.404 274.732 351.461C274.204 351.598 273.712 351.874 273.279 352.199C272.664 352.661 273.4 353.518 273.889 353.026L273.904 353.011C274.233 352.658 274.603 352.382 275.016 352.136C275.226 352.011 275.442 351.922 275.661 351.817C275.813 351.744 275.9 351.626 276.043 351.551C276.076 351.533 276.068 351.478 276.032 351.469ZM274.622 344.521C274.767 344.47 274.933 344.579 274.972 344.719C275.013 344.871 274.925 345.008 274.789 345.063L274.773 345.069C274.588 345.135 274.419 345.244 274.275 345.377L274.244 345.406C273.982 345.661 273.579 345.259 273.842 345.003C274.065 344.787 274.329 344.624 274.622 344.521ZM267.824 334.167C267.973 333.84 268.45 334.115 268.321 334.439L268.314 334.454C268.18 334.749 268.235 335.092 268.382 335.369L268.396 335.396C268.575 335.716 268.084 336.003 267.905 335.683C267.64 335.208 267.596 334.665 267.824 334.167ZM263.697 330.091L263.703 330.058C263.77 329.699 264.318 329.851 264.251 330.209C264.14 330.805 263.707 331.197 263.153 331.391C262.807 331.512 262.658 330.963 263.001 330.842C263.369 330.714 263.615 330.47 263.697 330.091V330.091ZM254.741 329.515L254.838 329.511V329.511L254.764 329.608V329.608C254.757 329.577 254.749 329.546 254.741 329.515Z" fill="black"/>
<path fill-rule="evenodd" clip-rule="evenodd" d="M255.378 360.537C256.015 360.277 256.583 359.843 256.998 359.289C257.142 359.096 257.18 358.893 257.15 358.707C257.116 358.498 256.992 358.308 256.823 358.181C256.654 358.054 256.443 357.991 256.238 358.023C256.06 358.051 255.884 358.148 255.744 358.35L255.714 358.391C255.467 358.725 255.146 358.999 254.779 359.176C254.426 359.346 254.03 359.426 253.621 359.38C252.842 359.292 252.306 358.87 251.735 358.298C251.664 358.225 251.593 358.151 251.522 358.075C251.477 358.006 251.415 357.962 251.346 357.939C251.269 357.913 251.182 357.915 251.102 357.943C251.026 357.969 250.957 358.02 250.911 358.088C250.867 358.152 250.842 358.232 250.85 358.323C250.903 358.916 251.213 359.446 251.653 359.862C252.142 360.323 252.79 360.643 253.4 360.755C254.073 360.878 254.758 360.79 255.378 360.537V360.537ZM253.083 351.383C252.368 351.818 251.278 352.833 252.048 353.911C252.953 354.863 254.257 353.772 254.9 353.279C255.496 352.897 256.165 353.88 255.612 354.326C250.969 357.767 249.085 351.497 252.721 350.871C253.122 350.802 253.271 351.248 253.083 351.383ZM261.404 347.38C261.325 346.399 259.831 346.176 259.683 347.147C259.55 348.017 259.706 348.817 260.098 349.6C260.472 350.349 261.413 350 261.484 349.318C261.579 348.404 261.453 347.991 261.404 347.38ZM250.032 346.946C249.824 346.673 249.523 346.486 249.163 346.592C248.037 346.921 248.369 348.52 248.764 349.299C248.979 349.722 249.673 349.829 249.987 349.457C250.498 348.85 250.743 347.637 250.093 347.039C250.076 347.008 250.056 346.977 250.032 346.946ZM260.114 343.084L259.936 343.053C259.386 342.958 258.702 342.867 258.313 343.309C258.106 343.544 258.035 343.98 258.313 344.205C258.801 344.6 259.34 344.447 259.925 344.48C260.407 344.508 260.87 344.588 261.334 344.721C262.353 345.012 263.182 345.544 264.052 346.128C264.166 346.204 264.283 346.058 264.228 345.952C263.726 344.967 262.753 344.159 261.779 343.666C261.258 343.403 260.689 343.184 260.114 343.084ZM251.058 342.643L250.922 342.671C249.441 342.981 247.517 343.6 246.815 345.056C246.788 345.262 246.817 345.306 246.84 345.335L246.847 345.345C246.866 345.369 246.881 345.403 246.97 345.431C246.995 345.425 247.02 345.419 247.045 345.412C247.367 345.328 247.621 345.212 247.868 345.091L248.135 344.96C248.444 344.808 248.757 344.661 249.088 344.553C249.795 344.322 250.522 344.16 251.26 344.073C251.42 344.054 251.574 344 251.696 343.908C251.811 343.82 251.899 343.698 251.94 343.536C251.992 343.327 251.977 343.168 251.864 342.979C251.78 342.837 251.659 342.739 251.52 342.683C251.379 342.625 251.218 342.611 251.058 342.643Z" fill="black"/>
<path fill-rule="evenodd" clip-rule="evenodd" d="M252.823 365.195C252.823 365.195 257.028 365.813 258.91 364.939C260.786 364.068 262.611 363.225 264.313 362.071C266.057 360.889 267.536 359.485 268.593 357.687C269.575 356.015 270.391 354.241 271.213 352.48C271.261 352.377 271.733 351.355 271.9 351.012C272.157 350.48 272.907 350.647 272.907 351.472C272.907 352.298 272.944 358.55 271.502 361.01C270.202 363.231 267.998 364.783 265.808 366.138C263.385 367.636 260.166 369.255 257.276 369.683C254.66 370.069 251.674 368.983 249.78 367.192C247.799 365.319 247.238 362.775 246.216 360.338C245.988 359.794 246.797 359.465 247.035 360.001C247.482 361.01 252.823 365.195 252.823 365.195Z" fill="black"/>
<path fill-rule="evenodd" clip-rule="evenodd" d="M243.017 348.91C243.92 355.024 250.224 355.7 251.344 349.63C251.164 349.552 251.035 349.397 251.062 349.095C251.068 347.773 250.658 346.375 249.466 345.639C248.234 344.88 246.792 344.805 245.367 344.824C242.646 344.759 242.703 347.035 243.017 348.91M252.331 346.251C253.185 346.215 254.265 346.245 255.03 346.766C255.24 346.199 255.786 345.594 256.338 345.271C254.286 345.331 252.174 345.129 250.107 344.972C250.602 345.309 251.062 345.816 251.362 346.403C251.639 346.255 252.037 346.268 252.331 346.251M256.094 349.558C258.462 357.714 264.371 354.159 265.015 353.114C266.177 351.384 266.396 347.18 265.384 346.055C263.935 345.039 261.884 345.3 260.172 345.275C257.027 345.318 254.794 346.259 256.094 349.558M240.222 345.807C240.865 345.723 241.552 345.706 242.15 345.989C242.334 345.206 242.912 344.551 243.565 344.263C243.644 344.164 243.632 344.11 243.902 344.125C245.559 343.627 247.413 343.891 249.006 344.402C251.521 344.614 254.159 344.781 256.695 345.073C259.071 344.005 266.241 343.849 266.686 346.48C267.247 346.397 268.201 345.955 268.672 346.554C272.126 345.968 275.696 346.782 279.165 347.145C280.039 347.306 280.488 349.041 279.497 349.017C278.94 348.866 279.514 347.937 278.764 347.867C275.416 347.501 272.142 346.982 268.76 346.921C268.878 347.506 266.524 347.544 266.489 347.202C266.484 347.205 266.479 347.207 266.474 347.209C267.055 349.379 266.53 352.502 265.479 353.847C264.006 355.609 260.308 356.115 258.668 354.981C256.552 353.935 254.352 348.683 254.97 346.938C253.848 346.582 252.739 346.689 251.575 346.87C251.841 347.624 252.301 349.479 251.639 349.64C251.761 353.323 248.412 355.621 245.325 354.11C242.653 352.854 241.718 348.881 242.045 346.469C241.713 347.112 238.92 346.412 240.222 345.807" fill="black"/>
<defs>
<clipPath id="clip0_503_1354">
<rect width="87" height="261" fill="white" transform="translate(2 232)"/>
</clipPath>
</defs>
</svg>
