<svg width="56" height="57" viewBox="0 0 56 57" fill="none" xmlns="http://www.w3.org/2000/svg">
<rect y="0.5" width="56" height="56" rx="28" fill="#FFCD00"/>
<g clip-path="url(#clip0_1_1367)">
<path d="M25.1688 30.5564C25.4787 26.9227 22.3809 27.3043 23.7536 23.5821C25.3 19.3889 30.3852 21.4657 32.5664 24.3309C35.3237 27.9527 35.5812 30.4838 32.5664 35.5274C28.6425 42.0921 21.6952 43.3664 20.3443 40.1161C18.479 35.628 24.7828 35.0813 25.1688 30.5564Z" stroke="#4F4F4F" stroke-width="2" stroke-linecap="round" stroke-linejoin="round"/>
<path fill-rule="evenodd" clip-rule="evenodd" d="M26.7012 18.2026C27.9058 18.5851 29.2891 17.6376 29.7909 16.0862C30.2927 14.5349 29.7231 12.9673 28.5186 12.5848C27.314 12.2023 25.9307 13.1499 25.4289 14.7012C24.9271 16.2525 25.4967 17.8202 26.7012 18.2026ZM32.0435 19.6101C32.9259 19.9671 33.9948 19.3986 34.4309 18.3404C34.867 17.2822 34.5053 16.135 33.6228 15.778C32.7404 15.421 31.6715 15.9895 31.2354 17.0477C30.7993 18.1059 31.1611 19.2532 32.0435 19.6101ZM37.7259 21.6229C37.2634 22.4519 36.3281 22.8171 35.6368 22.4386C34.9455 22.06 34.76 21.0811 35.2225 20.2521C35.685 19.4231 36.6203 19.0579 37.3116 19.4364C38.0029 19.815 38.1884 20.7939 37.7259 21.6229ZM37.4872 25.9131C38.0477 26.3883 38.9728 26.2287 39.5535 25.5565C40.1341 24.8843 40.1504 23.9541 39.5899 23.4788C39.0294 23.0036 38.1043 23.1632 37.5236 23.8354C36.943 24.5076 36.9267 25.4378 37.4872 25.9131Z" fill="#4F4F4F"/>
</g>
<defs>
<clipPath id="clip0_1_1367">
<rect width="32" height="32" fill="white" transform="translate(12 12.5)"/>
</clipPath>
</defs>
</svg>
