<svg width="56" height="57" viewBox="0 0 56 57" fill="none" xmlns="http://www.w3.org/2000/svg">
<rect y="0.5" width="56" height="56" rx="28" fill="#FFCD00"/>
<path fill-rule="evenodd" clip-rule="evenodd" d="M26.8308 39.6006C24.3258 37.5496 18.6665 32.1999 18.6665 25.7308C18.6665 23.2826 19.6498 20.9347 21.4002 19.2036C23.1505 17.4725 25.5245 16.5 27.9999 16.5C30.4752 16.5 32.8492 17.4725 34.5995 19.2036C36.3498 20.9347 37.3331 23.2826 37.3331 25.7308C37.3331 32.1998 31.6741 37.5496 29.1691 39.6006C28.8093 39.8953 28.6291 40.0426 28.3612 40.118C28.1529 40.1766 27.8466 40.1766 27.6383 40.118C27.3703 40.0426 27.1906 39.8953 26.8308 39.6006ZM25.3332 24.5C25.3332 25.9728 26.5271 27.1667 27.9998 27.1667C29.4726 27.1667 30.6665 25.9728 30.6665 24.5C30.6665 23.0272 29.4726 21.8333 27.9998 21.8333C26.5271 21.8333 25.3332 23.0272 25.3332 24.5Z" stroke="#4F4F4F" stroke-width="2" stroke-linecap="round" stroke-linejoin="round"/>
</svg>
