<svg width="515" height="270" viewBox="0 0 515 270" fill="none" xmlns="http://www.w3.org/2000/svg">
<path d="M83.6686 97.9161C77.5945 89.0041 71.3277 79.503 70.8911 68.8112C70.6985 64.023 71.713 59.2725 72.7788 54.5971C76.8625 36.7481 81.858 19.0872 88.51 1C91.7718 23.4617 95.0208 46.3119 91.4764 68.736C89.9226 78.6757 87.0332 88.3523 83.6686 97.9161Z" fill="#C4E4F3"/>
<path d="M84.2976 98.3166C95.2388 97.6648 106.809 97.1384 116.505 102.152C120.845 104.396 124.544 107.63 128.152 110.889C141.919 123.298 155.056 136.384 167.743 151.074C146.208 142.551 124.325 133.827 106.244 119.575C98.2181 113.258 91.0781 105.963 84.2976 98.3166Z" fill="#C4E4F3"/>
<path d="M81.3691 99.2328C76.8102 109.198 71.8919 119.626 62.8769 126.107C57.4064 130.042 50.8314 132.198 44.3335 134.116C15.9018 142.527 -10 146.274 -10 146.274C3.61226 133.79 19.3948 123.8 35.0874 113.886C39.9673 110.802 44.8728 107.706 50.2792 105.613C60.3985 101.69 71.6992 101.514 81.947 97.9167" fill="#C4E4F3"/>
<path d="M79.8029 97.7908C76.0018 154.872 72.5473 205.599 73.6517 258.457C79.0966 262.029 86.4678 262.581 90.8468 259.648C87.6236 205.762 86.1082 153.155 86.1082 97.7908C84.0792 98.1292 82.1915 97.866 79.8029 97.7908Z" fill="#C4E4F3"/>
<path d="M77.9409 125.917C76.1816 174.626 74.0371 218.083 72.5859 258.23C77.4915 260.863 83.3858 261.715 88.8564 260.562" fill="#C4E4F3"/>
<path d="M77.9409 125.917C76.1816 174.626 74.0371 218.083 72.5859 258.23C77.4915 260.863 83.3858 261.715 88.8564 260.562" stroke="white" stroke-width="2.58711" stroke-miterlimit="10" stroke-linecap="round" stroke-linejoin="round"/>
<path d="M72.5864 208.669C77.6718 211.389 83.733 211.452 88.8569 208.832C88.767 208.569 88.69 208.306 88.6001 208.043" fill="#C4E4F3"/>
<path d="M72.5864 208.669C77.6718 211.389 83.733 211.452 88.8569 208.832C88.767 208.569 88.69 208.306 88.6001 208.043" stroke="white" stroke-width="2.58711" stroke-miterlimit="10" stroke-linecap="round" stroke-linejoin="round"/>
<path d="M74.4734 189.466C78.7625 191.722 83.8993 191.635 88.1242 189.253L74.4734 189.466Z" fill="#C4E4F3"/>
<path d="M74.4734 189.466C78.7625 191.722 83.8993 191.635 88.1242 189.253" stroke="white" stroke-width="2.58711" stroke-miterlimit="10" stroke-linecap="round" stroke-linejoin="round"/>
<path d="M74.8201 169.35C78.8139 172.07 84.0019 172.195 88.0856 169.689L74.8201 169.35Z" fill="#C4E4F3"/>
<path d="M74.8201 169.35C78.8139 172.07 84.0019 172.195 88.0856 169.689" stroke="white" stroke-width="2.58711" stroke-miterlimit="10" stroke-linecap="round" stroke-linejoin="round"/>
<path d="M81.7807 99.2947C76.7852 109.059 71.3147 119.086 62.3383 125.592C56.11 130.104 48.6233 132.611 41.2008 134.842C24.7633 139.793 8.00482 143.754 -8.94629 146.675" fill="#C4E4F3"/>
<path d="M81.7807 99.2947C76.7852 109.059 71.3147 119.086 62.3383 125.592C56.11 130.104 48.6233 132.611 41.2008 134.842C24.7633 139.793 8.00482 143.754 -8.94629 146.675" stroke="white" stroke-width="2.58711" stroke-miterlimit="10" stroke-linecap="round" stroke-linejoin="round"/>
<path d="M67.4741 106.464C62.5814 107.128 57.6887 107.792 52.6419 108.519C49.059 110.738 45.4762 112.957 41.8933 115.175" fill="#C4E4F3"/>
<path d="M67.4741 106.464C62.5814 107.128 57.6887 107.792 52.6419 108.519C49.059 110.738 45.4762 112.957 41.8933 115.175" stroke="white" stroke-width="2.58711" stroke-miterlimit="10" stroke-linecap="round" stroke-linejoin="round"/>
<path d="M37.4769 118.686C35.5378 119.776 33.5858 120.879 31.6467 121.97L37.4769 118.686Z" fill="#C4E4F3"/>
<path d="M37.4769 118.686C35.5378 119.776 33.5858 120.879 31.6467 121.97" stroke="white" stroke-width="2.58711" stroke-miterlimit="10" stroke-linecap="round" stroke-linejoin="round"/>
<path d="M88.3806 1.4519C89.9345 19.1505 91.5012 36.8366 93.466 54.3221C91.6039 67.0194 89.1383 79.629 86.1077 92.1008" fill="#C4E4F3"/>
<path d="M88.3806 1.4519C89.9345 19.1505 91.5012 36.8366 93.466 54.3221C91.6039 67.0194 89.1383 79.629 86.1077 92.1008" stroke="white" stroke-width="2.58711" stroke-miterlimit="10" stroke-linecap="round" stroke-linejoin="round"/>
<path d="M79.8025 83.1892C78.3 79.7673 76.7847 76.3328 75.8729 72.7104C74.9611 69.1005 74.6529 65.2649 75.5775 61.655" fill="#C4E4F3"/>
<path d="M79.8025 83.1892C78.3 79.7673 76.7847 76.3328 75.8729 72.7104C74.9611 69.1005 74.6529 65.2649 75.5775 61.655" stroke="white" stroke-width="2.58711" stroke-miterlimit="10" stroke-linecap="round" stroke-linejoin="round"/>
<path d="M76.6953 56.8656C77.2347 54.9604 77.7612 53.0551 78.3005 51.1499L76.6953 56.8656Z" fill="#C4E4F3"/>
<path d="M76.6953 56.8656C77.2347 54.9604 77.7612 53.0551 78.3005 51.1499" stroke="white" stroke-width="2.58711" stroke-miterlimit="10" stroke-linecap="round" stroke-linejoin="round"/>
<path d="M96.1123 110.161C101.904 116.466 108.235 122.282 114.746 127.296C131.466 135.28 148.404 142.826 165.522 149.92" fill="#C4E4F3"/>
<path d="M96.1123 110.161C101.904 116.466 108.235 122.282 114.746 127.296C131.466 135.28 148.404 142.826 165.522 149.92" stroke="white" stroke-width="2.58711" stroke-miterlimit="10" stroke-linecap="round" stroke-linejoin="round"/>
<path d="M99.2192 102.416C106.655 102.416 114.064 104.96 119.869 109.485L99.2192 102.416Z" fill="#C4E4F3"/>
<path d="M99.2192 102.416C106.655 102.416 114.064 104.96 119.869 109.485" stroke="white" stroke-width="2.58711" stroke-miterlimit="10" stroke-linecap="round" stroke-linejoin="round"/>
<path d="M76.1561 94.8208C74.9746 97.0143 74.9361 99.7844 76.2074 101.928C77.4788 104.071 80.0086 105.463 82.5513 105.337C84.4904 105.237 86.3139 104.297 87.7393 103.018C89.4858 101.452 90.7186 99.2705 90.847 96.9642C90.9883 94.6579 90.0637 92.0131 87.9577 90.9602C85.3123 89.6316 78.84 89.7945 76.1561 94.8208Z" fill="#C4E4F3"/>
<path d="M123.567 112.242C126.226 114.661 128.871 117.068 131.529 119.487L123.567 112.242Z" fill="#C4E4F3"/>
<path d="M123.567 112.242C126.226 114.661 128.871 117.068 131.529 119.487" stroke="white" stroke-width="2.58711" stroke-miterlimit="10" stroke-linecap="round" stroke-linejoin="round"/>
<path d="M250.807 172.799C247.253 167.585 243.586 162.026 243.331 155.77C243.218 152.968 243.811 150.189 244.435 147.453C246.824 137.009 249.747 126.676 253.64 116.093C255.548 129.235 257.449 142.605 255.375 155.726C254.466 161.542 252.775 167.204 250.807 172.799Z" fill="#C4E4F3"/>
<path d="M251.175 173.034C257.577 172.653 264.347 172.345 270.02 175.278C272.559 176.591 274.723 178.483 276.835 180.39C284.89 187.651 292.576 195.308 300 203.903C287.399 198.916 274.596 193.811 264.016 185.473C259.32 181.776 255.142 177.508 251.175 173.034Z" fill="#C4E4F3"/>
<path d="M249.461 173.57C246.794 179.401 243.916 185.503 238.641 189.294C235.44 191.597 231.593 192.859 227.791 193.981C211.156 198.902 196 201.095 196 201.095C203.965 193.79 213.199 187.945 222.381 182.144C225.237 180.339 228.107 178.528 231.27 177.303C237.191 175.008 243.803 174.905 249.799 172.8" fill="#C4E4F3"/>
<path d="M248.545 172.726C246.321 206.126 244.3 235.807 244.946 266.734C248.132 268.824 252.445 269.147 255.007 267.431C253.121 235.902 252.234 205.121 252.234 172.726C251.047 172.924 249.943 172.77 248.545 172.726Z" fill="#C4E4F3"/>
<path d="M247.456 189.183C246.426 217.684 245.171 243.111 244.322 266.602C247.193 268.142 250.641 268.641 253.842 267.966" fill="#C4E4F3"/>
<path d="M247.456 189.183C246.426 217.684 245.171 243.111 244.322 266.602C247.193 268.142 250.641 268.641 253.842 267.966" stroke="white" stroke-width="2.58711" stroke-miterlimit="10" stroke-linecap="round" stroke-linejoin="round"/>
<path d="M244.322 237.603C247.298 239.195 250.844 239.231 253.842 237.698C253.79 237.544 253.745 237.39 253.692 237.236" fill="#C4E4F3"/>
<path d="M244.322 237.603C247.298 239.195 250.844 239.231 253.842 237.698C253.79 237.544 253.745 237.39 253.692 237.236" stroke="white" stroke-width="2.58711" stroke-miterlimit="10" stroke-linecap="round" stroke-linejoin="round"/>
<path d="M245.427 226.367C247.936 227.687 250.942 227.636 253.414 226.242L245.427 226.367Z" fill="#C4E4F3"/>
<path d="M245.427 226.367C247.936 227.687 250.942 227.636 253.414 226.242" stroke="white" stroke-width="2.58711" stroke-miterlimit="10" stroke-linecap="round" stroke-linejoin="round"/>
<path d="M245.63 214.596C247.966 216.188 251.002 216.261 253.392 214.794L245.63 214.596Z" fill="#C4E4F3"/>
<path d="M245.63 214.596C247.966 216.188 251.002 216.261 253.392 214.794" stroke="white" stroke-width="2.58711" stroke-miterlimit="10" stroke-linecap="round" stroke-linejoin="round"/>
<path d="M249.702 173.606C246.779 179.319 243.578 185.187 238.326 188.993C234.682 191.633 230.301 193.1 225.958 194.406C216.34 197.303 206.535 199.62 196.616 201.329" fill="#C4E4F3"/>
<path d="M249.702 173.606C246.779 179.319 243.578 185.187 238.326 188.993C234.682 191.633 230.301 193.1 225.958 194.406C216.34 197.303 206.535 199.62 196.616 201.329" stroke="white" stroke-width="2.58711" stroke-miterlimit="10" stroke-linecap="round" stroke-linejoin="round"/>
<path d="M241.331 177.801C238.469 178.189 235.606 178.578 232.653 179.004C230.557 180.302 228.46 181.6 226.364 182.898" fill="#C4E4F3"/>
<path d="M241.331 177.801C238.469 178.189 235.606 178.578 232.653 179.004C230.557 180.302 228.46 181.6 226.364 182.898" stroke="white" stroke-width="2.58711" stroke-miterlimit="10" stroke-linecap="round" stroke-linejoin="round"/>
<path d="M223.779 184.952C222.645 185.59 221.503 186.235 220.368 186.873L223.779 184.952Z" fill="#C4E4F3"/>
<path d="M223.779 184.952C222.645 185.59 221.503 186.235 220.368 186.873" stroke="white" stroke-width="2.58711" stroke-miterlimit="10" stroke-linecap="round" stroke-linejoin="round"/>
<path d="M253.564 116.357C254.473 126.713 255.39 137.061 256.54 147.292C255.45 154.721 254.007 162.099 252.234 169.397" fill="#C4E4F3"/>
<path d="M253.564 116.357C254.473 126.713 255.39 137.061 256.54 147.292C255.45 154.721 254.007 162.099 252.234 169.397" stroke="white" stroke-width="2.58711" stroke-miterlimit="10" stroke-linecap="round" stroke-linejoin="round"/>
<path d="M248.545 164.182C247.666 162.18 246.779 160.171 246.245 158.051C245.712 155.939 245.532 153.695 246.073 151.583" fill="#C4E4F3"/>
<path d="M248.545 164.182C247.666 162.18 246.779 160.171 246.245 158.051C245.712 155.939 245.532 153.695 246.073 151.583" stroke="white" stroke-width="2.58711" stroke-miterlimit="10" stroke-linecap="round" stroke-linejoin="round"/>
<path d="M246.727 148.78C247.042 147.665 247.35 146.551 247.666 145.436L246.727 148.78Z" fill="#C4E4F3"/>
<path d="M246.727 148.78C247.042 147.665 247.35 146.551 247.666 145.436" stroke="white" stroke-width="2.58711" stroke-miterlimit="10" stroke-linecap="round" stroke-linejoin="round"/>
<path d="M258.088 179.964C261.477 183.653 265.181 187.056 268.991 189.99C278.774 194.662 288.684 199.077 298.7 203.228" fill="#C4E4F3"/>
<path d="M258.088 179.964C261.477 183.653 265.181 187.056 268.991 189.99C278.774 194.662 288.684 199.077 298.7 203.228" stroke="white" stroke-width="2.58711" stroke-miterlimit="10" stroke-linecap="round" stroke-linejoin="round"/>
<path d="M259.906 175.432C264.256 175.432 268.592 176.921 271.988 179.569L259.906 175.432Z" fill="#C4E4F3"/>
<path d="M259.906 175.432C264.256 175.432 268.592 176.921 271.988 179.569" stroke="white" stroke-width="2.58711" stroke-miterlimit="10" stroke-linecap="round" stroke-linejoin="round"/>
<path d="M246.411 170.989C245.72 172.272 245.698 173.893 246.441 175.147C247.185 176.401 248.666 177.215 250.153 177.142C251.288 177.083 252.355 176.533 253.189 175.785C254.211 174.868 254.932 173.592 255.007 172.243C255.09 170.893 254.549 169.346 253.317 168.73C251.769 167.952 247.982 168.048 246.411 170.989Z" fill="#C4E4F3"/>
<path d="M274.152 181.182C275.707 182.597 277.255 184.005 278.811 185.421L274.152 181.182Z" fill="#C4E4F3"/>
<path d="M274.152 181.182C275.707 182.597 277.255 184.005 278.811 185.421" stroke="white" stroke-width="2.58711" stroke-miterlimit="10" stroke-linecap="round" stroke-linejoin="round"/>
<path d="M17 221.814C25.2537 200.441 42.6874 156.374 64.5007 150.103C86.314 143.874 110.906 148.567 128.972 162.431C118.192 144.941 115.749 121.99 124.256 103.305C132.762 84.5774 152.638 71.2675 172.977 72.4193C193.275 73.5712 212.182 90.2085 214.583 110.685C213.74 92.1708 215.13 73.0166 223.215 56.4219C231.301 39.7846 247.176 26.1335 265.41 25.067C282.296 24.0859 298.551 33.9829 308.826 47.634C319.059 61.2852 324.07 78.2637 329.881 99.8069C338.893 83.7668 359.401 75.4482 376.835 80.6953C394.268 85.9425 406.944 104.286 405.891 122.673C433.052 110.856 466.741 116.359 488.849 136.238C510.957 156.118 520.432 189.307 511.883 221.771C502.535 219.467 25.38 222.795 17 221.814Z" fill="#C4E4F3" fill-opacity="0.22"/>
</svg>
