<svg width="56" height="57" viewBox="0 0 56 57" fill="none" xmlns="http://www.w3.org/2000/svg">
<rect y="0.5" width="56" height="56" rx="28" fill="#FFCD00"/>
<path d="M28 40.4467L27.5144 41.3209C27.8164 41.4887 28.1836 41.4887 28.4856 41.3209L28 40.4467ZM28 22.6674L27.2048 23.2738C27.3905 23.5173 27.6774 23.6623 27.9836 23.6673C28.2897 23.6723 28.5813 23.5368 28.7748 23.2996L28 22.6674ZM33.9518 19.1694L33.9799 20.169L33.9518 19.1694ZM21.6978 19.1694L21.726 20.169L21.6978 19.1694ZM25.3333 28.8069C24.781 28.8069 24.3333 29.2546 24.3333 29.8069C24.3333 30.3592 24.781 30.8069 25.3333 30.8069V28.8069ZM30.6667 30.8069C31.219 30.8069 31.6667 30.3592 31.6667 29.8069C31.6667 29.2546 31.219 28.8069 30.6667 28.8069V30.8069ZM27 32.4736C27 33.0258 27.4477 33.4736 28 33.4736C28.5523 33.4736 29 33.0258 29 32.4736H27ZM29 27.1402C29 26.5879 28.5523 26.1402 28 26.1402C27.4477 26.1402 27 26.5879 27 27.1402H29ZM39 25.7801C39 29.3133 36.3116 32.7207 33.3356 35.366C31.8797 36.6602 30.4191 37.7155 29.3203 38.448C28.7719 38.8136 28.316 39.0972 27.9991 39.2883C27.8408 39.3839 27.7173 39.4562 27.6345 39.504C27.5931 39.5279 27.5619 39.5457 27.5417 39.5572C27.5315 39.5629 27.5241 39.5671 27.5195 39.5697C27.5172 39.5709 27.5157 39.5718 27.5148 39.5723C27.5144 39.5725 27.5141 39.5727 27.514 39.5727C27.514 39.5727 27.5141 39.5727 27.5141 39.5727C27.5142 39.5726 27.5144 39.5725 28 40.4467C28.4856 41.3209 28.4859 41.3207 28.4862 41.3205C28.4864 41.3205 28.4867 41.3203 28.4871 41.3201C28.4877 41.3197 28.4886 41.3192 28.4896 41.3187C28.4916 41.3175 28.4944 41.316 28.4979 41.314C28.5048 41.3101 28.5146 41.3046 28.5272 41.2975C28.5523 41.2833 28.5885 41.2626 28.635 41.2358C28.728 41.182 28.8624 41.1033 29.0321 41.0009C29.3715 40.7962 29.8531 40.4965 30.4297 40.1121C31.5809 39.3446 33.1203 38.2333 34.6644 36.8608C37.6884 34.1728 41 30.2469 41 25.7801H39ZM28 40.4467C28.4856 39.5725 28.4858 39.5726 28.4859 39.5727C28.4859 39.5727 28.486 39.5727 28.486 39.5727C28.4859 39.5727 28.4856 39.5725 28.4852 39.5723C28.4843 39.5718 28.4828 39.5709 28.4805 39.5697C28.4759 39.5671 28.4685 39.5629 28.4583 39.5572C28.4381 39.5457 28.4069 39.5279 28.3655 39.504C28.2827 39.4562 28.1592 39.3839 28.0009 39.2883C27.684 39.0972 27.2281 38.8136 26.6797 38.448C25.5809 37.7155 24.1203 36.6602 22.6644 35.366C19.6884 32.7207 17 29.3133 17 25.7801H15C15 30.2469 18.3116 34.1728 21.3356 36.8608C22.8797 38.2333 24.4191 39.3446 25.5703 40.1121C26.1469 40.4965 26.6285 40.7962 26.9679 41.0009C27.1376 41.1033 27.272 41.182 27.365 41.2358C27.4115 41.2626 27.4477 41.2833 27.4728 41.2975C27.4854 41.3046 27.4952 41.3101 27.5021 41.314C27.5056 41.316 27.5084 41.3175 27.5104 41.3187C27.5114 41.3192 27.5123 41.3197 27.5129 41.3201C27.5133 41.3203 27.5136 41.3205 27.5138 41.3205C27.5141 41.3207 27.5144 41.3209 28 40.4467ZM28.7748 23.2996C29.7605 22.0916 30.5692 21.3361 31.3607 20.8682C32.1292 20.4139 32.9367 20.1983 33.9799 20.169L33.9237 18.1698C32.5995 18.207 31.4493 18.4925 30.3429 19.1465C29.2594 19.787 28.276 20.7473 27.2252 22.0353L28.7748 23.2996ZM33.9799 20.169C35.2721 20.1327 36.5139 20.5723 37.43 21.4645C38.3375 22.3483 39 23.7501 39 25.7801H41C41 23.2921 40.1742 21.3454 38.8254 20.0317C37.4853 18.7265 35.703 18.1198 33.9237 18.1698L33.9799 20.169ZM17 25.7801C17 23.8264 17.614 22.4556 18.466 21.5692C19.3243 20.6763 20.4918 20.2038 21.726 20.169L21.6695 18.1698C19.9602 18.218 18.2787 18.878 17.0241 20.1832C15.7631 21.495 15 23.3879 15 25.7801H17ZM21.726 20.169C23.7837 20.1109 25.5304 21.0781 27.2048 23.2738L28.7952 22.061C26.863 19.5273 24.5621 18.0881 21.6695 18.1698L21.726 20.169ZM25.3333 30.8069H30.6667V28.8069H25.3333V30.8069ZM29 32.4736V27.1402H27V32.4736H29Z" fill="#4F4F4F"/>
</svg>
