<svg width="56" height="57" viewBox="0 0 56 57" fill="none" xmlns="http://www.w3.org/2000/svg">
<rect y="0.5" width="56" height="56" rx="28" fill="#FFCD00"/>
<path d="M40 39.1667C40 36.8445 37.7738 34.869 34.6667 34.1368M32 39.1667C32 36.2212 28.4183 33.8334 24 33.8334C19.5817 33.8334 16 36.2212 16 39.1667M32 29.8334C34.9455 29.8334 37.3333 27.4456 37.3333 24.5001C37.3333 21.5546 34.9455 19.1667 32 19.1667M24 29.8334C21.0545 29.8334 18.6667 27.4456 18.6667 24.5001C18.6667 21.5546 21.0545 19.1667 24 19.1667C26.9455 19.1667 29.3333 21.5546 29.3333 24.5001C29.3333 27.4456 26.9455 29.8334 24 29.8334Z" stroke="#4F4F4F" stroke-width="2" stroke-linecap="round" stroke-linejoin="round"/>
</svg>
