<svg width="18" height="14" viewBox="0 0 18 14" fill="none" xmlns="http://www.w3.org/2000/svg">
<path d="M16.778 0.333496H1.22244C0.927754 0.333496 0.645139 0.450559 0.436765 0.658933C0.228391 0.867307 0.111328 1.14992 0.111328 1.44461V12.5557C0.111328 12.8504 0.228391 13.133 0.436765 13.3414C0.645139 13.5498 0.927754 13.6668 1.22244 13.6668H16.778C17.0727 13.6668 17.3553 13.5498 17.5637 13.3414C17.772 13.133 17.8891 12.8504 17.8891 12.5557V1.44461C17.8891 1.14992 17.772 0.867307 17.5637 0.658933C17.3553 0.450559 17.0727 0.333496 16.778 0.333496ZM15.9224 12.5557H2.14466L6.03355 8.5335L5.23355 7.76127L1.22244 11.9113V2.28905L8.128 9.16127C8.33618 9.36822 8.61779 9.48438 8.91133 9.48438C9.20487 9.48438 9.48648 9.36822 9.69466 9.16127L16.778 2.11683V11.8391L12.6891 7.75016L11.9058 8.5335L15.9224 12.5557ZM1.95022 1.44461H15.878L8.91133 8.37238L1.95022 1.44461Z" fill="black"/>
</svg>
