<svg width="14" height="20" viewBox="0 0 14 20" fill="none" xmlns="http://www.w3.org/2000/svg">
<path d="M11.2 1.25C11.5713 1.25 11.9274 1.3817 12.1899 1.61612C12.4525 1.85054 12.6 2.16848 12.6 2.5V17.5C12.6 17.8315 12.4525 18.1495 12.1899 18.3839C11.9274 18.6183 11.5713 18.75 11.2 18.75H2.8C2.4287 18.75 2.0726 18.6183 1.81005 18.3839C1.5475 18.1495 1.4 17.8315 1.4 17.5V2.5C1.4 2.16848 1.5475 1.85054 1.81005 1.61612C2.0726 1.3817 2.4287 1.25 2.8 1.25H11.2ZM2.8 0C2.05739 0 1.3452 0.263392 0.820101 0.732233C0.294999 1.20107 0 1.83696 0 2.5V17.5C0 18.163 0.294999 18.7989 0.820101 19.2678C1.3452 19.7366 2.05739 20 2.8 20H11.2C11.9426 20 12.6548 19.7366 13.1799 19.2678C13.705 18.7989 14 18.163 14 17.5V2.5C14 1.83696 13.705 1.20107 13.1799 0.732233C12.6548 0.263392 11.9426 0 11.2 0L2.8 0Z" fill="black"/>
<path d="M7.0001 17.5C7.3714 17.5 7.7275 17.3683 7.99005 17.1339C8.2526 16.8995 8.4001 16.5815 8.4001 16.25C8.4001 15.9185 8.2526 15.6005 7.99005 15.3661C7.7275 15.1317 7.3714 15 7.0001 15C6.62879 15 6.2727 15.1317 6.01015 15.3661C5.7476 15.6005 5.6001 15.9185 5.6001 16.25C5.6001 16.5815 5.7476 16.8995 6.01015 17.1339C6.2727 17.3683 6.62879 17.5 7.0001 17.5Z" fill="black"/>
</svg>
