<svg width="49" height="66" viewBox="0 0 49 66" fill="none" xmlns="http://www.w3.org/2000/svg">
<path d="M13.0273 33.4415C23.7839 47.6778 13.951 51.897 13.951 51.897L14.0387 51.8854C14.0387 51.8854 25.181 48.3858 14.0971 33.4415C2.67996 18.0446 21.4163 8.91549 22.5387 8.35834C22.5036 8.35254 22.4861 8.35254 22.4861 8.35254C22.4861 8.35254 0.622188 17.0347 13.0273 33.4415Z" fill="#010202"/>
<path d="M22.9475 8.34082C22.9475 8.34082 2.01317 17.0056 14.4183 33.4182C25.1749 47.6545 14.3774 51.8679 14.3774 51.8679C14.3774 51.8679 38.4101 50.3938 38.4101 28.3865C38.4042 9.84976 22.9475 8.34082 22.9475 8.34082Z" fill="#FFCD03"/>
<path d="M9.77098 7.11146C12.501 9.54898 13.0915 13.4026 11.0922 15.7298C9.087 18.0571 5.24621 17.9642 2.5103 15.5267C-0.225607 13.0892 -0.816049 9.23559 1.18911 6.90834C3.19428 4.58689 7.03507 4.67395 9.77098 7.11146Z" fill="#FFCD03"/>
<path d="M17.9027 4.4997C19.1362 6.02605 18.9257 7.97606 17.435 8.85821C15.9384 9.74036 13.7287 9.21803 12.4952 7.69168C11.2617 6.16534 11.4721 4.20952 12.9687 3.33317C14.4594 2.45103 16.6692 2.97335 17.9027 4.4997Z" fill="#FFCD03"/>
<path d="M24.4733 3.14686C24.8533 5.20134 23.8828 7.14555 22.3161 7.49377C20.7436 7.84198 19.1651 6.45492 18.791 4.40044C18.411 2.34596 19.3756 0.395952 20.9482 0.0535391C22.5149 -0.294677 24.0933 1.09239 24.4733 3.14686Z" fill="#FFCD03"/>
<path d="M31.4242 5.77622C30.9448 7.024 29.4482 7.78427 28.0744 7.48248C26.7006 7.1807 25.9816 5.92131 26.4551 4.67354C26.9345 3.42576 28.4369 2.66549 29.8048 2.97308C31.1786 3.27487 31.9035 4.52845 31.4242 5.77622Z" fill="#FFCD03"/>
<path d="M35.2824 10.4825C34.6277 11.4865 33.3474 11.8928 32.4296 11.3879C31.5118 10.8888 31.3013 9.67 31.9561 8.66598C32.6167 7.66195 33.8911 7.2557 34.8089 7.75481C35.7267 8.25972 35.9372 9.48428 35.2824 10.4825Z" fill="#FFCD03"/>
<path d="M23.4209 28.4621C24.1926 28.4563 24.8649 28.8336 25.5372 29.2282C25.9172 29.4487 26.2855 29.6867 26.5953 30.0291C26.6654 30.1045 26.7414 30.18 26.7882 30.2729C26.8642 30.4179 26.9402 30.5746 26.8467 30.7546C26.759 30.9229 26.6362 31.0041 26.4667 30.9983C26.0808 30.9809 25.695 31.0041 25.3267 31.1202C24.5024 31.3813 23.8009 31.9095 23.1462 32.5363C22.8539 32.8148 22.5791 33.105 22.2927 33.3836C22.1816 33.4939 22.0764 33.6041 21.9185 33.6447C21.825 33.668 21.7724 33.6912 21.6964 33.6041C21.6087 33.5055 21.6262 33.3894 21.6613 33.3023C21.749 33.0992 21.8367 32.8961 21.9711 32.7278C22.7545 31.7296 23.7015 31.0215 24.7538 30.5166C24.9584 30.4179 25.1806 30.3831 25.3969 30.3135C25.4495 30.2961 25.5255 30.3251 25.5313 30.2264C25.5372 30.1452 25.467 30.1452 25.4261 30.1162C24.9467 29.797 24.4381 29.559 23.912 29.3733C23.4502 29.2166 22.9766 29.1586 22.4973 29.1818C22.4622 29.1818 22.4271 29.176 22.3862 29.176C22.2634 29.176 22.1758 29.1179 22.1348 28.9786C22.0998 28.8336 22.1874 28.7523 22.2693 28.6885C22.4797 28.5144 22.7311 28.4505 22.9825 28.4389C23.1345 28.4331 23.2806 28.4563 23.4209 28.4621Z" fill="#080909"/>
<path d="M32.3946 26.3496C31.5645 26.6049 30.9448 27.1911 30.331 27.7889C29.9861 28.1255 29.6587 28.4737 29.4132 28.9032C29.3606 28.996 29.2963 29.0947 29.2729 29.1992C29.232 29.3617 29.1911 29.5358 29.3372 29.6751C29.4717 29.8027 29.6353 29.8376 29.8049 29.7795C30.2141 29.6344 30.6292 29.5242 31.0618 29.5126C32.0147 29.4835 32.9091 29.7505 33.786 30.1219C34.1718 30.2844 34.5459 30.4701 34.9318 30.6385C35.0838 30.7023 35.2241 30.7777 35.4053 30.7603C35.5105 30.7487 35.5748 30.7545 35.6333 30.6443C35.6976 30.5166 35.6508 30.4179 35.5865 30.3425C35.4404 30.18 35.2884 30.0175 35.1013 29.9014C33.9906 29.2166 32.7863 28.8625 31.5177 28.7407C31.2722 28.7175 31.0208 28.7581 30.7753 28.7697C30.7168 28.7755 30.6409 28.8277 30.6058 28.7349C30.5765 28.6594 30.6525 28.6362 30.6876 28.5956C31.1144 28.1255 31.5937 27.7308 32.114 27.3826C32.57 27.075 33.0611 26.8603 33.5814 26.721C33.6223 26.7094 33.6574 26.692 33.6983 26.6804C33.8269 26.6398 33.9146 26.5585 33.9146 26.4134C33.9146 26.2683 33.7977 26.2161 33.6924 26.1813C33.4177 26.0884 33.1371 26.1116 32.8623 26.1871C32.6928 26.2277 32.5466 26.2974 32.3946 26.3496Z" fill="#080909"/>
<path d="M24.7541 36.6572C24.6021 36.4424 24.4969 36.1639 24.5962 35.8389C24.7073 35.479 24.9119 35.5487 25.0873 35.6764C25.666 36.1116 26.4202 36.425 28.098 36.2683C29.6822 36.1174 30.8222 34.3763 30.9391 34.3183C31.1203 34.2313 31.3132 34.1616 31.4535 34.4692C31.588 34.7536 31.6114 35.0496 31.4945 35.3804C31.2431 36.1174 29.6296 37.4406 28.1856 37.6612C25.8473 38.0094 24.9411 36.9241 24.7541 36.6572Z" fill="#080909"/>
<path d="M24.9701 46.4363C24.1458 46.5002 24.8532 47.4345 25.0169 49.5761C25.1455 51.2359 25.5605 54.4163 25.0344 57.9797C24.8415 59.2739 24.1517 60.3708 24.8883 60.3592C25.4495 60.3476 25.6015 59.7904 25.7827 59.0592C26.5193 56.0993 26.3614 52.385 26.0224 49.727C25.7184 47.2953 25.9113 46.3609 24.9701 46.4363Z" fill="#010202"/>
<path d="M31.6521 45.8559C31.4943 45.8965 31.6054 46.1635 31.6229 46.4421C31.658 46.9586 32.266 47.6956 32.5173 48.9898C32.8564 50.7541 33.1019 54.747 32.6226 58.0377C32.4472 59.2332 31.8275 60.3475 32.605 60.3591C33.3007 60.3707 33.3825 59.2564 33.6339 57.6836C34.1542 54.393 33.8327 51.6421 33.441 49.193C33.1195 47.1675 31.9854 45.7688 31.6521 45.8559Z" fill="#010202"/>
<path d="M34.4991 40.0459C34.3938 41.5142 35.7033 43.499 37.6676 43.5281C40.1053 43.5629 41.6195 42.3557 42.093 41.6999" stroke="#010202" stroke-width="1.48485" stroke-linecap="round"/>
<path d="M43.6539 35.4038L42.7244 36.2802L43.0225 38.9034L42.3385 39.2574L42.093 40.4588L43.6422 41.5963L45.2381 41.7878L45.6181 40.7199L47.7519 39.1529L47.939 37.6382L46.7522 36.4775L44.8523 36.2163L43.6539 35.4038Z" fill="white"/>
<path d="M43.6306 37.6152C43.5663 37.9576 43.6949 38.2884 43.73 38.6366C43.7417 38.7411 43.7943 38.892 43.6131 38.9442C43.4436 38.9906 43.3033 38.95 43.2097 38.8165C42.97 38.4915 42.8824 38.1143 42.8531 37.7196C42.8122 37.1799 42.859 36.6692 43.087 36.1643C43.4085 35.4446 44.3322 35.108 45.0395 35.729C45.2149 35.8857 45.3786 36.0598 45.4721 36.2745C45.5306 36.4138 45.6124 36.4312 45.7352 36.4138C45.8287 36.4022 45.9281 36.408 46.0216 36.3964C46.9804 36.2978 47.6117 36.7795 47.7871 36.942C48.5646 37.6616 48.7283 38.7179 48.2723 39.6697C47.9274 40.3777 47.4714 40.9929 46.7231 41.2889C46.3198 41.4514 46.2555 41.6835 46.2087 42.0433C46.1327 42.5947 45.6592 42.9719 45.0629 42.9487C44.2854 42.9197 43.5313 42.7282 42.935 42.2116C42.3621 41.7125 42.0172 41.0683 42.1107 40.2848C42.175 39.7335 42.5667 39.1996 43.1688 39.1183C43.4611 39.0777 43.73 39.0487 44.0165 39.1299C44.2269 39.1938 44.3789 39.2924 44.3672 39.513C44.3555 39.7393 44.1802 39.8496 43.9756 39.896C43.8469 39.925 43.7066 39.9192 43.5722 39.9192C43.0694 39.9308 42.8473 40.2906 43.0285 40.7433C43.2857 41.3875 43.806 41.7009 44.4374 41.8924C44.5309 41.9215 44.6186 41.9505 44.7121 41.9795C45.174 42.1188 45.437 41.9447 45.4546 41.4688C45.4663 41.225 45.4721 40.9755 45.4604 40.7317C45.4546 40.5286 45.5657 40.4009 45.7352 40.3603C45.9106 40.3197 46.0509 40.4589 46.0859 40.6156C46.1386 40.8594 46.2262 40.8014 46.3782 40.7027C46.8868 40.3835 47.337 40.0295 47.6117 39.4665C48.0736 38.5205 47.4656 37.1045 46.0801 37.2263C45.9515 37.2379 45.7703 37.1741 45.7118 37.3656C45.6533 37.5455 45.7644 37.6674 45.9047 37.7603C46.1035 37.8937 46.3022 38.0272 46.5127 38.1375C46.7582 38.271 46.8635 38.4567 46.7875 38.7179C46.7173 38.9616 46.5068 38.9616 46.3022 38.9616C46.197 38.9616 46.0976 38.9848 45.9924 39.008C45.7001 39.0719 45.7644 39.1938 45.9047 39.3505C45.9807 39.4317 46.0567 39.5188 46.1269 39.6058C46.2496 39.7625 46.273 39.9192 46.1386 40.0817C45.9866 40.2674 45.7761 40.2558 45.6183 40.1572C45.2324 39.9192 44.8758 39.4781 44.9168 38.9616C44.9343 38.7701 45.022 38.6192 45.1623 38.4973C45.2675 38.4045 45.2675 38.3406 45.174 38.242C44.9109 37.9518 44.87 37.6036 44.9051 37.2379C44.9284 37.0116 44.5134 36.35 44.3029 36.2745C44.0574 36.1875 43.8177 36.3384 43.7359 36.6286C43.6599 36.9536 43.5839 37.2728 43.6306 37.6152Z" fill="#080909"/>
<path d="M21.0476 43.5288C21.1295 44.881 21.8602 48.311 27.9283 49.8141C31.9912 50.8181 34.3822 50.5628 35.6625 49.994" stroke="#010202" stroke-width="1.48485" stroke-linecap="round"/>
<path d="M37.0247 46.4302L36.1887 46.9989L36.3407 48.2119L35.6626 48.6413L35.8555 49.9298L36.7441 50.4927L38.0828 50.3534L38.5856 49.1927L38.4745 47.9681L38.0945 47.4748L38.0653 46.6507L37.0247 46.4302Z" fill="white"/>
<path d="M34.4933 49.4306C34.505 48.9547 35.0077 48.473 35.6391 48.3569C35.8963 48.3105 35.8437 48.235 35.7735 48.1131C35.7034 47.9913 35.6274 47.8694 35.5982 47.7301C35.4929 47.2426 35.6741 46.964 36.2763 46.7377C36.9369 46.4939 37.6384 46.3837 38.375 46.4475C38.6556 46.4707 38.9303 46.5346 39.1759 46.6506C39.6611 46.8828 39.6669 47.26 39.4799 47.6372C39.4097 47.7707 39.4156 47.8346 39.5968 47.9042C39.8599 48.0087 40.0762 48.1596 40.2281 48.3569C40.3918 48.5658 40.3685 48.7631 40.1755 48.9373C40.0762 49.0243 40.082 49.0881 40.1463 49.1752C40.3685 49.506 40.2983 49.7904 39.93 50.0399C39.8482 50.098 39.8482 50.1444 39.854 50.2082C39.8832 50.6493 39.5149 50.9337 38.907 50.9975C38.4334 51.044 37.8605 51.0498 37.3812 51.0672C37.0304 51.0788 36.5569 51.0672 36.3464 50.9801C36.1535 50.8989 36.1594 50.6957 36.5335 50.5797C36.8492 50.481 38.2756 50.7306 39.1174 50.4288C39.2694 50.3707 39.287 50.2082 38.9245 50.1096C38.5094 49.9935 37.7962 50.0806 37.6676 49.8948C37.539 49.7091 37.8138 49.6395 37.8839 49.6221C38.755 49.4306 39.3688 49.8252 39.55 49.7091C39.5909 49.6801 39.8131 49.2623 39.2226 49.123C38.755 49.0127 38.0242 49.2158 37.843 48.9547C37.6735 48.7167 38.375 48.5484 38.755 48.5542C39.3045 48.5716 39.4506 48.7283 39.5033 48.6819C39.6377 48.56 39.2753 48.3801 39.059 48.3221C38.4451 48.1596 37.1356 48.5542 37.0187 49.181C36.9018 49.8368 36.6095 49.9007 36.2938 49.8368C36.1243 49.802 36.0308 49.6859 35.9957 49.5176C35.9664 49.3841 36.0191 49.1926 36.06 49.0998C36.1243 48.9605 36.0775 48.9082 35.9548 48.9256C35.7209 48.9663 35.4228 49.2274 35.4754 49.4712C35.5631 49.9006 36.3055 49.9297 36.0892 50.3185C35.9548 50.5565 35.5455 50.6087 35.2299 50.4404C34.7329 50.1908 34.4874 49.564 34.4933 49.4306ZM38.0301 47.0337C37.539 47.0221 37.1181 47.1323 36.7147 47.2658C36.4517 47.3529 36.4283 47.4515 36.5043 47.6605C36.5627 47.8172 36.6797 47.9564 36.7206 48.1131C36.7498 48.2176 36.7849 48.2234 36.9018 48.1654C37.3519 47.939 37.8313 47.7649 38.3925 47.7243C38.7608 47.6953 38.8544 47.585 38.8427 47.3122C38.8368 47.202 38.7608 47.1381 38.638 47.1149C38.4276 47.0801 38.223 46.9988 38.0301 47.0337Z" fill="#010202"/>
<path d="M25.8122 61.7578C25.8122 61.7578 26.7768 61.5431 26.8821 60.6145C26.9873 59.6859 26.5021 59.0708 25.8298 58.9024C25.1575 58.7341 24.3157 58.5194 23.4563 58.6703C22.597 58.8212 22.2287 59.0708 22.2287 59.7672C22.2287 60.4636 22.9945 61.131 22.9945 61.131C22.9945 61.131 21.6908 61.9145 21.6382 63.1275C21.5856 64.3404 22.3748 64.9904 23.3277 65.002C24.2748 65.0195 25.7246 64.9846 26.2156 64.3694C26.7008 63.7543 26.6365 62.7212 26.2565 62.344C25.8649 61.9609 25.8122 61.7578 25.8122 61.7578Z" fill="#080909"/>
<path d="M33.7802 61.2414C33.7802 61.2414 34.0491 60.8815 33.8269 60.6204C33.599 60.3592 32.9091 60.3244 32.4356 60.3766C31.9621 60.4289 30.8397 60.6088 30.9975 61.1891C31.1553 61.7695 31.436 61.7289 31.436 61.7289C31.436 61.7289 31.0618 62.3731 31.5178 62.7503C31.9679 63.1275 33.0904 63.2088 33.9146 63.232C34.7389 63.261 38.3459 63.3829 38.5505 62.6516C38.7551 61.9204 38.0185 61.4271 36.6505 61.3168C35.2826 61.2124 33.7802 61.2414 33.7802 61.2414Z" fill="#080909"/>
</svg>
