<svg width="76" height="90" viewBox="0 0 76 90" fill="none" xmlns="http://www.w3.org/2000/svg">
<path d="M37.558 72.0767L36.4573 74.058C37.1418 74.4382 37.9741 74.4382 38.6587 74.058L37.558 72.0767ZM37.558 31.7813L35.7558 33.1556C36.1766 33.7074 36.8269 34.036 37.5208 34.0474C38.2146 34.0588 38.8754 33.7517 39.3141 33.2141L37.558 31.7813ZM51.0472 23.8532L51.1109 26.1187L51.0472 23.8532ZM23.2744 23.8532L23.3384 26.1187L23.2744 23.8532ZM31.5142 45.6959C30.2625 45.6959 29.2477 46.7106 29.2477 47.9624C29.2477 49.2141 30.2625 50.2288 31.5142 50.2288V45.6959ZM43.6018 50.2288C44.8535 50.2288 45.8682 49.2141 45.8682 47.9624C45.8682 46.7106 44.8535 45.6959 43.6018 45.6959V50.2288ZM35.2916 54.0062C35.2916 55.2579 36.3063 56.2726 37.558 56.2726C38.8097 56.2726 39.8244 55.2579 39.8244 54.0062H35.2916ZM39.8244 41.9185C39.8244 40.6668 38.8097 39.6521 37.558 39.6521C36.3063 39.6521 35.2916 40.6668 35.2916 41.9185H39.8244ZM62.4887 38.8359C62.4887 46.8437 56.3957 54.5662 49.6508 60.5617C46.351 63.4948 43.0407 65.8866 40.5504 67.5468C39.3074 68.3755 38.2742 69.0182 37.556 69.4514C37.1971 69.6679 36.9172 69.8318 36.7296 69.9402C36.6358 69.9944 36.5651 70.0347 36.5192 70.0607C36.4962 70.0737 36.4794 70.0831 36.469 70.089C36.4639 70.0919 36.4603 70.0939 36.4583 70.095C36.4573 70.0955 36.4568 70.0958 36.4566 70.0959C36.4565 70.096 36.4567 70.0959 36.4566 70.0959C36.4569 70.0957 36.4573 70.0955 37.558 72.0767C38.6587 74.058 38.6593 74.0576 38.66 74.0572C38.6603 74.057 38.6611 74.0566 38.6619 74.0562C38.6634 74.0553 38.6653 74.0543 38.6676 74.053C38.6722 74.0504 38.6785 74.0469 38.6863 74.0425C38.7021 74.0336 38.7243 74.0211 38.7528 74.005C38.8098 73.9727 38.8918 73.926 38.9973 73.8651C39.2081 73.7433 39.5125 73.5649 39.8972 73.3328C40.6664 72.8689 41.758 72.1896 43.0647 71.3184C45.6738 69.579 49.1628 67.0602 52.6623 63.9496C59.516 57.8575 67.0216 48.9596 67.0216 38.8359H62.4887ZM37.558 72.0767C38.6587 70.0955 38.659 70.0957 38.6593 70.0959C38.6593 70.0959 38.6595 70.096 38.6594 70.0959C38.6592 70.0958 38.6586 70.0955 38.6577 70.095C38.6557 70.0939 38.6521 70.0919 38.6469 70.089C38.6365 70.0831 38.6198 70.0737 38.5968 70.0607C38.5509 70.0347 38.4802 69.9944 38.3864 69.9402C38.1988 69.8318 37.9189 69.6679 37.5599 69.4514C36.8418 69.0182 35.8086 68.3755 34.5656 67.5468C32.0753 65.8866 28.7649 63.4948 25.4651 60.5617C18.7202 54.5662 12.6273 46.8437 12.6273 38.8359H8.09441C8.09441 48.9596 15.6 57.8575 22.4537 63.9496C25.9532 67.0602 29.4421 69.579 32.0513 71.3184C33.358 72.1896 34.4496 72.8689 35.2188 73.3328C35.6035 73.5649 35.9079 73.7433 36.1187 73.8651C36.2241 73.926 36.3062 73.9727 36.3631 74.005C36.3916 74.0211 36.4139 74.0336 36.4296 74.0425C36.4375 74.0469 36.4438 74.0504 36.4484 74.053C36.4507 74.0543 36.4526 74.0553 36.4541 74.0562C36.4548 74.0566 36.4557 74.057 36.456 74.0572C36.4567 74.0576 36.4573 74.058 37.558 72.0767ZM39.3141 33.2141C41.5479 30.4761 43.381 28.7638 45.1748 27.7034C46.9166 26.6737 48.7467 26.1852 51.1109 26.1187L50.9835 21.5877C47.9823 21.672 45.3756 22.319 42.868 23.8014C40.4124 25.2531 38.1836 27.4294 35.8019 30.3485L39.3141 33.2141ZM51.1109 26.1187C54.0396 26.0364 56.8542 27.0328 58.9304 29.0549C60.9871 31.058 62.4887 34.2351 62.4887 38.8359H67.0216C67.0216 33.1971 65.15 28.785 62.093 25.8077C59.0557 22.8494 55.0163 21.4743 50.9835 21.5877L51.1109 26.1187ZM12.6273 38.8359C12.6273 34.408 14.0187 31.3011 15.9498 29.2923C17.8952 27.2685 20.5411 26.1977 23.3384 26.1187L23.2105 21.5877C19.3363 21.697 15.5254 23.1929 12.6819 26.1509C9.82402 29.124 8.09441 33.4143 8.09441 38.8359H12.6273ZM23.3384 26.1187C28.0021 25.9871 31.9608 28.1791 35.7558 33.1556L39.3602 30.407C34.9811 24.6645 29.7662 21.4026 23.2105 21.5877L23.3384 26.1187ZM31.5142 50.2288H43.6018V45.6959H31.5142V50.2288ZM39.8244 54.0062V41.9185H35.2916V54.0062H39.8244Z" fill="#FFCD00"/>
</svg>
