<svg width="211" height="71" viewBox="0 0 211 71" fill="none" xmlns="http://www.w3.org/2000/svg">
<path d="M89.3933 67.1914H86.8733L81.1673 58.5694V67.1914H78.6473V54.6094H81.1673L86.8733 63.2494V54.6094H89.3933V67.1914ZM94.4036 56.6614V59.8114H98.6336V61.8094H94.4036V65.1394H99.1736V67.1914H91.8836V54.6094H99.1736V56.6614H94.4036ZM108.988 67.1914L106.27 62.9614L103.804 67.1914H100.96L104.92 60.8554L100.906 54.6274H103.804L106.522 58.8394L108.97 54.6274H111.814L107.872 60.9454L111.886 67.1914H108.988ZM122.354 54.6274V56.6614H119.006V67.1914H116.486V56.6614H113.138V54.6274H122.354ZM134.961 67.1914L132.189 62.2954H131.001V67.1914H128.481V54.6274H133.197C134.169 54.6274 134.997 54.8014 135.681 55.1494C136.365 55.4854 136.875 55.9474 137.211 56.5354C137.559 57.1114 137.733 57.7594 137.733 58.4794C137.733 59.3074 137.493 60.0574 137.013 60.7294C136.533 61.3894 135.819 61.8454 134.871 62.0974L137.877 67.1914H134.961ZM131.001 60.4054H133.107C133.791 60.4054 134.301 60.2434 134.637 59.9194C134.973 59.5834 135.141 59.1214 135.141 58.5334C135.141 57.9574 134.973 57.5134 134.637 57.2014C134.301 56.8774 133.791 56.7154 133.107 56.7154H131.001V60.4054ZM142.533 56.6614V59.8114H146.763V61.8094H142.533V65.1394H147.303V67.1914H140.013V54.6094H147.303V56.6614H142.533ZM152.113 65.1934H156.253V67.1914H149.593V54.6274H152.113V65.1934ZM160.374 56.6614V59.8114H164.604V61.8094H160.374V65.1394H165.144V67.1914H157.854V54.6094H165.144V56.6614H160.374ZM175.138 64.7974H170.134L169.306 67.1914H166.66L171.178 54.6094H174.112L178.63 67.1914H175.966L175.138 64.7974ZM174.454 62.7814L172.636 57.5254L170.818 62.7814H174.454ZM184.657 67.3174C183.781 67.3174 182.989 67.1674 182.281 66.8674C181.585 66.5674 181.033 66.1354 180.625 65.5714C180.217 65.0074 180.007 64.3414 179.995 63.5734H182.695C182.731 64.0894 182.911 64.4974 183.235 64.7974C183.571 65.0974 184.027 65.2474 184.603 65.2474C185.191 65.2474 185.653 65.1094 185.989 64.8334C186.325 64.5454 186.493 64.1734 186.493 63.7174C186.493 63.3454 186.379 63.0394 186.151 62.7994C185.923 62.5594 185.635 62.3734 185.287 62.2414C184.951 62.0974 184.483 61.9414 183.883 61.7734C183.067 61.5334 182.401 61.2994 181.885 61.0714C181.381 60.8314 180.943 60.4774 180.571 60.0094C180.211 59.5294 180.031 58.8934 180.031 58.1014C180.031 57.3574 180.217 56.7094 180.589 56.1574C180.961 55.6054 181.483 55.1854 182.155 54.8974C182.827 54.5974 183.595 54.4474 184.459 54.4474C185.755 54.4474 186.805 54.7654 187.609 55.4014C188.425 56.0254 188.875 56.9014 188.959 58.0294H186.187C186.163 57.5974 185.977 57.2434 185.629 56.9674C185.293 56.6794 184.843 56.5354 184.279 56.5354C183.787 56.5354 183.391 56.6614 183.091 56.9134C182.803 57.1654 182.659 57.5314 182.659 58.0114C182.659 58.3474 182.767 58.6294 182.983 58.8574C183.211 59.0734 183.487 59.2534 183.811 59.3974C184.147 59.5294 184.615 59.6854 185.215 59.8654C186.031 60.1054 186.697 60.3454 187.213 60.5854C187.729 60.8254 188.173 61.1854 188.545 61.6654C188.917 62.1454 189.103 62.7754 189.103 63.5554C189.103 64.2274 188.929 64.8514 188.581 65.4274C188.233 66.0034 187.723 66.4654 187.051 66.8134C186.379 67.1494 185.581 67.3174 184.657 67.3174ZM193.808 56.6614V59.8114H198.038V61.8094H193.808V65.1394H198.578V67.1914H191.288V54.6094H198.578V56.6614H193.808ZM205.206 67.3174C204.33 67.3174 203.538 67.1674 202.83 66.8674C202.134 66.5674 201.582 66.1354 201.174 65.5714C200.766 65.0074 200.556 64.3414 200.544 63.5734H203.244C203.28 64.0894 203.46 64.4974 203.784 64.7974C204.12 65.0974 204.576 65.2474 205.152 65.2474C205.74 65.2474 206.202 65.1094 206.538 64.8334C206.874 64.5454 207.042 64.1734 207.042 63.7174C207.042 63.3454 206.928 63.0394 206.7 62.7994C206.472 62.5594 206.184 62.3734 205.836 62.2414C205.5 62.0974 205.032 61.9414 204.432 61.7734C203.616 61.5334 202.95 61.2994 202.434 61.0714C201.93 60.8314 201.492 60.4774 201.12 60.0094C200.76 59.5294 200.58 58.8934 200.58 58.1014C200.58 57.3574 200.766 56.7094 201.138 56.1574C201.51 55.6054 202.032 55.1854 202.704 54.8974C203.376 54.5974 204.144 54.4474 205.008 54.4474C206.304 54.4474 207.354 54.7654 208.158 55.4014C208.974 56.0254 209.424 56.9014 209.508 58.0294H206.736C206.712 57.5974 206.526 57.2434 206.178 56.9674C205.842 56.6794 205.392 56.5354 204.828 56.5354C204.336 56.5354 203.94 56.6614 203.64 56.9134C203.352 57.1654 203.208 57.5314 203.208 58.0114C203.208 58.3474 203.316 58.6294 203.532 58.8574C203.76 59.0734 204.036 59.2534 204.36 59.3974C204.696 59.5294 205.164 59.6854 205.764 59.8654C206.58 60.1054 207.246 60.3454 207.762 60.5854C208.278 60.8254 208.722 61.1854 209.094 61.6654C209.466 62.1454 209.652 62.7754 209.652 63.5554C209.652 64.2274 209.478 64.8514 209.13 65.4274C208.782 66.0034 208.272 66.4654 207.6 66.8134C206.928 67.1494 206.13 67.3174 205.206 67.3174Z" fill="#828282"/>
<path d="M10.0963 11.8108H4.97654C4.87209 11.8108 4.77192 11.8528 4.69807 11.9274C4.62421 12.0021 4.58272 12.1033 4.58272 12.2089V22.3607C4.58296 23.9685 5.13312 25.5269 6.13998 26.7717C7.14683 28.0164 8.54846 28.871 10.1073 29.1906C10.0999 28.9709 10.0963 28.7511 10.0963 28.5313V11.8108ZM10.6839 33.2799C7.95576 33.0776 5.40437 31.8394 3.54212 29.814C1.67987 27.7885 0.644674 25.1258 0.644444 22.3607V12.2089C0.644444 11.0475 1.10086 9.93364 1.91329 9.11238C2.72571 8.29113 3.8276 7.82975 4.97654 7.82975H10.1073C10.3121 4.27864 13.2264 1.46004 16.7914 1.46004H41.2086C42.9162 1.4599 44.5593 2.1193 45.8018 3.30335C47.0443 4.48741 47.7922 6.10662 47.8927 7.82975H53.0235C54.1724 7.82975 55.2743 8.29113 56.0867 9.11238C56.8991 9.93364 57.3556 11.0475 57.3556 12.2089V22.3607C57.3556 28.138 52.9289 32.8707 47.3161 33.2799C45.3848 40.914 38.9055 46.7073 30.9691 47.5385V53.2139H40.0272C42.1161 53.2139 44.1196 54.0528 45.5967 55.546C47.0739 57.0392 47.9037 59.0644 47.9037 61.1761V61.9723C47.9037 62.817 47.5718 63.627 46.9809 64.2243C46.3901 64.8216 45.5887 65.1571 44.7531 65.1571H13.2469C12.4113 65.1571 11.6099 64.8216 11.0191 64.2243C10.4282 63.627 10.0963 62.817 10.0963 61.9723V61.1761C10.0963 59.0644 10.9261 57.0392 12.4033 55.546C13.8804 54.0528 15.8839 53.2139 17.9728 53.2139H27.0309V47.5385C19.0945 46.7073 12.6168 40.914 10.6839 33.2799ZM47.8927 29.1906C51.0433 28.5488 53.4173 25.735 53.4173 22.3607V12.2089C53.4173 12.1033 53.3758 12.0021 53.3019 11.9274C53.2281 11.8528 53.1279 11.8108 53.0235 11.8108H47.9037V28.5313C47.9037 28.7527 47.9006 28.9708 47.8927 29.1906ZM14.0346 8.22786V28.5313C14.0346 32.5435 15.6113 36.3914 18.4178 39.2285C21.2244 42.0655 25.0309 43.6594 29 43.6594C32.9691 43.6594 36.7756 42.0655 39.5822 39.2285C42.3887 36.3914 43.9654 32.5435 43.9654 28.5313V8.22786C43.9654 7.48877 43.675 6.77995 43.158 6.25733C42.641 5.73471 41.9398 5.44111 41.2086 5.44111H16.7914C16.0602 5.44111 15.359 5.73471 14.842 6.25733C14.325 6.77995 14.0346 7.48877 14.0346 8.22786ZM14.0346 61.1761H43.9654C43.9654 60.1202 43.5505 59.1076 42.8119 58.361C42.0734 57.6144 41.0717 57.195 40.0272 57.195H17.9728C16.9283 57.195 15.9266 57.6144 15.1881 58.361C14.4495 59.1076 14.0346 60.1202 14.0346 61.1761Z" fill="#FFCD00"/>
<path fill-rule="evenodd" clip-rule="evenodd" d="M45.3597 3.77737C44.2368 2.70729 42.7519 2.11136 41.2087 2.11149H16.7914C13.57 2.11149 10.9357 4.65876 10.7507 7.86766L10.7153 8.4812H4.97654C3.99852 8.4812 3.06055 8.87394 2.36898 9.57303C1.67741 10.2721 1.28889 11.2203 1.28889 12.2089V22.3606C1.28912 24.9612 2.26272 27.4656 4.01416 29.3705C5.76562 31.2754 8.16521 32.44 10.731 32.6302L11.1933 32.6645L11.3082 33.1184C13.1752 40.4921 19.4331 46.0878 27.0973 46.8905L27.6753 46.9511V53.8654H17.9728C16.0548 53.8654 14.2153 54.6356 12.859 56.0066C11.5027 57.3777 10.7407 59.2372 10.7407 61.1761V61.9723C10.7407 62.6442 11.0048 63.2886 11.4748 63.7637C11.9448 64.2388 12.5822 64.5057 13.2469 64.5057H44.7531C45.4178 64.5057 46.0552 64.2388 46.5252 63.7637C46.9952 63.2886 47.2593 62.6442 47.2593 61.9723V61.1761C47.2593 59.2372 46.4973 57.3777 45.141 56.0066C43.7847 54.6356 41.9452 53.8654 40.0272 53.8654H30.3247V46.9511L30.9027 46.8905C38.567 46.0878 44.8264 40.492 46.6918 33.1185L46.8068 32.6639L47.2697 32.6302C52.5479 32.2453 56.7111 27.794 56.7111 22.3607V12.2089C56.7111 11.2203 56.3226 10.2721 55.631 9.57303C54.9394 8.87394 54.0015 8.4812 53.0235 8.4812H47.2851L47.2494 7.86807C47.1586 6.31081 46.4826 4.84745 45.3597 3.77737ZM41.2086 0.808594C43.0806 0.808448 44.8818 1.53132 46.2438 2.82934C47.4575 3.98589 48.2407 5.52117 48.4749 7.1783H53.0235C54.3433 7.1783 55.6091 7.70831 56.5424 8.65174C57.4757 9.59516 58 10.8747 58 12.2089V22.3607C58 28.3234 53.5499 33.2354 47.8222 33.8868C45.7407 41.3762 39.4036 47.064 31.6136 48.1172V52.5625H40.0272C42.2871 52.5625 44.4544 53.47 46.0524 55.0854C47.6504 56.7007 48.5482 58.8916 48.5482 61.1761V61.9723C48.5482 62.9897 48.1483 63.9655 47.4366 64.685C46.7249 65.4044 45.7596 65.8086 44.7531 65.8086H13.2469C12.2404 65.8086 11.2751 65.4044 10.5634 64.685C9.85169 63.9655 9.45185 62.9897 9.45185 61.9723V61.1761C9.45185 58.8916 10.3496 56.7007 11.9476 55.0854C13.5456 53.47 15.7129 52.5625 17.9728 52.5625H26.3864V48.1172C18.5961 47.064 12.2604 41.3758 10.1777 33.8862C7.46112 33.5736 4.93829 32.2894 3.07007 30.2575C1.09702 28.1115 0.000243339 25.2904 0 22.3607V12.2089C0 10.8747 0.524313 9.59516 1.4576 8.65174C2.39088 7.70831 3.65668 7.1783 4.97654 7.1783H9.52459C10.03 3.57884 13.0906 0.808594 16.7914 0.808594H41.2086ZM14.3863 5.79669C15.0242 5.1519 15.8893 4.78966 16.7914 4.78966H41.2086C42.1107 4.78966 42.9758 5.1519 43.6137 5.79669C44.2515 6.44147 44.6099 7.31599 44.6099 8.22786V28.5313C44.6099 32.7163 42.9653 36.7299 40.0378 39.6891C37.1104 42.6483 33.14 44.3108 29 44.3108C24.86 44.3108 20.8896 42.6483 17.9622 39.6891C15.0347 36.7299 13.3901 32.7163 13.3901 28.5313V8.22786C13.3901 7.31599 13.7485 6.44147 14.3863 5.79669ZM16.7914 6.09256C16.2311 6.09256 15.6938 6.31753 15.2977 6.71797C14.9016 7.11842 14.679 7.66154 14.679 8.22786V28.5313C14.679 32.3707 16.1878 36.0529 18.8735 38.7678C21.5592 41.4827 25.2018 43.0079 29 43.0079C32.7982 43.0079 36.4408 41.4827 39.1265 38.7678C41.8122 36.0529 43.321 32.3707 43.321 28.5313V8.22786C43.321 7.66154 43.0984 7.11842 42.7023 6.71797C42.3062 6.31753 41.7689 6.09256 41.2086 6.09256H16.7914ZM4.24237 11.4668C4.43709 11.2699 4.70118 11.1594 4.97654 11.1594H10.7407V28.5313C10.7407 28.7437 10.7443 28.9562 10.7514 29.1684L10.7791 29.993L9.97923 29.829C8.27466 29.4796 6.74204 28.5451 5.64108 27.184C4.54012 25.8229 3.93854 24.1189 3.93827 22.3608V12.2089C3.93827 11.9306 4.04766 11.6636 4.24237 11.4668ZM5.22716 12.4623V22.3606C5.2274 23.8181 5.72614 25.2309 6.63888 26.3593C7.37934 27.2747 8.35531 27.9573 9.45185 28.3371V12.4623H5.22716ZM47.2593 11.1594H53.0235C53.2988 11.1594 53.5629 11.2699 53.7576 11.4668C53.9523 11.6636 54.0617 11.9306 54.0617 12.2089V22.3607C54.0617 26.0514 51.4653 29.1274 48.02 29.8292L47.2191 29.9923L47.2487 29.167C47.2562 28.9566 47.2593 28.7464 47.2593 28.5313V11.1594ZM48.5482 12.4623V28.3379C51.0055 27.4878 52.7728 25.1322 52.7728 22.3607V12.4623H48.5482ZM14.7324 57.9004C15.5918 57.0316 16.7574 56.5436 17.9728 56.5436H40.0272C41.2426 56.5436 42.4082 57.0316 43.2676 57.9004C44.1271 58.7692 44.6099 59.9475 44.6099 61.1761V61.8275H13.3901V61.1761C13.3901 59.9475 13.8729 58.7692 14.7324 57.9004ZM17.9728 57.8465C17.0993 57.8465 16.2615 58.1973 15.6438 58.8217C15.1802 59.2903 14.8691 59.8842 14.7427 60.5246H43.2573C43.1309 59.8842 42.8198 59.2903 42.3563 58.8217C41.7385 58.1973 40.9007 57.8465 40.0272 57.8465H17.9728Z" fill="#FFCD00"/>
</svg>
