<svg width="220" height="73" viewBox="0 0 220 73" fill="none" xmlns="http://www.w3.org/2000/svg">
<path d="M31.6321 36.5H55.9655C57.669 36.5 58.5231 36.5 59.1737 36.8315C59.7461 37.1231 60.209 37.5885 60.5007 38.1608C60.8322 38.8115 60.8333 39.6631 60.8333 41.3666V55.9666C60.8333 57.6701 60.8322 58.522 60.5007 59.1726C60.209 59.7449 59.7461 60.2101 59.1737 60.5018C58.5231 60.8333 57.6702 60.8333 55.9667 60.8333H36.5H17.0321C15.3287 60.8333 14.4778 60.8333 13.8271 60.5018C13.2548 60.2101 12.7898 59.7449 12.4982 59.1726C12.1667 58.522 12.1667 57.6701 12.1667 55.9666V41.3666C12.1667 39.6631 12.1667 38.8115 12.4982 38.1608C12.7898 37.5885 13.2548 37.1231 13.8271 36.8315C14.4778 36.5 15.3287 36.5 17.0321 36.5H31.6321ZM31.6321 36.5H59.0071C60.7106 36.5 61.5648 36.5 62.2154 36.1684C62.7877 35.8768 63.2507 35.4116 63.5423 34.8393C63.8738 34.1886 63.875 33.3368 63.875 31.6333V29.1999C63.875 27.4964 63.8738 26.6448 63.5423 25.9941C63.2507 25.4218 62.7877 24.9565 62.2154 24.6649C61.5648 24.3333 60.7106 24.3333 59.0071 24.3333H41.3655M31.6321 36.5H13.9905C12.287 36.5 11.4361 36.5 10.7854 36.1684C10.2131 35.8768 9.74814 35.4116 9.45652 34.8393C9.125 34.1886 9.125 33.3368 9.125 31.6333V29.1999C9.125 27.4964 9.125 26.6448 9.45652 25.9941C9.74814 25.4218 10.2131 24.9565 10.7854 24.6649C11.4361 24.3333 12.287 24.3333 13.9905 24.3333H31.6321M36.5 16.7292V24.3333M36.5 16.7292C36.5 12.5295 39.9045 9.125 44.1042 9.125C48.3038 9.125 51.7083 12.5295 51.7083 16.7292C51.7083 20.9288 48.3038 24.3333 44.1042 24.3333H36.5M36.5 16.7292C36.5 12.5295 33.0955 9.125 28.8958 9.125C24.6962 9.125 21.2917 12.5295 21.2917 16.7292C21.2917 20.9288 24.6962 24.3333 28.8958 24.3333H36.5" stroke="#FFCD00" stroke-width="5" stroke-linecap="round" stroke-linejoin="round"/>
<path d="M98.3933 58H95.8733L90.1673 49.378V58H87.6473V45.418H90.1673L95.8733 54.058V45.418H98.3933V58ZM103.404 47.47V50.62H107.634V52.618H103.404V55.948H108.174V58H100.884V45.418H108.174V47.47H103.404ZM117.988 58L115.27 53.77L112.804 58H109.96L113.92 51.664L109.906 45.436H112.804L115.522 49.648L117.97 45.436H120.814L116.872 51.754L120.886 58H117.988ZM131.354 45.436V47.47H128.006V58H125.486V47.47H122.138V45.436H131.354ZM143.961 58L141.189 53.104H140.001V58H137.481V45.436H142.197C143.169 45.436 143.997 45.61 144.681 45.958C145.365 46.294 145.875 46.756 146.211 47.344C146.559 47.92 146.733 48.568 146.733 49.288C146.733 50.116 146.493 50.866 146.013 51.538C145.533 52.198 144.819 52.654 143.871 52.906L146.877 58H143.961ZM140.001 51.214H142.107C142.791 51.214 143.301 51.052 143.637 50.728C143.973 50.392 144.141 49.93 144.141 49.342C144.141 48.766 143.973 48.322 143.637 48.01C143.301 47.686 142.791 47.524 142.107 47.524H140.001V51.214ZM151.533 47.47V50.62H155.763V52.618H151.533V55.948H156.303V58H149.013V45.418H156.303V47.47H151.533ZM161.113 56.002H165.253V58H158.593V45.436H161.113V56.002ZM169.374 47.47V50.62H173.604V52.618H169.374V55.948H174.144V58H166.854V45.418H174.144V47.47H169.374ZM184.138 55.606H179.134L178.306 58H175.66L180.178 45.418H183.112L187.63 58H184.966L184.138 55.606ZM183.454 53.59L181.636 48.334L179.818 53.59H183.454ZM193.657 58.126C192.781 58.126 191.989 57.976 191.281 57.676C190.585 57.376 190.033 56.944 189.625 56.38C189.217 55.816 189.007 55.15 188.995 54.382H191.695C191.731 54.898 191.911 55.306 192.235 55.606C192.571 55.906 193.027 56.056 193.603 56.056C194.191 56.056 194.653 55.918 194.989 55.642C195.325 55.354 195.493 54.982 195.493 54.526C195.493 54.154 195.379 53.848 195.151 53.608C194.923 53.368 194.635 53.182 194.287 53.05C193.951 52.906 193.483 52.75 192.883 52.582C192.067 52.342 191.401 52.108 190.885 51.88C190.381 51.64 189.943 51.286 189.571 50.818C189.211 50.338 189.031 49.702 189.031 48.91C189.031 48.166 189.217 47.518 189.589 46.966C189.961 46.414 190.483 45.994 191.155 45.706C191.827 45.406 192.595 45.256 193.459 45.256C194.755 45.256 195.805 45.574 196.609 46.21C197.425 46.834 197.875 47.71 197.959 48.838H195.187C195.163 48.406 194.977 48.052 194.629 47.776C194.293 47.488 193.843 47.344 193.279 47.344C192.787 47.344 192.391 47.47 192.091 47.722C191.803 47.974 191.659 48.34 191.659 48.82C191.659 49.156 191.767 49.438 191.983 49.666C192.211 49.882 192.487 50.062 192.811 50.206C193.147 50.338 193.615 50.494 194.215 50.674C195.031 50.914 195.697 51.154 196.213 51.394C196.729 51.634 197.173 51.994 197.545 52.474C197.917 52.954 198.103 53.584 198.103 54.364C198.103 55.036 197.929 55.66 197.581 56.236C197.233 56.812 196.723 57.274 196.051 57.622C195.379 57.958 194.581 58.126 193.657 58.126ZM202.808 47.47V50.62H207.038V52.618H202.808V55.948H207.578V58H200.288V45.418H207.578V47.47H202.808ZM214.206 58.126C213.33 58.126 212.538 57.976 211.83 57.676C211.134 57.376 210.582 56.944 210.174 56.38C209.766 55.816 209.556 55.15 209.544 54.382H212.244C212.28 54.898 212.46 55.306 212.784 55.606C213.12 55.906 213.576 56.056 214.152 56.056C214.74 56.056 215.202 55.918 215.538 55.642C215.874 55.354 216.042 54.982 216.042 54.526C216.042 54.154 215.928 53.848 215.7 53.608C215.472 53.368 215.184 53.182 214.836 53.05C214.5 52.906 214.032 52.75 213.432 52.582C212.616 52.342 211.95 52.108 211.434 51.88C210.93 51.64 210.492 51.286 210.12 50.818C209.76 50.338 209.58 49.702 209.58 48.91C209.58 48.166 209.766 47.518 210.138 46.966C210.51 46.414 211.032 45.994 211.704 45.706C212.376 45.406 213.144 45.256 214.008 45.256C215.304 45.256 216.354 45.574 217.158 46.21C217.974 46.834 218.424 47.71 218.508 48.838H215.736C215.712 48.406 215.526 48.052 215.178 47.776C214.842 47.488 214.392 47.344 213.828 47.344C213.336 47.344 212.94 47.47 212.64 47.722C212.352 47.974 212.208 48.34 212.208 48.82C212.208 49.156 212.316 49.438 212.532 49.666C212.76 49.882 213.036 50.062 213.36 50.206C213.696 50.338 214.164 50.494 214.764 50.674C215.58 50.914 216.246 51.154 216.762 51.394C217.278 51.634 217.722 51.994 218.094 52.474C218.466 52.954 218.652 53.584 218.652 54.364C218.652 55.036 218.478 55.66 218.13 56.236C217.782 56.812 217.272 57.274 216.6 57.622C215.928 57.958 215.13 58.126 214.206 58.126Z" fill="#828282"/>
</svg>
