<svg width="69" height="75" viewBox="0 0 69 75" fill="none" xmlns="http://www.w3.org/2000/svg">
<path d="M60.1287 60.2806C60.1287 55.3211 55.3743 51.102 48.7383 49.5383M43.043 60.2808C43.043 53.99 35.3935 48.8903 25.9573 48.8903C16.5211 48.8903 8.87158 53.99 8.87158 60.2808M43.043 40.3475C49.3338 40.3475 54.4335 35.2478 54.4335 28.957C54.4335 22.6662 49.3338 17.5665 43.043 17.5665M25.9573 40.3475C19.6665 40.3475 14.5668 35.2478 14.5668 28.957C14.5668 22.6662 19.6665 17.5665 25.9573 17.5665C32.2481 17.5665 37.3478 22.6662 37.3478 28.957C37.3478 35.2478 32.2481 40.3475 25.9573 40.3475Z" stroke="#FFCD00" stroke-width="4.27143" stroke-linecap="round" stroke-linejoin="round"/>
</svg>
