<svg width="46" height="65" viewBox="0 0 46 65" fill="none" xmlns="http://www.w3.org/2000/svg">
<path d="M13.8604 38.6225C14.5116 30.9876 8.00267 31.7894 10.8869 23.9686C14.1361 15.1579 24.8209 19.5217 29.404 25.5418C35.1973 33.1518 35.7384 38.47 29.404 49.0674C21.1592 62.8607 6.5618 65.5383 3.72341 58.7089C-0.195874 49.2788 13.0495 48.1301 13.8604 38.6225Z" stroke="#FFCD00" stroke-width="4.2023" stroke-linecap="round" stroke-linejoin="round"/>
<path fill-rule="evenodd" clip-rule="evenodd" d="M17.0804 12.6652C19.6113 13.4688 22.5178 11.4779 23.5722 8.21833C24.6266 4.95876 23.4297 1.66489 20.8988 0.861256C18.3679 0.0576259 15.4615 2.04856 14.407 5.30813C13.3526 8.5677 14.5495 11.8616 17.0804 12.6652ZM28.3046 15.6229C30.1587 16.373 32.4046 15.1785 33.321 12.9551C34.2373 10.7316 33.4771 8.32109 31.6231 7.57104C29.769 6.82099 27.5231 8.01542 26.6067 10.2389C25.6904 12.4623 26.4505 14.8729 28.3046 15.6229ZM40.2452 19.8515C39.2735 21.5933 37.3083 22.3607 35.8558 21.5653C34.4033 20.7699 34.0135 18.7131 34.9852 16.9712C35.9569 15.2293 37.9222 14.462 39.3747 15.2574C40.8272 16.0527 41.2169 18.1096 40.2452 19.8515ZM39.7433 28.8665C40.921 29.8651 42.8648 29.5296 44.0848 28.1172C45.3048 26.7048 45.3391 24.7503 44.1613 23.7518C42.9836 22.7532 41.0398 23.0886 39.8198 24.501C38.5998 25.9134 38.5655 27.8679 39.7433 28.8665Z" fill="#FFCD00"/>
</svg>
