<svg width="61" height="62" viewBox="0 0 61 62" fill="none" xmlns="http://www.w3.org/2000/svg">
<path d="M10.0546 12.5822L10.0556 12.5812C12.5652 10.0687 16.8687 8.07514 22.2234 6.56194C27.5184 5.06564 33.577 4.10982 39.341 3.50535C45.0954 2.9019 50.5022 2.65399 54.4738 2.55732C56.3409 2.51188 57.8876 2.49994 59 2.5C59.0005 3.61262 58.9893 5.15961 58.9446 7.02716C58.8498 10.9994 58.6044 16.4068 58.0038 22.1618C57.4023 27.9265 56.4498 33.9856 54.9569 39.2808C53.4471 44.6358 51.4569 48.9388 48.9478 51.4472C43.7954 56.5983 36.7955 59.5 29.5012 59.5C22.2069 59.5 15.207 56.5983 10.0546 51.4472C4.90268 46.2966 2 39.2823 2 32.0064C2 24.7317 4.90183 17.7337 10.0546 12.5822ZM11.2888 44.4733L9.87403 45.8877L10.2646 46.2782C10.1696 46.624 10.1201 46.9849 10.1201 47.3524C10.1201 48.4348 10.5492 49.4588 11.3055 50.2148L12.7195 48.8005L11.3055 50.2149C12.0617 50.9709 13.0857 51.3996 14.1679 51.3996C15.2501 51.3996 16.2742 50.9709 17.0304 50.2149L20.1905 47.0555H29.4846C30.9409 47.0555 32.278 46.2669 32.9967 45.0258C33.722 43.7734 33.722 42.2265 32.9967 40.974C32.278 39.7329 30.9409 38.9444 29.4846 38.9444H28.3038L31.8279 35.4212H41.1385C42.5949 35.4212 43.932 34.6326 44.6507 33.3915C45.376 32.1391 45.376 30.5922 44.6507 29.3397C43.932 28.0986 42.5949 27.3101 41.1385 27.3101H39.9577L42.8763 24.3922C43.9378 23.3546 44.3214 21.8335 43.9306 20.4336C43.5529 19.0803 42.4977 17.9514 41.0558 17.5744C39.6271 17.1841 38.1313 17.6211 37.1273 18.6248L37.1264 18.6258L28.4046 27.3573V26.2475C28.4046 24.7908 27.6154 23.454 26.3743 22.7356C25.1219 22.0107 23.5751 22.0107 22.3227 22.7356C21.0816 23.454 20.2924 24.7908 20.2924 26.2475V35.4721L11.2888 44.4733Z" stroke="#FFCD00" stroke-width="4"/>
</svg>
