<svg width="94" height="94" viewBox="0 0 94 94" fill="none" xmlns="http://www.w3.org/2000/svg">
<g clip-path="url(#clip0_226_3958)">
<ellipse cx="47.2953" cy="46.4567" rx="46.4018" ry="45.7194" fill="#FFCD00"/>
<path d="M64.9274 20.5812L54.0255 41.4194H50.4512L55.491 31.962L49.6346 20.5812H53.4773L57.3816 28.4679L61.3475 20.5812H64.9274Z" fill="white"/>
<path d="M48.1075 34.0784H44.9192V26.6492C44.9192 25.1391 44.757 24.5273 44.6227 24.2407C44.4936 23.8741 44.2456 23.5595 43.9171 23.3454C43.5886 23.1313 43.1978 23.0295 42.8048 23.0558C42.4328 23.0634 42.0678 23.1572 41.7394 23.3295C41.4109 23.5019 41.1283 23.7479 40.9142 24.0478C40.3548 24.8194 40.2989 25.9713 40.2989 27.1286V34.0839H37.1106V26.6492C37.1106 25.1391 36.9484 24.5273 36.8141 24.2407C36.6842 23.8746 36.436 23.5605 36.1077 23.3466C35.7794 23.1326 35.389 23.0304 34.9962 23.0558C34.6242 23.0634 34.2592 23.1572 33.9308 23.3295C33.6023 23.5019 33.3197 23.7479 33.1056 24.0478C32.5462 24.8194 32.4903 25.9713 32.4903 27.1286V34.0839H29.2964V20.5867H32.4903V21.8378C32.8872 21.3345 33.3963 20.928 33.9784 20.6499C34.5604 20.3718 35.1996 20.2295 35.8464 20.234C36.5694 20.2214 37.2824 20.4011 37.9104 20.7542C38.5384 21.1072 39.0582 21.6205 39.4151 22.2401C39.8767 21.6067 40.4887 21.0943 41.1975 20.7475C41.9063 20.4007 42.6905 20.2301 43.4817 20.2506C44.267 20.2248 45.0448 20.4077 45.7337 20.7801C46.4226 21.1524 46.9972 21.7005 47.3971 22.3669C47.9359 23.4184 48.1829 24.5915 48.1131 25.7673V34.1004L48.1075 34.0784Z" fill="white"/>
<path d="M75.0391 73.6795L59.3858 57.4683V72.3661H56.0828V49.6045L71.7416 65.8102V51.0443H75.0391V73.6795Z" fill="white"/>
<path d="M29.5584 54.237L26.9059 55.7757C26.6528 55.1245 26.1973 54.5693 25.6048 54.1902C25.0122 53.811 24.3133 53.6273 23.6084 53.6655C21.601 53.6655 20.5667 54.847 20.5667 56.2208C20.5667 56.8638 20.7947 57.9793 22.8967 58.8091L25.0653 59.6774C29.0412 61.2711 30.1422 63.5241 30.1422 65.9421C30.1422 70.0031 27.2284 72.7837 23.1858 72.7837C22.2306 72.83 21.2772 72.6611 20.3977 72.2898C19.5182 71.9185 18.7355 71.3546 18.1089 70.6406C17.0484 69.4971 16.4096 68.0332 16.2961 66.4861L19.5658 65.7827C19.5658 66.7602 19.8835 67.7119 20.4722 68.4974C20.8046 68.9163 21.2332 69.2509 21.7225 69.4735C22.2118 69.6962 22.7477 69.8005 23.2859 69.7778C23.7624 69.7903 24.2364 69.7057 24.6784 69.5293C25.1203 69.3528 25.5208 69.0882 25.8547 68.752C26.1886 68.4159 26.4488 68.0153 26.6192 67.5753C26.7895 67.1354 26.8663 66.6654 26.8447 66.1948C26.8447 64.0242 25.1765 63.1285 23.7363 62.5514L21.6678 61.6887C19.8883 60.9523 17.2693 59.4906 17.2693 56.2868C17.2693 53.4072 19.5325 50.6596 23.5751 50.6596C25.1513 50.5924 26.6968 51.1054 27.9124 52.0994C28.5978 52.7035 29.1634 53.4284 29.5806 54.237" fill="white"/>
<path d="M42.7371 55.2097C42.3067 55.2373 41.8778 55.1363 41.5061 54.92C41.1344 54.7037 40.8371 54.382 40.6527 53.9966C40.4683 53.6112 40.4053 53.18 40.472 52.7588C40.5387 52.3377 40.7319 51.946 41.0265 51.6347C41.3212 51.3234 41.7037 51.1067 42.1245 51.0129C42.5453 50.9191 42.9849 50.9524 43.3863 51.1085C43.7877 51.2647 44.1323 51.5364 44.3755 51.8885C44.6187 52.2406 44.7492 52.6568 44.7501 53.083C44.7681 53.6287 44.5662 54.1592 44.1888 54.5579C43.8114 54.9567 43.2893 55.1911 42.7371 55.2097Z" fill="white"/>
<path d="M37.8994 51.0443V63.8923C37.8994 65.0463 37.9327 66.4531 38.5778 67.5687C39.0002 68.2447 39.5906 68.8028 40.2928 69.1899C40.9951 69.5769 41.7857 69.7801 42.5898 69.7801C43.3938 69.7801 44.1845 69.5769 44.8867 69.1899C45.5889 68.8028 46.1793 68.2447 46.6018 67.5687C47.2469 66.4696 47.2802 65.0463 47.2802 63.8923V51.0443H50.5833V64.7826C50.6594 66.812 49.9404 68.7923 48.5759 70.3108C47.7983 71.1027 46.8679 71.7322 45.8396 72.1621C44.8114 72.592 43.7063 72.8135 42.5898 72.8135C41.4733 72.8135 40.3682 72.592 39.3399 72.1621C38.3117 71.7322 37.3812 71.1027 36.6037 70.3108C35.2427 68.7906 34.5259 66.811 34.6019 64.7826V51.0443H37.8994Z" fill="white"/>
</g>
<defs>
<clipPath id="clip0_226_3958">
<rect width="92.8889" height="92.8889" fill="white" transform="translate(0.7146 0.859863)"/>
</clipPath>
</defs>
</svg>
