<svg width="303" height="65" viewBox="0 0 303 65" fill="none" xmlns="http://www.w3.org/2000/svg">
<path d="M83.4048 0L65.4538 65H52.2875L41.7051 32.9532L31.1174 65H18.0441L0 0H16.8452L25.4074 34.3231L35.9952 0H47.4096L57.9919 34.3231L66.5541 0H83.4048ZM143.335 65H98.865V52.5846L123.999 14.2436H99.9708V0H143.329V12.4154L118.103 50.7513H143.329V65H143.335ZM226.559 65H210.447V33.8699L201.146 49.9365H190.832L181.542 33.8699V65H165.43V0H181.262L195.989 28.6654L210.721 0H226.553V65H226.559ZM302.13 65H286.018V39.2526H268.894V65H252.777V0H268.894V25.0141H286.018V0H302.13V65Z" fill="#7A7A7A"/>
</svg>
