<svg width="238" height="357" viewBox="0 0 238 357" fill="none" xmlns="http://www.w3.org/2000/svg">
<g opacity="0.8">
<path d="M124.92 133.056C116.819 120.913 108.462 107.967 107.879 93.3981C107.622 86.8738 108.975 80.4009 110.397 74.0303C115.843 49.7097 122.505 25.6452 131.376 1C135.726 31.6058 140.059 62.7411 135.333 93.2956C133.26 106.839 129.407 120.024 124.92 133.056Z" fill="#C4E4F3"/>
<path d="M125.759 133.602C140.35 132.714 155.781 131.996 168.711 138.828C174.5 141.885 179.432 146.292 184.245 150.732C202.604 167.64 220.124 185.471 237.045 205.488C208.324 193.874 179.141 181.987 155.027 162.568C144.324 153.96 134.801 144.02 125.759 133.602Z" fill="#C4E4F3"/>
<path d="M121.853 134.85C115.773 148.428 109.214 162.638 97.1911 171.468C89.8954 176.831 81.1268 179.768 72.4609 182.381C34.5435 193.842 0 198.948 0 198.948C18.1538 181.937 39.2018 168.325 60.1301 154.816C66.638 150.614 73.1802 146.396 80.3903 143.543C93.8858 138.198 108.957 137.959 122.624 133.057" fill="#C4E4F3"/>
<path d="M119.764 132.885C114.695 210.663 110.088 279.783 111.561 351.805C118.822 356.673 128.653 357.424 134.493 353.428C130.194 280.005 128.173 208.323 128.173 132.885C125.467 133.346 122.95 132.987 119.764 132.885Z" fill="#C4E4F3"/>
<path d="M117.28 171.209C114.934 237.579 112.074 296.792 110.139 351.497C116.681 355.083 124.542 356.245 131.838 354.673" fill="#C4E4F3"/>
<path d="M117.28 171.209C114.934 237.579 112.074 296.792 110.139 351.497C116.681 355.083 124.542 356.245 131.838 354.673" stroke="white" stroke-width="2.58711" stroke-miterlimit="10" stroke-linecap="round" stroke-linejoin="round"/>
<path d="M110.14 283.966C116.922 287.672 125.005 287.758 131.838 284.188C131.719 283.829 131.616 283.471 131.496 283.112" fill="#C4E4F3"/>
<path d="M110.14 283.966C116.922 287.672 125.005 287.758 131.838 284.188C131.719 283.829 131.616 283.471 131.496 283.112" stroke="white" stroke-width="2.58711" stroke-miterlimit="10" stroke-linecap="round" stroke-linejoin="round"/>
<path d="M112.655 257.8C118.375 260.874 125.226 260.755 130.86 257.51L112.655 257.8Z" fill="#C4E4F3"/>
<path d="M112.655 257.8C118.375 260.874 125.226 260.755 130.86 257.51" stroke="white" stroke-width="2.58711" stroke-miterlimit="10" stroke-linecap="round" stroke-linejoin="round"/>
<path d="M113.118 230.39C118.444 234.096 125.363 234.267 130.81 230.851L113.118 230.39Z" fill="#C4E4F3"/>
<path d="M113.118 230.39C118.444 234.096 125.363 234.267 130.81 230.851" stroke="white" stroke-width="2.58711" stroke-miterlimit="10" stroke-linecap="round" stroke-linejoin="round"/>
<path d="M122.403 134.934C115.741 148.239 108.445 161.902 96.4737 170.766C88.1675 176.915 78.183 180.33 68.284 183.37C46.3625 190.117 24.0128 195.514 1.40625 199.493" fill="#C4E4F3"/>
<path d="M122.403 134.934C115.741 148.239 108.445 161.902 96.4737 170.766C88.1675 176.915 78.183 180.33 68.284 183.37C46.3625 190.117 24.0128 195.514 1.40625 199.493" stroke="white" stroke-width="2.58711" stroke-miterlimit="10" stroke-linecap="round" stroke-linejoin="round"/>
<path d="M103.322 144.703C96.7973 145.608 90.2722 146.513 83.5416 147.504C78.7634 150.527 73.9852 153.55 69.207 156.573" fill="#C4E4F3"/>
<path d="M103.322 144.703C96.7973 145.608 90.2722 146.513 83.5416 147.504C78.7634 150.527 73.9852 153.55 69.207 156.573" stroke="white" stroke-width="2.58711" stroke-miterlimit="10" stroke-linecap="round" stroke-linejoin="round"/>
<path d="M63.3153 161.356C60.7293 162.842 58.1261 164.345 55.54 165.831L63.3153 161.356Z" fill="#C4E4F3"/>
<path d="M63.3153 161.356C60.7293 162.842 58.1261 164.345 55.54 165.831" stroke="white" stroke-width="2.58711" stroke-miterlimit="10" stroke-linecap="round" stroke-linejoin="round"/>
<path d="M131.202 1.61572C133.274 25.7314 135.364 49.8301 137.984 73.6555C135.501 90.9566 132.213 108.138 128.171 125.132" fill="#C4E4F3"/>
<path d="M131.202 1.61572C133.274 25.7314 135.364 49.8301 137.984 73.6555C135.501 90.9566 132.213 108.138 128.171 125.132" stroke="white" stroke-width="2.58711" stroke-miterlimit="10" stroke-linecap="round" stroke-linejoin="round"/>
<path d="M119.764 112.989C117.76 108.327 115.739 103.647 114.523 98.7113C113.308 93.7925 112.896 88.5662 114.13 83.6475" fill="#C4E4F3"/>
<path d="M119.764 112.989C117.76 108.327 115.739 103.647 114.523 98.7113C113.308 93.7925 112.896 88.5662 114.13 83.6475" stroke="white" stroke-width="2.58711" stroke-miterlimit="10" stroke-linecap="round" stroke-linejoin="round"/>
<path d="M115.62 77.1211C116.339 74.5251 117.042 71.929 117.761 69.333L115.62 77.1211Z" fill="#C4E4F3"/>
<path d="M115.62 77.1211C116.339 74.5251 117.042 71.929 117.761 69.333" stroke="white" stroke-width="2.58711" stroke-miterlimit="10" stroke-linecap="round" stroke-linejoin="round"/>
<path d="M141.515 149.741C149.239 158.332 157.682 166.256 166.365 173.088C188.663 183.967 211.252 194.249 234.082 203.916" fill="#C4E4F3"/>
<path d="M141.515 149.741C149.239 158.332 157.682 166.256 166.365 173.088C188.663 183.967 211.252 194.249 234.082 203.916" stroke="white" stroke-width="2.58711" stroke-miterlimit="10" stroke-linecap="round" stroke-linejoin="round"/>
<path d="M145.66 139.187C155.576 139.187 165.458 142.654 173.199 148.82L145.66 139.187Z" fill="#C4E4F3"/>
<path d="M145.66 139.187C155.576 139.187 165.458 142.654 173.199 148.82" stroke="white" stroke-width="2.58711" stroke-miterlimit="10" stroke-linecap="round" stroke-linejoin="round"/>
<path d="M114.901 128.838C113.326 131.827 113.274 135.602 114.97 138.522C116.665 141.443 120.039 143.338 123.43 143.168C126.016 143.031 128.448 141.75 130.349 140.008C132.678 137.873 134.323 134.901 134.494 131.759C134.682 128.616 133.449 125.013 130.64 123.578C127.112 121.768 118.481 121.99 114.901 128.838Z" fill="#C4E4F3"/>
<path d="M178.13 152.576C181.675 155.872 185.203 159.151 188.748 162.448L178.13 152.576Z" fill="#C4E4F3"/>
<path d="M178.13 152.576C181.675 155.872 185.203 159.151 188.748 162.448" stroke="white" stroke-width="2.58711" stroke-miterlimit="10" stroke-linecap="round" stroke-linejoin="round"/>
</g>
</svg>
