<svg width="212" height="68" viewBox="0 0 212 68" fill="none" xmlns="http://www.w3.org/2000/svg">
<path d="M79.7238 26.8446C87.1398 26.8446 93.149 20.8354 93.149 13.4194C93.149 6.00341 87.1398 0 79.7238 0C72.3137 0 66.3044 6.0092 66.3044 13.4194C66.3044 20.4533 60.8915 26.2251 53.9966 26.7925V26.8446H79.226V26.833C79.3939 26.833 79.5617 26.8446 79.7238 26.8446Z" fill="#666666"/>
<path d="M20.3375 26.8447C9.10643 26.8447 0 35.9512 0 47.1822C0 58.4133 9.10643 67.5197 20.3375 67.5197C31.5686 67.5197 40.675 58.4133 40.675 47.1822C40.675 36.5243 48.8783 27.7826 59.322 26.92V26.8447H21.0959V26.8621C20.8412 26.8505 20.5922 26.8447 20.3375 26.8447Z" fill="#666666"/>
<path d="M70.6408 47.4775C69.4251 45.3992 67.5088 44.6987 64.9789 44.6987C61.3665 44.6987 59.4155 46.5049 59.4155 49.2201C59.4155 52.601 61.8759 53.5736 64.5969 53.9441C67.7636 54.3783 69.3614 55.1193 69.3614 57.2613C69.3614 59.2702 67.7925 60.1096 65.3031 60.1096C62.808 60.1096 61.5923 59.4728 60.6312 58.066L59.2534 59.0675C60.4344 60.8101 62.1017 61.8464 65.2684 61.8464C69.5235 61.8464 71.1213 59.8375 71.1213 57.2266C71.1213 53.6778 68.5335 52.7399 65.4305 52.3057C63.1901 52.0047 61.1754 51.5358 61.1754 49.1911C61.1754 47.2807 62.808 46.4471 64.95 46.4471C67.2831 46.4471 68.3077 47.0144 69.2977 48.4907L70.6408 47.4775ZM91.2678 52.0279C91.2678 47.2749 88.9984 44.6929 85.0328 44.6929C82.6013 44.6929 81.1019 45.4976 80.2046 47.0028V44.8956H78.4447V68.0003H80.2046V59.6638C81.1019 61.1401 82.6013 61.8406 85.0328 61.8406C89.1894 61.8406 91.2678 59.027 91.2678 54.442V52.0279ZM84.8996 60.1328C81.3798 60.1328 80.2277 57.8865 80.1988 54.743V51.831C80.1988 48.5485 81.5071 46.4065 84.8996 46.4065C87.939 46.4065 89.502 48.3807 89.502 52.0336V54.442C89.5078 57.956 87.9737 60.1328 84.8996 60.1328ZM97.6938 56.8503C97.6938 60.0633 99.7084 61.8406 103.257 61.8406C105.307 61.8406 106.904 61.3369 107.796 59.5654V61.6437H109.556V50.0537C109.556 45.9665 107.703 44.6987 103.801 44.6987C100.953 44.6987 99.3553 45.3992 98.238 47.3791L99.5811 48.3517C100.606 46.5744 101.85 46.4413 103.772 46.4413C106.713 46.4413 107.802 47.2112 107.802 50.0595V52.1321H103.13C99.8358 52.1321 97.6938 53.6373 97.6938 56.8503ZM107.802 55.4145C107.802 59.166 105.851 60.1038 103.263 60.1038C101.023 60.1038 99.4595 59.2296 99.4595 56.8908C99.4595 55.1135 100.386 53.7762 103.136 53.7762H107.808V55.4145H107.802ZM123.213 46.4413C124.619 46.4413 125.58 47.0086 126.408 48.1491L127.879 47.0086C126.825 45.5382 125.447 44.6987 123.369 44.6987C121.354 44.6987 120.011 45.6366 119.34 47.1765V44.9013H117.58V61.6437H119.34V51.5589C119.34 48.5138 120.717 46.4413 123.213 46.4413ZM143.133 44.9013L135.266 53.3073V38.5332H133.506V61.638H135.266V55.8777L137.315 53.6662L144.222 61.638H146.526L138.595 52.2942L145.437 44.8956H143.133V44.9013ZM154.457 38.5332H152.697V61.638H154.457V59.6581C155.354 61.1343 156.854 61.8348 159.285 61.8348C163.442 61.8348 165.52 59.0212 165.52 54.4362V52.0279C165.52 47.2749 163.251 44.6929 159.285 44.6929C156.854 44.6929 155.354 45.4976 154.457 47.0028V38.5332ZM159.152 60.1328C155.632 60.1328 154.486 57.8865 154.451 54.743V51.831C154.451 48.5485 155.76 46.4065 159.152 46.4065C162.191 46.4065 163.754 48.3807 163.754 52.0336V54.442C163.76 57.956 162.226 60.1328 159.152 60.1328ZM173.226 61.638H174.986V44.9013H173.226V61.638ZM173.035 40.7794H175.177V38.5332H173.035V40.7794ZM189.117 46.4413C190.524 46.4413 191.485 47.0086 192.313 48.1491L193.783 47.0086C192.729 45.5382 191.352 44.6987 189.273 44.6987C187.259 44.6987 185.916 45.6366 185.244 47.1765V44.9013H183.484V61.6437H185.244V51.5589C185.244 48.5138 186.622 46.4413 189.117 46.4413ZM209.553 47.0723C208.656 45.4976 207.121 44.6929 204.725 44.6929C200.759 44.6929 198.49 47.2691 198.49 52.0279V54.4362C198.49 59.0212 200.568 61.8348 204.725 61.8348C207.121 61.8348 208.656 61.1285 209.553 59.5886V61.6322H211.313V38.5332H209.553V47.0723ZM204.852 60.1328C201.749 60.1328 200.25 57.956 200.25 54.442V52.0336C200.25 48.3807 201.819 46.4065 204.852 46.4065C208.273 46.4065 209.553 48.6527 209.553 52.0684V54.4767C209.553 57.7534 208.43 60.1328 204.852 60.1328Z" fill="#666666"/>
</svg>
