<svg width="102" height="76" viewBox="0 0 102 76" fill="none" xmlns="http://www.w3.org/2000/svg">
<path d="M27.3746 28L24.7451 38.5609L21.4961 28H17.9855L14.7365 38.5609L12.107 28H6.94434L12.4787 48H16.4849L19.7339 38.1505L22.9967 48H27.0304L32.5373 28H27.3746Z" fill="#C4E4F3"/>
<path d="M36.5572 28V32.3913H43.9364L36.2131 44.1833V48H49.87V43.6224H42.1191L49.87 31.8304V28H36.5572Z" fill="#C4E4F3"/>
<path d="M69.4742 28L64.9587 36.8235L60.4431 28H55.5695V48H60.5257V38.4241L63.3755 43.3625H66.5419L69.3916 38.4241V48H74.334V28H69.4742Z" fill="#C4E4F3"/>
<path d="M91.4464 28V35.7018H86.1874V28H81.2313V48H86.1874V40.0793H91.4464V48H96.3888V28H91.4464Z" fill="#C4E4F3"/>
</svg>
