<svg width="93" height="96" viewBox="0 0 93 96" fill="none" xmlns="http://www.w3.org/2000/svg">
<g opacity="0.8">
<path d="M47.1413 69.0276C49.5123 66.5569 51.8789 64.0914 54.2499 61.6207C62.8237 63.6887 72.4645 59.55 77.5056 52.152C82.5466 44.7541 82.9793 34.6342 79.1258 26.5533C75.0591 18.0347 66.3155 11.8723 56.9025 11.1698C47.4895 10.4672 37.8097 15.3893 33.0499 23.5466C28.2945 31.6986 28.8359 42.7112 34.5865 50.2008C33.3175 52.9936 32.3446 55.8958 31.1087 58.6081C35.6173 63.3863 41.1097 67.232 47.1413 69.0276Z" fill="#222221"/>
<path d="M39.1733 61.5731C39.6474 52.0062 41.8953 42.2865 47.344 34.4043C47.921 33.5756 48.5419 32.7485 49.3884 32.1971C50.2349 31.6457 51.3434 31.4015 52.267 31.815C53.1145 32.1903 53.6678 33.0658 53.8532 33.9787C54.0334 34.8871 53.8897 35.8344 53.6543 36.7301C53.1017 38.7959 52.036 40.7198 50.5726 42.2834C50.0716 42.8234 49.2327 43.345 48.6561 42.8761C48.2047 42.5149 48.2838 41.8114 48.4371 41.2536C49.6326 36.8274 52.7227 32.9515 56.7614 30.7994C57.8497 30.2201 59.0974 29.7507 60.2868 30.0662C61.6007 30.4163 62.5196 31.6789 62.7996 33.0091C63.0796 34.3392 62.8224 35.7243 62.4519 37.0301C61.1824 41.5107 58.6233 45.5077 55.989 49.3493C52.5331 54.399 48.8774 59.3222 45.0498 64.0974" fill="#222221"/>
<path d="M39.1733 61.5731C39.6474 52.0062 41.8953 42.2865 47.344 34.4043C47.921 33.5756 48.5419 32.7485 49.3884 32.1971C50.2349 31.6457 51.3434 31.4015 52.267 31.815C53.1145 32.1903 53.6678 33.0658 53.8532 33.9787C54.0334 34.8871 53.8897 35.8344 53.6543 36.7301C53.1017 38.7959 52.036 40.7198 50.5726 42.2834C50.0716 42.8234 49.2327 43.345 48.6561 42.8761C48.2047 42.5149 48.2838 41.8114 48.4371 41.2536C49.6326 36.8274 52.7227 32.9515 56.7614 30.7994C57.8497 30.2201 59.0974 29.7507 60.2868 30.0662C61.6007 30.4163 62.5196 31.6789 62.7996 33.0091C63.0796 34.3392 62.8224 35.7243 62.4519 37.0301C61.1824 41.5107 58.6233 45.5077 55.989 49.3493C52.5331 54.399 48.8774 59.3222 45.0498 64.0974" stroke="white" stroke-width="2" stroke-miterlimit="10" stroke-linecap="round" stroke-linejoin="round"/>
<path d="M36.0838 44.9815C32.8705 38.7402 33.8162 30.5866 38.377 25.2441Z" fill="#222221"/>
<path d="M36.0838 44.9815C32.8705 38.7402 33.8162 30.5866 38.377 25.2441" stroke="white" stroke-width="2" stroke-miterlimit="10" stroke-linecap="round" stroke-linejoin="round"/>
<path d="M40.2099 23.1455C41.0674 22.286 42.0315 21.5453 43.0832 20.9346Z" fill="#222221"/>
<path d="M40.2099 23.1455C41.0674 22.286 42.0315 21.5453 43.0832 20.9346" stroke="white" stroke-width="2" stroke-miterlimit="10" stroke-linecap="round" stroke-linejoin="round"/>
<path d="M81.5916 38.0509C82.0392 44.9438 79.0537 51.9776 73.7837 56.4465C68.5136 60.9154 61.0928 62.7167 54.6968 61.0704C52.8625 63.413 50.8308 65.5948 48.6287 67.5846" fill="#222221"/>
<path d="M81.5916 38.0509C82.0392 44.9438 79.0537 51.9776 73.7837 56.4465C68.5136 60.9154 61.0928 62.7167 54.6968 61.0704C52.8625 63.413 50.8308 65.5948 48.6287 67.5846" stroke="white" stroke-width="2" stroke-miterlimit="10" stroke-linecap="round" stroke-linejoin="round"/>
<path d="M36.6569 81.581C35.1363 83.4219 33.6111 85.2682 32.0905 87.1092C29.7939 85.6866 27.6729 84.5241 25.5563 83.3563C26.4148 80.9455 27.2378 78.7765 28.1464 76.3181C31.1942 77.8061 34.1363 79.5119 36.6569 81.581Z" fill="#222221"/>
<path d="M49.586 65.7124C50.5225 66.364 51.4859 67.0477 52.0762 68.0277C52.6622 69.0129 52.7593 70.3763 51.9936 71.224C51.4978 71.7686 50.7542 72 50.0479 72.2092C50.9446 72.654 51.6486 73.523 51.7913 74.5171C51.934 75.5113 51.4782 76.5894 50.6139 77.0982C49.7496 77.607 48.5188 77.4556 47.474 76.856C48.6427 77.417 49.0854 79.0959 48.3506 80.1608C47.6157 81.2257 45.8873 81.3994 44.952 80.5039C45.653 81.3975 45.8691 82.6544 45.5005 83.726C45.132 84.7975 44.1916 85.6584 43.0801 85.9272C41.3938 86.3368 39.6923 85.4354 38.2011 84.5426C32.396 81.0813 23.1605 76.4289 23.1605 76.4289C21.6918 75.51 20.1071 74.4096 19.7025 72.7181C19.4391 71.6111 19.7714 70.3813 20.5588 69.5612C21.3461 68.7411 22.5564 68.3576 23.6751 68.576C22.4531 68.1507 21.82 66.5349 22.4274 65.3966C23.0393 64.2532 24.7383 63.8816 25.7626 64.6632C24.7522 64.0025 24.0515 62.982 24.1132 61.9823C24.1697 60.9781 24.9267 60.0774 25.8734 59.7575C26.8246 59.4324 27.9194 59.6574 28.73 60.2551C28.5882 59.534 28.4525 58.7638 28.7128 58.0711C29.1157 57.0018 30.3777 56.4631 31.5199 56.5383C32.662 56.6135 33.7077 57.1593 34.7183 57.6931L49.586 65.7124Z" fill="#222221"/>
<path d="M30.2835 57.0361C29.5177 56.84 28.7002 57.4526 28.4934 58.2096C28.2874 58.9763 28.5886 59.8073 29.0925 60.4133C29.5919 61.0245 30.2826 61.4555 30.957 61.8634C34.4766 63.9843 38.1997 65.763 42.0572 67.1854" fill="#222221"/>
<path d="M30.2835 57.0361C29.5177 56.84 28.7002 57.4526 28.4934 58.2096C28.2874 58.9763 28.5886 59.8073 29.0925 60.4133C29.5919 61.0245 30.2826 61.4555 30.957 61.8634C34.4766 63.9843 38.1997 65.763 42.0572 67.1854" stroke="white" stroke-width="2" stroke-miterlimit="10" stroke-linecap="round" stroke-linejoin="round"/>
<path d="M51.3653 73.9151C51.6895 74.4663 51.5888 75.2056 51.2132 75.7264C50.8375 76.2473 50.2266 76.5566 49.6018 76.6816C48.0403 76.9989 46.4825 76.2574 45.0626 75.5348C41.1637 73.5595 37.2649 71.5842 33.3616 69.6141" fill="#222221"/>
<path d="M51.3653 73.9151C51.6895 74.4663 51.5888 75.2056 51.2132 75.7264C50.8375 76.2473 50.2266 76.5566 49.6018 76.6816C48.0403 76.9989 46.4825 76.2574 45.0626 75.5348C41.1637 73.5595 37.2649 71.5842 33.3616 69.6141" stroke="white" stroke-width="2" stroke-miterlimit="10" stroke-linecap="round" stroke-linejoin="round"/>
<path d="M24.5472 64.9159C23.8893 64.4678 22.8879 64.904 22.5827 65.6488C22.282 66.3885 22.5473 67.2612 23.0526 67.8866C23.5527 68.5075 24.2577 68.9326 24.9417 69.3397C28.6171 71.5221 32.2879 73.7096 35.9633 75.892" fill="#222221"/>
<path d="M24.5472 64.9159C23.8893 64.4678 22.8879 64.904 22.5827 65.6488C22.282 66.3885 22.5473 67.2612 23.0526 67.8866C23.5527 68.5075 24.2577 68.9326 24.9417 69.3397C28.6171 71.5221 32.2879 73.7096 35.9633 75.892" stroke="white" stroke-width="2" stroke-miterlimit="10" stroke-linecap="round" stroke-linejoin="round"/>
<path d="M45.185 81.2862C45.7537 83.019 44.496 85.1134 42.695 85.4243C41.3179 85.6643 39.9606 84.9956 38.7212 84.3375C35.7757 82.7832 32.831 81.2387 29.8856 79.6844" fill="#222221"/>
<path d="M45.185 81.2862C45.7537 83.019 44.496 85.1134 42.695 85.4243C41.3179 85.6643 39.9606 84.9956 38.7212 84.3375C35.7757 82.7832 32.831 81.2387 29.8856 79.6844" stroke="white" stroke-width="2" stroke-miterlimit="10" stroke-linecap="round" stroke-linejoin="round"/>
</g>
</svg>
