<svg width="248" height="93" viewBox="0 0 248 93" fill="none" xmlns="http://www.w3.org/2000/svg">
<path d="M58.9803 0H39.5518C39.1686 0 38.8579 0.310727 38.8579 0.694029V0.694032C38.8579 1.07733 39.1686 1.38806 39.5518 1.38806H58.9803C59.3635 1.38806 59.6741 1.07733 59.6741 0.694029C59.6741 0.310727 59.3635 0 58.9803 0Z" fill="url(#paint0_linear_569_1918)"/>
<path d="M70.0802 4.16406H28.4478C28.0646 4.16406 27.7539 4.47479 27.7539 4.85809V4.85809C27.7539 5.2414 28.0646 5.55212 28.4478 5.55212H70.0802C70.4635 5.55212 70.7741 5.2414 70.7741 4.85809C70.7741 4.47479 70.4635 4.16406 70.0802 4.16406Z" fill="url(#paint1_linear_569_1918)"/>
<path d="M78.406 8.32764H20.1206C19.7374 8.32764 19.4268 8.63836 19.4268 9.02167V9.02167C19.4268 9.40497 19.7374 9.7157 20.1206 9.7157H78.406C78.7892 9.7157 79.0998 9.40497 79.0998 9.02167C79.0998 8.63836 78.7892 8.32764 78.406 8.32764Z" fill="url(#paint2_linear_569_1918)"/>
<path d="M82.5724 12.4932H15.9605C15.5773 12.4932 15.2666 12.8039 15.2666 13.1872V13.1872C15.2666 13.5705 15.5773 13.8812 15.9605 13.8812H82.5724C82.9556 13.8812 83.2662 13.5705 83.2662 13.1872C83.2662 12.8039 82.9556 12.4932 82.5724 12.4932Z" fill="url(#paint3_linear_569_1918)"/>
<path d="M86.7354 16.6572H11.7969C11.4137 16.6572 11.103 16.968 11.103 17.3513V17.3513C11.103 17.7346 11.4137 18.0453 11.7969 18.0453H86.7354C87.1186 18.0453 87.4292 17.7346 87.4292 17.3513C87.4292 16.968 87.1186 16.6572 86.7354 16.6572Z" fill="url(#paint4_linear_569_1918)"/>
<path d="M90.8961 20.8203H7.63137C7.24816 20.8203 6.9375 21.131 6.9375 21.5143V21.5143C6.9375 21.8976 7.24816 22.2084 7.63137 22.2084H90.8961C91.2793 22.2084 91.59 21.8976 91.59 21.5143C91.59 21.131 91.2793 20.8203 90.8961 20.8203Z" fill="url(#paint5_linear_569_1918)"/>
<path d="M93.6725 24.9849H4.85647C4.47326 24.9849 4.1626 25.2956 4.1626 25.6789V25.6789C4.1626 26.0622 4.47326 26.3729 4.85647 26.3729H93.6725C94.0557 26.3729 94.3663 26.0622 94.3663 25.6789C94.3663 25.2956 94.0557 24.9849 93.6725 24.9849Z" fill="url(#paint6_linear_569_1918)"/>
<path d="M95.0606 29.1494H3.46926C3.08605 29.1494 2.77539 29.4601 2.77539 29.8434C2.77539 30.2267 3.08605 30.5375 3.46926 30.5375H95.0606C95.4438 30.5375 95.7544 30.2267 95.7544 29.8434C95.7544 29.4601 95.4438 29.1494 95.0606 29.1494Z" fill="url(#paint7_linear_569_1918)"/>
<path d="M96.448 33.314H2.08108C1.69787 33.314 1.38721 33.6247 1.38721 34.008V34.008C1.38721 34.3913 1.69787 34.702 2.08108 34.702H96.448C96.8312 34.702 97.1419 34.3913 97.1419 34.008C97.1419 33.6247 96.8312 33.314 96.448 33.314Z" fill="url(#paint8_linear_569_1918)"/>
<path d="M97.8361 37.4775H0.693873C0.310657 37.4775 0 37.7883 0 38.1716V38.1716C0 38.5549 0.310657 38.8656 0.693873 38.8656H97.8361C98.2193 38.8656 98.53 38.5549 98.53 38.1716C98.53 37.7883 98.2193 37.4775 97.8361 37.4775Z" fill="url(#paint9_linear_569_1918)"/>
<path d="M97.8361 41.6426H0.693873C0.310657 41.6426 0 41.9533 0 42.3366V42.3366C0 42.7199 0.310657 43.0306 0.693873 43.0306H97.8361C98.2193 43.0306 98.53 42.7199 98.53 42.3366C98.53 41.9533 98.2193 41.6426 97.8361 41.6426Z" fill="url(#paint10_linear_569_1918)"/>
<path d="M97.8361 49.9697H0.693873C0.310657 49.9697 0 50.2805 0 50.6638V50.6638C0 51.0471 0.310657 51.3578 0.693873 51.3578H97.8361C98.2193 51.3578 98.53 51.0471 98.53 50.6638C98.53 50.2805 98.2193 49.9697 97.8361 49.9697Z" fill="url(#paint11_linear_569_1918)"/>
<path d="M96.448 54.1348H2.08108C1.69787 54.1348 1.38721 54.4455 1.38721 54.8288V54.8288C1.38721 55.2121 1.69787 55.5228 2.08108 55.5228H96.448C96.8312 55.5228 97.1419 55.2121 97.1419 54.8288C97.1419 54.4455 96.8312 54.1348 96.448 54.1348Z" fill="url(#paint12_linear_569_1918)"/>
<path d="M96.448 58.2988H2.08108C1.69787 58.2988 1.38721 58.6096 1.38721 58.9929V58.9929C1.38721 59.3762 1.69787 59.6869 2.08108 59.6869H96.448C96.8312 59.6869 97.1419 59.3762 97.1419 58.9929C97.1419 58.6096 96.8312 58.2988 96.448 58.2988Z" fill="url(#paint13_linear_569_1918)"/>
<path d="M95.0601 62.4629H4.85647C4.47326 62.4629 4.1626 62.7736 4.1626 63.1569C4.1626 63.5402 4.47326 63.851 4.85647 63.851H95.0601C95.4433 63.851 95.754 63.5402 95.754 63.1569C95.754 62.7736 95.4433 62.4629 95.0601 62.4629Z" fill="url(#paint14_linear_569_1918)"/>
<path d="M92.2855 66.6265H6.24514C5.86193 66.6265 5.55127 66.9372 5.55127 67.3205V67.3205C5.55127 67.7038 5.86193 68.0145 6.24514 68.0145H92.2855C92.6687 68.0145 92.9794 67.7038 92.9794 67.3205C92.9794 66.9372 92.6687 66.6265 92.2855 66.6265Z" fill="url(#paint15_linear_569_1918)"/>
<path d="M90.8971 70.792H10.4077C10.0245 70.792 9.71387 71.1027 9.71387 71.486C9.71387 71.8693 10.0245 72.1801 10.4077 72.1801H90.8971C91.2803 72.1801 91.591 71.8693 91.591 71.486C91.591 71.1027 91.2803 70.792 90.8971 70.792Z" fill="url(#paint16_linear_569_1918)"/>
<path d="M88.123 74.9546H11.7969C11.4137 74.9546 11.103 75.2653 11.103 75.6486V75.6486C11.103 76.0319 11.4137 76.3426 11.7969 76.3426H88.123C88.5062 76.3426 88.8169 76.0319 88.8169 75.6486C88.8169 75.2653 88.5062 74.9546 88.123 74.9546Z" fill="url(#paint17_linear_569_1918)"/>
<path d="M83.96 79.1191H15.9605C15.5773 79.1191 15.2666 79.4299 15.2666 79.8132V79.8132C15.2666 80.1965 15.5773 80.5072 15.9605 80.5072H83.96C84.3432 80.5072 84.6539 80.1965 84.6539 79.8132C84.6539 79.4299 84.3432 79.1191 83.96 79.1191Z" fill="url(#paint18_linear_569_1918)"/>
<path d="M78.4059 83.2837H20.1206C19.7374 83.2837 19.4268 83.5944 19.4268 83.9777C19.4268 84.361 19.7374 84.6718 20.1206 84.6718H78.4059C78.7892 84.6718 79.0998 84.361 79.0998 83.9777C79.0998 83.5944 78.7892 83.2837 78.4059 83.2837Z" fill="url(#paint19_linear_569_1918)"/>
<path d="M67.3052 87.4473H29.836C29.4527 87.4473 29.1421 87.758 29.1421 88.1413V88.1413C29.1421 88.5246 29.4527 88.8353 29.836 88.8353H67.3052C67.6884 88.8353 67.999 88.5246 67.999 88.1413C67.999 87.758 67.6884 87.4473 67.3052 87.4473Z" fill="url(#paint20_linear_569_1918)"/>
<path d="M60.3676 91.6118H38.1636C37.7804 91.6118 37.4697 91.9225 37.4697 92.3059C37.4697 92.6892 37.7804 92.9999 38.1636 92.9999H60.3676C60.7508 92.9999 61.0614 92.6892 61.0614 92.3059C61.0614 91.9225 60.7508 91.6118 60.3676 91.6118Z" fill="url(#paint21_linear_569_1918)"/>
<path d="M97.8361 45.8062H0.693873C0.310657 45.8062 0 46.1169 0 46.5002V46.5002C0 46.8835 0.310657 47.1942 0.693873 47.1942H97.8361C98.2193 47.1942 98.53 46.8835 98.53 46.5002C98.53 46.1169 98.2193 45.8062 97.8361 45.8062Z" fill="url(#paint22_linear_569_1918)"/>
<path d="M53.1776 76.9595C48.5716 76.9595 44.3306 76.2243 40.4547 74.7541C36.6352 73.2269 33.2931 71.1065 30.4283 68.3919C27.5636 65.6209 25.345 62.3694 23.7721 58.6369C22.1993 54.9046 21.4131 50.8331 21.4131 46.422C21.4131 42.0111 22.1993 37.9394 23.7721 34.2071C25.345 30.4748 27.5636 27.2513 30.4283 24.537C33.3492 21.7661 36.7477 19.6454 40.6233 18.1751C44.4991 16.6482 48.7399 15.8848 53.3461 15.8848C58.3453 15.8848 62.8388 16.7047 66.8271 18.3447C69.3456 19.3659 71.6135 20.6832 73.631 22.2966C75.6971 23.949 75.5499 27.0008 73.6624 28.8549C71.6988 30.7834 68.5808 30.6948 66.2845 29.1779C65.1042 28.3985 63.881 27.7563 62.6141 27.2513C59.9743 26.1203 57.0534 25.5548 53.8515 25.5548C50.7621 25.5548 47.8974 26.0639 45.2575 27.0819C42.6174 28.0996 40.3425 29.5418 38.4328 31.4078C36.5228 33.2741 35.0343 35.4795 33.9671 38.0244C32.956 40.569 32.4506 43.3683 32.4506 46.422C32.4506 49.4193 32.956 52.1903 33.9671 54.7351C35.0343 57.2797 36.5228 59.5135 38.4328 61.4362C40.3425 63.3025 42.5894 64.7446 45.1731 65.7623C47.7571 66.7803 50.6219 67.2892 53.7674 67.2892C56.6882 67.2892 59.4966 66.8367 62.1928 65.932C64.9454 64.9707 67.5572 63.3872 70.0287 61.1817L76.2636 69.4099C69.9345 73.6874 69.9346 73.6874 65.4788 75.0932C61.4347 76.3373 57.3342 76.9595 53.1776 76.9595ZM65.9001 67.9678V57.47C65.9001 54.6076 68.22 52.2872 71.082 52.2872C73.9437 52.2872 76.2636 54.6076 76.2636 57.47V60.8484V69.4099L65.9001 67.9678Z" fill="url(#paint23_linear_569_1918)"/>
<path d="M50.5547 54.0565C50.5547 52.14 52.1081 50.5864 54.024 50.5864H69.3219C73.1539 50.5864 76.2606 53.6938 76.2606 57.5266H54.024C52.1081 57.5266 50.5547 55.9731 50.5547 54.0565Z" fill="url(#paint24_linear_569_1918)"/>
<path d="M124.357 39.6307H127.754V45.5273C126.882 46.1226 125.872 46.5792 124.725 46.8975C123.577 47.2161 122.422 47.3753 121.259 47.3753C119.591 47.3753 118.092 47.057 116.761 46.4201C115.43 45.7695 114.382 44.8768 113.617 43.7416C112.867 42.5928 112.492 41.2987 112.492 39.859C112.492 38.4194 112.867 37.1322 113.617 35.9973C114.382 34.8482 115.437 33.9555 116.784 33.3188C118.13 32.6683 119.645 32.3428 121.328 32.3428C122.736 32.3428 124.013 32.5575 125.161 32.9866C126.308 33.4158 127.272 34.0385 128.052 34.8551L125.665 36.8484C124.518 35.7548 123.133 35.2082 121.512 35.2082C120.486 35.2082 119.576 35.4021 118.78 35.7895C117.985 36.177 117.365 36.7239 116.922 37.4297C116.478 38.1358 116.256 38.9455 116.256 39.859C116.256 40.7587 116.478 41.5617 116.922 42.2675C117.365 42.9736 117.977 43.5272 118.758 43.9285C119.553 44.3163 120.456 44.5099 121.466 44.5099C122.537 44.5099 123.501 44.3024 124.357 43.8871V39.6307Z" fill="url(#paint25_linear_569_1918)"/>
<path d="M141.788 44.0115H134.329L132.906 47.126H129.097L136.257 32.5918H139.929L147.112 47.126H143.211L141.788 44.0115ZM140.618 41.4577L138.07 35.8933L135.523 41.4577H140.618Z" fill="url(#paint26_linear_569_1918)"/>
<path d="M159.014 47.126L155.916 43.0771H152.496V47.126H148.778V32.5918H155.732C157.155 32.5918 158.387 32.8065 159.427 33.2356C160.483 33.6648 161.294 34.2736 161.86 35.0628C162.426 35.8516 162.709 36.786 162.709 37.8657C162.709 38.9453 162.418 39.8797 161.837 40.6686C161.271 41.4438 160.46 42.0391 159.404 42.4543L163.007 47.126H159.014ZM158.945 37.8657C158.945 37.0491 158.655 36.426 158.073 35.9972C157.492 35.5541 156.643 35.3328 155.526 35.3328H152.496V40.3989H155.526C156.643 40.3989 157.492 40.1772 158.073 39.7345C158.655 39.2914 158.945 38.6684 158.945 37.8657Z" fill="url(#paint27_linear_569_1918)"/>
<path d="M168.759 35.3328H163.618V32.5918H177.618V35.3328H172.477V47.126H168.759V35.3328Z" fill="url(#paint28_linear_569_1918)"/>
<path d="M117.087 53.1168H112.492V51.9907H123.065V53.1168H118.469V64.3064H117.087V53.1168Z" fill="url(#paint29_linear_569_1918)"/>
<path d="M134.52 63.1804V64.3064H125.274V51.9907H134.24V53.1168H126.657V57.4976H133.418V58.6059H126.657V63.1804H134.52Z" fill="url(#paint30_linear_569_1918)"/>
<path d="M143.374 64.4121C142.079 64.4121 140.908 64.1424 139.862 63.6027C138.828 63.0633 138.013 62.3183 137.415 61.3684C136.83 60.4065 136.537 59.3332 136.537 58.1485C136.537 56.9639 136.83 55.8967 137.415 54.9465C138.013 53.9846 138.835 53.2341 139.881 52.6944C140.927 52.155 142.097 51.8853 143.392 51.8853C144.364 51.8853 145.26 52.0377 146.082 52.3425C146.904 52.6474 147.601 53.0932 148.174 53.6796L147.296 54.5068C146.275 53.5332 144.986 53.0463 143.43 53.0463C142.396 53.0463 141.456 53.2691 140.609 53.7149C139.762 54.1607 139.096 54.7707 138.61 55.5448C138.137 56.3189 137.901 57.1869 137.901 58.1485C137.901 59.1104 138.137 59.9784 138.61 60.7526C139.096 61.5267 139.762 62.1366 140.609 62.5822C141.456 63.028 142.396 63.2508 143.43 63.2508C144.999 63.2508 146.287 62.7583 147.296 61.7731L148.174 62.6C147.601 63.1863 146.898 63.638 146.063 63.9546C145.241 64.2596 144.345 64.4121 143.374 64.4121Z" fill="url(#paint31_linear_569_1918)"/>
<path d="M162.049 51.9907V64.3064H160.686V58.6237H152.504V64.3064H151.122V51.9907H152.504V57.4799H160.686V51.9907H162.049Z" fill="url(#paint32_linear_569_1918)"/>
<path d="M177.244 51.9907V64.3064H176.104L167.699 54.3131V64.3064H166.316V51.9907H167.456L175.88 61.9841V51.9907H177.244Z" fill="url(#paint33_linear_569_1918)"/>
<path d="M187.226 64.4121C185.931 64.4121 184.755 64.1424 183.696 63.6027C182.65 63.0516 181.828 62.3008 181.23 61.3509C180.645 60.4006 180.353 59.3332 180.353 58.1485C180.353 56.9639 180.645 55.8967 181.23 54.9465C181.828 53.9965 182.65 53.2516 183.696 52.7122C184.755 52.1608 185.931 51.8853 187.226 51.8853C188.521 51.8853 189.686 52.155 190.719 52.6944C191.765 53.2341 192.587 53.9846 193.185 54.9465C193.783 55.8967 194.081 56.9639 194.081 58.1485C194.081 59.3332 193.783 60.4065 193.185 61.3684C192.587 62.3183 191.765 63.0633 190.719 63.6027C189.686 64.1424 188.521 64.4121 187.226 64.4121ZM187.226 63.2508C188.26 63.2508 189.194 63.0338 190.028 62.6C190.863 62.1541 191.516 61.5442 191.99 60.7701C192.463 59.9843 192.699 59.1104 192.699 58.1485C192.699 57.1869 192.463 56.3189 191.99 55.5448C191.516 54.7587 190.863 54.149 190.028 53.7149C189.194 53.2691 188.26 53.0463 187.226 53.0463C186.193 53.0463 185.253 53.2691 184.406 53.7149C183.572 54.149 182.912 54.7587 182.426 55.5448C181.953 56.3189 181.716 57.1869 181.716 58.1485C181.716 59.1104 181.953 59.9843 182.426 60.7701C182.912 61.5442 183.572 62.1541 184.406 62.6C185.253 63.0338 186.193 63.2508 187.226 63.2508Z" fill="url(#paint34_linear_569_1918)"/>
<path d="M197.181 51.9907H198.563V63.1804H205.885V64.3064H197.181V51.9907Z" fill="url(#paint35_linear_569_1918)"/>
<path d="M213.641 64.4121C212.345 64.4121 211.169 64.1424 210.11 63.6027C209.064 63.0516 208.242 62.3008 207.645 61.3509C207.059 60.4006 206.767 59.3332 206.767 58.1485C206.767 56.9639 207.059 55.8967 207.645 54.9465C208.242 53.9965 209.064 53.2516 210.11 52.7122C211.169 52.1608 212.345 51.8853 213.641 51.8853C214.936 51.8853 216.1 52.155 217.133 52.6944C218.18 53.2341 219.002 53.9846 219.599 54.9465C220.197 55.8967 220.496 56.9639 220.496 58.1485C220.496 59.3332 220.197 60.4065 219.599 61.3684C219.002 62.3183 218.18 63.0633 217.133 63.6027C216.1 64.1424 214.936 64.4121 213.641 64.4121ZM213.641 63.2508C214.674 63.2508 215.608 63.0338 216.442 62.6C217.277 62.1541 217.93 61.5442 218.404 60.7701C218.877 59.9843 219.113 59.1104 219.113 58.1485C219.113 57.1869 218.877 56.3189 218.404 55.5448C217.93 54.7587 217.277 54.149 216.442 53.7149C215.608 53.2691 214.674 53.0463 213.641 53.0463C212.607 53.0463 211.667 53.2691 210.82 53.7149C209.986 54.149 209.326 54.7587 208.84 55.5448C208.367 56.3189 208.13 57.1869 208.13 58.1485C208.13 59.1104 208.367 59.9843 208.84 60.7701C209.326 61.5442 209.986 62.1541 210.82 62.6C211.667 63.0338 212.607 63.2508 213.641 63.2508Z" fill="url(#paint36_linear_569_1918)"/>
<path d="M232.801 58.1485H234.128V62.8463C233.517 63.3505 232.795 63.7377 231.961 64.0074C231.127 64.2771 230.249 64.4121 229.327 64.4121C228.02 64.4121 226.843 64.1424 225.797 63.6027C224.751 63.0633 223.929 62.3183 223.331 61.3684C222.733 60.4065 222.435 59.3332 222.435 58.1485C222.435 56.9639 222.733 55.8967 223.331 54.9465C223.929 53.9846 224.751 53.2341 225.797 52.6944C226.843 52.155 228.026 51.8853 229.346 51.8853C230.342 51.8853 231.257 52.0377 232.092 52.3425C232.926 52.6358 233.629 53.0757 234.202 53.6621L233.343 54.489C232.31 53.5271 230.996 53.0463 229.402 53.0463C228.343 53.0463 227.385 53.2691 226.525 53.7149C225.678 54.149 225.012 54.7587 224.526 55.5448C224.041 56.3189 223.798 57.1869 223.798 58.1485C223.798 59.1104 224.041 59.9784 224.526 60.7526C225.012 61.5267 225.678 62.1366 226.525 62.5822C227.372 63.028 228.325 63.2508 229.383 63.2508C230.728 63.2508 231.867 62.9341 232.801 62.3008V58.1485Z" fill="url(#paint37_linear_569_1918)"/>
<path d="M242.524 60.0486V64.3064H241.161V60.0486L235.931 51.9907H237.406L241.889 58.9051L246.372 51.9907H247.755L242.524 60.0486Z" fill="url(#paint38_linear_569_1918)"/>
<defs>
<linearGradient id="paint0_linear_569_1918" x1="61.0619" y1="-1.38798" x2="36.7762" y2="0.693175" gradientUnits="userSpaceOnUse">
<stop stop-color="#231F20"/>
<stop offset="0.734118" stop-color="#7A7A7A"/>
</linearGradient>
<linearGradient id="paint1_linear_569_1918" x1="73.6422" y1="2.77608" x2="24.6208" y2="11.4579" gradientUnits="userSpaceOnUse">
<stop stop-color="#231F20"/>
<stop offset="0.734118" stop-color="#7A7A7A"/>
</linearGradient>
<linearGradient id="paint2_linear_569_1918" x1="83.0782" y1="6.93966" x2="16.9394" y2="23.1872" gradientUnits="userSpaceOnUse">
<stop stop-color="#231F20"/>
<stop offset="0.734118" stop-color="#7A7A7A"/>
</linearGradient>
<linearGradient id="paint3_linear_569_1918" x1="87.7997" y1="11.1052" x2="13.6913" y2="31.8508" gradientUnits="userSpaceOnUse">
<stop stop-color="#231F20"/>
<stop offset="0.734118" stop-color="#7A7A7A"/>
</linearGradient>
<linearGradient id="paint4_linear_569_1918" x1="92.5178" y1="15.2692" x2="10.8768" y2="40.922" gradientUnits="userSpaceOnUse">
<stop stop-color="#231F20"/>
<stop offset="0.734118" stop-color="#7A7A7A"/>
</linearGradient>
<linearGradient id="paint5_linear_569_1918" x1="97.2337" y1="19.4323" x2="8.52062" y2="50.348" gradientUnits="userSpaceOnUse">
<stop stop-color="#231F20"/>
<stop offset="0.734118" stop-color="#7A7A7A"/>
</linearGradient>
<linearGradient id="paint6_linear_569_1918" x1="100.38" y1="23.5969" x2="7.21613" y2="58.1927" gradientUnits="userSpaceOnUse">
<stop stop-color="#231F20"/>
<stop offset="0.734118" stop-color="#7A7A7A"/>
</linearGradient>
<linearGradient id="paint7_linear_569_1918" x1="101.953" y1="27.7614" x2="6.64454" y2="64.2427" gradientUnits="userSpaceOnUse">
<stop stop-color="#231F20"/>
<stop offset="0.734118" stop-color="#7A7A7A"/>
</linearGradient>
<linearGradient id="paint8_linear_569_1918" x1="103.526" y1="31.926" x2="6.12602" y2="70.3205" gradientUnits="userSpaceOnUse">
<stop stop-color="#231F20"/>
<stop offset="0.734118" stop-color="#7A7A7A"/>
</linearGradient>
<linearGradient id="paint9_linear_569_1918" x1="105.099" y1="36.0896" x2="5.6627" y2="76.423" gradientUnits="userSpaceOnUse">
<stop stop-color="#231F20"/>
<stop offset="0.734118" stop-color="#7A7A7A"/>
</linearGradient>
<linearGradient id="paint10_linear_569_1918" x1="105.099" y1="40.2546" x2="5.66262" y2="80.588" gradientUnits="userSpaceOnUse">
<stop stop-color="#231F20"/>
<stop offset="0.734118" stop-color="#7A7A7A"/>
</linearGradient>
<linearGradient id="paint11_linear_569_1918" x1="105.099" y1="48.5817" x2="5.66262" y2="88.9151" gradientUnits="userSpaceOnUse">
<stop stop-color="#231F20"/>
<stop offset="0.734118" stop-color="#7A7A7A"/>
</linearGradient>
<linearGradient id="paint12_linear_569_1918" x1="103.526" y1="52.7468" x2="6.12602" y2="91.1413" gradientUnits="userSpaceOnUse">
<stop stop-color="#231F20"/>
<stop offset="0.734118" stop-color="#7A7A7A"/>
</linearGradient>
<linearGradient id="paint13_linear_569_1918" x1="103.526" y1="56.9108" x2="6.12602" y2="95.3053" gradientUnits="userSpaceOnUse">
<stop stop-color="#231F20"/>
<stop offset="0.734118" stop-color="#7A7A7A"/>
</linearGradient>
<linearGradient id="paint14_linear_569_1918" x1="101.86" y1="61.0749" x2="7.61724" y2="96.6099" gradientUnits="userSpaceOnUse">
<stop stop-color="#231F20"/>
<stop offset="0.734118" stop-color="#7A7A7A"/>
</linearGradient>
<linearGradient id="paint15_linear_569_1918" x1="98.8081" y1="65.2385" x2="7.84291" y2="97.9785" gradientUnits="userSpaceOnUse">
<stop stop-color="#231F20"/>
<stop offset="0.734118" stop-color="#7A7A7A"/>
</linearGradient>
<linearGradient id="paint16_linear_569_1918" x1="97.0497" y1="69.404" x2="10.6416" y2="98.5293" gradientUnits="userSpaceOnUse">
<stop stop-color="#231F20"/>
<stop offset="0.734118" stop-color="#7A7A7A"/>
</linearGradient>
<linearGradient id="paint17_linear_569_1918" x1="93.998" y1="73.5666" x2="11.1458" y2="100.073" gradientUnits="userSpaceOnUse">
<stop stop-color="#231F20"/>
<stop offset="0.734118" stop-color="#7A7A7A"/>
</linearGradient>
<linearGradient id="paint18_linear_569_1918" x1="89.2799" y1="77.7312" x2="13.8851" y2="99.2676" gradientUnits="userSpaceOnUse">
<stop stop-color="#231F20"/>
<stop offset="0.734118" stop-color="#7A7A7A"/>
</linearGradient>
<linearGradient id="paint19_linear_569_1918" x1="83.0782" y1="81.8957" x2="16.9393" y2="98.1431" gradientUnits="userSpaceOnUse">
<stop stop-color="#231F20"/>
<stop offset="0.734118" stop-color="#7A7A7A"/>
</linearGradient>
<linearGradient id="paint20_linear_569_1918" x1="70.5896" y1="86.0593" x2="26.0628" y2="93.182" gradientUnits="userSpaceOnUse">
<stop stop-color="#231F20"/>
<stop offset="0.734118" stop-color="#7A7A7A"/>
</linearGradient>
<linearGradient id="paint21_linear_569_1918" x1="62.6343" y1="90.2238" x2="35.1674" y2="92.8914" gradientUnits="userSpaceOnUse">
<stop stop-color="#231F20"/>
<stop offset="0.734118" stop-color="#7A7A7A"/>
</linearGradient>
<linearGradient id="paint22_linear_569_1918" x1="105.099" y1="44.4182" x2="5.6627" y2="84.7516" gradientUnits="userSpaceOnUse">
<stop stop-color="#231F20"/>
<stop offset="0.734118" stop-color="#7A7A7A"/>
</linearGradient>
<linearGradient id="paint23_linear_569_1918" x1="79.9204" y1="-45.1864" x2="15.4597" y2="-44.8556" gradientUnits="userSpaceOnUse">
<stop stop-color="#231F20"/>
<stop offset="0.734118" stop-color="#7A7A7A"/>
</linearGradient>
<linearGradient id="paint24_linear_569_1918" x1="77.9744" y1="43.6466" x2="47.7773" y2="44.2858" gradientUnits="userSpaceOnUse">
<stop stop-color="#231F20"/>
<stop offset="0.734118" stop-color="#7A7A7A"/>
</linearGradient>
<linearGradient id="paint25_linear_569_1918" x1="129.09" y1="17.3111" x2="110.803" y2="17.4193" gradientUnits="userSpaceOnUse">
<stop stop-color="#231F20"/>
<stop offset="0.734118" stop-color="#7A7A7A"/>
</linearGradient>
<linearGradient id="paint26_linear_569_1918" x1="148.314" y1="18.0584" x2="127.142" y2="18.2084" gradientUnits="userSpaceOnUse">
<stop stop-color="#2E186A"/>
<stop offset="0.734118" stop-color="#7A7A7A"/>
</linearGradient>
<linearGradient id="paint27_linear_569_1918" x1="163.956" y1="18.0584" x2="147.234" y2="18.152" gradientUnits="userSpaceOnUse">
<stop stop-color="#7A7A7A"/>
<stop offset="0.734118" stop-color="#7A7A7A"/>
</linearGradient>
<linearGradient id="paint28_linear_569_1918" x1="178.551" y1="18.0584" x2="162.099" y2="18.149" gradientUnits="userSpaceOnUse">
<stop stop-color="#231F20"/>
<stop offset="0.734118" stop-color="#7A7A7A"/>
</linearGradient>
<linearGradient id="paint29_linear_569_1918" x1="123.769" y1="39.6757" x2="111.345" y2="39.7367" gradientUnits="userSpaceOnUse">
<stop stop-color="#231F20"/>
<stop offset="0.734118" stop-color="#7A7A7A"/>
</linearGradient>
<linearGradient id="paint30_linear_569_1918" x1="135.137" y1="39.6757" x2="124.271" y2="39.7223" gradientUnits="userSpaceOnUse">
<stop stop-color="#231F20"/>
<stop offset="0.734118" stop-color="#7A7A7A"/>
</linearGradient>
<linearGradient id="paint31_linear_569_1918" x1="148.95" y1="39.3592" x2="135.274" y2="39.4318" gradientUnits="userSpaceOnUse">
<stop stop-color="#231F20"/>
<stop offset="0.734118" stop-color="#7A7A7A"/>
</linearGradient>
<linearGradient id="paint32_linear_569_1918" x1="162.777" y1="39.6757" x2="149.936" y2="39.7408" gradientUnits="userSpaceOnUse">
<stop stop-color="#231F20"/>
<stop offset="0.734118" stop-color="#7A7A7A"/>
</linearGradient>
<linearGradient id="paint33_linear_569_1918" x1="177.972" y1="39.6757" x2="165.13" y2="39.7408" gradientUnits="userSpaceOnUse">
<stop stop-color="#231F20"/>
<stop offset="0.734118" stop-color="#7A7A7A"/>
</linearGradient>
<linearGradient id="paint34_linear_569_1918" x1="194.997" y1="39.3592" x2="178.863" y2="39.4602" gradientUnits="userSpaceOnUse">
<stop stop-color="#231F20"/>
<stop offset="0.734118" stop-color="#7A7A7A"/>
</linearGradient>
<linearGradient id="paint35_linear_569_1918" x1="206.466" y1="39.6757" x2="196.236" y2="39.717" gradientUnits="userSpaceOnUse">
<stop stop-color="#231F20"/>
<stop offset="0.734118" stop-color="#7A7A7A"/>
</linearGradient>
<linearGradient id="paint36_linear_569_1918" x1="221.411" y1="39.3592" x2="205.277" y2="39.4602" gradientUnits="userSpaceOnUse">
<stop stop-color="#231F20"/>
<stop offset="0.734118" stop-color="#7A7A7A"/>
</linearGradient>
<linearGradient id="paint37_linear_569_1918" x1="234.987" y1="39.3592" x2="221.157" y2="39.4334" gradientUnits="userSpaceOnUse">
<stop stop-color="#231F20"/>
<stop offset="0.734118" stop-color="#7A7A7A"/>
</linearGradient>
<linearGradient id="paint38_linear_569_1918" x1="248.543" y1="39.6757" x2="234.647" y2="39.7519" gradientUnits="userSpaceOnUse">
<stop stop-color="#231F20"/>
<stop offset="0.734118" stop-color="#7A7A7A"/>
</linearGradient>
</defs>
</svg>
