<svg width="124" height="76" viewBox="0 0 124 76" fill="none" xmlns="http://www.w3.org/2000/svg">
<path d="M43.2023 44.9608C42.8941 44.4608 42.452 44.0568 41.9258 43.7943C41.3998 43.5317 40.8106 43.4212 40.2249 43.475C38.3045 43.475 37.2475 44.4408 37.2475 45.882C37.2475 47.6946 38.5575 48.2146 40.0165 48.4078C41.6987 48.6306 42.5622 49.0318 42.5622 50.1758C42.5622 51.3198 41.7136 51.6616 40.3887 51.6616C39.9238 51.7298 39.4491 51.672 39.0144 51.4942C38.5796 51.3165 38.2007 51.0253 37.9174 50.6513L37.1879 51.1861C37.5395 51.7006 38.0241 52.1103 38.5903 52.372C39.1564 52.6336 39.7831 52.7372 40.4035 52.6719C42.6664 52.6719 43.5299 51.5873 43.5299 50.2055C43.5299 48.3037 42.1453 47.8134 40.478 47.5757C39.287 47.4123 38.2151 47.1597 38.2151 45.9117C38.2151 44.9014 39.0786 44.4259 40.2249 44.4259C40.6775 44.3606 41.1393 44.4302 41.5524 44.6257C41.9655 44.8213 42.3116 45.1343 42.5473 45.5254L43.2023 44.9608ZM54.2188 47.3826C54.2188 44.8568 53.013 43.475 50.8841 43.475C50.3869 43.4248 49.8855 43.5135 49.436 43.7313C48.9864 43.949 48.6064 44.2873 48.3384 44.7082V43.579H47.4005V55.9108H48.3384V51.4536C48.6163 51.8684 49.0044 52.1979 49.4592 52.4052C49.9141 52.6125 50.4177 52.6894 50.9139 52.6273C53.1469 52.6273 54.2486 51.1416 54.2486 48.6752L54.2188 47.3826ZM50.8246 51.7062C48.9339 51.7062 48.3235 50.5175 48.3086 48.8386V47.2786C48.3086 45.5254 49.0083 44.3813 50.8246 44.3813C52.6408 44.3813 53.2809 45.4362 53.2809 47.3529V48.6455C53.2809 50.5175 52.4621 51.617 50.8246 51.617M57.6577 49.8638C57.6577 51.5873 58.7296 52.5382 60.6352 52.5382C61.1157 52.604 61.6049 52.5227 62.0381 52.3052C62.4714 52.0877 62.8283 51.7441 63.0618 51.3198V52.4193H63.9997V46.2385C63.9997 44.0693 63.0171 43.3859 60.918 43.3859C60.3299 43.3094 59.7323 43.41 59.2018 43.6747C58.6714 43.9394 58.2322 44.3562 57.9406 44.8716L58.6552 45.3917C59.206 44.4408 59.861 44.3665 60.8883 44.3665C62.4663 44.3665 63.0469 44.7825 63.0469 46.298V47.4123H60.5459C58.7892 47.4123 57.5684 48.2146 57.5684 49.9232M62.9725 49.1655C62.9725 51.1564 61.9304 51.6616 60.5459 51.6616C59.1614 51.6616 58.5063 51.201 58.5063 49.9529C58.5063 49.0021 59.0125 48.2889 60.4714 48.2889H62.9725V49.1655ZM71.2051 44.3665C71.546 44.3586 71.8831 44.4394 72.1833 44.6009C72.4835 44.7624 72.7363 44.9991 72.9171 45.2877L73.7061 44.6785C73.4458 44.2819 73.0866 43.9596 72.6638 43.7434C72.2409 43.5272 71.769 43.4245 71.2944 43.4453C70.842 43.4174 70.392 43.5293 70.0057 43.766C69.6194 44.0026 69.3156 44.3524 69.1358 44.7676V43.5493H68.1979V52.4639H69.1358V47.0854C69.1358 45.466 69.8801 44.3516 71.2051 44.3516M81.8643 43.5345L77.6512 47.9917V40.2509H76.7133V52.5679H77.6512V49.5072L78.7529 48.3186L82.4449 52.5679H83.6805L79.6014 47.5311L83.2488 43.579L81.8643 43.5345ZM87.9085 40.1469H87.045V52.4639H87.9829V51.409C88.2656 51.8226 88.6566 52.1508 89.1134 52.3578C89.5702 52.5648 90.0752 52.6426 90.5733 52.5827C92.7914 52.5827 93.908 51.097 93.908 48.6306V47.338C93.908 44.8122 92.6872 43.4305 90.5733 43.4305C90.0695 43.3768 89.5606 43.4637 89.1033 43.6814C88.646 43.8991 88.2582 44.2391 87.9829 44.6636L87.9085 40.1469ZM90.4244 51.6616C88.5486 51.6616 87.9234 50.473 87.9085 48.7941V47.234C87.9085 45.4808 88.6082 44.3368 90.4244 44.3368C92.2406 44.3368 92.8957 45.3917 92.8957 47.3083V48.6009C92.8957 50.473 92.062 51.5724 90.4244 51.5724M97.868 52.3747H98.8208V43.4602H97.868V52.3747ZM97.7787 41.2464H98.9101V40.2509H97.7787V41.2464ZM106.369 44.2179C106.709 44.21 107.047 44.2908 107.347 44.4523C107.647 44.6138 107.9 44.8505 108.081 45.1391L108.87 44.5299C108.609 44.1333 108.25 43.811 107.827 43.5948C107.404 43.3786 106.932 43.2759 106.458 43.2967C106.005 43.2666 105.554 43.3776 105.167 43.6145C104.781 43.8515 104.477 44.2025 104.299 44.6191V43.4007H103.361V52.3153H104.299V46.9368C104.299 45.3174 105.044 44.2031 106.369 44.2031M117.296 44.5448C117.031 44.1122 116.648 43.7639 116.192 43.5403C115.736 43.3167 115.225 43.2271 114.72 43.2819C112.591 43.2819 111.386 44.6636 111.386 47.1894V48.482C111.386 50.9335 112.487 52.4342 114.72 52.4342C115.22 52.4968 115.726 52.4169 116.182 52.204C116.638 51.991 117.024 51.6535 117.296 51.2307V52.3153H118.234V40.2509H117.296V44.5448ZM114.78 51.513C113.127 51.513 112.323 50.3541 112.323 48.5415V47.2489C112.323 45.3025 113.157 44.2773 114.78 44.2773C116.402 44.2773 117.296 45.4808 117.296 47.2489V48.5415C117.296 50.2947 116.7 51.513 114.78 51.513Z" fill="#C4E4F3"/>
<path d="M55.2312 27.1614C55.2312 25.2621 54.4752 23.4405 53.1295 22.0975C51.7838 20.7545 49.9586 20 48.0555 20C46.1525 20 44.3273 20.7545 42.9816 22.0975C41.6359 23.4405 40.8799 25.2621 40.8799 27.1614C40.8787 28.9569 40.2016 30.6865 38.9829 32.0074C37.7642 33.3282 36.0928 34.144 34.2998 34.293H16.3012C13.419 34.293 10.6547 35.4357 8.61666 37.4698C6.57859 39.5038 5.4336 42.2625 5.4336 45.1391C5.43165 46.5647 5.71131 47.9766 6.25658 49.2942C6.80186 50.6119 7.60204 51.8093 8.61139 52.818C9.62074 53.8267 10.8194 54.627 12.1389 55.173C13.4584 55.719 14.8728 56 16.3012 56C17.7296 56 19.144 55.719 20.4635 55.173C21.783 54.627 22.9817 53.8267 23.9911 52.818C25.0004 51.8093 25.8006 50.6119 26.3459 49.2942C26.8912 47.9766 27.1708 46.5647 27.1689 45.1391C27.1743 42.4192 28.202 39.8003 30.0489 37.8003C31.8958 35.8002 34.4275 34.5645 37.1433 34.3376H48.0555C49.9586 34.3376 51.7838 33.5831 53.1295 32.2401C54.4752 30.8971 55.2312 29.0755 55.2312 27.1762" fill="#C4E4F3"/>
</svg>
