<svg width="82" height="74" viewBox="0 0 82 74" fill="none" xmlns="http://www.w3.org/2000/svg">
<g opacity="0.8">
<path d="M28.1768 22.0174C26.6152 26.2035 23.0968 37.9652 28.9859 45.7126C29.2288 45.9898 29.547 46.1896 29.9013 46.2867C30.2558 46.3852 30.6308 46.3754 30.9802 46.2614L37.9793 43.799C38.2182 43.7146 38.4377 43.5837 38.6248 43.4121C38.8118 43.2404 38.9625 43.0321 39.0681 42.8C39.1734 42.5692 39.2313 42.3173 39.2382 42.0627C39.2451 41.808 39.2009 41.5547 39.1082 41.3183C37.8476 38.0215 35.9661 30.958 40.5005 26.3174C40.7523 26.0853 40.9368 25.7884 41.0342 25.4591C41.1314 25.1299 41.138 24.7795 41.0529 24.4474C40.9679 24.1139 40.7944 23.8114 40.5513 23.5694C40.3081 23.3288 40.0043 23.1585 39.6725 23.0783L30.2652 20.8425C29.8359 20.7651 29.3928 20.8383 29.0118 21.0535C28.6309 21.2674 28.3357 21.6079 28.1768 22.0174Z" fill="#FFEECC"/>
<path d="M32.6743 42.6632C32.2675 42.6632 31.8662 42.5689 31.5009 42.3874C31.1358 42.2073 30.8162 41.9456 30.567 41.622C24.4523 33.61 27.8577 21.7526 29.6075 16.9987C29.842 16.3592 30.2998 15.8276 30.8954 15.5034C31.4911 15.1792 32.1838 15.0845 32.8437 15.2372L42.251 17.4534C42.7217 17.5644 43.1554 17.7977 43.5085 18.13C43.8618 18.4624 44.1223 18.8821 44.2641 19.3474C44.4114 19.8494 44.421 20.3821 44.2918 20.8886C44.1625 21.3952 43.8996 21.8581 43.5303 22.2268C39.4475 26.3931 41.028 32.7953 42.3262 36.223C42.4795 36.5762 42.5587 36.9561 42.5587 37.3416C42.5587 37.7258 42.4795 38.1057 42.3262 38.4588C42.0068 39.1441 41.4322 39.6746 40.727 39.9363L33.7279 42.3987C33.3982 42.5577 33.0398 42.6477 32.6743 42.6632ZM32.2039 17.0934C32.0206 17.0955 31.8424 17.1551 31.694 17.2637C31.5457 17.3723 31.4346 17.5246 31.3761 17.6996C29.7204 22.1128 26.5218 33.1935 32.0533 40.4288C32.1677 40.5596 32.3184 40.6525 32.4862 40.6975C32.6539 40.7411 32.8309 40.7327 32.9941 40.675L39.9932 38.1929C40.1099 38.1521 40.2168 38.0874 40.3074 38.003C40.398 37.9171 40.4704 37.8144 40.52 37.7004C40.6151 37.464 40.6151 37.1995 40.52 36.9617C39.3347 33.8563 37.1335 26.0526 42.1382 20.9576C42.2686 20.8267 42.3619 20.6621 42.4082 20.482C42.4545 20.3019 42.4522 20.1133 42.4014 19.9346C42.3632 19.7808 42.283 19.6408 42.17 19.5305C42.057 19.42 41.9156 19.3435 41.7618 19.3096L32.3544 17.0746L32.2039 17.0934Z" fill="#101828"/>
<path d="M12.9865 7.00195L3.48256 20.3262L3.17961 20.6287L3.00654 20.8018C-0.0711719 25.5352 -0.132941 32.3764 3.59765 40.3053C11.2381 56.6007 31.8883 71.2133 49.6765 73.0115C57.9251 73.8375 64.0675 71.7367 67.5669 67.6407L67.9889 67.2186C68.2702 66.9371 68.4525 66.6008 68.6678 66.2744L77.58 53.8738L65.6886 45.1415C57.9557 31.5884 41.6281 19.6962 26.2156 16.163L24.6412 15.0215L12.9865 7.00195Z" fill="#FFBE2E"/>
<path d="M3.40592 40.6756C10.4084 55.4893 28.1725 68.9255 44.755 72.5249C52.7071 73.2073 58.6748 71.1248 62.0986 67.1273L62.5206 66.7052C62.7653 66.404 62.9921 66.0889 63.1995 65.761L72.0135 53.3703L60.1329 44.6267C52.4109 31.0624 36.0831 19.171 20.66 15.6485L19.0964 14.4961L11.3155 9.13867L3.21244 20.5093L2.92033 20.802L2.74726 20.975C-0.262763 25.9054 -0.324537 32.7467 3.40592 40.6756Z" fill="white"/>
<path d="M78.6701 53.7554L69.3051 66.7849C69.1006 67.1001 68.8635 67.4265 68.6045 67.7516L68.1718 68.1836C64.3591 72.637 57.7676 74.635 49.6283 73.8105C31.5884 71.977 10.6736 57.1422 2.93307 40.6822C-0.775157 32.7969 -0.979185 25.6039 2.38923 20.4469L2.74423 19.8935L12.7992 5.95215L26.612 15.5455C42.2219 19.1462 58.4955 31.0929 66.3159 44.6684L78.6701 53.7554ZM1.63207 27.6962C1.44747 31.9681 2.38754 36.2358 4.35858 40.0729C11.9088 56.1052 32.2845 70.5742 49.7991 72.3359C57.457 73.114 63.5913 71.2848 67.0801 67.2225L67.4912 66.8103C67.717 66.5345 67.9257 66.2446 68.1162 65.9435L76.6192 54.1282L65.1232 45.5957C57.5128 32.2523 41.5034 20.5046 26.1899 17.0276L25.9044 16.8935L24.33 15.7519L13.2142 8.07657L3.77492 21.3137C2.54189 23.2217 1.80585 25.4139 1.63207 27.6962Z" fill="#101828"/>
<path d="M78.0574 53.5086C85.2202 43.2679 76.4416 24.6156 58.4497 11.8463C40.4576 -0.922648 20.0655 -2.97276 12.9025 7.26755C5.73943 17.5077 14.5181 36.1607 32.5101 48.93C50.5021 61.6978 70.8943 63.7479 78.0574 53.5086Z" fill="#FFCD00"/>
<path d="M81.2765 46.5371C81.0971 49.2148 80.2066 51.7813 78.6963 53.975C75.0658 59.1502 68.1828 61.5071 59.3321 60.5756C41.2922 58.7421 20.3884 43.92 12.637 27.4473C8.82772 19.3111 8.69898 11.9985 12.3402 6.81143C15.9816 1.62451 22.8427 -0.732077 31.6935 0.199129C49.7226 2.04311 70.6373 16.8777 78.3778 33.3387C80.4806 37.4305 81.4805 41.9824 81.2765 46.5371ZM11.2154 14.4282C11.0437 18.7198 11.9949 23.0051 13.9752 26.8605C21.5577 42.8379 41.9012 57.3604 59.4482 59.0911C67.7734 59.9297 74.1776 57.7867 77.485 53.066C80.7922 48.3452 80.6466 41.5364 77.0613 33.9255C69.5111 17.8936 49.1247 3.43584 31.5989 1.66263C23.2848 0.83513 16.8695 2.96687 13.5732 7.69832C12.1946 9.6778 11.3802 12.002 11.2154 14.4282Z" fill="#101828"/>
<path d="M31.5917 11.7596C27.6313 13.5117 27.6039 18.3528 31.6639 23.1913C33.607 25.4567 36.2124 27.0537 39.0978 27.7474C39.1529 27.8023 39.2413 27.8909 39.1971 27.8473C36.8705 27.9655 35.3862 29.2291 35.5381 31.2848C35.8675 35.7481 40.654 41.1189 46.7469 43.836C49.7395 45.3894 53.1697 45.8228 56.4094 45.0587C57.3514 44.7379 58.1734 44.1455 58.7745 43.3562L67.3356 32.9635C68.3071 31.7703 67.2571 29.5302 65.0234 28.0331L45.3051 14.8057C43.971 13.8674 42.541 13.0759 41.0409 12.4456C38.0692 11.0229 34.6894 10.7775 31.5917 11.7596Z" fill="white"/>
<path d="M66.5913 33.9282C66.5571 34.4137 66.3749 34.8738 66.0691 35.2452L57.5083 45.6619C56.8141 46.5512 55.8771 47.2209 54.8067 47.591C51.3822 48.424 47.7467 47.992 44.5651 46.3725C38.1538 43.509 33.245 37.9511 32.9015 33.1726C32.8192 32.4381 32.9569 31.7008 33.2967 31.055C33.6366 30.4077 34.1634 29.8815 34.81 29.5409C32.6687 28.6292 30.7605 27.2319 29.2388 25.4632C26.7053 22.4324 25.569 19.2183 26.1552 16.6669C26.3493 15.8104 26.7482 15.0175 27.318 14.3556C27.8877 13.6935 28.6115 13.1819 29.4279 12.8641C32.7041 11.8071 36.287 12.0585 39.4348 13.5666C40.9844 14.2223 42.4649 15.0358 43.8527 15.9939L63.571 29.2201C64.3103 29.6577 64.9564 30.2389 65.4706 30.9269C65.9846 31.6164 66.356 32.3987 66.5623 33.2289C66.5985 33.4611 66.6082 33.6961 66.5913 33.9282ZM34.4365 32.5859C34.418 32.7421 34.416 32.8996 34.4303 33.0558C34.7019 37.2011 39.3878 42.3412 45.1956 44.9682C48.018 46.433 51.2489 46.8579 54.3113 46.1642C55.1154 45.8729 55.8178 45.3622 56.34 44.6882L64.89 34.2828C64.9796 34.1618 65.0418 34.0225 65.0723 33.8733C65.1029 33.7242 65.1011 33.5708 65.067 33.4217C64.6992 32.1806 63.8706 31.1197 62.7529 30.4584L43.0347 17.2315C41.7375 16.3278 40.3525 15.5592 38.9023 14.9383C36.1281 13.5984 32.9709 13.3477 30.0649 14.2367C29.4611 14.4607 28.9246 14.8308 28.5027 15.3144C28.0808 15.7978 27.7861 16.3801 27.645 17.0099C27.1635 19.1032 28.1529 21.8456 30.3984 24.5022C32.2297 26.6367 34.6843 28.1437 37.4035 28.8022L38.0498 28.9514L38.1232 29.7168L38.0753 30.3824L37.3654 30.4302C36.9153 30.4133 36.4679 30.4851 36.0493 30.6413C35.6306 30.7989 35.249 31.0381 34.9266 31.3462C34.6337 31.6938 34.462 32.1286 34.4365 32.5859Z" fill="#101828"/>
<path d="M12.1274 36.3069C12.429 35.8721 12.8774 35.9101 13.112 36.404C13.221 36.684 13.2645 36.9851 13.239 37.282C13.2137 37.5789 13.12 37.866 12.9654 38.1178C12.653 38.5625 12.2154 38.5146 11.9808 38.0207C11.8718 37.7407 11.8283 37.4396 11.8538 37.1427C11.8792 36.8444 11.9728 36.5588 12.1274 36.3069Z" fill="#101828"/>
<path d="M9.89286 31.5843C10.2052 31.1397 10.643 31.1875 10.8774 31.6814C10.9957 31.96 11.0462 32.2597 11.0244 32.558C11.0028 32.8563 10.9096 33.1448 10.7527 33.3966C10.4404 33.8413 10.0026 33.7934 9.75707 33.2883C9.64352 33.0111 9.59666 32.7114 9.62016 32.4159C9.6438 32.1204 9.73723 31.8348 9.89286 31.5843Z" fill="#101828"/>
<path d="M9.1734 40.515C9.48592 40.0703 9.93435 40.1069 10.1581 40.612C10.2716 40.8892 10.3185 41.1889 10.295 41.4844C10.2713 41.7799 10.1779 42.0656 10.0223 42.316C9.70992 42.7607 9.27218 42.7128 9.03776 42.2189C8.92646 41.9403 8.88087 41.642 8.90451 41.3465C8.92801 41.0511 9.02003 40.7654 9.1734 40.515Z" fill="#101828"/>
<path d="M6.96203 35.7929C7.26343 35.337 7.70117 35.3848 7.9467 35.89C8.06025 36.1672 8.10711 36.4669 8.08361 36.7624C8.05997 37.0593 7.96654 37.3435 7.81092 37.594C7.49855 38.0386 7.0608 37.9908 6.82638 37.4969C6.71016 37.2197 6.66189 36.92 6.68553 36.6245C6.70917 36.3276 6.80401 36.0419 6.96203 35.7929Z" fill="#101828"/>
<path d="M4.73681 31.0608C5.03835 30.626 5.48678 30.664 5.72134 31.1579C5.83039 31.4393 5.87387 31.739 5.8484 32.0359C5.82308 32.3342 5.72936 32.6199 5.57487 32.8731C5.27319 33.3065 4.82475 33.2699 4.59019 32.7747C4.48114 32.4946 4.43766 32.1935 4.46313 31.8966C4.4886 31.5997 4.58217 31.3141 4.73681 31.0608Z" fill="#101828"/>
<path d="M7.71239 26.8294C8.02477 26.3848 8.46237 26.4326 8.69693 26.9265C8.80809 27.2051 8.85368 27.5034 8.83018 27.7989C8.80655 28.0944 8.71452 28.3786 8.56115 28.6305C8.24878 29.0751 7.80034 29.0385 7.56578 28.5433C7.45673 28.2632 7.41325 27.9621 7.43872 27.6652C7.46419 27.3683 7.55776 27.0827 7.71239 26.8294Z" fill="#101828"/>
</g>
</svg>
