<svg width="82" height="116" viewBox="0 0 82 116" fill="none" xmlns="http://www.w3.org/2000/svg">
<g opacity="0.8">
<path d="M68.0095 5.56203L54.6292 0.725586L13.0762 109.545L26.0922 114.382C26.4083 114.551 26.0922 114.382 26.4324 114.382C27.7319 114.55 29.0522 114.418 30.2916 113.999C31.532 113.581 32.6587 112.884 33.5853 111.964L72.7296 80.406C77.9605 76.1499 81.4149 68.0731 80.4906 62.3661L72.024 10.6645C71.9606 9.50787 71.5416 8.39835 70.8241 7.48587C70.1065 6.57339 69.1242 5.90189 68.0095 5.56203Z" fill="#FFBE2E"/>
<path d="M68.0095 5.56203L54.6533 0.725586L13.0762 109.545L26.0922 114.382C26.4083 114.551 26.0922 114.382 26.4324 114.382C27.7549 114.56 29.0993 114.434 30.3649 114.015C31.6294 113.596 32.7813 112.894 33.7318 111.964L72.7296 80.406C77.9605 76.1741 81.439 68.0731 80.4906 62.3661L72.024 10.6645C71.9606 9.50787 71.5416 8.39835 70.824 7.48587C70.1065 6.57339 69.1242 5.90189 68.0095 5.56203Z" fill="white"/>
<path d="M80.0033 71.265C81.1748 68.4101 81.6015 65.3075 81.2438 62.245L72.7783 10.5435C72.6886 9.24672 72.2062 8.00723 71.3934 6.98848C70.5817 5.96971 69.478 5.21943 68.2288 4.83644L55.2861 0L12.0791 110.054L25.8236 115.059C25.9746 115.137 26.1409 115.179 26.3104 115.18C27.715 115.355 29.1403 115.216 30.4836 114.772C31.8257 114.329 33.052 113.592 34.0715 112.617L73.2158 80.9378C76.2633 78.335 78.5988 75.0072 80.0033 71.265ZM55.0914 1.76533L67.8394 6.3116C68.8031 6.61833 69.6476 7.21649 70.2536 8.02276C70.8596 8.82902 71.1976 9.80317 71.2206 10.8094L79.6872 62.511C80.5874 67.9761 77.2544 75.7629 72.1941 79.8254L33.0739 111.552C32.225 112.387 31.199 113.022 30.0701 113.412C28.9423 113.8 27.7412 113.934 26.5544 113.801C26.5544 113.801 26.4078 113.801 26.3345 113.801L14.1706 109.352L55.0914 1.76533Z" fill="#101828"/>
<path d="M59.0574 5.9735L67.524 57.675C68.4483 63.4063 65.0912 71.4831 59.7629 75.715L20.6186 107.442C15.4128 111.698 10.4007 110.489 9.47637 104.758L0.985714 53.0563C0.0613892 47.3251 3.41849 39.2483 8.74676 35.0164L47.8419 3.24089C53.0728 -1.01518 58.0598 0.218125 59.0574 5.9735Z" fill="white"/>
<path d="M64.0939 7.37599L72.5845 59.1744C73.5088 64.9055 70.1517 72.9823 64.8235 77.2142L25.6791 108.941C20.4482 113.173 15.4612 111.964 14.5369 106.233L6.04625 54.3379C5.12193 48.6066 8.60044 40.5299 13.8073 36.2979L52.9516 4.66759C58.1574 0.435705 63.1695 1.6448 64.0939 7.37599Z" fill="#FFCD00"/>
<path d="M66.964 66.4911C68.1334 63.6273 68.56 60.5174 68.2056 57.447L59.739 5.74538C59.6416 4.56534 59.226 3.43312 58.5368 2.46734C57.8477 1.50156 56.9102 0.737818 55.8218 0.25605C54.3177 -0.112213 52.7426 -0.0827911 51.2527 0.341434C49.7629 0.765659 48.4119 1.56992 47.3312 2.67427L8.21199 34.4013C2.78637 38.8024 -0.814675 47.218 0.158874 53.1668L8.64954 104.868C8.73705 106.048 9.14506 107.182 9.83092 108.149C10.5168 109.115 11.4542 109.88 12.5415 110.358C14.0467 110.726 15.6219 110.697 17.1107 110.272C18.6005 109.848 19.9525 109.044 21.0322 107.939L60.1765 76.2123C63.2317 73.596 65.5672 70.2508 66.964 66.4911ZM2.83449 44.6062C4.13292 41.0981 6.31082 37.9769 9.16037 35.5379L48.3047 3.76243C49.1918 2.84946 50.2988 2.17697 51.5207 1.80877C52.7426 1.44056 54.0388 1.38886 55.2869 1.65859C56.1193 2.05273 56.8304 2.66278 57.3445 3.42451C57.8586 4.18624 58.1562 5.07152 58.2065 5.98722L66.6971 57.6887C67.5974 63.1781 64.2644 70.9406 59.2041 75.0274L20.1079 106.755C19.2208 107.667 18.1137 108.34 16.8919 108.708C15.67 109.076 14.3738 109.128 13.1257 108.858C12.2954 108.46 11.5877 107.849 11.0747 107.088C10.5616 106.327 10.2619 105.444 10.2061 104.53L1.69139 52.8281C1.35667 50.0353 1.75046 47.2041 2.83449 44.6062Z" fill="#101828"/>
<path d="M66.2582 66.356L79.201 71.2408L75.7465 77.2863L68.8376 83.888L31.2498 113.801L27.3327 115.084L13.0762 109.691L17.8203 109.667L25.8734 103.21L62.8038 72.5466L66.2582 66.356Z" fill="#101828"/>
<path d="M67.6456 59.5853L80.6617 64.4943L80.2722 58.9566L67.2803 54.0718L67.6456 59.5853Z" fill="#101828"/>
<path d="M20.1316 87.6366C20.6184 81.5911 22.2483 72.1117 27.43 67.783L30.1067 65.6066L30.0826 61.5924C29.4175 61.3365 28.8203 60.9335 28.3357 60.4139C27.85 59.8944 27.4912 59.272 27.2845 58.5938L23.83 49.7915L23.562 49.1386V48.9451C23.3793 48.3928 23.2404 47.8268 23.1485 47.2524C22.7722 43.8457 23.2109 40.399 24.4284 37.1927C25.6458 33.9864 27.6083 31.1113 30.1548 28.8013C35.0204 24.8113 39.8859 26.6248 40.8835 32.8397C40.9787 33.4401 41.0356 34.0459 41.0542 34.6533V35.9109V47.4942C41.0257 49.6597 40.5882 51.8005 39.7645 53.8057L40.738 57.1187L43.3896 54.9665C48.7179 50.6379 52.7313 55.5226 54.8479 59.4401C55.245 60.6243 55.2822 61.8987 54.9529 63.1033C54.6237 64.308 53.9444 65.3892 52.9993 66.2112L38.6454 77.8912L38.0132 78.3991L23.7326 90.0307C21.7134 91.6751 19.9861 90.3934 20.1316 87.6366Z" fill="white"/>
<path d="M33.6592 30.1558C31.1082 32.4634 29.1414 35.3375 27.9196 38.5439C26.6977 41.7502 26.2547 45.1983 26.6277 48.6069C26.7229 49.1806 26.8607 49.7465 27.0412 50.2995V50.4689L27.2851 51.146L30.7396 59.9241C30.9474 60.6055 31.3095 61.2304 31.7996 61.7503C32.2885 62.2704 32.8912 62.6714 33.5618 62.9226L33.7806 66.8644L31.1049 69.0408C25.7767 73.3694 24.1709 82.8488 23.6841 88.8702C23.648 89.2158 23.648 89.5644 23.6841 89.91L23.5145 90.0551C21.6167 91.6027 19.9135 90.3212 20.1323 87.6369C20.6191 81.6156 22.2489 72.112 27.4306 67.8076L30.1073 65.6311L30.0833 61.5927C29.4127 61.3448 28.8111 60.9445 28.3254 60.4237C27.8397 59.903 27.4831 59.2764 27.2851 58.5941L23.8307 49.7918C23.7224 49.5822 23.6327 49.3637 23.5627 49.1388V48.9696C23.3855 48.4138 23.2389 47.8487 23.1251 47.2767C22.7521 43.8682 23.194 40.4203 24.4159 37.2138C25.6378 34.0075 27.6045 31.1334 30.1555 28.8258C33.343 26.2142 36.5054 26.0932 38.598 28.052C36.7614 28.1856 35.0232 28.9262 33.6592 30.1558Z" fill="#101828"/>
<path d="M46.6293 56.6324L43.9766 58.8088L40.4248 57.4788C40.4248 57.4788 43.0282 55.3749 43.0523 55.3266C44.0466 54.3104 45.3921 53.7095 46.8163 53.6466C48.2405 53.5837 49.6352 54.0635 50.716 54.988C49.2042 55.0517 47.7603 55.6325 46.6293 56.6324Z" fill="#101828"/>
</g>
</svg>
