<svg width="139" height="76" viewBox="0 0 139 76" fill="none" xmlns="http://www.w3.org/2000/svg">
<g clip-path="url(#clip0_1_1299)">
<mask id="mask0_1_1299" style="mask-type:luminance" maskUnits="userSpaceOnUse" x="5" y="20" width="130" height="36">
<path d="M134.875 20.2544H5.125V55.7454H134.875V20.2544Z" fill="white"/>
</mask>
<g mask="url(#mask0_1_1299)">
<path d="M11.3711 43.7838C11.7609 46.85 14.0475 48.8334 17.3459 48.8496C20.9634 48.8618 23.4479 46.4601 23.4579 42.8426L23.4843 39.7077H23.4721V39.1482C23.4801 37.5059 24.1395 35.9339 25.3056 34.7773C26.4716 33.6207 28.0489 32.9741 29.6913 32.9795L29.6711 38.9219L29.6428 43.19C29.6518 45.039 29.2913 46.8712 28.5824 48.5789C27.4401 50.1511 25.8446 51.3365 24.0097 51.9767C22.1748 52.6167 20.1882 52.6808 18.3159 52.1602C16.4436 51.6397 14.7751 50.5594 13.5339 49.0641C12.2927 47.5689 11.5381 45.73 11.3711 43.7939V43.7838Z" fill="#C4E4F3"/>
<path d="M17.3252 55.7454C11.3343 55.7273 6.82189 52.0673 5.511 46.5449C5.24858 45.4194 5.1191 44.2669 5.12521 43.1112L5.19186 21.8157L5.1959 20.2544C6.87683 20.394 8.44353 21.1616 9.58404 22.4043C10.7245 23.647 11.3552 25.2736 11.3504 26.9603C11.3504 26.9846 11.3504 27.0088 11.3504 27.0331H11.4898H11.3646L11.3161 42.8001C11.3138 43.127 11.3334 43.4535 11.3747 43.7777C11.5416 45.7139 12.2962 47.5527 13.5374 49.048C14.7786 50.5433 16.4471 51.6236 18.3194 52.1441C20.1917 52.6646 22.1784 52.6005 24.0133 51.9605C25.8482 51.3204 27.4436 50.1349 28.5859 48.5628C26.7236 52.9641 22.5667 55.7616 17.3252 55.7454Z" fill="#C4E4F3"/>
<path d="M27.082 23.082C21.0911 23.1002 16.5787 26.7622 15.2699 32.2825C15.0065 33.4079 14.8769 34.5605 14.8841 35.7163L14.9487 45.1369V46.7003C16.6279 46.5619 18.1936 45.7967 19.3346 44.5569C20.4756 43.3171 21.1084 41.6934 21.1073 40.0085C21.1073 39.9823 21.1073 39.958 21.1073 39.9337H21.2446H21.1214L21.0709 36.0314C21.0703 35.7052 21.0905 35.3794 21.1315 35.0558C21.2981 33.1195 22.0525 31.2804 23.2935 29.7848C24.5346 28.2892 26.2031 27.2087 28.0754 26.6879C29.9478 26.1672 31.9346 26.231 33.7697 26.871C35.6047 27.511 37.2003 28.6965 38.3428 30.2687C36.4825 25.8694 32.3236 23.082 27.082 23.082Z" fill="#C4E4F3"/>
<path d="M39.4299 45.0765L39.4016 35.6539C39.4104 33.8049 39.0499 31.9727 38.3412 30.2649C37.1987 28.6927 35.6031 27.5072 33.7681 26.8672C31.933 26.2272 29.9462 26.1633 28.0739 26.6841C26.2015 27.2049 24.533 28.2854 23.292 29.781C22.0509 31.2766 21.2965 33.1157 21.1299 35.052C21.5419 31.7899 24.1112 29.7478 27.747 30.0064C29.239 30.1273 30.6307 30.8061 31.6444 31.9075C32.6582 33.0088 33.2197 34.4519 33.2168 35.9488V37.4071H29.6638V43.6H33.235V44.2908V44.8504C33.2408 46.4934 33.8988 48.0668 35.0641 49.225C36.2296 50.3832 37.807 51.0313 39.4501 51.0271L39.4299 45.0765Z" fill="#C4E4F3"/>
<path d="M49.0923 37.5769V28.9561H51.2798V37.5667C51.2798 39.4876 52.6331 40.8914 54.3278 40.8914C56.0225 40.8914 57.394 39.4775 57.394 37.5667V28.9561H59.5855V37.5769C59.5855 40.7622 57.2869 43.0951 54.3339 43.0951C51.3808 43.0951 49.0923 40.7622 49.0923 37.5769Z" fill="#C4E4F3"/>
<path d="M69.5772 40.7279H63.0087L62.0613 42.8386H59.7021L66.2283 28.6733H66.3576L72.8858 42.8386H70.5246L69.5772 40.7279ZM68.735 38.8595L66.297 33.4341L63.853 38.8595H68.735Z" fill="#C4E4F3"/>
<path d="M79.5933 28.9561H81.7705V42.8386H79.5933V28.9561Z" fill="#C4E4F3"/>
<path d="M93.1392 31.1173H89.4185V42.8326H87.2307V31.1173H83.5107V28.9561H93.1392V31.1173Z" fill="#C4E4F3"/>
<path d="M110.395 28.9561V42.8386H108.218V36.981H102.206V42.8386H100.035V28.9561H102.206V34.8136H108.218V28.9561H110.395Z" fill="#C4E4F3"/>
<path d="M112.959 38.2818V32.5049H115.036V38.2737C115.036 39.9784 116.046 40.9439 117.335 40.9439C118.68 40.9439 119.704 39.9784 119.704 38.2737V32.5049H121.779V38.2818C121.779 41.0813 119.859 42.9658 117.335 42.9658C114.81 42.9658 112.959 41.0813 112.959 38.2818Z" fill="#C4E4F3"/>
<path d="M134.875 37.6875C134.875 40.5375 132.92 43.1735 129.848 43.1735C129.156 43.1939 128.471 43.0436 127.852 42.7356C127.232 42.4277 126.699 41.9717 126.299 41.4081L126.195 42.8381H124.25V28.6284H126.317V33.9326C126.714 33.376 127.243 32.9256 127.855 32.621C128.468 32.3163 129.146 32.1668 129.829 32.1854C132.724 32.1854 134.875 34.6052 134.875 37.6875ZM132.8 37.6613C132.8 35.7323 131.328 34.2598 129.52 34.2598C127.763 34.2598 126.325 35.6373 126.325 37.6713C126.325 39.6347 127.66 41.0889 129.51 41.0889C131.423 41.0889 132.8 39.5296 132.8 37.6613Z" fill="#C4E4F3"/>
<path d="M49.1465 50.1828L49.6212 49.8455C49.7082 49.9932 49.8336 50.1147 49.9839 50.1972C50.1343 50.2797 50.3042 50.3201 50.4756 50.3141C50.9038 50.3141 51.227 50.1121 51.227 49.8172C51.227 49.4637 50.7261 49.2516 50.2817 49.0598C49.8373 48.8679 49.3364 48.6296 49.3364 48.0297C49.3364 47.4297 49.8777 46.9692 50.5644 46.9692C51.1098 46.9692 51.5158 47.2318 51.6733 47.652L51.227 47.9589C51.1683 47.8353 51.0751 47.7313 50.9586 47.6596C50.8421 47.5879 50.7073 47.5516 50.5705 47.555C50.2191 47.555 49.9403 47.7711 49.9403 48.0418C49.9403 48.3124 50.2917 48.4458 50.7483 48.6477C51.3542 48.9123 51.8208 49.2032 51.8208 49.8051C51.8208 50.4818 51.233 50.9181 50.4594 50.9181C50.1936 50.9316 49.9293 50.8697 49.697 50.7396C49.4648 50.6095 49.2739 50.4165 49.1465 50.1828Z" fill="#C4E4F3"/>
<path d="M52.1436 49.4336C52.1439 49.1355 52.2327 48.8441 52.3986 48.5963C52.5644 48.3486 52.8 48.1554 53.0754 48.0414C53.351 47.9274 53.6541 47.8976 53.9465 47.9557C54.239 48.0138 54.5076 48.1573 54.7186 48.368C54.9296 48.5787 55.0734 48.8471 55.1319 49.1395C55.1904 49.4319 55.161 49.735 55.0473 50.0107C54.9337 50.2863 54.741 50.5221 54.4934 50.6883C54.2458 50.8545 53.9546 50.9436 53.6565 50.9444C53.4579 50.9448 53.2612 50.9058 53.0776 50.83C52.8941 50.7543 52.7273 50.643 52.5868 50.5026C52.4463 50.3623 52.3348 50.1956 52.2588 50.0123C52.1827 49.8288 52.1436 49.6322 52.1436 49.4336ZM54.5916 49.4336C54.592 49.2476 54.5372 49.0656 54.4341 48.9108C54.3309 48.756 54.1841 48.6353 54.0123 48.564C53.8405 48.4928 53.6514 48.4741 53.4689 48.5105C53.2865 48.5468 53.1189 48.6365 52.9875 48.7682C52.8561 48.8998 52.7668 49.0676 52.7309 49.25C52.695 49.4326 52.714 49.6217 52.7856 49.7934C52.8573 49.965 52.9783 50.1116 53.1333 50.2143C53.2884 50.3172 53.4705 50.3716 53.6565 50.3708C53.9046 50.3702 54.1425 50.2713 54.3179 50.0956C54.4932 49.9199 54.5916 49.6818 54.5916 49.4336Z" fill="#C4E4F3"/>
<path d="M56.431 47.8801V48.0134H57.144V48.5648H56.431V50.8533H55.8613V48.5648H55.4453V48.0134H55.8613V47.8801C55.8613 47.2741 56.0977 46.8701 56.6471 46.8701C56.8164 46.873 56.9842 46.903 57.144 46.959V47.4842C57.0394 47.4378 56.927 47.4117 56.8127 47.4074C56.4936 47.4135 56.431 47.6801 56.431 47.8801Z" fill="#C4E4F3"/>
<path d="M57.7142 49.9466V48.5771H57.3364V48.06H57.4395C57.6415 48.06 57.7606 47.9368 57.7606 47.7125V47.4702H58.2939V48.0216H58.9726V48.5771H58.2939V49.9466C58.2939 50.2051 58.3969 50.3626 58.6312 50.3626C58.7494 50.3555 58.8661 50.3331 58.9786 50.296V50.8272C58.8062 50.879 58.6274 50.9069 58.4474 50.91C57.9707 50.9019 57.7142 50.5626 57.7142 49.9466Z" fill="#C4E4F3"/>
<path d="M59.1719 48.0132H59.7778L60.3333 49.7422L61.0544 48.0172H61.0746L61.7876 49.7401L62.3451 48.0132H62.9612L61.9108 50.9561H61.8421L61.0625 49.1968L60.2889 50.9561H60.2242L59.1719 48.0132Z" fill="#C4E4F3"/>
<path d="M65.9667 48.0133V50.8532H65.4315L65.4012 50.4493C65.292 50.6049 65.1459 50.7311 64.9759 50.8163C64.8061 50.9017 64.6177 50.9435 64.4276 50.9381C63.5833 50.9381 63.042 50.213 63.042 49.4293C63.042 48.5829 63.6378 47.9164 64.4296 47.9164C64.6195 47.9115 64.8076 47.9538 64.9771 48.0395C65.1467 48.1251 65.2924 48.2515 65.4012 48.4072L65.4315 48.0032L65.9667 48.0133ZM65.3951 49.4273C65.4019 49.3073 65.3843 49.1872 65.3434 49.0742C65.3024 48.9613 65.2389 48.8579 65.1567 48.7703C65.0746 48.6826 64.9754 48.6125 64.8654 48.5644C64.7553 48.5162 64.6366 48.4909 64.5165 48.49C64.2751 48.5012 64.0474 48.605 63.8806 48.7797C63.7138 48.9544 63.6208 49.1867 63.6208 49.4282C63.6208 49.6698 63.7138 49.9021 63.8806 50.0768C64.0474 50.2515 64.2751 50.3552 64.5165 50.3665C64.6366 50.3664 64.7556 50.3417 64.8659 50.294C64.9762 50.2463 65.0756 50.1764 65.158 50.0888C65.2402 50.0012 65.3038 49.8977 65.3446 49.7846C65.3854 49.6715 65.4025 49.5512 65.3951 49.4312V49.4273Z" fill="#C4E4F3"/>
<path d="M68.2812 47.9001L68.1883 48.5242H68.1055C67.7015 48.5242 67.2107 48.7424 67.2107 49.6312V50.8552H66.6411V48.0133H67.1744L67.2087 48.4576C67.327 48.2828 67.487 48.1402 67.6743 48.0429C67.8616 47.9455 68.0702 47.8965 68.2812 47.9001Z" fill="#C4E4F3"/>
<path d="M71.0982 49.6633H68.9653C69.0058 49.8665 69.1156 50.0494 69.2758 50.1808C69.4359 50.3123 69.6367 50.3842 69.8439 50.3844C70.1146 50.3795 70.3735 50.2727 70.569 50.0855L70.9548 50.4692C70.8096 50.6204 70.6351 50.7404 70.4421 50.822C70.249 50.9036 70.0414 50.945 69.8317 50.9439C69.43 50.9439 69.0447 50.7843 68.7606 50.5002C68.4765 50.2161 68.3169 49.8308 68.3169 49.429C68.3169 49.0272 68.4765 48.6419 68.7606 48.3578C69.0447 48.0737 69.43 47.9141 69.8317 47.9141C70.0118 47.915 70.1898 47.9522 70.3552 48.0236C70.5205 48.0948 70.6697 48.1987 70.794 48.329C70.9183 48.4593 71.0149 48.6133 71.0783 48.7818C71.1417 48.9503 71.1705 49.13 71.1628 49.3098C71.1632 49.4306 71.1413 49.5504 71.0982 49.6633ZM68.9531 49.2128H70.5932C70.5829 49.0148 70.4968 48.8282 70.3528 48.6917C70.2089 48.5553 70.018 48.4794 69.8197 48.4796C69.6115 48.4784 69.4098 48.5516 69.2509 48.6861C69.0919 48.8206 68.9863 49.0074 68.9531 49.2128Z" fill="#C4E4F3"/>
<path d="M76.1639 48.9509C76.1639 50.1224 75.4085 50.8536 74.1965 50.8536H73.1099V47.0381H74.2046C75.4166 47.0361 76.1639 47.7693 76.1639 48.9509ZM75.5579 48.9509C75.5579 48.1429 75.0328 47.634 74.1945 47.634H73.7078V50.2598H74.2046C75.0348 50.2578 75.5579 49.7447 75.5579 48.9489V48.9509Z" fill="#C4E4F3"/>
<path d="M79.2268 49.6633H77.0958C77.136 49.8663 77.2453 50.0492 77.4051 50.1806C77.565 50.3121 77.7655 50.3841 77.9724 50.3844C78.2431 50.3795 78.502 50.2727 78.6976 50.0855L79.0833 50.4692C78.9385 50.6203 78.7644 50.7403 78.5716 50.822C78.379 50.9036 78.1716 50.945 77.9623 50.9439C77.5605 50.9453 77.1747 50.7869 76.8896 50.5037C76.6046 50.2206 76.4437 49.8358 76.4424 49.434C76.441 49.0322 76.5994 48.6464 76.8825 48.3614C77.1656 48.0763 77.5504 47.9154 77.9522 47.9141C78.1324 47.915 78.3104 47.9522 78.4759 48.0235C78.6413 48.0948 78.7907 48.1986 78.9151 48.3289C79.0395 48.4592 79.1364 48.6131 79.2001 48.7817C79.2637 48.9502 79.2926 49.1298 79.2853 49.3098C79.2877 49.4303 79.2678 49.55 79.2268 49.6633ZM77.0877 49.2128H78.7279C78.7174 49.0148 78.6314 48.8282 78.4874 48.6917C78.3435 48.5553 78.1526 48.4794 77.9542 48.4796C77.7462 48.4788 77.5447 48.5522 77.3859 48.6866C77.227 48.821 77.1214 49.0076 77.0877 49.2128Z" fill="#C4E4F3"/>
<path d="M82.0817 48.0132L80.7385 50.9561H80.7107L79.3633 48.0212H79.9995L80.7205 49.6978L81.448 48.0212L82.0817 48.0132Z" fill="#C4E4F3"/>
<path d="M84.8835 49.6633H82.7505C82.791 49.8665 82.9013 50.0494 83.061 50.1808C83.2215 50.3123 83.4218 50.3842 83.6295 50.3844C83.9003 50.3795 84.159 50.2727 84.3548 50.0855L84.7403 50.4692C84.5948 50.6204 84.4208 50.7404 84.2273 50.822C84.0345 50.9036 83.8268 50.945 83.6175 50.9439C83.2155 50.9439 82.83 50.7843 82.5458 50.5002C82.2623 50.2161 82.1025 49.8308 82.1025 49.429C82.1025 49.0272 82.2623 48.6419 82.5458 48.3578C82.83 48.0737 83.2155 47.9141 83.6175 47.9141C83.7975 47.915 83.9753 47.9522 84.1403 48.0236C84.306 48.0948 84.4553 48.1987 84.5798 48.329C84.7035 48.4593 84.8003 48.6133 84.864 48.7818C84.927 48.9503 84.9563 49.13 84.948 49.3098C84.9488 49.4306 84.927 49.5504 84.8835 49.6633ZM82.7445 49.2128H84.3848C84.3743 49.0148 84.288 48.8282 84.144 48.6917C84.0008 48.5553 83.8095 48.4794 83.6115 48.4796C83.403 48.4784 83.2013 48.5516 83.0423 48.6861C82.8833 48.8206 82.7775 49.0074 82.7445 49.2128Z" fill="#C4E4F3"/>
<path d="M85.4468 46.9468H86.0183V50.8532H85.4468V46.9468Z" fill="#C4E4F3"/>
<path d="M86.5264 49.4336C86.5271 49.1355 86.6156 48.8441 86.7814 48.5963C86.9471 48.3486 87.1826 48.1554 87.4586 48.0414C87.7339 47.9274 88.0369 47.8976 88.3294 47.9557C88.6219 48.0138 88.8904 48.1573 89.1019 48.368C89.3126 48.5787 89.4566 48.8471 89.5151 49.1395C89.5736 49.4319 89.5436 49.735 89.4304 50.0107C89.3164 50.2863 89.1236 50.5221 88.8761 50.6883C88.6286 50.8545 88.3376 50.9436 88.0391 50.9444C87.8411 50.9448 87.6439 50.9058 87.4609 50.83C87.2771 50.7543 87.1099 50.643 86.9696 50.5026C86.8294 50.3623 86.7176 50.1956 86.6419 50.0123C86.5654 49.8288 86.5264 49.6322 86.5264 49.4336ZM88.9744 49.4336C88.9751 49.2476 88.9204 49.0656 88.8169 48.9108C88.7141 48.756 88.5671 48.6353 88.3954 48.564C88.2236 48.4928 88.0346 48.4741 87.8516 48.5105C87.6694 48.5468 87.5021 48.6365 87.3701 48.7682C87.2389 48.8998 87.1496 49.0676 87.1136 49.25C87.0776 49.4326 87.0971 49.6217 87.1684 49.7934C87.2404 49.965 87.3611 50.1116 87.5164 50.2143C87.6716 50.3172 87.8531 50.3716 88.0391 50.3708C88.2866 50.3692 88.5236 50.2698 88.6984 50.0942C88.8724 49.9186 88.9706 49.6812 88.9706 49.4336H88.9744Z" fill="#C4E4F3"/>
<path d="M92.9558 49.4372C92.9558 50.2209 92.4181 50.946 91.5743 50.946C91.3861 50.9516 91.1993 50.9108 91.0306 50.8273C90.8618 50.7438 90.7163 50.6202 90.6068 50.4673V51.9176H90.0488V48.0131H90.5663L90.5963 48.4172C90.7066 48.2606 90.8536 48.1339 91.0246 48.0482C91.1956 47.9625 91.3853 47.9207 91.5758 47.9263C92.3641 47.9263 92.9558 48.5909 92.9558 49.4372ZM92.3858 49.4372C92.3896 49.3162 92.3686 49.1958 92.3243 49.083C92.2808 48.9702 92.2148 48.8672 92.1308 48.7802C92.0468 48.6931 91.9463 48.6236 91.8353 48.5759C91.7236 48.5282 91.6043 48.503 91.4836 48.502C91.2473 48.521 91.0276 48.628 90.8671 48.8018C90.7066 48.9758 90.6173 49.2036 90.6173 49.4402C90.6173 49.6768 90.7066 49.9047 90.8671 50.0786C91.0276 50.2524 91.2473 50.3594 91.4836 50.3784C91.6051 50.3772 91.7258 50.3515 91.8376 50.3028C91.9493 50.2542 92.0498 50.1836 92.1338 50.0953C92.2178 50.0069 92.2831 49.9026 92.3266 49.7885C92.3693 49.6745 92.3888 49.5529 92.3843 49.4311L92.3858 49.4372Z" fill="#C4E4F3"/>
<path d="M97.6353 49.3406V50.8595H97.0638V49.3406C97.0638 48.7346 96.862 48.5003 96.4863 48.5003C96.1105 48.5003 95.8353 48.7609 95.8353 49.3083V50.8555H95.266V49.3083C95.266 48.7144 95.0643 48.5003 94.69 48.5003C94.2603 48.5003 94.0398 48.7831 94.0398 49.3406V50.8595H93.4683V48.0136H93.9993L94.024 48.3205C94.1223 48.1909 94.2505 48.0868 94.3968 48.0165C94.5438 47.9462 94.705 47.9119 94.8678 47.9166C95.0515 47.9053 95.2338 47.9554 95.386 48.0588C95.5383 48.1623 95.6515 48.3133 95.7085 48.4882C95.7985 48.3135 95.9358 48.1678 96.1053 48.0685C96.2748 47.969 96.469 47.9199 96.6655 47.9267C97.195 47.9267 97.6353 48.2398 97.6353 49.3406Z" fill="#C4E4F3"/>
<path d="M100.844 49.6633H98.7115C98.7527 49.8665 98.8622 50.0494 99.022 50.1808C99.1825 50.3123 99.3835 50.3842 99.5905 50.3844C99.8612 50.3795 100.12 50.2727 100.316 50.0855L100.701 50.4692C100.556 50.6204 100.382 50.7404 100.189 50.822C99.9955 50.9036 99.7877 50.945 99.5785 50.9439C99.1765 50.9439 98.791 50.7843 98.5075 50.5002C98.2232 50.2161 98.0635 49.8308 98.0635 49.429C98.0635 49.0272 98.2232 48.6419 98.5075 48.3578C98.791 48.0737 99.1765 47.9141 99.5785 47.9141C99.7585 47.915 99.9362 47.9522 100.102 48.0236C100.267 48.0948 100.416 48.1987 100.541 48.329C100.664 48.4593 100.761 48.6133 100.825 48.7818C100.888 48.9503 100.917 49.13 100.91 49.3098C100.91 49.4306 100.888 49.5504 100.844 49.6633ZM98.7055 49.2128H100.346C100.335 49.0148 100.25 48.8282 100.106 48.6917C99.9617 48.5553 99.7705 48.4794 99.5725 48.4796C99.364 48.4784 99.1622 48.5516 99.0032 48.6861C98.845 48.8206 98.7392 49.0074 98.7055 49.2128Z" fill="#C4E4F3"/>
<path d="M103.895 49.318V50.8531H103.325V49.318C103.325 48.712 103.082 48.4939 102.671 48.4939C102.261 48.4939 101.987 48.7646 101.987 49.318V50.8531H101.415V48.0132H101.95L101.976 48.3445C102.082 48.2136 102.215 48.109 102.368 48.0389C102.521 47.9688 102.687 47.9351 102.855 47.9405C103.406 47.9425 103.895 48.2394 103.895 49.318Z" fill="#C4E4F3"/>
<path d="M104.704 49.9466V48.5771H104.325V48.06H104.419C104.622 48.06 104.74 47.9368 104.74 47.7125V47.4702H105.273V48.0216H105.952V48.5771H105.273V49.9466C105.273 50.2051 105.378 50.3626 105.613 50.3626C105.731 50.3553 105.846 50.3329 105.958 50.296V50.8272C105.786 50.879 105.607 50.9069 105.427 50.91C104.961 50.9019 104.704 50.5626 104.704 49.9466Z" fill="#C4E4F3"/>
<path d="M107.667 48.9486C107.672 48.427 107.88 47.928 108.249 47.5584C108.617 47.1888 109.115 46.978 109.636 46.9712C110.136 46.9869 110.611 47.1953 110.961 47.5529L110.614 48.0255C110.487 47.8896 110.334 47.7802 110.164 47.7036C109.994 47.627 109.811 47.5847 109.624 47.5792C109.262 47.5792 108.914 47.7232 108.657 47.9797C108.401 48.2361 108.257 48.584 108.257 48.9466C108.257 49.3093 108.401 49.6571 108.657 49.9136C108.914 50.17 109.262 50.3141 109.624 50.3141C109.811 50.3075 109.995 50.264 110.165 50.186C110.334 50.1079 110.487 49.997 110.614 49.8596L110.966 50.3505C110.796 50.5305 110.592 50.6742 110.366 50.7729C110.139 50.8715 109.896 50.9229 109.649 50.9241C109.125 50.923 108.622 50.7147 108.251 50.3447C107.88 49.9746 107.67 49.4728 107.667 48.9486Z" fill="#C4E4F3"/>
<path d="M111.238 49.4336C111.239 49.1355 111.327 48.8441 111.493 48.5963C111.659 48.3486 111.895 48.1554 112.17 48.0414C112.445 47.9274 112.748 47.8976 113.041 47.9557C113.333 48.0138 113.602 48.1573 113.813 48.368C114.024 48.5787 114.168 48.8471 114.227 49.1395C114.285 49.4319 114.256 49.735 114.142 50.0107C114.029 50.2863 113.836 50.5221 113.588 50.6883C113.34 50.8545 113.049 50.9436 112.751 50.9444C112.553 50.9448 112.356 50.9058 112.172 50.83C111.989 50.7543 111.822 50.643 111.681 50.5026C111.541 50.3623 111.429 50.1956 111.353 50.0123C111.278 49.8288 111.238 49.6322 111.238 49.4336ZM113.686 49.4336C113.687 49.2476 113.632 49.0656 113.528 48.9108C113.426 48.756 113.279 48.6353 113.107 48.564C112.935 48.4928 112.746 48.4741 112.564 48.5105C112.381 48.5468 112.214 48.6365 112.082 48.7682C111.951 48.8998 111.861 49.0676 111.825 49.25C111.79 49.4326 111.809 49.6217 111.88 49.7934C111.952 49.965 112.073 50.1116 112.228 50.2143C112.383 50.3172 112.565 50.3716 112.751 50.3708C113 50.3702 113.237 50.2713 113.412 50.0956C113.588 49.9199 113.686 49.6818 113.686 49.4336Z" fill="#C4E4F3"/>
<path d="M118.932 49.3406V50.8595H118.361V49.3406C118.361 48.7346 118.159 48.5003 117.783 48.5003C117.408 48.5003 117.133 48.7609 117.133 49.3083V50.8555H116.562V49.3083C116.562 48.7144 116.359 48.5003 115.988 48.5003C115.556 48.5003 115.335 48.7831 115.335 49.3406V50.8595H114.766V48.0136H115.301L115.326 48.3205C115.424 48.1909 115.551 48.0868 115.698 48.0165C115.845 47.9462 116.007 47.9119 116.169 47.9166C116.353 47.9053 116.535 47.9554 116.688 48.0588C116.839 48.1623 116.953 48.3133 117.01 48.4882C117.099 48.3112 117.236 48.1634 117.406 48.0621C117.576 47.9608 117.771 47.9103 117.969 47.9166C118.498 47.9267 118.932 48.2398 118.932 49.3406Z" fill="#C4E4F3"/>
<path d="M122.514 49.4374C122.514 50.2211 121.977 50.9462 121.13 50.9462C120.942 50.9518 120.756 50.911 120.587 50.8276C120.418 50.7441 120.273 50.6205 120.162 50.4676V51.9178H119.607V48.0134H120.126L120.159 48.4174C120.267 48.2623 120.413 48.1366 120.582 48.0513C120.751 47.966 120.939 47.9239 121.128 47.9286C121.922 47.9266 122.514 48.5911 122.514 49.4374ZM121.942 49.4374C121.946 49.3165 121.925 49.1962 121.881 49.0834C121.838 48.9706 121.772 48.8676 121.688 48.7805C121.604 48.6934 121.504 48.624 121.392 48.5761C121.281 48.5284 121.162 48.5032 121.041 48.5022C120.805 48.5212 120.585 48.6283 120.425 48.8021C120.264 48.976 120.175 49.2039 120.175 49.4404C120.175 49.677 120.264 49.9049 120.425 50.0788C120.585 50.2526 120.805 50.3597 121.041 50.3787C121.163 50.3774 121.284 50.3517 121.395 50.3031C121.507 50.2544 121.608 50.1838 121.692 50.0955C121.776 50.0071 121.842 49.9029 121.884 49.7888C121.927 49.6747 121.947 49.5532 121.942 49.4314V49.4374Z" fill="#C4E4F3"/>
<path d="M125.771 48.0133V50.8533H125.236L125.206 50.4493C125.097 50.605 124.951 50.731 124.781 50.8164C124.612 50.9017 124.424 50.9435 124.234 50.9381C123.388 50.9381 122.849 50.213 122.849 49.4293C122.849 48.583 123.443 47.9164 124.236 47.9164C124.426 47.9117 124.613 47.9541 124.783 48.0397C124.952 48.1254 125.097 48.2517 125.206 48.4072L125.236 48.0033L125.771 48.0133ZM125.201 49.4272C125.208 49.3073 125.191 49.1872 125.15 49.0743C125.109 48.9613 125.045 48.8579 124.964 48.7702C124.881 48.6826 124.782 48.6126 124.672 48.5644C124.562 48.5162 124.443 48.4909 124.323 48.49C124.082 48.5012 123.854 48.605 123.687 48.7797C123.521 48.9544 123.428 49.1867 123.428 49.4283C123.428 49.6699 123.521 49.9021 123.687 50.0768C123.854 50.2516 124.082 50.3553 124.323 50.3665C124.443 50.3662 124.562 50.3413 124.672 50.2935C124.782 50.2456 124.882 50.1757 124.964 50.0882C125.046 50.0007 125.11 49.8973 125.15 49.7843C125.192 49.6714 125.209 49.5512 125.201 49.4313V49.4272Z" fill="#C4E4F3"/>
<path d="M128.927 49.318V50.8531H128.357V49.318C128.357 48.712 128.113 48.4939 127.703 48.4939C127.292 48.4939 127.018 48.7646 127.018 49.318V50.8531H126.446V48.0132H126.981L127.007 48.3445C127.113 48.2136 127.247 48.109 127.4 48.0389C127.552 47.9688 127.718 47.9351 127.886 47.9405C128.446 47.9425 128.927 48.2394 128.927 49.318Z" fill="#C4E4F3"/>
<path d="M132.046 48.0132L130.357 51.9175H129.751L130.289 50.6713L129.164 48.0132H129.779L130.563 50.033L131.434 48.0132H132.046Z" fill="#C4E4F3"/>
</g>
</g>
<defs>
<clipPath id="clip0_1_1299">
<rect width="129.75" height="36" fill="white" transform="translate(5.125 20)"/>
</clipPath>
</defs>
</svg>
