<svg width="40" height="40" viewBox="0 0 40 40" fill="none" xmlns="http://www.w3.org/2000/svg">
<rect x="1" y="1" width="38" height="38" rx="11" fill="white"/>
<path d="M19.9972 16.3318C17.9774 16.3318 16.329 17.9801 16.329 20C16.329 22.0199 17.9774 23.6682 19.9972 23.6682C22.0171 23.6682 23.6655 22.0199 23.6655 20C23.6655 17.9801 22.0171 16.3318 19.9972 16.3318ZM30.9992 20C30.9992 18.481 31.0129 16.9757 30.9276 15.4594C30.8423 13.6982 30.4406 12.1352 29.1527 10.8473C27.8621 9.55669 26.3018 9.15767 24.5406 9.07237C23.0215 8.98706 21.5163 9.00082 20 9.00082C18.481 9.00082 16.9757 8.98706 15.4594 9.07237C13.6982 9.15767 12.1352 9.55945 10.8473 10.8473C9.55669 12.1379 9.15767 13.6982 9.07237 15.4594C8.98706 16.9785 9.00082 18.4837 9.00082 20C9.00082 21.5163 8.98706 23.0243 9.07237 24.5406C9.15767 26.3018 9.55945 27.8648 10.8473 29.1527C12.1379 30.4433 13.6982 30.8423 15.4594 30.9276C16.9785 31.0129 18.4837 30.9992 20 30.9992C21.519 30.9992 23.0243 31.0129 24.5406 30.9276C26.3018 30.8423 27.8648 30.4406 29.1527 29.1527C30.4433 27.8621 30.8423 26.3018 30.9276 24.5406C31.0157 23.0243 30.9992 21.519 30.9992 20ZM19.9972 25.6441C16.8739 25.6441 14.3532 23.1234 14.3532 20C14.3532 16.8766 16.8739 14.3559 19.9972 14.3559C23.1206 14.3559 25.6413 16.8766 25.6413 20C25.6413 23.1234 23.1206 25.6441 19.9972 25.6441ZM25.8725 15.4429C25.1432 15.4429 24.5543 14.854 24.5543 14.1248C24.5543 13.3955 25.1432 12.8066 25.8725 12.8066C26.6017 12.8066 27.1906 13.3955 27.1906 14.1248C27.1908 14.2979 27.1569 14.4694 27.0907 14.6295C27.0245 14.7895 26.9275 14.9349 26.805 15.0573C26.6826 15.1798 26.5372 15.2769 26.3772 15.343C26.2171 15.4092 26.0456 15.4431 25.8725 15.4429Z" fill="#101828"/>
<rect x="1" y="1" width="38" height="38" rx="11" stroke="#101828" stroke-width="2"/>
</svg>
