<svg width="108" height="109" viewBox="0 0 108 109" fill="none" xmlns="http://www.w3.org/2000/svg">
<rect x="1" y="1.771" width="106" height="106" rx="53" fill="#FFCD00"/>
<path d="M35.3333 50.1043L54.5333 64.1043L72.6665 50.1043M40.4671 75.771H67.5338C70.1474 75.771 71.4532 75.7709 72.4515 75.2623C73.3296 74.8148 74.0445 74.1008 74.4919 73.2228C75.0005 72.2245 75 70.9179 75 68.3043V53.6912C75 52.374 75 51.7153 74.8325 51.1072C74.6842 50.5684 74.4398 50.0606 74.112 49.6081C73.7419 49.0973 73.2287 48.6856 72.2004 47.8623L59.1361 37.4023C57.5139 36.1035 56.7022 35.4543 55.8001 35.1965C55.0042 34.9691 54.1626 34.9573 53.3607 35.1626C52.4519 35.3954 51.6232 36.0222 49.9657 37.2755L35.9634 47.8637C34.8767 48.6854 34.3329 49.0961 33.9411 49.6154C33.5941 50.0754 33.3355 50.5957 33.1779 51.1499C33 51.7756 33 52.4566 33 53.8191V68.3041C33 70.9177 33 72.2245 33.5086 73.2228C33.956 74.1008 34.6694 74.8148 35.5475 75.2623C36.5458 75.7709 37.8535 75.771 40.4671 75.771Z" stroke="#333333" stroke-width="3" stroke-linecap="round" stroke-linejoin="round"/>
<path d="M48 49.394H60M54 55.394L54 43.394" stroke="#333333" stroke-width="3" stroke-linecap="round" stroke-linejoin="round"/>
<rect x="1" y="1.771" width="106" height="106" rx="53" stroke="#333333" stroke-width="2"/>
</svg>
