<svg width="108" height="109" viewBox="0 0 108 109" fill="none" xmlns="http://www.w3.org/2000/svg">
<rect x="1" y="1.771" width="106" height="106" rx="53" fill="#FFCD00"/>
<path d="M42.6686 34.6272H37.6327C36.297 34.6272 35.0161 35.1578 34.0717 36.1022C33.1273 37.0466 32.5967 38.3275 32.5967 39.6632V69.879C32.5967 71.2146 33.1273 72.4955 34.0717 73.44C35.0161 74.3844 36.297 74.915 37.6327 74.915H62.8125M67.8485 62.9063V39.6632C67.8485 38.3275 67.3179 37.0466 66.3735 36.1022C65.4291 35.1578 64.1481 34.6272 62.8125 34.6272H57.7765M44.6683 49.9149H56.7402M44.6683 59.9868H53.2222M69.1071 73.476L75.4021 79.771M42.6683 34.807C42.6683 33.4713 43.1988 32.1904 44.1433 31.246C45.0877 30.3016 46.3686 29.771 47.7042 29.771H52.7402C54.0758 29.771 55.3568 30.3016 56.3012 31.246C57.2456 32.1904 57.7762 33.4713 57.7762 34.807C57.7762 36.1426 57.2456 37.4235 56.3012 38.3679C55.3568 39.3124 54.0758 39.8429 52.7402 39.8429H47.7042C46.3686 39.8429 45.0877 39.3124 44.1433 38.3679C43.1988 37.4235 42.6683 36.1426 42.6683 34.807ZM57.7762 68.4401C57.7762 70.1096 58.4394 71.7107 59.6199 72.8913C60.8005 74.0718 62.4016 74.735 64.0711 74.735C65.7407 74.735 67.3418 74.0718 68.5224 72.8913C69.7029 71.7107 70.3661 70.1096 70.3661 68.4401C70.3661 66.7705 69.7029 65.1694 68.5224 63.9888C67.3418 62.8083 65.7407 62.1451 64.0711 62.1451C62.4016 62.1451 60.8005 62.8083 59.6199 63.9888C58.4394 65.1694 57.7762 66.7705 57.7762 68.4401Z" stroke="#333333" stroke-width="3" stroke-linecap="round" stroke-linejoin="round"/>
<rect x="1" y="1.771" width="106" height="106" rx="53" stroke="#333333" stroke-width="2"/>
</svg>
