<svg width="108" height="109" viewBox="0 0 108 109" fill="none" xmlns="http://www.w3.org/2000/svg">
<rect x="1" y="1.771" width="106" height="106" rx="53" fill="#FFCD00"/>
<path d="M47.1738 70.2109L39.3056 75.8495C38.731 76.2613 37.9222 75.9631 37.7524 75.2769L34.4526 61.9439C34.3754 61.6318 34.453 61.3015 34.6612 61.0564L41.7712 52.6848M47.1738 70.2109C44.3498 66.6144 41.3088 60.118 41.7712 52.6848M47.1738 70.2109L60.7995 70.2108M41.7712 52.6848C42.1731 46.224 45.2217 39.0554 53.3602 32.4681C53.7171 32.1792 54.2296 32.1792 54.5865 32.4681C62.7263 39.0554 65.8003 46.2239 66.2022 52.6847M60.7995 70.2108L68.6678 75.8494C69.2423 76.2612 70.0511 75.963 70.221 75.2768L73.5207 61.9438C73.598 61.6317 73.5204 61.3014 73.3122 61.0563L66.2022 52.6847M60.7995 70.2108C63.6235 66.6143 66.6645 60.1179 66.2022 52.6847M50.08 77.1074H57.8945M57.9873 50.7709C57.9873 52.9801 56.1964 54.7709 53.9873 54.7709C51.7781 54.7709 49.9873 52.9801 49.9873 50.7709C49.9873 48.5618 51.7781 46.7709 53.9873 46.7709C56.1964 46.7709 57.9873 48.5618 57.9873 50.7709Z" stroke="#333333" stroke-width="3" stroke-linecap="round"/>
<rect x="1" y="1.771" width="106" height="106" rx="53" stroke="#333333" stroke-width="2"/>
</svg>
