<svg width="108" height="109" viewBox="0 0 108 109" fill="none" xmlns="http://www.w3.org/2000/svg">
<rect x="1" y="1.771" width="106" height="106" rx="53" fill="#FFCD00"/>
<path d="M53.9999 29.1044V33.771M53.9999 75.771V80.4377M35.8466 36.6177L39.1599 39.931M68.8399 69.611L72.1533 72.9244M28.3333 54.771H32.9999M74.9999 54.771H79.6666M35.8466 72.9244L39.1599 69.611M68.8399 39.931L72.1533 36.6177M65.6666 54.771C65.6666 61.2144 60.4432 66.4377 53.9999 66.4377C47.5566 66.4377 42.3333 61.2144 42.3333 54.771C42.3333 48.3277 47.5566 43.1044 53.9999 43.1044C60.4432 43.1044 65.6666 48.3277 65.6666 54.771Z" stroke="#333333" stroke-width="3" stroke-linecap="round" stroke-linejoin="round"/>
<path d="M53.9994 31.6896V35.8862M53.9994 73.6563V77.853M37.6744 38.4462L40.654 41.4259M67.3449 68.1167L70.3245 71.0963M30.9177 54.7713H35.1144M72.8845 54.7713H77.0811M37.6744 71.0963L40.654 68.1167M67.3449 41.4259L70.3245 38.4462" stroke="#333333" stroke-width="3" stroke-linecap="round" stroke-linejoin="round"/>
<rect x="1" y="1.771" width="106" height="106" rx="53" stroke="#333333" stroke-width="2"/>
</svg>
