<svg width="314" height="414" viewBox="0 0 314 414" fill="none" xmlns="http://www.w3.org/2000/svg">
<path d="M24.56 22.04C24.56 22.8667 24.4133 23.48 24.12 23.88C23.8267 24.28 23.36 24.6667 22.72 25.04C22.3467 25.2533 21.88 25.4667 21.32 25.68C20.76 25.8667 20.1467 26.0267 19.48 26.16C18.8133 26.32 18.1067 26.44 17.36 26.52C16.64 26.6 15.92 26.64 15.2 26.64C13.28 26.64 11.48 26.3867 9.8 25.88C8.12 25.3467 6.65333 24.56 5.4 23.52C4.17333 22.4533 3.2 21.1333 2.48 19.56C1.76 17.9867 1.4 16.16 1.4 14.08C1.4 11.8933 1.78667 9.98667 2.56 8.36C3.36 6.73333 4.4 5.38667 5.68 4.32C6.98667 3.22667 8.46667 2.41333 10.12 1.88C11.8 1.34667 13.52 1.08 15.28 1.08C17.8133 1.08 19.8133 1.49333 21.28 2.32C22.7733 3.12 23.52 4.17333 23.52 5.48C23.52 6.17333 23.3467 6.77333 23 7.28C22.6533 7.78667 22.2533 8.18667 21.8 8.48C21.1333 8.08 20.2933 7.69333 19.28 7.32C18.2933 6.92 17.1733 6.72 15.92 6.72C13.68 6.72 11.8933 7.36 10.56 8.64C9.25333 9.92 8.6 11.6933 8.6 13.96C8.6 15.1867 8.77333 16.2533 9.12 17.16C9.49333 18.04 9.98667 18.7733 10.6 19.36C11.2133 19.92 11.92 20.3467 12.72 20.64C13.52 20.9067 14.3733 21.04 15.28 21.04C15.8667 21.04 16.3867 20.9867 16.84 20.88C17.2933 20.7733 17.64 20.6533 17.88 20.52V16.76H13.6C13.44 16.4667 13.28 16.08 13.12 15.6C12.9867 15.12 12.92 14.6133 12.92 14.08C12.92 13.12 13.1333 12.4267 13.56 12C14.0133 11.5733 14.5867 11.36 15.28 11.36H22.04C22.84 11.36 23.4533 11.5867 23.88 12.04C24.3333 12.4667 24.56 13.08 24.56 13.88V22.04ZM27.9625 13.84C27.9625 11.76 28.2825 9.92 28.9225 8.32C29.5892 6.72 30.4825 5.38667 31.6025 4.32C32.7492 3.22667 34.0825 2.4 35.6025 1.84C37.1492 1.28 38.8158 1 40.6025 1C42.3892 1 44.0425 1.28 45.5625 1.84C47.1092 2.4 48.4558 3.22667 49.6025 4.32C50.7492 5.38667 51.6425 6.72 52.2825 8.32C52.9492 9.92 53.2825 11.76 53.2825 13.84C53.2825 15.92 52.9625 17.7733 52.3225 19.4C51.6825 21 50.7892 22.3467 49.6425 23.44C48.5225 24.5067 47.1892 25.32 45.6425 25.88C44.0958 26.44 42.4158 26.72 40.6025 26.72C38.7892 26.72 37.1092 26.44 35.5625 25.88C34.0158 25.2933 32.6825 24.4533 31.5625 23.36C30.4425 22.2667 29.5625 20.92 28.9225 19.32C28.2825 17.72 27.9625 15.8933 27.9625 13.84ZM35.1625 13.84C35.1625 16.2667 35.6558 18.08 36.6425 19.28C37.6292 20.48 38.9492 21.08 40.6025 21.08C42.2825 21.08 43.6158 20.48 44.6025 19.28C45.5892 18.08 46.0825 16.2667 46.0825 13.84C46.0825 11.44 45.5892 9.64 44.6025 8.44C43.6425 7.24 42.3225 6.64 40.6425 6.64C38.9892 6.64 37.6558 7.24 36.6425 8.44C35.6558 9.61333 35.1625 11.4133 35.1625 13.84ZM71.2216 25.2C70.8482 25.52 70.2616 25.8 69.4616 26.04C68.6882 26.28 67.8349 26.4 66.9016 26.4C65.7816 26.4 64.8216 26.24 64.0216 25.92C63.2216 25.5733 62.6749 25.1067 62.3816 24.52C62.0882 23.9067 61.7282 23.12 61.3016 22.16C60.8749 21.1733 60.4216 20.08 59.9416 18.88C59.4882 17.68 59.0082 16.4133 58.5016 15.08C58.0216 13.72 57.5549 12.3467 57.1016 10.96C56.6482 9.57333 56.2216 8.21333 55.8216 6.88C55.4216 5.54667 55.0749 4.29333 54.7816 3.12C55.1549 2.74667 55.6882 2.41333 56.3816 2.12C57.1016 1.8 57.8616 1.64 58.6616 1.64C59.6482 1.64 60.4482 1.85333 61.0616 2.28C61.7016 2.68 62.1682 3.44 62.4616 4.56C63.1816 7.17333 63.9016 9.68 64.6216 12.08C65.3682 14.4533 66.1416 16.9333 66.9416 19.52H67.1816C67.9016 17.0133 68.6349 14.28 69.3816 11.32C70.1549 8.36 70.8882 5.41333 71.5816 2.48C72.0616 2.24 72.5682 2.04 73.1016 1.88C73.6616 1.72 74.2882 1.64 74.9816 1.64C75.9682 1.64 76.8082 1.86667 77.5016 2.32C78.1949 2.74667 78.5416 3.46667 78.5416 4.48C78.5416 5.06667 78.3949 5.92 78.1016 7.04C77.8349 8.16 77.4749 9.42667 77.0216 10.84C76.5949 12.2267 76.1016 13.68 75.5416 15.2C75.0082 16.72 74.4616 18.16 73.9016 19.52C73.3682 20.8533 72.8616 22.04 72.3816 23.08C71.9016 24.0933 71.5149 24.8 71.2216 25.2ZM82.0531 5.48C82.0531 4.33333 82.3865 3.42666 83.0531 2.76C83.7198 2.09333 84.6265 1.76 85.7731 1.76H98.9731C99.1598 2.05333 99.3198 2.44 99.4531 2.92C99.6131 3.4 99.6931 3.90667 99.6931 4.44C99.6931 5.45333 99.4665 6.17333 99.0131 6.6C98.5865 7.02667 98.0131 7.24 97.2931 7.24H88.8531V10.96H97.8531C98.0398 11.2533 98.1998 11.64 98.3331 12.12C98.4931 12.5733 98.5731 13.0667 98.5731 13.6C98.5731 14.6133 98.3598 15.3333 97.9331 15.76C97.5065 16.1867 96.9331 16.4 96.2131 16.4H88.8531V20.6H99.1331C99.3198 20.8933 99.4798 21.28 99.6131 21.76C99.7731 22.24 99.8531 22.7467 99.8531 23.28C99.8531 24.2933 99.6265 25.0267 99.1731 25.48C98.7465 25.9067 98.1731 26.12 97.4531 26.12H85.7731C84.6265 26.12 83.7198 25.7867 83.0531 25.12C82.3865 24.4533 82.0531 23.5467 82.0531 22.4V5.48ZM110.927 18.16V25.84C110.634 25.92 110.167 26 109.527 26.08C108.914 26.16 108.301 26.2 107.687 26.2C107.074 26.2 106.527 26.1467 106.047 26.04C105.594 25.96 105.207 25.8 104.887 25.56C104.594 25.32 104.367 24.9867 104.207 24.56C104.047 24.1333 103.967 23.5733 103.967 22.88V4.04C103.967 3.48 104.114 3.05333 104.407 2.76C104.727 2.44 105.154 2.18666 105.687 2C106.594 1.68 107.647 1.45333 108.847 1.32C110.047 1.16 111.327 1.08 112.687 1.08C116.367 1.08 119.141 1.85333 121.007 3.4C122.874 4.94667 123.807 7.04 123.807 9.68C123.807 11.3333 123.381 12.7467 122.527 13.92C121.674 15.0933 120.661 16 119.487 16.64C120.447 17.9467 121.394 19.1733 122.327 20.32C123.261 21.4667 123.994 22.5067 124.527 23.44C124.261 24.3733 123.767 25.0933 123.047 25.6C122.354 26.08 121.567 26.32 120.687 26.32C120.101 26.32 119.594 26.2533 119.167 26.12C118.741 25.9867 118.367 25.8 118.047 25.56C117.727 25.32 117.434 25.0267 117.167 24.68C116.901 24.3333 116.647 23.96 116.407 23.56L113.047 18.16H110.927ZM113.447 12.84C114.461 12.84 115.261 12.5867 115.847 12.08C116.434 11.5467 116.727 10.7733 116.727 9.76C116.727 8.74667 116.394 7.98667 115.727 7.48C115.087 6.94667 114.061 6.68 112.647 6.68C112.247 6.68 111.927 6.69333 111.687 6.72C111.447 6.74667 111.181 6.78667 110.887 6.84V12.84H113.447ZM150.302 25.16C149.929 25.5333 149.382 25.8133 148.662 26C147.969 26.2133 147.129 26.32 146.142 26.32C145.156 26.32 144.222 26.1733 143.342 25.88C142.462 25.5867 141.742 24.88 141.182 23.76L137.222 15.68C136.822 14.8533 136.462 14.08 136.142 13.36C135.822 12.6133 135.476 11.76 135.102 10.8L134.862 10.84C134.969 12.28 135.022 13.7467 135.022 15.24C135.049 16.7333 135.062 18.2 135.062 19.64V25.84C134.769 25.92 134.316 26 133.702 26.08C133.116 26.16 132.529 26.2 131.942 26.2C131.356 26.2 130.836 26.16 130.382 26.08C129.929 26 129.556 25.84 129.262 25.6C128.969 25.36 128.742 25.04 128.582 24.64C128.422 24.2133 128.342 23.6667 128.342 23V3C128.716 2.46667 129.289 2.06667 130.062 1.8C130.836 1.53333 131.662 1.4 132.542 1.4C133.529 1.4 134.462 1.56 135.342 1.88C136.249 2.17333 136.969 2.86667 137.502 3.96L141.502 12.04C141.902 12.8667 142.262 13.6533 142.582 14.4C142.902 15.12 143.249 15.96 143.622 16.92L143.822 16.88C143.716 15.44 143.649 14 143.622 12.56C143.596 11.12 143.582 9.68 143.582 8.24V1.76C143.876 1.68 144.316 1.6 144.902 1.52C145.516 1.44 146.116 1.4 146.702 1.4C147.876 1.4 148.769 1.61333 149.382 2.04C149.996 2.44 150.302 3.29333 150.302 4.6V25.16ZM172.251 20.04C171.904 20.3333 171.451 20.5733 170.891 20.76C170.357 20.92 169.731 21 169.011 21C168.051 21 167.251 20.88 166.611 20.64C165.997 20.4 165.597 19.9867 165.411 19.4C164.664 17.0533 164.051 15.16 163.571 13.72C163.091 12.2533 162.717 10.9733 162.451 9.88H162.251C162.171 11.4533 162.104 12.8933 162.051 14.2C162.024 15.48 161.997 16.7333 161.971 17.96C161.971 19.1867 161.944 20.4267 161.891 21.68C161.864 22.9333 161.811 24.32 161.731 25.84C161.384 25.9733 160.931 26.08 160.371 26.16C159.811 26.2667 159.251 26.32 158.691 26.32C157.517 26.32 156.597 26.1333 155.931 25.76C155.291 25.3867 154.971 24.7067 154.971 23.72L156.131 3.32C156.344 2.97333 156.811 2.6 157.531 2.2C158.251 1.8 159.264 1.6 160.571 1.6C161.984 1.6 163.091 1.82667 163.891 2.28C164.691 2.70667 165.277 3.41333 165.651 4.4C165.891 5.04 166.144 5.77333 166.411 6.6C166.704 7.42667 166.984 8.28 167.251 9.16C167.544 10.04 167.824 10.92 168.091 11.8C168.357 12.6533 168.597 13.4267 168.811 14.12H169.011C169.651 11.88 170.291 9.72 170.931 7.64C171.571 5.53333 172.157 3.77333 172.691 2.36C173.091 2.14667 173.597 1.97333 174.211 1.84C174.851 1.68 175.557 1.6 176.331 1.6C177.637 1.6 178.704 1.8 179.531 2.2C180.357 2.57333 180.837 3.12 180.971 3.84C181.077 4.37333 181.184 5.2 181.291 6.32C181.424 7.41333 181.557 8.65333 181.691 10.04C181.824 11.4267 181.957 12.8933 182.091 14.44C182.224 15.9867 182.344 17.48 182.451 18.92C182.584 20.3333 182.691 21.64 182.771 22.84C182.851 24.0133 182.904 24.92 182.931 25.56C182.477 25.8267 181.997 26.0133 181.491 26.12C181.011 26.2533 180.384 26.32 179.611 26.32C178.597 26.32 177.744 26.1467 177.051 25.8C176.357 25.4533 175.984 24.7733 175.931 23.76C175.771 20.8533 175.664 18.24 175.611 15.92C175.584 13.6 175.531 11.6533 175.451 10.08H175.251C174.984 11.12 174.597 12.4267 174.091 14C173.584 15.5733 172.971 17.5867 172.251 20.04ZM187.366 5.48C187.366 4.33333 187.699 3.42666 188.366 2.76C189.032 2.09333 189.939 1.76 191.086 1.76H204.286C204.472 2.05333 204.632 2.44 204.766 2.92C204.926 3.4 205.006 3.90667 205.006 4.44C205.006 5.45333 204.779 6.17333 204.326 6.6C203.899 7.02667 203.326 7.24 202.606 7.24H194.166V10.96H203.166C203.352 11.2533 203.512 11.64 203.646 12.12C203.806 12.5733 203.886 13.0667 203.886 13.6C203.886 14.6133 203.672 15.3333 203.246 15.76C202.819 16.1867 202.246 16.4 201.526 16.4H194.166V20.6H204.446C204.632 20.8933 204.792 21.28 204.926 21.76C205.086 22.24 205.166 22.7467 205.166 23.28C205.166 24.2933 204.939 25.0267 204.486 25.48C204.059 25.9067 203.486 26.12 202.766 26.12H191.086C189.939 26.12 189.032 25.7867 188.366 25.12C187.699 24.4533 187.366 23.5467 187.366 22.4V5.48ZM231.24 25.16C230.866 25.5333 230.32 25.8133 229.6 26C228.906 26.2133 228.066 26.32 227.08 26.32C226.093 26.32 225.16 26.1733 224.28 25.88C223.4 25.5867 222.68 24.88 222.12 23.76L218.16 15.68C217.76 14.8533 217.4 14.08 217.08 13.36C216.76 12.6133 216.413 11.76 216.04 10.8L215.8 10.84C215.906 12.28 215.96 13.7467 215.96 15.24C215.986 16.7333 216 18.2 216 19.64V25.84C215.706 25.92 215.253 26 214.64 26.08C214.053 26.16 213.466 26.2 212.88 26.2C212.293 26.2 211.773 26.16 211.32 26.08C210.866 26 210.493 25.84 210.2 25.6C209.906 25.36 209.68 25.04 209.52 24.64C209.36 24.2133 209.28 23.6667 209.28 23V3C209.653 2.46667 210.226 2.06667 211 1.8C211.773 1.53333 212.6 1.4 213.48 1.4C214.466 1.4 215.4 1.56 216.28 1.88C217.186 2.17333 217.906 2.86667 218.44 3.96L222.44 12.04C222.84 12.8667 223.2 13.6533 223.52 14.4C223.84 15.12 224.186 15.96 224.56 16.92L224.76 16.88C224.653 15.44 224.586 14 224.56 12.56C224.533 11.12 224.52 9.68 224.52 8.24V1.76C224.813 1.68 225.253 1.6 225.84 1.52C226.453 1.44 227.053 1.4 227.64 1.4C228.813 1.4 229.706 1.61333 230.32 2.04C230.933 2.44 231.24 3.29333 231.24 4.6V25.16ZM235.308 7.36C235.121 7.06667 234.948 6.66667 234.788 6.16C234.628 5.65333 234.548 5.12 234.548 4.56C234.548 3.52 234.775 2.77333 235.228 2.32C235.708 1.86667 236.321 1.64 237.068 1.64H254.508C254.695 1.93333 254.868 2.33333 255.028 2.84C255.188 3.34667 255.268 3.88 255.268 4.44C255.268 5.48 255.028 6.22667 254.548 6.68C254.095 7.13333 253.495 7.36 252.748 7.36H248.308V25.84C248.015 25.92 247.548 26 246.908 26.08C246.295 26.16 245.681 26.2 245.068 26.2C244.455 26.2 243.908 26.1467 243.428 26.04C242.975 25.96 242.588 25.8 242.268 25.56C241.948 25.32 241.708 24.9867 241.548 24.56C241.388 24.1333 241.308 23.5733 241.308 22.88V7.36H235.308ZM256.944 10.2C256.944 9.08 257.291 8.14667 257.984 7.4C258.677 6.65333 259.624 6.28 260.824 6.28C262.024 6.28 262.971 6.65333 263.664 7.4C264.357 8.14667 264.704 9.08 264.704 10.2C264.704 11.32 264.357 12.2533 263.664 13C262.971 13.7467 262.024 14.12 260.824 14.12C259.624 14.12 258.677 13.7467 257.984 13C257.291 12.2533 256.944 11.32 256.944 10.2ZM256.944 22.76C256.944 21.64 257.291 20.7067 257.984 19.96C258.677 19.2133 259.624 18.84 260.824 18.84C262.024 18.84 262.971 19.2133 263.664 19.96C264.357 20.7067 264.704 21.64 264.704 22.76C264.704 23.88 264.357 24.8133 263.664 25.56C262.971 26.3067 262.024 26.68 260.824 26.68C259.624 26.68 258.677 26.3067 257.984 25.56C257.291 24.8133 256.944 23.88 256.944 22.76ZM19.648 67.832C19.648 68.4933 19.5307 68.984 19.296 69.304C19.0613 69.624 18.688 69.9333 18.176 70.232C17.8773 70.4027 17.504 70.5733 17.056 70.744C16.608 70.8933 16.1173 71.0213 15.584 71.128C15.0507 71.256 14.4853 71.352 13.888 71.416C13.312 71.48 12.736 71.512 12.16 71.512C10.624 71.512 9.184 71.3093 7.84 70.904C6.496 70.4773 5.32267 69.848 4.32 69.016C3.33867 68.1627 2.56 67.1067 1.984 65.848C1.408 64.5893 1.12 63.128 1.12 61.464C1.12 59.7147 1.42933 58.1893 2.048 56.888C2.688 55.5867 3.52 54.5093 4.544 53.656C5.58933 52.7813 6.77333 52.1307 8.096 51.704C9.44 51.2773 10.816 51.064 12.224 51.064C14.2507 51.064 15.8507 51.3947 17.024 52.056C18.2187 52.696 18.816 53.5387 18.816 54.584C18.816 55.1387 18.6773 55.6187 18.4 56.024C18.1227 56.4293 17.8027 56.7493 17.44 56.984C16.9067 56.664 16.2347 56.3547 15.424 56.056C14.6347 55.736 13.7387 55.576 12.736 55.576C10.944 55.576 9.51467 56.088 8.448 57.112C7.40267 58.136 6.88 59.5547 6.88 61.368C6.88 62.3493 7.01867 63.2027 7.296 63.928C7.59467 64.632 7.98933 65.2187 8.48 65.688C8.97067 66.136 9.536 66.4773 10.176 66.712C10.816 66.9253 11.4987 67.032 12.224 67.032C12.6933 67.032 13.1093 66.9893 13.472 66.904C13.8347 66.8187 14.112 66.7227 14.304 66.616V63.608H10.88C10.752 63.3733 10.624 63.064 10.496 62.68C10.3893 62.296 10.336 61.8907 10.336 61.464C10.336 60.696 10.5067 60.1413 10.848 59.8C11.2107 59.4587 11.6693 59.288 12.224 59.288H17.632C18.272 59.288 18.7627 59.4693 19.104 59.832C19.4667 60.1733 19.648 60.664 19.648 61.304V67.832ZM28.354 70.968C28.1407 71.032 27.7993 71.096 27.33 71.16C26.882 71.224 26.4127 71.256 25.922 71.256C25.4527 71.256 25.026 71.224 24.642 71.16C24.2793 71.096 23.97 70.968 23.714 70.776C23.458 70.584 23.2553 70.328 23.106 70.008C22.978 69.6667 22.914 69.2293 22.914 68.696V59.096C22.914 58.6053 22.9993 58.1893 23.17 57.848C23.362 57.4853 23.6287 57.1653 23.97 56.888C24.3113 56.6107 24.7273 56.3653 25.218 56.152C25.73 55.9173 26.274 55.7147 26.85 55.544C27.426 55.3733 28.0233 55.2453 28.642 55.16C29.2607 55.0533 29.8793 55 30.498 55C31.522 55 32.3327 55.2027 32.93 55.608C33.5273 55.992 33.826 56.632 33.826 57.528C33.826 57.8267 33.7833 58.1253 33.698 58.424C33.6127 58.7013 33.506 58.9573 33.378 59.192C32.93 59.192 32.4713 59.2133 32.002 59.256C31.5327 59.2987 31.074 59.3627 30.626 59.448C30.178 59.5333 29.7513 59.6293 29.346 59.736C28.962 59.8213 28.6313 59.928 28.354 60.056V70.968ZM43.7005 71.512C42.4418 71.512 41.2685 71.3413 40.1805 71C39.1138 70.6373 38.1752 70.104 37.3645 69.4C36.5752 68.696 35.9458 67.8107 35.4765 66.744C35.0285 65.6773 34.8045 64.4293 34.8045 63C34.8045 61.592 35.0285 60.3867 35.4765 59.384C35.9458 58.36 36.5538 57.528 37.3005 56.888C38.0472 56.2267 38.9005 55.7467 39.8605 55.448C40.8205 55.128 41.8018 54.968 42.8045 54.968C43.9352 54.968 44.9592 55.1387 45.8765 55.48C46.8152 55.8213 47.6152 56.2907 48.2765 56.888C48.9592 57.4853 49.4818 58.2 49.8445 59.032C50.2285 59.864 50.4205 60.7707 50.4205 61.752C50.4205 62.4773 50.2178 63.032 49.8125 63.416C49.4072 63.8 48.8418 64.0453 48.1165 64.152L40.2125 65.336C40.4472 66.04 40.9272 66.5733 41.6525 66.936C42.3778 67.2773 43.2098 67.448 44.1485 67.448C45.0232 67.448 45.8445 67.3413 46.6125 67.128C47.4018 66.8933 48.0418 66.6267 48.5325 66.328C48.8738 66.5413 49.1618 66.84 49.3965 67.224C49.6312 67.608 49.7485 68.0133 49.7485 68.44C49.7485 69.4 49.3005 70.1147 48.4045 70.584C47.7218 70.9467 46.9538 71.192 46.1005 71.32C45.2472 71.448 44.4472 71.512 43.7005 71.512ZM42.8045 58.936C42.2925 58.936 41.8445 59.0213 41.4605 59.192C41.0978 59.3627 40.7992 59.5867 40.5645 59.864C40.3298 60.12 40.1485 60.4187 40.0205 60.76C39.9138 61.08 39.8498 61.4107 39.8285 61.752L45.3005 60.856C45.2365 60.4293 45.0018 60.0027 44.5965 59.576C44.1912 59.1493 43.5938 58.936 42.8045 58.936ZM61.263 71.512C60.0043 71.512 58.831 71.3413 57.743 71C56.6763 70.6373 55.7377 70.104 54.927 69.4C54.1377 68.696 53.5083 67.8107 53.039 66.744C52.591 65.6773 52.367 64.4293 52.367 63C52.367 61.592 52.591 60.3867 53.039 59.384C53.5083 58.36 54.1163 57.528 54.863 56.888C55.6097 56.2267 56.463 55.7467 57.423 55.448C58.383 55.128 59.3643 54.968 60.367 54.968C61.4977 54.968 62.5217 55.1387 63.439 55.48C64.3777 55.8213 65.1777 56.2907 65.839 56.888C66.5217 57.4853 67.0443 58.2 67.407 59.032C67.791 59.864 67.983 60.7707 67.983 61.752C67.983 62.4773 67.7803 63.032 67.375 63.416C66.9697 63.8 66.4043 64.0453 65.679 64.152L57.775 65.336C58.0097 66.04 58.4897 66.5733 59.215 66.936C59.9403 67.2773 60.7723 67.448 61.711 67.448C62.5857 67.448 63.407 67.3413 64.175 67.128C64.9643 66.8933 65.6043 66.6267 66.095 66.328C66.4363 66.5413 66.7243 66.84 66.959 67.224C67.1937 67.608 67.311 68.0133 67.311 68.44C67.311 69.4 66.863 70.1147 65.967 70.584C65.2843 70.9467 64.5163 71.192 63.663 71.32C62.8097 71.448 62.0097 71.512 61.263 71.512ZM60.367 58.936C59.855 58.936 59.407 59.0213 59.023 59.192C58.6603 59.3627 58.3617 59.5867 58.127 59.864C57.8923 60.12 57.711 60.4187 57.583 60.76C57.4763 61.08 57.4123 61.4107 57.391 61.752L62.863 60.856C62.799 60.4293 62.5643 60.0027 62.159 59.576C61.7537 59.1493 61.1563 58.936 60.367 58.936ZM80.4575 61.144C80.4575 60.4827 80.2655 60.0027 79.8815 59.704C79.5188 59.384 79.0175 59.224 78.3775 59.224C77.9508 59.224 77.5242 59.2773 77.0975 59.384C76.6922 59.4907 76.3402 59.6507 76.0415 59.864V70.968C75.8282 71.032 75.4868 71.096 75.0175 71.16C74.5695 71.224 74.1002 71.256 73.6095 71.256C73.1402 71.256 72.7135 71.224 72.3295 71.16C71.9668 71.096 71.6575 70.968 71.4015 70.776C71.1455 70.584 70.9428 70.328 70.7935 70.008C70.6655 69.6667 70.6015 69.2293 70.6015 68.696V59.096C70.6015 58.52 70.7188 58.0507 70.9535 57.688C71.2095 57.3253 71.5508 56.9947 71.9775 56.696C72.7028 56.184 73.6095 55.768 74.6975 55.448C75.8068 55.128 77.0335 54.968 78.3775 54.968C80.7882 54.968 82.6442 55.5013 83.9455 56.568C85.2468 57.6133 85.8975 59.0747 85.8975 60.952V70.968C85.6842 71.032 85.3428 71.096 84.8735 71.16C84.4255 71.224 83.9562 71.256 83.4655 71.256C82.9962 71.256 82.5695 71.224 82.1855 71.16C81.8228 71.096 81.5135 70.968 81.2575 70.776C81.0015 70.584 80.7988 70.328 80.6495 70.008C80.5215 69.6667 80.4575 69.2293 80.4575 68.696V61.144ZM101.648 66.84C101.883 66.8827 102.171 66.9253 102.512 66.968C102.853 66.9893 103.173 67 103.472 67C104.197 67 104.859 66.8933 105.456 66.68C106.075 66.4667 106.597 66.136 107.024 65.688C107.472 65.24 107.813 64.664 108.048 63.96C108.304 63.2347 108.432 62.3707 108.432 61.368C108.432 59.448 107.984 58.008 107.088 57.048C106.192 56.0667 104.997 55.576 103.504 55.576C103.205 55.576 102.896 55.5867 102.576 55.608C102.277 55.6293 101.968 55.6613 101.648 55.704V66.84ZM103.44 71.512C103.077 71.512 102.661 71.5013 102.192 71.48C101.723 71.4587 101.232 71.416 100.72 71.352C100.229 71.288 99.728 71.2027 99.216 71.096C98.7253 71.0107 98.2667 70.8827 97.84 70.712C96.6667 70.264 96.08 69.4853 96.08 68.376V53.432C96.08 52.984 96.1973 52.6427 96.432 52.408C96.688 52.152 97.0293 51.9493 97.456 51.8C98.3733 51.5013 99.344 51.3093 100.368 51.224C101.392 51.1173 102.309 51.064 103.12 51.064C104.784 51.064 106.288 51.2667 107.632 51.672C108.997 52.0773 110.16 52.7067 111.12 53.56C112.101 54.392 112.859 55.448 113.392 56.728C113.925 58.008 114.192 59.5227 114.192 61.272C114.192 62.9787 113.936 64.472 113.424 65.752C112.912 67.0107 112.176 68.0773 111.216 68.952C110.277 69.8053 109.147 70.4453 107.824 70.872C106.501 71.2987 105.04 71.512 103.44 71.512ZM125.201 71.512C123.942 71.512 122.769 71.3413 121.681 71C120.614 70.6373 119.675 70.104 118.865 69.4C118.075 68.696 117.446 67.8107 116.977 66.744C116.529 65.6773 116.305 64.4293 116.305 63C116.305 61.592 116.529 60.3867 116.977 59.384C117.446 58.36 118.054 57.528 118.801 56.888C119.547 56.2267 120.401 55.7467 121.361 55.448C122.321 55.128 123.302 54.968 124.305 54.968C125.435 54.968 126.459 55.1387 127.377 55.48C128.315 55.8213 129.115 56.2907 129.777 56.888C130.459 57.4853 130.982 58.2 131.345 59.032C131.729 59.864 131.921 60.7707 131.921 61.752C131.921 62.4773 131.718 63.032 131.312 63.416C130.907 63.8 130.342 64.0453 129.617 64.152L121.713 65.336C121.947 66.04 122.427 66.5733 123.153 66.936C123.878 67.2773 124.71 67.448 125.649 67.448C126.523 67.448 127.345 67.3413 128.113 67.128C128.902 66.8933 129.542 66.6267 130.033 66.328C130.374 66.5413 130.662 66.84 130.897 67.224C131.131 67.608 131.249 68.0133 131.249 68.44C131.249 69.4 130.801 70.1147 129.905 70.584C129.222 70.9467 128.454 71.192 127.601 71.32C126.747 71.448 125.947 71.512 125.201 71.512ZM124.305 58.936C123.793 58.936 123.345 59.0213 122.961 59.192C122.598 59.3627 122.299 59.5867 122.065 59.864C121.83 60.12 121.649 60.4187 121.521 60.76C121.414 61.08 121.35 61.4107 121.329 61.752L126.801 60.856C126.737 60.4293 126.502 60.0027 126.097 59.576C125.691 59.1493 125.094 58.936 124.305 58.936ZM141.675 54.968C142.955 54.968 144.139 55.1387 145.227 55.48C146.336 55.8 147.286 56.3013 148.075 56.984C148.864 57.6667 149.483 58.5307 149.931 59.576C150.379 60.6 150.603 61.8267 150.603 63.256C150.603 64.6213 150.411 65.816 150.027 66.84C149.643 67.864 149.099 68.728 148.395 69.432C147.691 70.1147 146.838 70.6267 145.835 70.968C144.854 71.3093 143.755 71.48 142.539 71.48C141.622 71.48 140.768 71.3413 139.979 71.064V76.376C139.766 76.44 139.424 76.504 138.955 76.568C138.486 76.6533 138.006 76.696 137.515 76.696C137.046 76.696 136.619 76.664 136.235 76.6C135.872 76.536 135.563 76.408 135.307 76.216C135.051 76.024 134.859 75.7573 134.731 75.416C134.603 75.096 134.539 74.6693 134.539 74.136V58.776C134.539 58.2 134.656 57.7307 134.891 57.368C135.147 57.0053 135.488 56.6747 135.915 56.376C136.576 55.9493 137.398 55.608 138.379 55.352C139.36 55.096 140.459 54.968 141.675 54.968ZM141.739 67.192C143.936 67.192 145.035 65.88 145.035 63.256C145.035 61.8907 144.758 60.8773 144.203 60.216C143.67 59.5547 142.891 59.224 141.867 59.224C141.462 59.224 141.099 59.2773 140.779 59.384C140.459 59.4693 140.182 59.576 139.947 59.704V66.744C140.203 66.872 140.48 66.9787 140.779 67.064C141.078 67.1493 141.398 67.192 141.739 67.192ZM159.976 67.544C160.339 67.544 160.734 67.512 161.16 67.448C161.608 67.3627 161.939 67.256 162.152 67.128V64.568L159.848 64.76C159.251 64.8027 158.76 64.9307 158.376 65.144C157.992 65.3573 157.8 65.6773 157.8 66.104C157.8 66.5307 157.96 66.8827 158.28 67.16C158.622 67.416 159.187 67.544 159.976 67.544ZM159.72 54.968C160.872 54.968 161.918 55.0853 162.856 55.32C163.816 55.5547 164.627 55.9173 165.288 56.408C165.971 56.8773 166.494 57.4853 166.856 58.232C167.219 58.9573 167.4 59.8213 167.4 60.824V67.992C167.4 68.5467 167.24 69.0053 166.92 69.368C166.622 69.7093 166.259 70.008 165.832 70.264C164.446 71.096 162.494 71.512 159.976 71.512C158.846 71.512 157.822 71.4053 156.904 71.192C156.008 70.9787 155.23 70.6587 154.568 70.232C153.928 69.8053 153.427 69.2613 153.064 68.6C152.723 67.9387 152.552 67.1707 152.552 66.296C152.552 64.824 152.99 63.6933 153.864 62.904C154.739 62.1147 156.094 61.624 157.928 61.432L162.12 60.984V60.76C162.12 60.1413 161.843 59.704 161.288 59.448C160.755 59.1707 159.976 59.032 158.952 59.032C158.142 59.032 157.352 59.1173 156.584 59.288C155.816 59.4587 155.123 59.672 154.504 59.928C154.227 59.736 153.992 59.448 153.8 59.064C153.608 58.6587 153.512 58.2427 153.512 57.816C153.512 57.2613 153.64 56.824 153.896 56.504C154.174 56.1627 154.59 55.8747 155.144 55.64C155.763 55.4053 156.488 55.2347 157.32 55.128C158.174 55.0213 158.974 54.968 159.72 54.968ZM176.167 70.968C175.953 71.032 175.612 71.096 175.143 71.16C174.695 71.224 174.225 71.256 173.735 71.256C173.265 71.256 172.839 71.224 172.455 71.16C172.092 71.096 171.783 70.968 171.527 70.776C171.271 70.584 171.068 70.328 170.919 70.008C170.791 69.6667 170.727 69.2293 170.727 68.696V59.096C170.727 58.6053 170.812 58.1893 170.983 57.848C171.175 57.4853 171.441 57.1653 171.783 56.888C172.124 56.6107 172.54 56.3653 173.031 56.152C173.543 55.9173 174.087 55.7147 174.663 55.544C175.239 55.3733 175.836 55.2453 176.455 55.16C177.073 55.0533 177.692 55 178.311 55C179.335 55 180.145 55.2027 180.743 55.608C181.34 55.992 181.639 56.632 181.639 57.528C181.639 57.8267 181.596 58.1253 181.511 58.424C181.425 58.7013 181.319 58.9573 181.191 59.192C180.743 59.192 180.284 59.2133 179.815 59.256C179.345 59.2987 178.887 59.3627 178.439 59.448C177.991 59.5333 177.564 59.6293 177.159 59.736C176.775 59.8213 176.444 59.928 176.167 60.056V70.968ZM189.323 65.656C189.323 66.2107 189.493 66.6053 189.835 66.84C190.197 67.0747 190.699 67.192 191.339 67.192C191.659 67.192 191.989 67.1707 192.331 67.128C192.672 67.064 192.971 66.9893 193.227 66.904C193.419 67.1387 193.579 67.4053 193.707 67.704C193.856 67.9813 193.931 68.3227 193.931 68.728C193.931 69.5387 193.621 70.2 193.003 70.712C192.405 71.224 191.339 71.48 189.803 71.48C187.925 71.48 186.475 71.0533 185.451 70.2C184.448 69.3467 183.947 67.96 183.947 66.04V52.344C184.181 52.28 184.512 52.216 184.939 52.152C185.387 52.0667 185.856 52.024 186.347 52.024C187.285 52.024 188.011 52.1947 188.523 52.536C189.056 52.856 189.323 53.5493 189.323 54.616V56.664H193.515C193.643 56.8987 193.76 57.1973 193.867 57.56C193.995 57.9013 194.059 58.2853 194.059 58.712C194.059 59.4587 193.888 60.0027 193.547 60.344C193.227 60.664 192.789 60.824 192.235 60.824H189.323V65.656ZM204.151 54.968C205.026 54.968 205.879 55.096 206.711 55.352C207.565 55.5867 208.301 55.9493 208.919 56.44C209.559 56.0133 210.274 55.6613 211.063 55.384C211.874 55.1067 212.845 54.968 213.975 54.968C214.786 54.968 215.575 55.0747 216.343 55.288C217.133 55.5013 217.826 55.8427 218.423 56.312C219.042 56.76 219.533 57.368 219.895 58.136C220.258 58.8827 220.439 59.8 220.439 60.888V70.968C220.226 71.032 219.885 71.096 219.415 71.16C218.967 71.224 218.498 71.256 218.007 71.256C217.538 71.256 217.111 71.224 216.727 71.16C216.365 71.096 216.055 70.968 215.799 70.776C215.543 70.584 215.341 70.328 215.191 70.008C215.063 69.6667 214.999 69.2293 214.999 68.696V61.048C214.999 60.408 214.818 59.9493 214.455 59.672C214.093 59.3733 213.602 59.224 212.983 59.224C212.685 59.224 212.365 59.2987 212.023 59.448C211.682 59.576 211.426 59.7147 211.255 59.864C211.277 59.9493 211.287 60.0347 211.287 60.12C211.287 60.184 211.287 60.248 211.287 60.312V70.968C211.053 71.032 210.701 71.096 210.231 71.16C209.783 71.224 209.325 71.256 208.855 71.256C208.386 71.256 207.959 71.224 207.575 71.16C207.213 71.096 206.903 70.968 206.647 70.776C206.391 70.584 206.189 70.328 206.039 70.008C205.911 69.6667 205.847 69.2293 205.847 68.696V61.048C205.847 60.408 205.645 59.9493 205.239 59.672C204.855 59.3733 204.386 59.224 203.831 59.224C203.447 59.224 203.117 59.288 202.839 59.416C202.562 59.5227 202.327 59.6293 202.135 59.736V70.968C201.922 71.032 201.581 71.096 201.111 71.16C200.663 71.224 200.194 71.256 199.703 71.256C199.234 71.256 198.807 71.224 198.423 71.16C198.061 71.096 197.751 70.968 197.495 70.776C197.239 70.584 197.037 70.328 196.887 70.008C196.759 69.6667 196.695 69.2293 196.695 68.696V59.032C196.695 58.456 196.813 57.9973 197.047 57.656C197.303 57.3147 197.645 56.9947 198.071 56.696C198.797 56.184 199.693 55.768 200.759 55.448C201.847 55.128 202.978 54.968 204.151 54.968ZM231.982 71.512C230.723 71.512 229.55 71.3413 228.462 71C227.395 70.6373 226.456 70.104 225.646 69.4C224.856 68.696 224.227 67.8107 223.758 66.744C223.31 65.6773 223.086 64.4293 223.086 63C223.086 61.592 223.31 60.3867 223.758 59.384C224.227 58.36 224.835 57.528 225.582 56.888C226.328 56.2267 227.182 55.7467 228.142 55.448C229.102 55.128 230.083 54.968 231.086 54.968C232.216 54.968 233.24 55.1387 234.158 55.48C235.096 55.8213 235.896 56.2907 236.558 56.888C237.24 57.4853 237.763 58.2 238.126 59.032C238.51 59.864 238.702 60.7707 238.702 61.752C238.702 62.4773 238.499 63.032 238.094 63.416C237.688 63.8 237.123 64.0453 236.398 64.152L228.494 65.336C228.728 66.04 229.208 66.5733 229.934 66.936C230.659 67.2773 231.491 67.448 232.43 67.448C233.304 67.448 234.126 67.3413 234.894 67.128C235.683 66.8933 236.323 66.6267 236.814 66.328C237.155 66.5413 237.443 66.84 237.678 67.224C237.912 67.608 238.03 68.0133 238.03 68.44C238.03 69.4 237.582 70.1147 236.686 70.584C236.003 70.9467 235.235 71.192 234.382 71.32C233.528 71.448 232.728 71.512 231.982 71.512ZM231.086 58.936C230.574 58.936 230.126 59.0213 229.742 59.192C229.379 59.3627 229.08 59.5867 228.846 59.864C228.611 60.12 228.43 60.4187 228.302 60.76C228.195 61.08 228.131 61.4107 228.11 61.752L233.582 60.856C233.518 60.4293 233.283 60.0027 232.878 59.576C232.472 59.1493 231.875 58.936 231.086 58.936ZM251.176 61.144C251.176 60.4827 250.984 60.0027 250.6 59.704C250.238 59.384 249.736 59.224 249.096 59.224C248.67 59.224 248.243 59.2773 247.816 59.384C247.411 59.4907 247.059 59.6507 246.76 59.864V70.968C246.547 71.032 246.206 71.096 245.736 71.16C245.288 71.224 244.819 71.256 244.328 71.256C243.859 71.256 243.432 71.224 243.048 71.16C242.686 71.096 242.376 70.968 242.12 70.776C241.864 70.584 241.662 70.328 241.512 70.008C241.384 69.6667 241.32 69.2293 241.32 68.696V59.096C241.32 58.52 241.438 58.0507 241.672 57.688C241.928 57.3253 242.27 56.9947 242.696 56.696C243.422 56.184 244.328 55.768 245.416 55.448C246.526 55.128 247.752 54.968 249.096 54.968C251.507 54.968 253.363 55.5013 254.664 56.568C255.966 57.6133 256.616 59.0747 256.616 60.952V70.968C256.403 71.032 256.062 71.096 255.592 71.16C255.144 71.224 254.675 71.256 254.184 71.256C253.715 71.256 253.288 71.224 252.904 71.16C252.542 71.096 252.232 70.968 251.976 70.776C251.72 70.584 251.518 70.328 251.368 70.008C251.24 69.6667 251.176 69.2293 251.176 68.696V61.144ZM265.417 65.656C265.417 66.2107 265.587 66.6053 265.929 66.84C266.291 67.0747 266.793 67.192 267.433 67.192C267.753 67.192 268.083 67.1707 268.425 67.128C268.766 67.064 269.065 66.9893 269.321 66.904C269.513 67.1387 269.673 67.4053 269.801 67.704C269.95 67.9813 270.025 68.3227 270.025 68.728C270.025 69.5387 269.715 70.2 269.097 70.712C268.499 71.224 267.433 71.48 265.897 71.48C264.019 71.48 262.569 71.0533 261.545 70.2C260.542 69.3467 260.041 67.96 260.041 66.04V52.344C260.275 52.28 260.606 52.216 261.033 52.152C261.481 52.0667 261.95 52.024 262.441 52.024C263.379 52.024 264.105 52.1947 264.617 52.536C265.15 52.856 265.417 53.5493 265.417 54.616V56.664H269.609C269.737 56.8987 269.854 57.1973 269.961 57.56C270.089 57.9013 270.153 58.2853 270.153 58.712C270.153 59.4587 269.982 60.0027 269.641 60.344C269.321 60.664 268.883 60.824 268.329 60.824H265.417V65.656ZM285.909 66.36C285.909 67.9813 285.301 69.2507 284.085 70.168C282.869 71.0853 281.077 71.544 278.709 71.544C277.813 71.544 276.981 71.48 276.213 71.352C275.445 71.224 274.784 71.032 274.229 70.776C273.696 70.4987 273.269 70.1573 272.949 69.752C272.65 69.3467 272.501 68.8667 272.501 68.312C272.501 67.8 272.608 67.3733 272.821 67.032C273.034 66.6693 273.29 66.3707 273.589 66.136C274.208 66.4773 274.912 66.7867 275.701 67.064C276.512 67.32 277.44 67.448 278.485 67.448C279.146 67.448 279.648 67.352 279.989 67.16C280.352 66.968 280.533 66.712 280.533 66.392C280.533 66.0933 280.405 65.8587 280.149 65.688C279.893 65.5173 279.466 65.3787 278.869 65.272L277.909 65.08C276.053 64.7173 274.666 64.152 273.749 63.384C272.853 62.5947 272.405 61.4747 272.405 60.024C272.405 59.2347 272.576 58.52 272.917 57.88C273.258 57.24 273.738 56.7067 274.357 56.28C274.976 55.8533 275.712 55.5227 276.565 55.288C277.44 55.0533 278.4 54.936 279.445 54.936C280.234 54.936 280.97 55 281.653 55.128C282.357 55.2347 282.965 55.4053 283.477 55.64C283.989 55.8747 284.394 56.184 284.693 56.568C284.992 56.9307 285.141 57.368 285.141 57.88C285.141 58.3707 285.045 58.7973 284.853 59.16C284.682 59.5013 284.458 59.7893 284.181 60.024C284.01 59.9173 283.754 59.8107 283.413 59.704C283.072 59.576 282.698 59.4693 282.293 59.384C281.888 59.2773 281.472 59.192 281.045 59.128C280.64 59.064 280.266 59.032 279.925 59.032C279.221 59.032 278.677 59.1173 278.293 59.288C277.909 59.4373 277.717 59.6827 277.717 60.024C277.717 60.2587 277.824 60.4507 278.037 60.6C278.25 60.7493 278.656 60.888 279.253 61.016L280.245 61.24C282.293 61.7093 283.744 62.36 284.597 63.192C285.472 64.0027 285.909 65.0587 285.909 66.36ZM291.799 73.336C291.437 73.8053 291.042 74.1467 290.615 74.36C290.21 74.5733 289.709 74.68 289.111 74.68C288.173 74.68 287.373 74.4133 286.711 73.88C287.181 72.5573 287.575 71.2027 287.895 69.816C288.215 68.408 288.482 67.1387 288.695 66.008C289.058 65.816 289.495 65.656 290.007 65.528C290.519 65.3787 291.031 65.304 291.543 65.304C292.205 65.304 292.781 65.4533 293.271 65.752C293.783 66.0507 294.039 66.584 294.039 67.352C294.039 67.8 293.975 68.3013 293.847 68.856C293.719 69.3893 293.549 69.9333 293.335 70.488C293.122 71.0213 292.877 71.544 292.599 72.056C292.343 72.568 292.077 72.9947 291.799 73.336ZM7.52 112C7.81867 112.085 8.20267 112.149 8.672 112.192C9.14133 112.213 9.58933 112.224 10.016 112.224C10.8693 112.224 11.5733 112.053 12.128 111.712C12.704 111.349 12.992 110.795 12.992 110.048C12.992 109.344 12.7573 108.843 12.288 108.544C11.8187 108.245 11.104 108.096 10.144 108.096H7.52V112ZM7.52 104.192H9.856C10.7733 104.192 11.4347 104.021 11.84 103.68C12.2667 103.339 12.48 102.837 12.48 102.176C12.48 101.6 12.2347 101.141 11.744 100.8C11.2747 100.459 10.56 100.288 9.6 100.288C9.28 100.288 8.90667 100.299 8.48 100.32C8.07467 100.341 7.75467 100.373 7.52 100.416V104.192ZM9.6 116.512C9.23733 116.512 8.81067 116.501 8.32 116.48C7.82933 116.459 7.31733 116.416 6.784 116.352C6.272 116.288 5.76 116.203 5.248 116.096C4.736 116.011 4.26667 115.883 3.84 115.712C2.66667 115.264 2.08 114.485 2.08 113.376V98.432C2.08 97.984 2.19733 97.6427 2.432 97.408C2.688 97.152 3.02933 96.9493 3.456 96.8C4.18133 96.544 5.088 96.3627 6.176 96.256C7.264 96.128 8.384 96.064 9.536 96.064C12.2667 96.064 14.368 96.5227 15.84 97.44C17.312 98.3573 18.048 99.776 18.048 101.696C18.048 102.656 17.7707 103.488 17.216 104.192C16.6613 104.875 15.9147 105.376 14.976 105.696C16.0427 105.995 16.928 106.539 17.632 107.328C18.3573 108.117 18.72 109.109 18.72 110.304C18.72 112.416 17.9307 113.984 16.352 115.008C14.7947 116.011 12.544 116.512 9.6 116.512ZM26.8228 115.968C26.6094 116.032 26.2681 116.096 25.7988 116.16C25.3508 116.224 24.8814 116.256 24.3908 116.256C23.9214 116.256 23.4948 116.224 23.1108 116.16C22.7481 116.096 22.4388 115.968 22.1828 115.776C21.9268 115.584 21.7241 115.328 21.5748 115.008C21.4468 114.667 21.3828 114.229 21.3828 113.696V104.096C21.3828 103.605 21.4681 103.189 21.6388 102.848C21.8308 102.485 22.0974 102.165 22.4388 101.888C22.7801 101.611 23.1961 101.365 23.6868 101.152C24.1988 100.917 24.7428 100.715 25.3188 100.544C25.8948 100.373 26.4921 100.245 27.1108 100.16C27.7294 100.053 28.3481 100 28.9668 100C29.9908 100 30.8014 100.203 31.3988 100.608C31.9961 100.992 32.2948 101.632 32.2948 102.528C32.2948 102.827 32.2521 103.125 32.1668 103.424C32.0814 103.701 31.9748 103.957 31.8468 104.192C31.3988 104.192 30.9401 104.213 30.4708 104.256C30.0014 104.299 29.5428 104.363 29.0948 104.448C28.6468 104.533 28.2201 104.629 27.8148 104.736C27.4308 104.821 27.1001 104.928 26.8228 105.056V115.968ZM34.411 96.128C34.411 95.3173 34.6777 94.6347 35.211 94.08C35.7657 93.5253 36.491 93.248 37.387 93.248C38.283 93.248 38.9977 93.5253 39.531 94.08C40.0857 94.6347 40.363 95.3173 40.363 96.128C40.363 96.9387 40.0857 97.6213 39.531 98.176C38.9977 98.7307 38.283 99.008 37.387 99.008C36.491 99.008 35.7657 98.7307 35.211 98.176C34.6777 97.6213 34.411 96.9387 34.411 96.128ZM40.107 115.968C39.8723 116.011 39.5203 116.064 39.051 116.128C38.603 116.213 38.1443 116.256 37.675 116.256C37.2057 116.256 36.779 116.224 36.395 116.16C36.0323 116.096 35.723 115.968 35.467 115.776C35.211 115.584 35.0083 115.328 34.859 115.008C34.731 114.667 34.667 114.229 34.667 113.696V100.672C34.9017 100.629 35.243 100.576 35.691 100.512C36.1603 100.427 36.6297 100.384 37.099 100.384C37.5683 100.384 37.9843 100.416 38.347 100.48C38.731 100.544 39.051 100.672 39.307 100.864C39.563 101.056 39.755 101.323 39.883 101.664C40.0323 101.984 40.107 102.411 40.107 102.944V115.968ZM51.1543 99.968C52.3703 99.968 53.4689 100.128 54.4503 100.448C55.4529 100.747 56.2956 101.141 56.9783 101.632C57.4049 101.931 57.7356 102.261 57.9703 102.624C58.2263 102.987 58.3542 103.456 58.3542 104.032V115.232C58.3542 116.363 58.1409 117.333 57.7143 118.144C57.2876 118.976 56.7009 119.659 55.9543 120.192C55.2289 120.747 54.3649 121.152 53.3623 121.408C52.3809 121.664 51.3249 121.792 50.1943 121.792C48.2529 121.792 46.7276 121.525 45.6183 120.992C44.5089 120.48 43.9543 119.637 43.9543 118.464C43.9543 117.973 44.0503 117.536 44.2423 117.152C44.4556 116.789 44.6903 116.512 44.9463 116.32C45.5649 116.661 46.2583 116.949 47.0263 117.184C47.8156 117.419 48.6263 117.536 49.4583 117.536C50.6103 117.536 51.5276 117.344 52.2103 116.96C52.8929 116.576 53.2343 115.957 53.2343 115.104V114.592C52.3596 114.976 51.2929 115.168 50.0343 115.168C49.0743 115.168 48.1569 115.029 47.2823 114.752C46.4289 114.453 45.6716 114.005 45.0103 113.408C44.3703 112.789 43.8476 112 43.4423 111.04C43.0583 110.08 42.8663 108.939 42.8663 107.616C42.8663 106.315 43.0689 105.184 43.4743 104.224C43.9009 103.264 44.4769 102.475 45.2023 101.856C45.9489 101.216 46.8236 100.747 47.8263 100.448C48.8503 100.128 49.9596 99.968 51.1543 99.968ZM53.1383 104.608C52.9889 104.523 52.7649 104.437 52.4663 104.352C52.1889 104.267 51.8369 104.224 51.4103 104.224C50.3649 104.224 49.5756 104.523 49.0423 105.12C48.5303 105.696 48.2743 106.528 48.2743 107.616C48.2743 108.853 48.5303 109.749 49.0423 110.304C49.5756 110.837 50.2476 111.104 51.0583 111.104C51.9329 111.104 52.6263 110.901 53.1383 110.496V104.608ZM77.0865 115.968C76.8732 116.032 76.5318 116.096 76.0625 116.16C75.6145 116.224 75.1452 116.256 74.6545 116.256C74.1852 116.256 73.7585 116.224 73.3745 116.16C73.0118 116.096 72.7025 115.968 72.4465 115.776C72.1905 115.584 71.9878 115.328 71.8385 115.008C71.7105 114.667 71.6465 114.229 71.6465 113.696V106.592C71.6465 105.717 71.4225 105.109 70.9745 104.768C70.5478 104.405 70.0145 104.224 69.3745 104.224C68.9478 104.224 68.5425 104.277 68.1585 104.384C67.7745 104.491 67.4652 104.619 67.2305 104.768V115.968C67.0172 116.032 66.6758 116.096 66.2065 116.16C65.7585 116.224 65.2892 116.256 64.7985 116.256C64.3292 116.256 63.9025 116.224 63.5185 116.16C63.1558 116.096 62.8465 115.968 62.5905 115.776C62.3345 115.584 62.1318 115.328 61.9825 115.008C61.8545 114.667 61.7905 114.229 61.7905 113.696V95.136C62.0252 95.0933 62.3665 95.04 62.8145 94.976C63.2838 94.8907 63.7532 94.848 64.2225 94.848C64.6918 94.848 65.1078 94.88 65.4705 94.944C65.8545 95.008 66.1745 95.136 66.4305 95.328C66.6865 95.52 66.8785 95.7867 67.0065 96.128C67.1558 96.448 67.2305 96.8747 67.2305 97.408V100.544C67.5078 100.437 67.9238 100.32 68.4785 100.192C69.0545 100.043 69.6838 99.968 70.3665 99.968C72.4785 99.968 74.1212 100.501 75.2945 101.568C76.4892 102.613 77.0865 104.181 77.0865 106.272V115.968ZM85.8853 110.656C85.8853 111.211 86.0559 111.605 86.3973 111.84C86.7599 112.075 87.2613 112.192 87.9013 112.192C88.2213 112.192 88.5519 112.171 88.8933 112.128C89.2346 112.064 89.5333 111.989 89.7893 111.904C89.9813 112.139 90.1413 112.405 90.2693 112.704C90.4186 112.981 90.4933 113.323 90.4933 113.728C90.4933 114.539 90.1839 115.2 89.5653 115.712C88.9679 116.224 87.9013 116.48 86.3653 116.48C84.4879 116.48 83.0373 116.053 82.0133 115.2C81.0106 114.347 80.5093 112.96 80.5093 111.04V97.344C80.7439 97.28 81.0746 97.216 81.5013 97.152C81.9493 97.0667 82.4186 97.024 82.9093 97.024C83.8479 97.024 84.5733 97.1947 85.0853 97.536C85.6186 97.856 85.8853 98.5493 85.8853 99.616V101.664H90.0773C90.2053 101.899 90.3226 102.197 90.4293 102.56C90.5573 102.901 90.6213 103.285 90.6213 103.712C90.6213 104.459 90.4506 105.003 90.1093 105.344C89.7893 105.664 89.3519 105.824 88.7973 105.824H85.8853V110.656ZM101.294 116.512C100.036 116.512 98.8623 116.341 97.7743 116C96.7076 115.637 95.7689 115.104 94.9583 114.4C94.1689 113.696 93.5396 112.811 93.0703 111.744C92.6223 110.677 92.3983 109.429 92.3983 108C92.3983 106.592 92.6223 105.387 93.0703 104.384C93.5396 103.36 94.1476 102.528 94.8943 101.888C95.6409 101.227 96.4943 100.747 97.4543 100.448C98.4143 100.128 99.3956 99.968 100.398 99.968C101.529 99.968 102.553 100.139 103.47 100.48C104.409 100.821 105.209 101.291 105.87 101.888C106.553 102.485 107.076 103.2 107.438 104.032C107.822 104.864 108.014 105.771 108.014 106.752C108.014 107.477 107.812 108.032 107.406 108.416C107.001 108.8 106.436 109.045 105.71 109.152L97.8063 110.336C98.0409 111.04 98.5209 111.573 99.2463 111.936C99.9716 112.277 100.804 112.448 101.742 112.448C102.617 112.448 103.438 112.341 104.206 112.128C104.996 111.893 105.636 111.627 106.126 111.328C106.468 111.541 106.756 111.84 106.99 112.224C107.225 112.608 107.342 113.013 107.342 113.44C107.342 114.4 106.894 115.115 105.998 115.584C105.316 115.947 104.548 116.192 103.694 116.32C102.841 116.448 102.041 116.512 101.294 116.512ZM100.398 103.936C99.8863 103.936 99.4383 104.021 99.0543 104.192C98.6916 104.363 98.3929 104.587 98.1583 104.864C97.9236 105.12 97.7423 105.419 97.6143 105.76C97.5076 106.08 97.4436 106.411 97.4223 106.752L102.894 105.856C102.83 105.429 102.596 105.003 102.19 104.576C101.785 104.149 101.188 103.936 100.398 103.936ZM116.073 115.968C115.859 116.032 115.518 116.096 115.049 116.16C114.601 116.224 114.131 116.256 113.641 116.256C113.171 116.256 112.745 116.224 112.361 116.16C111.998 116.096 111.689 115.968 111.433 115.776C111.177 115.584 110.974 115.328 110.825 115.008C110.697 114.667 110.633 114.229 110.633 113.696V104.096C110.633 103.605 110.718 103.189 110.889 102.848C111.081 102.485 111.347 102.165 111.689 101.888C112.03 101.611 112.446 101.365 112.937 101.152C113.449 100.917 113.993 100.715 114.569 100.544C115.145 100.373 115.742 100.245 116.361 100.16C116.979 100.053 117.598 100 118.217 100C119.241 100 120.051 100.203 120.649 100.608C121.246 100.992 121.545 101.632 121.545 102.528C121.545 102.827 121.502 103.125 121.417 103.424C121.331 103.701 121.225 103.957 121.097 104.192C120.649 104.192 120.19 104.213 119.721 104.256C119.251 104.299 118.793 104.363 118.345 104.448C117.897 104.533 117.47 104.629 117.065 104.736C116.681 104.821 116.35 104.928 116.073 105.056V115.968ZM144.243 96.608C144.393 96.8427 144.521 97.1627 144.627 97.568C144.755 97.952 144.819 98.3573 144.819 98.784C144.819 99.616 144.638 100.213 144.275 100.576C143.934 100.917 143.465 101.088 142.867 101.088H136.147V104.704H143.155C143.326 104.939 143.465 105.248 143.571 105.632C143.699 106.016 143.763 106.421 143.763 106.848C143.763 107.659 143.582 108.245 143.219 108.608C142.878 108.949 142.409 109.12 141.811 109.12H136.211V115.872C135.977 115.936 135.603 116 135.091 116.064C134.601 116.128 134.11 116.16 133.619 116.16C133.129 116.16 132.691 116.117 132.307 116.032C131.945 115.968 131.635 115.84 131.379 115.648C131.123 115.456 130.931 115.189 130.803 114.848C130.675 114.507 130.611 114.059 130.611 113.504V99.584C130.611 98.6667 130.878 97.9413 131.411 97.408C131.945 96.8747 132.67 96.608 133.587 96.608H144.243ZM146.57 100.672C146.784 100.608 147.114 100.544 147.562 100.48C148.032 100.416 148.512 100.384 149.002 100.384C149.472 100.384 149.888 100.416 150.25 100.48C150.634 100.544 150.954 100.672 151.21 100.864C151.466 101.056 151.658 101.323 151.786 101.664C151.936 101.984 152.01 102.411 152.01 102.944V109.824C152.01 110.699 152.224 111.328 152.65 111.712C153.077 112.075 153.696 112.256 154.506 112.256C154.997 112.256 155.392 112.213 155.69 112.128C156.01 112.043 156.256 111.957 156.426 111.872V100.672C156.64 100.608 156.97 100.544 157.418 100.48C157.888 100.416 158.368 100.384 158.858 100.384C159.328 100.384 159.744 100.416 160.106 100.48C160.49 100.544 160.81 100.672 161.066 100.864C161.322 101.056 161.514 101.323 161.642 101.664C161.792 101.984 161.866 102.411 161.866 102.944V112.672C161.866 113.739 161.418 114.539 160.522 115.072C159.776 115.541 158.88 115.893 157.834 116.128C156.81 116.384 155.69 116.512 154.474 116.512C153.322 116.512 152.256 116.384 151.274 116.128C150.314 115.872 149.482 115.477 148.778 114.944C148.074 114.411 147.53 113.728 147.146 112.896C146.762 112.043 146.57 111.019 146.57 109.824V100.672ZM170.635 110.656C170.635 111.211 170.806 111.605 171.147 111.84C171.51 112.075 172.011 112.192 172.651 112.192C172.971 112.192 173.302 112.171 173.643 112.128C173.985 112.064 174.283 111.989 174.539 111.904C174.731 112.139 174.891 112.405 175.019 112.704C175.169 112.981 175.243 113.323 175.243 113.728C175.243 114.539 174.934 115.2 174.315 115.712C173.718 116.224 172.651 116.48 171.115 116.48C169.238 116.48 167.787 116.053 166.763 115.2C165.761 114.347 165.259 112.96 165.259 111.04V97.344C165.494 97.28 165.825 97.216 166.251 97.152C166.699 97.0667 167.169 97.024 167.659 97.024C168.598 97.024 169.323 97.1947 169.835 97.536C170.369 97.856 170.635 98.5493 170.635 99.616V101.664H174.827C174.955 101.899 175.073 102.197 175.179 102.56C175.307 102.901 175.371 103.285 175.371 103.712C175.371 104.459 175.201 105.003 174.859 105.344C174.539 105.664 174.102 105.824 173.547 105.824H170.635V110.656ZM178.008 100.672C178.221 100.608 178.552 100.544 179 100.48C179.469 100.416 179.949 100.384 180.44 100.384C180.909 100.384 181.325 100.416 181.688 100.48C182.072 100.544 182.392 100.672 182.648 100.864C182.904 101.056 183.096 101.323 183.224 101.664C183.373 101.984 183.448 102.411 183.448 102.944V109.824C183.448 110.699 183.661 111.328 184.088 111.712C184.514 112.075 185.133 112.256 185.944 112.256C186.434 112.256 186.829 112.213 187.128 112.128C187.448 112.043 187.693 111.957 187.864 111.872V100.672C188.077 100.608 188.408 100.544 188.856 100.48C189.325 100.416 189.805 100.384 190.296 100.384C190.765 100.384 191.181 100.416 191.544 100.48C191.928 100.544 192.248 100.672 192.504 100.864C192.76 101.056 192.952 101.323 193.08 101.664C193.229 101.984 193.304 102.411 193.304 102.944V112.672C193.304 113.739 192.856 114.539 191.96 115.072C191.213 115.541 190.317 115.893 189.272 116.128C188.248 116.384 187.128 116.512 185.912 116.512C184.76 116.512 183.693 116.384 182.712 116.128C181.752 115.872 180.92 115.477 180.216 114.944C179.512 114.411 178.968 113.728 178.584 112.896C178.2 112.043 178.008 111.019 178.008 109.824V100.672ZM202.073 115.968C201.859 116.032 201.518 116.096 201.049 116.16C200.601 116.224 200.131 116.256 199.641 116.256C199.171 116.256 198.745 116.224 198.361 116.16C197.998 116.096 197.689 115.968 197.433 115.776C197.177 115.584 196.974 115.328 196.825 115.008C196.697 114.667 196.633 114.229 196.633 113.696V104.096C196.633 103.605 196.718 103.189 196.889 102.848C197.081 102.485 197.347 102.165 197.689 101.888C198.03 101.611 198.446 101.365 198.937 101.152C199.449 100.917 199.993 100.715 200.569 100.544C201.145 100.373 201.742 100.245 202.361 100.16C202.979 100.053 203.598 100 204.217 100C205.241 100 206.051 100.203 206.649 100.608C207.246 100.992 207.545 101.632 207.545 102.528C207.545 102.827 207.502 103.125 207.417 103.424C207.331 103.701 207.225 103.957 207.097 104.192C206.649 104.192 206.19 104.213 205.721 104.256C205.251 104.299 204.793 104.363 204.345 104.448C203.897 104.533 203.47 104.629 203.065 104.736C202.681 104.821 202.35 104.928 202.073 105.056V115.968ZM217.419 116.512C216.161 116.512 214.987 116.341 213.899 116C212.833 115.637 211.894 115.104 211.083 114.4C210.294 113.696 209.665 112.811 209.195 111.744C208.747 110.677 208.523 109.429 208.523 108C208.523 106.592 208.747 105.387 209.195 104.384C209.665 103.36 210.273 102.528 211.019 101.888C211.766 101.227 212.619 100.747 213.579 100.448C214.539 100.128 215.521 99.968 216.523 99.968C217.654 99.968 218.678 100.139 219.595 100.48C220.534 100.821 221.334 101.291 221.995 101.888C222.678 102.485 223.201 103.2 223.563 104.032C223.947 104.864 224.139 105.771 224.139 106.752C224.139 107.477 223.937 108.032 223.531 108.416C223.126 108.8 222.561 109.045 221.835 109.152L213.931 110.336C214.166 111.04 214.646 111.573 215.371 111.936C216.097 112.277 216.929 112.448 217.867 112.448C218.742 112.448 219.563 112.341 220.331 112.128C221.121 111.893 221.761 111.627 222.251 111.328C222.593 111.541 222.881 111.84 223.115 112.224C223.35 112.608 223.467 113.013 223.467 113.44C223.467 114.4 223.019 115.115 222.123 115.584C221.441 115.947 220.673 116.192 219.819 116.32C218.966 116.448 218.166 116.512 217.419 116.512ZM216.523 103.936C216.011 103.936 215.563 104.021 215.179 104.192C214.817 104.363 214.518 104.587 214.283 104.864C214.049 105.12 213.867 105.419 213.739 105.76C213.633 106.08 213.569 106.411 213.547 106.752L219.019 105.856C218.955 105.429 218.721 105.003 218.315 104.576C217.91 104.149 217.313 103.936 216.523 103.936Z" fill="#1C1C1C"/>
<path d="M206.366 344.951H64.6341C62.6355 344.951 61 346.587 61 348.585V414H115.512V377.659C115.512 375.66 117.148 374.024 119.146 374.024H151.854C153.852 374.024 155.488 375.66 155.488 377.659V414H210V348.585C210 346.587 208.364 344.951 206.366 344.951ZM79.1707 399.463C79.1707 401.462 77.5352 403.098 75.5366 403.098C73.538 403.098 71.9024 401.462 71.9024 399.463V388.561C71.9024 386.562 73.538 384.927 75.5366 384.927C77.5352 384.927 79.1707 386.562 79.1707 388.561V399.463ZM79.1707 370.39C79.1707 372.389 77.5352 374.024 75.5366 374.024C73.538 374.024 71.9024 372.389 71.9024 370.39V359.488C71.9024 357.489 73.538 355.854 75.5366 355.854C77.5352 355.854 79.1707 357.489 79.1707 359.488V370.39ZM97.3415 399.463C97.3415 401.462 95.7059 403.098 93.7073 403.098C91.7087 403.098 90.0732 401.462 90.0732 399.463V388.561C90.0732 386.562 91.7087 384.927 93.7073 384.927C95.7059 384.927 97.3415 386.562 97.3415 388.561V399.463ZM97.3415 370.39C97.3415 372.389 95.7059 374.024 93.7073 374.024C91.7087 374.024 90.0732 372.389 90.0732 370.39V359.488C90.0732 357.489 91.7087 355.854 93.7073 355.854C95.7059 355.854 97.3415 357.489 97.3415 359.488V370.39ZM151.854 363.122H119.146C117.148 363.122 115.512 361.486 115.512 359.488C115.512 357.489 117.148 355.854 119.146 355.854H151.854C153.852 355.854 155.488 357.489 155.488 359.488C155.488 361.486 153.852 363.122 151.854 363.122ZM180.927 399.463C180.927 401.462 179.291 403.098 177.293 403.098C175.294 403.098 173.659 401.462 173.659 399.463V388.561C173.659 386.562 175.294 384.927 177.293 384.927C179.291 384.927 180.927 386.562 180.927 388.561V399.463ZM180.927 370.39C180.927 372.389 179.291 374.024 177.293 374.024C175.294 374.024 173.659 372.389 173.659 370.39V359.488C173.659 357.489 175.294 355.854 177.293 355.854C179.291 355.854 180.927 357.489 180.927 359.488V370.39ZM199.098 399.463C199.098 401.462 197.462 403.098 195.463 403.098C193.465 403.098 191.829 401.462 191.829 399.463V388.561C191.829 386.562 193.465 384.927 195.463 384.927C197.462 384.927 199.098 386.562 199.098 388.561V399.463ZM199.098 370.39C199.098 372.389 197.462 374.024 195.463 374.024C193.465 374.024 191.829 372.389 191.829 370.39V359.488C191.829 357.489 193.465 355.854 195.463 355.854C197.462 355.854 199.098 357.489 199.098 359.488V370.39ZM122.78 381.293H148.22V414H122.78V381.293ZM139.134 294.073H131.866V283.171H139.134V294.073ZM153.671 275.902H131.866V265H153.671V275.902ZM186.378 337.683H84.622V330.415C84.622 328.416 86.2575 326.78 88.2561 326.78H182.744C184.743 326.78 186.378 328.416 186.378 330.415V337.683ZM162.393 319.512H108.607C110.424 309.155 119.328 301.341 130.049 301.341H140.951C151.672 301.341 160.757 309.155 162.393 319.512Z" fill="#FFCD00"/>
<path d="M32.9679 243.673C32.9679 254.878 38.6683 264.077 45.8846 264.949V258.57L35.8485 248.534L37.4259 246.957L45.8841 255.415V246.717L38.8115 239.644L40.3889 238.067L45.8841 243.562L45.8845 223.404C42.0086 226.426 32.9678 234.462 32.9678 243.672L32.9679 243.673Z" fill="#FFCD00"/>
<path d="M48.1144 223.401V239.724L52.2446 235.44L53.8503 236.988L48.1144 242.938V251.649L56.5913 243.172L58.1688 244.749L48.1143 254.804V264.947C55.3303 264.077 61.031 254.877 61.031 243.671C61.031 234.448 51.9915 226.42 48.1143 223.401L48.1144 223.401Z" fill="#FFCD00"/>
<path d="M47 198C21.0426 198 0 219.043 0 245C0 270.957 21.0426 292 47 292C72.9574 292 94 270.957 94 245C94 219.043 72.9574 198 47 198ZM46.0189 267.941C38.725 273.157 26.6332 268.792 19.0664 258.21C11.5835 247.747 17.905 230.788 18.1775 230.071L18.4414 229.378L19.1826 229.352C19.6559 229.336 26.7468 229.142 33.8618 231.464C33.4071 232.095 32.9697 232.747 32.5558 233.419C30.863 236.168 29.5846 239.253 29.2307 242.547C29.1668 243.142 29.1234 243.741 29.1234 244.349C29.1234 245.77 29.2152 247.159 29.382 248.511C29.6663 250.819 30.1823 253.011 30.8948 255.036C31.1895 255.873 31.5144 256.684 31.8733 257.46C34.198 262.486 37.8183 266.149 42.0353 267.436C43.1175 267.766 44.238 267.942 45.3869 267.942C45.6093 267.942 45.8298 267.93 46.0503 267.917C46.0392 267.925 46.0295 267.934 46.0191 267.941L46.0189 267.941ZM30.7365 243.672C30.7365 230.807 45.7435 220.689 46.3815 220.265L46.9993 219.855L47.6172 220.265C48.2554 220.69 63.2621 230.807 63.2621 243.672C63.2621 256.68 55.9661 267.264 46.9994 267.264C38.0326 267.264 30.7366 256.68 30.7366 243.672H30.7365ZM74.9331 258.21C67.3659 268.791 55.2748 273.156 47.9806 267.94C47.9702 267.933 47.9605 267.924 47.9501 267.916C48.1703 267.929 48.3908 267.941 48.6135 267.941C49.7624 267.941 50.883 267.765 51.9652 267.434C56.1818 266.147 59.802 262.485 62.1271 257.459C62.486 256.683 62.8109 255.872 63.1056 255.035C63.8181 253.01 64.3342 250.818 64.6184 248.51C64.7852 247.158 64.877 245.769 64.877 244.348C64.877 243.74 64.8332 243.141 64.7698 242.546C64.4158 239.252 63.1375 236.167 61.4446 233.418C61.0308 232.746 60.5937 232.093 60.1386 231.463C67.2532 229.141 74.3442 229.335 74.8178 229.351L75.559 229.377L75.8229 230.07C76.0947 230.786 82.4162 247.745 74.9333 258.209L74.9331 258.21Z" fill="#FFCD00"/>
<path d="M207.5 374.5C347 337.5 215.093 260.497 191.116 260.497C108.917 260.497 194.297 170.529 247.922 200.069C305.715 231.905 215.699 69.5413 237.215 167C247.922 215.5 373.785 166.152 273.5 78" stroke="black" stroke-dasharray="8 8"/>
<g clip-path="url(#clip0_727_955)">
<ellipse cx="241.584" cy="278.98" rx="28.4738" ry="28.0551" fill="#FFCD00"/>
<path d="M252.404 263.102L245.714 275.889H243.52L246.613 270.085L243.019 263.102H245.377L247.773 267.941L250.207 263.102H252.404Z" fill="white"/>
<path d="M242.082 271.384H240.126V266.825C240.126 265.898 240.026 265.523 239.944 265.347C239.865 265.122 239.712 264.929 239.511 264.798C239.309 264.666 239.069 264.604 238.828 264.62C238.6 264.625 238.376 264.682 238.175 264.788C237.973 264.894 237.8 265.045 237.668 265.229C237.325 265.702 237.291 266.409 237.291 267.119V271.387H235.334V266.825C235.334 265.898 235.235 265.523 235.152 265.347C235.072 265.123 234.92 264.93 234.719 264.799C234.517 264.667 234.278 264.605 234.037 264.62C233.808 264.625 233.584 264.682 233.383 264.788C233.181 264.894 233.008 265.045 232.877 265.229C232.533 265.702 232.499 266.409 232.499 267.119V271.387H230.539V263.105H232.499V263.873C232.742 263.564 233.055 263.314 233.412 263.144C233.769 262.973 234.161 262.886 234.558 262.889C235.002 262.881 235.44 262.991 235.825 263.208C236.21 263.424 236.529 263.739 236.748 264.12C237.032 263.731 237.407 263.416 237.842 263.204C238.277 262.991 238.758 262.886 239.244 262.899C239.726 262.883 240.203 262.995 240.626 263.224C241.048 263.452 241.401 263.788 241.646 264.197C241.977 264.843 242.129 265.562 242.086 266.284V271.397L242.082 271.384Z" fill="white"/>
<path d="M258.608 295.685L249.003 285.737V294.879H246.976V280.911L256.585 290.856V281.795H258.608V295.685Z" fill="white"/>
<path d="M230.7 283.754L229.072 284.698C228.917 284.299 228.637 283.958 228.274 283.725C227.91 283.493 227.481 283.38 227.049 283.403C225.817 283.403 225.182 284.128 225.182 284.971C225.182 285.366 225.322 286.05 226.612 286.56L227.943 287.092C230.382 288.07 231.058 289.453 231.058 290.937C231.058 293.429 229.27 295.135 226.789 295.135C226.203 295.163 225.618 295.06 225.078 294.832C224.539 294.604 224.058 294.258 223.674 293.82C223.023 293.118 222.631 292.22 222.562 291.271L224.568 290.839C224.568 291.439 224.763 292.023 225.124 292.505C225.328 292.762 225.591 292.967 225.891 293.104C226.192 293.24 226.52 293.304 226.851 293.29C227.143 293.298 227.434 293.246 227.705 293.138C227.976 293.03 228.222 292.867 228.427 292.661C228.632 292.455 228.792 292.209 228.896 291.939C229.001 291.669 229.048 291.381 229.035 291.092C229.035 289.76 228.011 289.21 227.127 288.856L225.858 288.327C224.766 287.875 223.159 286.978 223.159 285.012C223.159 283.245 224.547 281.559 227.028 281.559C227.995 281.518 228.944 281.832 229.69 282.442C230.11 282.813 230.457 283.258 230.713 283.754" fill="white"/>
<path d="M238.787 284.351C238.523 284.368 238.259 284.306 238.031 284.173C237.803 284.04 237.621 283.843 237.508 283.607C237.394 283.37 237.356 283.105 237.397 282.847C237.438 282.589 237.556 282.348 237.737 282.157C237.918 281.966 238.153 281.833 238.411 281.776C238.669 281.718 238.939 281.739 239.185 281.834C239.431 281.93 239.643 282.097 239.792 282.313C239.941 282.529 240.021 282.784 240.022 283.046C240.033 283.381 239.909 283.706 239.677 283.951C239.446 284.196 239.126 284.34 238.787 284.351Z" fill="white"/>
<path d="M235.818 281.795V289.679C235.818 290.387 235.839 291.25 236.234 291.935C236.494 292.35 236.856 292.692 237.287 292.93C237.718 293.167 238.203 293.292 238.696 293.292C239.19 293.292 239.675 293.167 240.106 292.93C240.537 292.692 240.899 292.35 241.158 291.935C241.554 291.26 241.574 290.387 241.574 289.679V281.795H243.601V290.225C243.648 291.471 243.207 292.686 242.37 293.618C241.892 294.103 241.321 294.49 240.69 294.754C240.06 295.017 239.381 295.153 238.696 295.153C238.011 295.153 237.333 295.017 236.702 294.754C236.071 294.49 235.5 294.103 235.023 293.618C234.188 292.685 233.748 291.47 233.795 290.225V281.795H235.818Z" fill="white"/>
</g>
<defs>
<clipPath id="clip0_727_955">
<rect width="57" height="57" fill="white" transform="translate(213 251)"/>
</clipPath>
</defs>
</svg>
