<svg width="383" height="435" viewBox="0 0 383 435" fill="none" xmlns="http://www.w3.org/2000/svg">
<g clip-path="url(#clip0_579_1458)">
<path d="M60.0007 313.67C58.4967 313.67 56.9928 313.388 55.5828 312.824L35.0908 305.022V317.806C35.0908 319.404 36.1247 320.908 37.6287 321.472L56.6167 328.992C58.7788 329.838 61.2227 329.838 63.4788 328.992L82.4668 321.472C83.9707 320.908 85.0047 319.404 85.0047 317.806L85.005 305.022L64.513 312.824C63.009 313.388 61.5051 313.67 60.0011 313.67L60.0007 313.67Z" fill="#FFCD00"/>
<path d="M99.6684 290.546L74.3824 280.864C71.5624 285.282 68.4602 289.042 66.0164 291.674C64.5125 293.366 62.2564 294.306 60.0003 294.306C57.7443 294.306 55.5825 293.366 54.0782 291.674C51.6342 288.948 48.5321 285.188 45.6182 280.864L20.3322 290.546C18.7343 291.204 18.7343 293.46 20.3322 294.024L57.3682 308.124C59.0603 308.782 60.9403 308.782 62.6321 308.124L93.1821 296.562V305.022C91.866 305.68 91.0199 307.09 91.0199 308.594C91.0199 310.098 91.866 311.508 93.1821 312.166L91.2082 316.49C90.7382 317.43 91.396 318.464 92.4303 318.464H97.9764C99.0103 318.464 99.6686 317.43 99.1986 316.49L97.1301 312.26C98.3522 311.508 99.2923 310.192 99.2923 308.688C99.2923 307.184 98.3522 305.774 97.1301 305.116V295.058L99.7623 294.024C101.266 293.46 101.266 291.11 99.668 290.546H99.6684Z" fill="#FFCD00"/>
<path d="M62.2564 288.29C66.9564 283.12 77.3904 270.336 77.3904 257.74C77.3904 248.152 69.4004 240.256 59.8123 240.35C50.3183 240.444 42.6104 248.152 42.6104 257.74C42.6104 270.336 53.0444 283.214 57.7444 288.29C58.9665 289.606 61.0344 289.606 62.2565 288.29H62.2564ZM51.7284 257.74C51.7284 253.228 55.3944 249.468 60.0004 249.468C64.5125 249.468 68.2724 253.134 68.2724 257.74C68.2724 262.346 64.6063 266.012 60.0004 266.012C55.4882 266.012 51.7284 262.252 51.7284 257.74Z" fill="#FFCD00"/>
<path d="M211.215 381.848C319.215 355.848 339.863 329.828 352.851 304.003C390.299 229.538 247.093 227.497 223.116 227.497C140.917 227.497 226.297 137.529 279.922 167.069C337.715 198.904 438.905 134.705 340.002 121.314C260.879 110.601 334.151 9.50072 269.215 45.8477" stroke="black" stroke-dasharray="8 8"/>
<path d="M9.6 25.84C9.30667 25.92 8.84 26 8.2 26.08C7.58667 26.16 6.97333 26.2 6.36 26.2C5.74667 26.2 5.2 26.1467 4.72 26.04C4.26667 25.96 3.88 25.8 3.56 25.56C3.24 25.32 3 24.9867 2.84 24.56C2.68 24.1333 2.6 23.5733 2.6 22.88V1.76C2.89333 1.70667 3.36 1.64 4 1.56C4.64 1.45333 5.25333 1.4 5.84 1.4C6.45333 1.4 6.98667 1.45333 7.44 1.56C7.92 1.64 8.32 1.8 8.64 2.04C8.96 2.28 9.2 2.61333 9.36 3.04C9.52 3.46667 9.6 4.02667 9.6 4.72V25.84ZM36.7475 25.16C36.3742 25.5333 35.8275 25.8133 35.1075 26C34.4142 26.2133 33.5742 26.32 32.5875 26.32C31.6008 26.32 30.6675 26.1733 29.7875 25.88C28.9075 25.5867 28.1875 24.88 27.6275 23.76L23.6675 15.68C23.2675 14.8533 22.9075 14.08 22.5875 13.36C22.2675 12.6133 21.9208 11.76 21.5475 10.8L21.3075 10.84C21.4142 12.28 21.4675 13.7467 21.4675 15.24C21.4942 16.7333 21.5075 18.2 21.5075 19.64V25.84C21.2142 25.92 20.7608 26 20.1475 26.08C19.5608 26.16 18.9742 26.2 18.3875 26.2C17.8008 26.2 17.2808 26.16 16.8275 26.08C16.3742 26 16.0008 25.84 15.7075 25.6C15.4142 25.36 15.1875 25.04 15.0275 24.64C14.8675 24.2133 14.7875 23.6667 14.7875 23V3C15.1608 2.46667 15.7342 2.06667 16.5075 1.8C17.2808 1.53333 18.1075 1.4 18.9875 1.4C19.9742 1.4 20.9075 1.56 21.7875 1.88C22.6942 2.17333 23.4142 2.86667 23.9475 3.96L27.9475 12.04C28.3475 12.8667 28.7075 13.6533 29.0275 14.4C29.3475 15.12 29.6942 15.96 30.0675 16.92L30.2675 16.88C30.1608 15.44 30.0942 14 30.0675 12.56C30.0408 11.12 30.0275 9.68 30.0275 8.24V1.76C30.3208 1.68 30.7608 1.6 31.3475 1.52C31.9608 1.44 32.5608 1.4 33.1475 1.4C34.3208 1.4 35.2142 1.61333 35.8275 2.04C36.4408 2.44 36.7475 3.29333 36.7475 4.6V25.16ZM48.8159 16.36C47.6426 15.96 46.5759 15.56 45.6159 15.16C44.6559 14.7333 43.8293 14.2267 43.1359 13.64C42.4426 13.0533 41.8959 12.36 41.4959 11.56C41.1226 10.7333 40.9359 9.73333 40.9359 8.56C40.9359 6.29333 41.8026 4.48 43.5359 3.12C45.2959 1.76 47.7493 1.08 50.8959 1.08C52.0426 1.08 53.1093 1.16 54.0959 1.32C55.0826 1.48 55.9226 1.73333 56.6159 2.08C57.3359 2.4 57.8959 2.82667 58.2959 3.36C58.6959 3.86666 58.8959 4.46666 58.8959 5.16C58.8959 5.85333 58.7359 6.45333 58.4159 6.96C58.0959 7.44 57.7093 7.85333 57.2559 8.2C56.6693 7.82667 55.8826 7.50667 54.8959 7.24C53.9093 6.94667 52.8293 6.8 51.6559 6.8C50.4559 6.8 49.5759 6.97333 49.0159 7.32C48.4559 7.64 48.1759 8.05333 48.1759 8.56C48.1759 8.96 48.3493 9.29333 48.6959 9.56C49.0426 9.8 49.5626 10.0267 50.2559 10.24L52.3759 10.92C54.8826 11.72 56.8026 12.7467 58.1359 14C59.4959 15.2267 60.1759 16.9067 60.1759 19.04C60.1759 21.3067 59.2826 23.1467 57.4959 24.56C55.7093 25.9467 53.0826 26.64 49.6159 26.64C48.3893 26.64 47.2426 26.5333 46.1759 26.32C45.1359 26.1333 44.2159 25.8533 43.4159 25.48C42.6426 25.08 42.0293 24.6 41.5759 24.04C41.1493 23.4533 40.9359 22.7867 40.9359 22.04C40.9359 21.2667 41.1626 20.6133 41.6159 20.08C42.0693 19.52 42.5626 19.0933 43.0959 18.8C43.8426 19.3867 44.7493 19.8933 45.8159 20.32C46.9093 20.7467 48.0959 20.96 49.3759 20.96C50.6826 20.96 51.6026 20.76 52.1359 20.36C52.6693 19.96 52.9359 19.4933 52.9359 18.96C52.9359 18.4267 52.7226 18.0267 52.2959 17.76C51.8693 17.4667 51.2693 17.1867 50.4959 16.92L48.8159 16.36ZM62.3394 7.36C62.1527 7.06667 61.9794 6.66667 61.8194 6.16C61.6594 5.65333 61.5794 5.12 61.5794 4.56C61.5794 3.52 61.806 2.77333 62.2594 2.32C62.7394 1.86667 63.3527 1.64 64.0994 1.64H81.5394C81.726 1.93333 81.8994 2.33333 82.0594 2.84C82.2194 3.34667 82.2994 3.88 82.2994 4.44C82.2994 5.48 82.0594 6.22667 81.5794 6.68C81.126 7.13333 80.526 7.36 79.7794 7.36H75.3394V25.84C75.046 25.92 74.5794 26 73.9394 26.08C73.326 26.16 72.7127 26.2 72.0994 26.2C71.486 26.2 70.9394 26.1467 70.4594 26.04C70.006 25.96 69.6194 25.8 69.2994 25.56C68.9794 25.32 68.7394 24.9867 68.5794 24.56C68.4194 24.1333 68.3394 23.5733 68.3394 22.88V7.36H62.3394ZM92.6859 25.84C92.3926 25.92 91.9259 26 91.2859 26.08C90.6726 26.16 90.0593 26.2 89.4459 26.2C88.8326 26.2 88.2859 26.1467 87.8059 26.04C87.3526 25.96 86.9659 25.8 86.6459 25.56C86.3259 25.32 86.0859 24.9867 85.9259 24.56C85.7659 24.1333 85.6859 23.5733 85.6859 22.88V1.76C85.9793 1.70667 86.4459 1.64 87.0859 1.56C87.7259 1.45333 88.3393 1.4 88.9259 1.4C89.5393 1.4 90.0726 1.45333 90.5259 1.56C91.0059 1.64 91.4059 1.8 91.7259 2.04C92.0459 2.28 92.2859 2.61333 92.4459 3.04C92.6059 3.46667 92.6859 4.02667 92.6859 4.72V25.84ZM96.7534 7.36C96.5668 7.06667 96.3934 6.66667 96.2334 6.16C96.0734 5.65333 95.9934 5.12 95.9934 4.56C95.9934 3.52 96.2201 2.77333 96.6734 2.32C97.1534 1.86667 97.7668 1.64 98.5134 1.64H115.953C116.14 1.93333 116.313 2.33333 116.473 2.84C116.633 3.34667 116.713 3.88 116.713 4.44C116.713 5.48 116.473 6.22667 115.993 6.68C115.54 7.13333 114.94 7.36 114.193 7.36H109.753V25.84C109.46 25.92 108.993 26 108.353 26.08C107.74 26.16 107.127 26.2 106.513 26.2C105.9 26.2 105.353 26.1467 104.873 26.04C104.42 25.96 104.033 25.8 103.713 25.56C103.393 25.32 103.153 24.9867 102.993 24.56C102.833 24.1333 102.753 23.5733 102.753 22.88V7.36H96.7534ZM141.58 17.04C141.58 18.48 141.327 19.8 140.82 21C140.34 22.1733 139.633 23.1867 138.7 24.04C137.767 24.8667 136.633 25.5067 135.3 25.96C133.967 26.4133 132.46 26.64 130.78 26.64C129.1 26.64 127.593 26.4133 126.26 25.96C124.927 25.5067 123.793 24.8667 122.86 24.04C121.927 23.1867 121.207 22.1733 120.7 21C120.22 19.8 119.98 18.48 119.98 17.04V1.76C120.273 1.70667 120.74 1.64 121.38 1.56C122.02 1.45333 122.633 1.4 123.22 1.4C123.833 1.4 124.367 1.45333 124.82 1.56C125.3 1.64 125.7 1.8 126.02 2.04C126.34 2.28 126.58 2.61333 126.74 3.04C126.9 3.46667 126.98 4.02667 126.98 4.72V16.92C126.98 18.2 127.327 19.2 128.02 19.92C128.74 20.64 129.66 21 130.78 21C131.927 21 132.847 20.64 133.54 19.92C134.233 19.2 134.58 18.2 134.58 16.92V1.76C134.873 1.70667 135.34 1.64 135.98 1.56C136.62 1.45333 137.233 1.4 137.82 1.4C138.433 1.4 138.967 1.45333 139.42 1.56C139.9 1.64 140.3 1.8 140.62 2.04C140.94 2.28 141.18 2.61333 141.34 3.04C141.5 3.46667 141.58 4.02667 141.58 4.72V17.04ZM145.543 7.36C145.356 7.06667 145.183 6.66667 145.023 6.16C144.863 5.65333 144.783 5.12 144.783 4.56C144.783 3.52 145.009 2.77333 145.463 2.32C145.943 1.86667 146.556 1.64 147.303 1.64H164.743C164.929 1.93333 165.103 2.33333 165.263 2.84C165.423 3.34667 165.503 3.88 165.503 4.44C165.503 5.48 165.263 6.22667 164.783 6.68C164.329 7.13333 163.729 7.36 162.983 7.36H158.543V25.84C158.249 25.92 157.783 26 157.143 26.08C156.529 26.16 155.916 26.2 155.303 26.2C154.689 26.2 154.143 26.1467 153.663 26.04C153.209 25.96 152.823 25.8 152.503 25.56C152.183 25.32 151.943 24.9867 151.783 24.56C151.623 24.1333 151.543 23.5733 151.543 22.88V7.36H145.543ZM175.889 25.84C175.596 25.92 175.129 26 174.489 26.08C173.876 26.16 173.262 26.2 172.649 26.2C172.036 26.2 171.489 26.1467 171.009 26.04C170.556 25.96 170.169 25.8 169.849 25.56C169.529 25.32 169.289 24.9867 169.129 24.56C168.969 24.1333 168.889 23.5733 168.889 22.88V1.76C169.182 1.70667 169.649 1.64 170.289 1.56C170.929 1.45333 171.542 1.4 172.129 1.4C172.742 1.4 173.276 1.45333 173.729 1.56C174.209 1.64 174.609 1.8 174.929 2.04C175.249 2.28 175.489 2.61333 175.649 3.04C175.809 3.46667 175.889 4.02667 175.889 4.72V25.84ZM179.877 13.84C179.877 11.76 180.197 9.92 180.837 8.32C181.503 6.72 182.397 5.38667 183.517 4.32C184.663 3.22667 185.997 2.4 187.517 1.84C189.063 1.28 190.73 1 192.517 1C194.303 1 195.957 1.28 197.477 1.84C199.023 2.4 200.37 3.22667 201.517 4.32C202.663 5.38667 203.557 6.72 204.197 8.32C204.863 9.92 205.197 11.76 205.197 13.84C205.197 15.92 204.877 17.7733 204.237 19.4C203.597 21 202.703 22.3467 201.557 23.44C200.437 24.5067 199.103 25.32 197.557 25.88C196.01 26.44 194.33 26.72 192.517 26.72C190.703 26.72 189.023 26.44 187.477 25.88C185.93 25.2933 184.597 24.4533 183.477 23.36C182.357 22.2667 181.477 20.92 180.837 19.32C180.197 17.72 179.877 15.8933 179.877 13.84ZM187.077 13.84C187.077 16.2667 187.57 18.08 188.557 19.28C189.543 20.48 190.863 21.08 192.517 21.08C194.197 21.08 195.53 20.48 196.517 19.28C197.503 18.08 197.997 16.2667 197.997 13.84C197.997 11.44 197.503 9.64 196.517 8.44C195.557 7.24 194.237 6.64 192.557 6.64C190.903 6.64 189.57 7.24 188.557 8.44C187.57 9.61333 187.077 11.4133 187.077 13.84ZM231.162 25.16C230.788 25.5333 230.242 25.8133 229.522 26C228.828 26.2133 227.988 26.32 227.002 26.32C226.015 26.32 225.082 26.1733 224.202 25.88C223.322 25.5867 222.602 24.88 222.042 23.76L218.082 15.68C217.682 14.8533 217.322 14.08 217.002 13.36C216.682 12.6133 216.335 11.76 215.962 10.8L215.722 10.84C215.828 12.28 215.882 13.7467 215.882 15.24C215.908 16.7333 215.922 18.2 215.922 19.64V25.84C215.628 25.92 215.175 26 214.562 26.08C213.975 26.16 213.388 26.2 212.802 26.2C212.215 26.2 211.695 26.16 211.242 26.08C210.788 26 210.415 25.84 210.122 25.6C209.828 25.36 209.602 25.04 209.442 24.64C209.282 24.2133 209.202 23.6667 209.202 23V3C209.575 2.46667 210.148 2.06667 210.922 1.8C211.695 1.53333 212.522 1.4 213.402 1.4C214.388 1.4 215.322 1.56 216.202 1.88C217.108 2.17333 217.828 2.86667 218.362 3.96L222.362 12.04C222.762 12.8667 223.122 13.6533 223.442 14.4C223.762 15.12 224.108 15.96 224.482 16.92L224.682 16.88C224.575 15.44 224.508 14 224.482 12.56C224.455 11.12 224.442 9.68 224.442 8.24V1.76C224.735 1.68 225.175 1.6 225.762 1.52C226.375 1.44 226.975 1.4 227.562 1.4C228.735 1.4 229.628 1.61333 230.242 2.04C230.855 2.44 231.162 3.29333 231.162 4.6V25.16ZM241.51 2.48C241.963 2.21333 242.643 1.96 243.55 1.72C244.483 1.48 245.417 1.36 246.35 1.36C247.683 1.36 248.857 1.56 249.87 1.96C250.91 2.33333 251.577 2.93333 251.87 3.76C252.35 5.14667 252.87 6.76 253.43 8.6C253.99 10.44 254.55 12.3467 255.11 14.32C255.67 16.2667 256.217 18.2 256.75 20.12C257.283 22.0133 257.75 23.6933 258.15 25.16C257.83 25.5333 257.35 25.8267 256.71 26.04C256.07 26.28 255.31 26.4 254.43 26.4C253.79 26.4 253.243 26.3467 252.79 26.24C252.363 26.1333 252.003 25.9733 251.71 25.76C251.443 25.5467 251.217 25.2667 251.03 24.92C250.87 24.5733 250.723 24.1733 250.59 23.72L249.87 20.96H242.63C242.417 21.76 242.203 22.5867 241.99 23.44C241.777 24.2933 241.563 25.12 241.35 25.92C240.977 26.0533 240.577 26.16 240.15 26.24C239.75 26.3467 239.257 26.4 238.67 26.4C237.31 26.4 236.297 26.1733 235.63 25.72C234.99 25.24 234.67 24.5867 234.67 23.76C234.67 23.3867 234.723 23.0133 234.83 22.64C234.937 22.2667 235.057 21.8267 235.19 21.32C235.377 20.6 235.63 19.7067 235.95 18.64C236.297 17.5733 236.67 16.4267 237.07 15.2C237.47 13.9467 237.897 12.6667 238.35 11.36C238.803 10.0533 239.23 8.82667 239.63 7.68C240.03 6.50667 240.39 5.46667 240.71 4.56C241.057 3.65333 241.323 2.96 241.51 2.48ZM246.31 7.64C245.937 8.76 245.51 10.0133 245.03 11.4C244.577 12.76 244.163 14.1467 243.79 15.56H248.75C248.377 14.12 247.99 12.72 247.59 11.36C247.217 9.97333 246.87 8.73333 246.55 7.64H246.31ZM265.148 26.12C264.001 26.12 263.095 25.7867 262.428 25.12C261.761 24.4533 261.428 23.5467 261.428 22.4V1.72C261.721 1.66667 262.188 1.6 262.828 1.52C263.468 1.41333 264.081 1.36 264.668 1.36C265.281 1.36 265.815 1.41333 266.268 1.52C266.748 1.6 267.148 1.76 267.468 2C267.788 2.24 268.028 2.57333 268.188 3C268.348 3.42667 268.428 3.98667 268.428 4.68V20.48H277.588C277.775 20.7733 277.948 21.1733 278.108 21.68C278.268 22.16 278.348 22.6667 278.348 23.2C278.348 24.2667 278.121 25.0267 277.668 25.48C277.215 25.9067 276.615 26.12 275.868 26.12H265.148ZM280.616 10.2C280.616 9.08 280.963 8.14667 281.656 7.4C282.349 6.65333 283.296 6.28 284.496 6.28C285.696 6.28 286.643 6.65333 287.336 7.4C288.029 8.14667 288.376 9.08 288.376 10.2C288.376 11.32 288.029 12.2533 287.336 13C286.643 13.7467 285.696 14.12 284.496 14.12C283.296 14.12 282.349 13.7467 281.656 13C280.963 12.2533 280.616 11.32 280.616 10.2ZM280.616 22.76C280.616 21.64 280.963 20.7067 281.656 19.96C282.349 19.2133 283.296 18.84 284.496 18.84C285.696 18.84 286.643 19.2133 287.336 19.96C288.029 20.7067 288.376 21.64 288.376 22.76C288.376 23.88 288.029 24.8133 287.336 25.56C286.643 26.3067 285.696 26.68 284.496 26.68C283.296 26.68 282.349 26.3067 281.656 25.56C280.963 24.8133 280.616 23.88 280.616 22.76ZM11.968 55.512C10.3253 55.512 9.06667 56.0133 8.192 57.016C7.31733 58.0187 6.88 59.4373 6.88 61.272C6.88 63.128 7.36 64.5573 8.32 65.56C9.30133 66.5627 10.6133 67.064 12.256 67.064C13.1307 67.064 13.8667 66.9467 14.464 66.712C15.0827 66.4773 15.6693 66.2107 16.224 65.912C16.5867 66.2107 16.864 66.5733 17.056 67C17.2693 67.4053 17.376 67.8853 17.376 68.44C17.376 69.3147 16.8853 70.0613 15.904 70.68C14.944 71.2773 13.472 71.576 11.488 71.576C10.0587 71.576 8.71467 71.3733 7.456 70.968C6.19733 70.5627 5.09867 69.944 4.16 69.112C3.22133 68.2587 2.47467 67.192 1.92 65.912C1.38667 64.6107 1.12 63.064 1.12 61.272C1.12 59.608 1.376 58.1467 1.888 56.888C2.42133 55.608 3.136 54.5307 4.032 53.656C4.94933 52.7813 6.016 52.12 7.232 51.672C8.448 51.224 9.74933 51 11.136 51C13.0987 51 14.6133 51.32 15.68 51.96C16.768 52.6 17.312 53.4213 17.312 54.424C17.312 54.9787 17.1733 55.4587 16.896 55.864C16.6187 56.2693 16.2987 56.5893 15.936 56.824C15.3813 56.4613 14.784 56.152 14.144 55.896C13.5253 55.64 12.8 55.512 11.968 55.512ZM26.6013 67.544C26.9639 67.544 27.3586 67.512 27.7853 67.448C28.2333 67.3627 28.5639 67.256 28.7773 67.128V64.568L26.4733 64.76C25.8759 64.8027 25.3853 64.9307 25.0013 65.144C24.6173 65.3573 24.4253 65.6773 24.4253 66.104C24.4253 66.5307 24.5853 66.8827 24.9053 67.16C25.2466 67.416 25.8119 67.544 26.6013 67.544ZM26.3453 54.968C27.4973 54.968 28.5426 55.0853 29.4813 55.32C30.4413 55.5547 31.2519 55.9173 31.9133 56.408C32.5959 56.8773 33.1186 57.4853 33.4813 58.232C33.8439 58.9573 34.0253 59.8213 34.0253 60.824V67.992C34.0253 68.5467 33.8653 69.0053 33.5453 69.368C33.2466 69.7093 32.8839 70.008 32.4573 70.264C31.0706 71.096 29.1186 71.512 26.6013 71.512C25.4706 71.512 24.4466 71.4053 23.5293 71.192C22.6333 70.9787 21.8546 70.6587 21.1933 70.232C20.5533 69.8053 20.0519 69.2613 19.6893 68.6C19.3479 67.9387 19.1773 67.1707 19.1773 66.296C19.1773 64.824 19.6146 63.6933 20.4893 62.904C21.3639 62.1147 22.7186 61.624 24.5533 61.432L28.7453 60.984V60.76C28.7453 60.1413 28.4679 59.704 27.9133 59.448C27.3799 59.1707 26.6013 59.032 25.5773 59.032C24.7666 59.032 23.9773 59.1173 23.2093 59.288C22.4413 59.4587 21.7479 59.672 21.1293 59.928C20.8519 59.736 20.6173 59.448 20.4253 59.064C20.2333 58.6587 20.1373 58.2427 20.1373 57.816C20.1373 57.2613 20.2653 56.824 20.5213 56.504C20.7986 56.1627 21.2146 55.8747 21.7693 55.64C22.3879 55.4053 23.1133 55.2347 23.9453 55.128C24.7986 55.0213 25.5986 54.968 26.3453 54.968ZM44.8075 54.968C45.6822 54.968 46.5355 55.096 47.3675 55.352C48.2208 55.5867 48.9568 55.9493 49.5755 56.44C50.2155 56.0133 50.9302 55.6613 51.7195 55.384C52.5302 55.1067 53.5008 54.968 54.6315 54.968C55.4422 54.968 56.2315 55.0747 56.9995 55.288C57.7888 55.5013 58.4822 55.8427 59.0795 56.312C59.6982 56.76 60.1888 57.368 60.5515 58.136C60.9142 58.8827 61.0955 59.8 61.0955 60.888V70.968C60.8822 71.032 60.5408 71.096 60.0715 71.16C59.6235 71.224 59.1542 71.256 58.6635 71.256C58.1942 71.256 57.7675 71.224 57.3835 71.16C57.0208 71.096 56.7115 70.968 56.4555 70.776C56.1995 70.584 55.9968 70.328 55.8475 70.008C55.7195 69.6667 55.6555 69.2293 55.6555 68.696V61.048C55.6555 60.408 55.4742 59.9493 55.1115 59.672C54.7488 59.3733 54.2582 59.224 53.6395 59.224C53.3408 59.224 53.0208 59.2987 52.6795 59.448C52.3382 59.576 52.0822 59.7147 51.9115 59.864C51.9328 59.9493 51.9435 60.0347 51.9435 60.12C51.9435 60.184 51.9435 60.248 51.9435 60.312V70.968C51.7088 71.032 51.3568 71.096 50.8875 71.16C50.4395 71.224 49.9808 71.256 49.5115 71.256C49.0422 71.256 48.6155 71.224 48.2315 71.16C47.8688 71.096 47.5595 70.968 47.3035 70.776C47.0475 70.584 46.8448 70.328 46.6955 70.008C46.5675 69.6667 46.5035 69.2293 46.5035 68.696V61.048C46.5035 60.408 46.3008 59.9493 45.8955 59.672C45.5115 59.3733 45.0422 59.224 44.4875 59.224C44.1035 59.224 43.7728 59.288 43.4955 59.416C43.2182 59.5227 42.9835 59.6293 42.7915 59.736V70.968C42.5782 71.032 42.2368 71.096 41.7675 71.16C41.3195 71.224 40.8502 71.256 40.3595 71.256C39.8902 71.256 39.4635 71.224 39.0795 71.16C38.7168 71.096 38.4075 70.968 38.1515 70.776C37.8955 70.584 37.6928 70.328 37.5435 70.008C37.4155 69.6667 37.3515 69.2293 37.3515 68.696V59.032C37.3515 58.456 37.4688 57.9973 37.7035 57.656C37.9595 57.3147 38.3008 56.9947 38.7275 56.696C39.4528 56.184 40.3488 55.768 41.4155 55.448C42.5035 55.128 43.6342 54.968 44.8075 54.968ZM71.55 54.968C72.83 54.968 74.014 55.1387 75.102 55.48C76.2113 55.8 77.1607 56.3013 77.95 56.984C78.7393 57.6667 79.358 58.5307 79.806 59.576C80.254 60.6 80.478 61.8267 80.478 63.256C80.478 64.6213 80.286 65.816 79.902 66.84C79.518 67.864 78.974 68.728 78.27 69.432C77.566 70.1147 76.7127 70.6267 75.71 70.968C74.7287 71.3093 73.63 71.48 72.414 71.48C71.4967 71.48 70.6433 71.3413 69.854 71.064V76.376C69.6407 76.44 69.2993 76.504 68.83 76.568C68.3607 76.6533 67.8807 76.696 67.39 76.696C66.9207 76.696 66.494 76.664 66.11 76.6C65.7473 76.536 65.438 76.408 65.182 76.216C64.926 76.024 64.734 75.7573 64.606 75.416C64.478 75.096 64.414 74.6693 64.414 74.136V58.776C64.414 58.2 64.5313 57.7307 64.766 57.368C65.022 57.0053 65.3633 56.6747 65.79 56.376C66.4513 55.9493 67.2727 55.608 68.254 55.352C69.2353 55.096 70.334 54.968 71.55 54.968ZM71.614 67.192C73.8113 67.192 74.91 65.88 74.91 63.256C74.91 61.8907 74.6327 60.8773 74.078 60.216C73.5447 59.5547 72.766 59.224 71.742 59.224C71.3367 59.224 70.974 59.2773 70.654 59.384C70.334 59.4693 70.0567 59.576 69.822 59.704V66.744C70.078 66.872 70.3553 66.9787 70.654 67.064C70.9527 67.1493 71.2727 67.192 71.614 67.192ZM83.1328 55.672C83.3461 55.608 83.6768 55.544 84.1248 55.48C84.5941 55.416 85.0741 55.384 85.5648 55.384C86.0341 55.384 86.4501 55.416 86.8128 55.48C87.1968 55.544 87.5168 55.672 87.7728 55.864C88.0288 56.056 88.2208 56.3227 88.3488 56.664C88.4981 56.984 88.5728 57.4107 88.5728 57.944V64.824C88.5728 65.6987 88.7861 66.328 89.2128 66.712C89.6394 67.0747 90.2581 67.256 91.0688 67.256C91.5594 67.256 91.9541 67.2133 92.2528 67.128C92.5728 67.0427 92.8181 66.9573 92.9888 66.872V55.672C93.2021 55.608 93.5328 55.544 93.9808 55.48C94.4501 55.416 94.9301 55.384 95.4208 55.384C95.8901 55.384 96.3061 55.416 96.6688 55.48C97.0528 55.544 97.3728 55.672 97.6287 55.864C97.8848 56.056 98.0768 56.3227 98.2048 56.664C98.3541 56.984 98.4288 57.4107 98.4288 57.944V67.672C98.4288 68.7387 97.9808 69.5387 97.0848 70.072C96.3381 70.5413 95.4421 70.8933 94.3968 71.128C93.3728 71.384 92.2528 71.512 91.0368 71.512C89.8848 71.512 88.8181 71.384 87.8368 71.128C86.8768 70.872 86.0448 70.4773 85.3408 69.944C84.6368 69.4107 84.0928 68.728 83.7088 67.896C83.3248 67.0427 83.1328 66.0187 83.1328 64.824V55.672ZM114.878 66.36C114.878 67.9813 114.27 69.2507 113.054 70.168C111.838 71.0853 110.046 71.544 107.678 71.544C106.782 71.544 105.95 71.48 105.182 71.352C104.414 71.224 103.752 71.032 103.198 70.776C102.664 70.4987 102.238 70.1573 101.918 69.752C101.619 69.3467 101.47 68.8667 101.47 68.312C101.47 67.8 101.576 67.3733 101.79 67.032C102.003 66.6693 102.259 66.3707 102.558 66.136C103.176 66.4773 103.88 66.7867 104.67 67.064C105.48 67.32 106.408 67.448 107.454 67.448C108.115 67.448 108.616 67.352 108.958 67.16C109.32 66.968 109.502 66.712 109.502 66.392C109.502 66.0933 109.374 65.8587 109.118 65.688C108.862 65.5173 108.435 65.3787 107.838 65.272L106.878 65.08C105.022 64.7173 103.635 64.152 102.718 63.384C101.822 62.5947 101.374 61.4747 101.374 60.024C101.374 59.2347 101.544 58.52 101.886 57.88C102.227 57.24 102.707 56.7067 103.326 56.28C103.944 55.8533 104.68 55.5227 105.534 55.288C106.408 55.0533 107.368 54.936 108.414 54.936C109.203 54.936 109.939 55 110.622 55.128C111.326 55.2347 111.934 55.4053 112.446 55.64C112.958 55.8747 113.363 56.184 113.662 56.568C113.96 56.9307 114.11 57.368 114.11 57.88C114.11 58.3707 114.014 58.7973 113.822 59.16C113.651 59.5013 113.427 59.7893 113.15 60.024C112.979 59.9173 112.723 59.8107 112.382 59.704C112.04 59.576 111.667 59.4693 111.262 59.384C110.856 59.2773 110.44 59.192 110.014 59.128C109.608 59.064 109.235 59.032 108.894 59.032C108.19 59.032 107.646 59.1173 107.262 59.288C106.878 59.4373 106.686 59.6827 106.686 60.024C106.686 60.2587 106.792 60.4507 107.006 60.6C107.219 60.7493 107.624 60.888 108.222 61.016L109.214 61.24C111.262 61.7093 112.712 62.36 113.566 63.192C114.44 64.0027 114.878 65.0587 114.878 66.36ZM134.218 55.512C132.575 55.512 131.317 56.0133 130.442 57.016C129.567 58.0187 129.13 59.4373 129.13 61.272C129.13 63.128 129.61 64.5573 130.57 65.56C131.551 66.5627 132.863 67.064 134.506 67.064C135.381 67.064 136.117 66.9467 136.714 66.712C137.333 66.4773 137.919 66.2107 138.474 65.912C138.837 66.2107 139.114 66.5733 139.306 67C139.519 67.4053 139.626 67.8853 139.626 68.44C139.626 69.3147 139.135 70.0613 138.154 70.68C137.194 71.2773 135.722 71.576 133.738 71.576C132.309 71.576 130.965 71.3733 129.706 70.968C128.447 70.5627 127.349 69.944 126.41 69.112C125.471 68.2587 124.725 67.192 124.17 65.912C123.637 64.6107 123.37 63.064 123.37 61.272C123.37 59.608 123.626 58.1467 124.138 56.888C124.671 55.608 125.386 54.5307 126.282 53.656C127.199 52.7813 128.266 52.12 129.482 51.672C130.698 51.224 131.999 51 133.386 51C135.349 51 136.863 51.32 137.93 51.96C139.018 52.6 139.562 53.4213 139.562 54.424C139.562 54.9787 139.423 55.4587 139.146 55.864C138.869 56.2693 138.549 56.5893 138.186 56.824C137.631 56.4613 137.034 56.152 136.394 55.896C135.775 55.64 135.05 55.512 134.218 55.512ZM147.385 70.968C147.172 71.032 146.831 71.096 146.361 71.16C145.913 71.224 145.444 71.256 144.953 71.256C144.484 71.256 144.057 71.224 143.673 71.16C143.311 71.096 143.001 70.968 142.745 70.776C142.489 70.584 142.287 70.328 142.137 70.008C142.009 69.6667 141.945 69.2293 141.945 68.696V59.096C141.945 58.6053 142.031 58.1893 142.201 57.848C142.393 57.4853 142.66 57.1653 143.001 56.888C143.343 56.6107 143.759 56.3653 144.249 56.152C144.761 55.9173 145.305 55.7147 145.881 55.544C146.457 55.3733 147.055 55.2453 147.673 55.16C148.292 55.0533 148.911 55 149.529 55C150.553 55 151.364 55.2027 151.961 55.608C152.559 55.992 152.857 56.632 152.857 57.528C152.857 57.8267 152.815 58.1253 152.729 58.424C152.644 58.7013 152.537 58.9573 152.409 59.192C151.961 59.192 151.503 59.2133 151.033 59.256C150.564 59.2987 150.105 59.3627 149.657 59.448C149.209 59.5333 148.783 59.6293 148.377 59.736C147.993 59.8213 147.663 59.928 147.385 60.056V70.968ZM155.102 55.672C155.315 55.608 155.646 55.544 156.094 55.48C156.563 55.416 157.043 55.384 157.534 55.384C158.003 55.384 158.419 55.416 158.782 55.48C159.166 55.544 159.486 55.672 159.742 55.864C159.998 56.056 160.19 56.3227 160.318 56.664C160.467 56.984 160.542 57.4107 160.542 57.944V64.824C160.542 65.6987 160.755 66.328 161.182 66.712C161.608 67.0747 162.227 67.256 163.038 67.256C163.528 67.256 163.923 67.2133 164.222 67.128C164.542 67.0427 164.787 66.9573 164.958 66.872V55.672C165.171 55.608 165.502 55.544 165.95 55.48C166.419 55.416 166.899 55.384 167.39 55.384C167.859 55.384 168.275 55.416 168.638 55.48C169.022 55.544 169.342 55.672 169.597 55.864C169.854 56.056 170.046 56.3227 170.174 56.664C170.323 56.984 170.398 57.4107 170.398 57.944V67.672C170.398 68.7387 169.95 69.5387 169.054 70.072C168.307 70.5413 167.411 70.8933 166.366 71.128C165.342 71.384 164.222 71.512 163.006 71.512C161.854 71.512 160.787 71.384 159.806 71.128C158.846 70.872 158.014 70.4773 157.31 69.944C156.606 69.4107 156.062 68.728 155.678 67.896C155.294 67.0427 155.102 66.0187 155.102 64.824V55.672ZM186.847 66.36C186.847 67.9813 186.239 69.2507 185.023 70.168C183.807 71.0853 182.015 71.544 179.647 71.544C178.751 71.544 177.919 71.48 177.151 71.352C176.383 71.224 175.721 71.032 175.167 70.776C174.633 70.4987 174.207 70.1573 173.887 69.752C173.588 69.3467 173.439 68.8667 173.439 68.312C173.439 67.8 173.545 67.3733 173.759 67.032C173.972 66.6693 174.228 66.3707 174.527 66.136C175.145 66.4773 175.849 66.7867 176.639 67.064C177.449 67.32 178.377 67.448 179.423 67.448C180.084 67.448 180.585 67.352 180.927 67.16C181.289 66.968 181.47 66.712 181.47 66.392C181.47 66.0933 181.343 65.8587 181.087 65.688C180.831 65.5173 180.404 65.3787 179.807 65.272L178.847 65.08C176.991 64.7173 175.604 64.152 174.687 63.384C173.791 62.5947 173.343 61.4747 173.343 60.024C173.343 59.2347 173.513 58.52 173.855 57.88C174.196 57.24 174.676 56.7067 175.295 56.28C175.913 55.8533 176.649 55.5227 177.503 55.288C178.377 55.0533 179.337 54.936 180.383 54.936C181.172 54.936 181.908 55 182.591 55.128C183.295 55.2347 183.903 55.4053 184.415 55.64C184.927 55.8747 185.332 56.184 185.631 56.568C185.929 56.9307 186.079 57.368 186.079 57.88C186.079 58.3707 185.983 58.7973 185.791 59.16C185.62 59.5013 185.396 59.7893 185.119 60.024C184.948 59.9173 184.692 59.8107 184.351 59.704C184.009 59.576 183.636 59.4693 183.231 59.384C182.825 59.2773 182.409 59.192 181.983 59.128C181.577 59.064 181.204 59.032 180.863 59.032C180.159 59.032 179.615 59.1173 179.231 59.288C178.847 59.4373 178.655 59.6827 178.655 60.024C178.655 60.2587 178.761 60.4507 178.975 60.6C179.188 60.7493 179.593 60.888 180.191 61.016L181.183 61.24C183.231 61.7093 184.681 62.36 185.535 63.192C186.409 64.0027 186.847 65.0587 186.847 66.36ZM196.445 67.544C196.808 67.544 197.202 67.512 197.629 67.448C198.077 67.3627 198.408 67.256 198.621 67.128V64.568L196.317 64.76C195.72 64.8027 195.229 64.9307 194.845 65.144C194.461 65.3573 194.269 65.6773 194.269 66.104C194.269 66.5307 194.429 66.8827 194.749 67.16C195.09 67.416 195.656 67.544 196.445 67.544ZM196.189 54.968C197.341 54.968 198.386 55.0853 199.325 55.32C200.285 55.5547 201.096 55.9173 201.757 56.408C202.44 56.8773 202.962 57.4853 203.325 58.232C203.688 58.9573 203.869 59.8213 203.869 60.824V67.992C203.869 68.5467 203.709 69.0053 203.389 69.368C203.09 69.7093 202.728 70.008 202.301 70.264C200.914 71.096 198.962 71.512 196.445 71.512C195.314 71.512 194.29 71.4053 193.373 71.192C192.477 70.9787 191.698 70.6587 191.037 70.232C190.397 69.8053 189.896 69.2613 189.533 68.6C189.192 67.9387 189.021 67.1707 189.021 66.296C189.021 64.824 189.458 63.6933 190.333 62.904C191.208 62.1147 192.562 61.624 194.397 61.432L198.589 60.984V60.76C198.589 60.1413 198.312 59.704 197.757 59.448C197.224 59.1707 196.445 59.032 195.421 59.032C194.61 59.032 193.821 59.1173 193.053 59.288C192.285 59.4587 191.592 59.672 190.973 59.928C190.696 59.736 190.461 59.448 190.269 59.064C190.077 58.6587 189.981 58.2427 189.981 57.816C189.981 57.2613 190.109 56.824 190.365 56.504C190.642 56.1627 191.058 55.8747 191.613 55.64C192.232 55.4053 192.957 55.2347 193.789 55.128C194.642 55.0213 195.442 54.968 196.189 54.968ZM206.523 63.224C206.523 61.816 206.737 60.6 207.163 59.576C207.59 58.5307 208.177 57.6667 208.923 56.984C209.691 56.3013 210.577 55.8 211.579 55.48C212.603 55.1387 213.702 54.968 214.875 54.968C215.302 54.968 215.718 55.0107 216.123 55.096C216.529 55.16 216.859 55.2453 217.115 55.352V50.168C217.329 50.104 217.67 50.04 218.139 49.976C218.609 49.8907 219.089 49.848 219.579 49.848C220.049 49.848 220.465 49.88 220.827 49.944C221.211 50.008 221.531 50.136 221.787 50.328C222.043 50.52 222.235 50.7867 222.363 51.128C222.491 51.448 222.555 51.8747 222.555 52.408V67.576C222.555 68.5787 222.086 69.3787 221.147 69.976C220.529 70.3813 219.729 70.7333 218.747 71.032C217.766 71.352 216.635 71.512 215.355 71.512C213.969 71.512 212.721 71.32 211.611 70.936C210.523 70.552 209.595 69.9973 208.827 69.272C208.081 68.5467 207.505 67.6827 207.099 66.68C206.715 65.656 206.523 64.504 206.523 63.224ZM215.611 59.224C214.459 59.224 213.574 59.5547 212.955 60.216C212.337 60.8773 212.027 61.88 212.027 63.224C212.027 64.5467 212.315 65.5493 212.891 66.232C213.467 66.8933 214.299 67.224 215.387 67.224C215.771 67.224 216.113 67.1707 216.411 67.064C216.731 66.936 216.977 66.7973 217.147 66.648V59.608C216.721 59.352 216.209 59.224 215.611 59.224ZM234.169 71.512C232.911 71.512 231.737 71.3413 230.649 71C229.583 70.6373 228.644 70.104 227.833 69.4C227.044 68.696 226.415 67.8107 225.945 66.744C225.497 65.6773 225.273 64.4293 225.273 63C225.273 61.592 225.497 60.3867 225.945 59.384C226.415 58.36 227.023 57.528 227.769 56.888C228.516 56.2267 229.369 55.7467 230.329 55.448C231.289 55.128 232.271 54.968 233.273 54.968C234.404 54.968 235.428 55.1387 236.345 55.48C237.284 55.8213 238.084 56.2907 238.745 56.888C239.428 57.4853 239.951 58.2 240.313 59.032C240.697 59.864 240.889 60.7707 240.889 61.752C240.889 62.4773 240.687 63.032 240.281 63.416C239.876 63.8 239.311 64.0453 238.585 64.152L230.681 65.336C230.916 66.04 231.396 66.5733 232.121 66.936C232.847 67.2773 233.679 67.448 234.617 67.448C235.492 67.448 236.313 67.3413 237.081 67.128C237.871 66.8933 238.511 66.6267 239.001 66.328C239.343 66.5413 239.631 66.84 239.865 67.224C240.1 67.608 240.217 68.0133 240.217 68.44C240.217 69.4 239.769 70.1147 238.873 70.584C238.191 70.9467 237.423 71.192 236.569 71.32C235.716 71.448 234.916 71.512 234.169 71.512ZM233.273 58.936C232.761 58.936 232.313 59.0213 231.929 59.192C231.567 59.3627 231.268 59.5867 231.033 59.864C230.799 60.12 230.617 60.4187 230.489 60.76C230.383 61.08 230.319 61.4107 230.297 61.752L235.769 60.856C235.705 60.4293 235.471 60.0027 235.065 59.576C234.66 59.1493 234.063 58.936 233.273 58.936ZM248.948 70.968C248.734 71.032 248.393 71.096 247.924 71.16C247.476 71.224 247.006 71.256 246.516 71.256C246.046 71.256 245.62 71.224 245.236 71.16C244.873 71.096 244.564 70.968 244.308 70.776C244.052 70.584 243.849 70.328 243.7 70.008C243.572 69.6667 243.508 69.2293 243.508 68.696V59.096C243.508 58.6053 243.593 58.1893 243.764 57.848C243.956 57.4853 244.222 57.1653 244.564 56.888C244.905 56.6107 245.321 56.3653 245.812 56.152C246.324 55.9173 246.868 55.7147 247.444 55.544C248.02 55.3733 248.617 55.2453 249.236 55.16C249.854 55.0533 250.473 55 251.092 55C252.116 55 252.926 55.2027 253.524 55.608C254.121 55.992 254.42 56.632 254.42 57.528C254.42 57.8267 254.377 58.1253 254.292 58.424C254.206 58.7013 254.1 58.9573 253.972 59.192C253.524 59.192 253.065 59.2133 252.596 59.256C252.126 59.2987 251.668 59.3627 251.22 59.448C250.772 59.5333 250.345 59.6293 249.94 59.736C249.556 59.8213 249.225 59.928 248.948 60.056V70.968ZM269.784 66.36C269.784 67.9813 269.176 69.2507 267.96 70.168C266.744 71.0853 264.952 71.544 262.584 71.544C261.688 71.544 260.856 71.48 260.088 71.352C259.32 71.224 258.659 71.032 258.104 70.776C257.571 70.4987 257.144 70.1573 256.824 69.752C256.525 69.3467 256.376 68.8667 256.376 68.312C256.376 67.8 256.483 67.3733 256.696 67.032C256.909 66.6693 257.165 66.3707 257.464 66.136C258.083 66.4773 258.787 66.7867 259.576 67.064C260.387 67.32 261.315 67.448 262.36 67.448C263.021 67.448 263.523 67.352 263.864 67.16C264.227 66.968 264.408 66.712 264.408 66.392C264.408 66.0933 264.28 65.8587 264.024 65.688C263.768 65.5173 263.341 65.3787 262.744 65.272L261.784 65.08C259.928 64.7173 258.541 64.152 257.624 63.384C256.728 62.5947 256.28 61.4747 256.28 60.024C256.28 59.2347 256.451 58.52 256.792 57.88C257.133 57.24 257.613 56.7067 258.232 56.28C258.851 55.8533 259.587 55.5227 260.44 55.288C261.315 55.0533 262.275 54.936 263.32 54.936C264.109 54.936 264.845 55 265.528 55.128C266.232 55.2347 266.84 55.4053 267.352 55.64C267.864 55.8747 268.269 56.184 268.568 56.568C268.867 56.9307 269.016 57.368 269.016 57.88C269.016 58.3707 268.92 58.7973 268.728 59.16C268.557 59.5013 268.333 59.7893 268.056 60.024C267.885 59.9173 267.629 59.8107 267.288 59.704C266.947 59.576 266.573 59.4693 266.168 59.384C265.763 59.2773 265.347 59.192 264.92 59.128C264.515 59.064 264.141 59.032 263.8 59.032C263.096 59.032 262.552 59.1173 262.168 59.288C261.784 59.4373 261.592 59.6827 261.592 60.024C261.592 60.2587 261.699 60.4507 261.912 60.6C262.125 60.7493 262.531 60.888 263.128 61.016L264.12 61.24C266.168 61.7093 267.619 62.36 268.472 63.192C269.347 64.0027 269.784 65.0587 269.784 66.36ZM1.728 100.448C1.728 99.36 1.90933 98.432 2.272 97.664C2.656 96.8747 3.168 96.2347 3.808 95.744C4.448 95.232 5.19467 94.8587 6.048 94.624C6.92267 94.3893 7.85067 94.272 8.832 94.272C10.4107 94.272 11.5733 94.4853 12.32 94.912C13.0667 95.3173 13.44 96.0213 13.44 97.024C13.44 97.4507 13.344 97.8347 13.152 98.176C12.9813 98.5173 12.7893 98.7733 12.576 98.944C12.1707 98.8373 11.744 98.752 11.296 98.688C10.8693 98.6027 10.368 98.56 9.792 98.56C8.87467 98.56 8.16 98.72 7.648 99.04C7.136 99.3387 6.88 99.872 6.88 100.64V101.664H12.128C12.256 101.899 12.3733 102.197 12.48 102.56C12.608 102.901 12.672 103.285 12.672 103.712C12.672 104.459 12.5013 105.003 12.16 105.344C11.84 105.664 11.4027 105.824 10.848 105.824H7.168V115.968C6.95467 116.032 6.61333 116.096 6.144 116.16C5.696 116.224 5.22667 116.256 4.736 116.256C4.26667 116.256 3.84 116.224 3.456 116.16C3.09333 116.096 2.784 115.968 2.528 115.776C2.272 115.584 2.06933 115.328 1.92 115.008C1.792 114.667 1.728 114.229 1.728 113.696V100.448ZM30.7913 108.224C30.7913 109.547 30.5886 110.731 30.1833 111.776C29.7779 112.8 29.2019 113.664 28.4553 114.368C27.7299 115.072 26.8553 115.605 25.8313 115.968C24.8073 116.331 23.6659 116.512 22.4073 116.512C21.1486 116.512 20.0073 116.32 18.9833 115.936C17.9593 115.552 17.0739 115.008 16.3273 114.304C15.6019 113.579 15.0366 112.704 14.6313 111.68C14.2259 110.656 14.0233 109.504 14.0233 108.224C14.0233 106.965 14.2259 105.824 14.6313 104.8C15.0366 103.776 15.6019 102.912 16.3273 102.208C17.0739 101.483 17.9593 100.928 18.9833 100.544C20.0073 100.16 21.1486 99.968 22.4073 99.968C23.6659 99.968 24.8073 100.171 25.8313 100.576C26.8553 100.96 27.7299 101.515 28.4553 102.24C29.2019 102.944 29.7779 103.808 30.1833 104.832C30.5886 105.856 30.7913 106.987 30.7913 108.224ZM19.5913 108.224C19.5913 109.525 19.8366 110.528 20.3273 111.232C20.8393 111.915 21.5433 112.256 22.4392 112.256C23.3353 112.256 24.0179 111.904 24.4873 111.2C24.9779 110.496 25.2233 109.504 25.2233 108.224C25.2233 106.944 24.9779 105.963 24.4873 105.28C23.9966 104.576 23.3033 104.224 22.4073 104.224C21.5113 104.224 20.8179 104.576 20.3273 105.28C19.8366 105.963 19.5913 106.944 19.5913 108.224ZM38.8853 115.968C38.6719 116.032 38.3306 116.096 37.8613 116.16C37.4133 116.224 36.9439 116.256 36.4533 116.256C35.9839 116.256 35.5573 116.224 35.1733 116.16C34.8106 116.096 34.5013 115.968 34.2453 115.776C33.9893 115.584 33.7866 115.328 33.6373 115.008C33.5093 114.667 33.4453 114.229 33.4453 113.696V104.096C33.4453 103.605 33.5306 103.189 33.7013 102.848C33.8933 102.485 34.1599 102.165 34.5013 101.888C34.8426 101.611 35.2586 101.365 35.7493 101.152C36.2613 100.917 36.8053 100.715 37.3813 100.544C37.9573 100.373 38.5546 100.245 39.1733 100.16C39.7919 100.053 40.4106 100 41.0293 100C42.0533 100 42.8639 100.203 43.4613 100.608C44.0586 100.992 44.3573 101.632 44.3573 102.528C44.3573 102.827 44.3146 103.125 44.2293 103.424C44.1439 103.701 44.0373 103.957 43.9093 104.192C43.4613 104.192 43.0026 104.213 42.5333 104.256C42.0639 104.299 41.6053 104.363 41.1573 104.448C40.7093 104.533 40.2826 104.629 39.8773 104.736C39.4933 104.821 39.1626 104.928 38.8853 105.056V115.968ZM59.6638 112.544C60.0264 112.544 60.4211 112.512 60.8478 112.448C61.2958 112.363 61.6264 112.256 61.8398 112.128V109.568L59.5358 109.76C58.9384 109.803 58.4478 109.931 58.0638 110.144C57.6798 110.357 57.4878 110.677 57.4878 111.104C57.4878 111.531 57.6478 111.883 57.9678 112.16C58.3091 112.416 58.8744 112.544 59.6638 112.544ZM59.4078 99.968C60.5598 99.968 61.6051 100.085 62.5438 100.32C63.5038 100.555 64.3144 100.917 64.9758 101.408C65.6584 101.877 66.1811 102.485 66.5438 103.232C66.9064 103.957 67.0878 104.821 67.0878 105.824V112.992C67.0878 113.547 66.9278 114.005 66.6078 114.368C66.3091 114.709 65.9464 115.008 65.5198 115.264C64.1331 116.096 62.1811 116.512 59.6638 116.512C58.5331 116.512 57.5091 116.405 56.5918 116.192C55.6958 115.979 54.9171 115.659 54.2558 115.232C53.6158 114.805 53.1144 114.261 52.7518 113.6C52.4104 112.939 52.2398 112.171 52.2398 111.296C52.2398 109.824 52.6771 108.693 53.5518 107.904C54.4264 107.115 55.7811 106.624 57.6158 106.432L61.8078 105.984V105.76C61.8078 105.141 61.5304 104.704 60.9758 104.448C60.4424 104.171 59.6638 104.032 58.6398 104.032C57.8291 104.032 57.0398 104.117 56.2718 104.288C55.5038 104.459 54.8104 104.672 54.1918 104.928C53.9144 104.736 53.6798 104.448 53.4878 104.064C53.2958 103.659 53.1998 103.243 53.1998 102.816C53.1998 102.261 53.3278 101.824 53.5838 101.504C53.8611 101.163 54.2771 100.875 54.8318 100.64C55.4504 100.405 56.1758 100.235 57.0078 100.128C57.8611 100.021 58.6611 99.968 59.4078 99.968ZM87.1243 100.512C85.4816 100.512 84.2229 101.013 83.3483 102.016C82.4736 103.019 82.0363 104.437 82.0363 106.272C82.0363 108.128 82.5163 109.557 83.4763 110.56C84.4576 111.563 85.7696 112.064 87.4123 112.064C88.2869 112.064 89.0229 111.947 89.6203 111.712C90.2389 111.477 90.8256 111.211 91.3803 110.912C91.7429 111.211 92.0203 111.573 92.2123 112C92.4256 112.405 92.5323 112.885 92.5323 113.44C92.5323 114.315 92.0416 115.061 91.0603 115.68C90.1003 116.277 88.6283 116.576 86.6443 116.576C85.2149 116.576 83.8709 116.373 82.6123 115.968C81.3536 115.563 80.2549 114.944 79.3163 114.112C78.3776 113.259 77.6309 112.192 77.0763 110.912C76.5429 109.611 76.2763 108.064 76.2763 106.272C76.2763 104.608 76.5323 103.147 77.0443 101.888C77.5776 100.608 78.2923 99.5307 79.1883 98.656C80.1056 97.7813 81.1723 97.12 82.3883 96.672C83.6043 96.224 84.9056 96 86.2923 96C88.2549 96 89.7696 96.32 90.8363 96.96C91.9243 97.6 92.4683 98.4213 92.4683 99.424C92.4683 99.9787 92.3296 100.459 92.0522 100.864C91.7749 101.269 91.4549 101.589 91.0923 101.824C90.5376 101.461 89.9403 101.152 89.3003 100.896C88.6816 100.64 87.9563 100.512 87.1243 100.512ZM100.638 115.968C100.403 116.011 100.051 116.064 99.5815 116.128C99.1335 116.213 98.6748 116.256 98.2055 116.256C97.7362 116.256 97.3095 116.224 96.9255 116.16C96.5628 116.096 96.2535 115.968 95.9975 115.776C95.7415 115.584 95.5388 115.328 95.3895 115.008C95.2615 114.667 95.1975 114.229 95.1975 113.696V95.136C95.4322 95.0933 95.7735 95.04 96.2215 94.976C96.6908 94.8907 97.1602 94.848 97.6295 94.848C98.0988 94.848 98.5148 94.88 98.8775 94.944C99.2615 95.008 99.5815 95.136 99.8375 95.328C100.094 95.52 100.286 95.7867 100.414 96.128C100.563 96.448 100.638 96.8747 100.638 97.408V115.968ZM112.294 116.512C111.036 116.512 109.862 116.341 108.774 116C107.708 115.637 106.769 115.104 105.958 114.4C105.169 113.696 104.54 112.811 104.07 111.744C103.622 110.677 103.398 109.429 103.398 108C103.398 106.592 103.622 105.387 104.07 104.384C104.54 103.36 105.148 102.528 105.894 101.888C106.641 101.227 107.494 100.747 108.454 100.448C109.414 100.128 110.396 99.968 111.398 99.968C112.529 99.968 113.553 100.139 114.47 100.48C115.409 100.821 116.209 101.291 116.87 101.888C117.553 102.485 118.076 103.2 118.438 104.032C118.822 104.864 119.014 105.771 119.014 106.752C119.014 107.477 118.812 108.032 118.406 108.416C118.001 108.8 117.436 109.045 116.71 109.152L108.806 110.336C109.041 111.04 109.521 111.573 110.246 111.936C110.972 112.277 111.804 112.448 112.742 112.448C113.617 112.448 114.438 112.341 115.206 112.128C115.996 111.893 116.636 111.627 117.126 111.328C117.468 111.541 117.756 111.84 117.99 112.224C118.225 112.608 118.342 113.013 118.342 113.44C118.342 114.4 117.894 115.115 116.998 115.584C116.316 115.947 115.548 116.192 114.694 116.32C113.841 116.448 113.041 116.512 112.294 116.512ZM111.398 103.936C110.886 103.936 110.438 104.021 110.054 104.192C109.692 104.363 109.393 104.587 109.158 104.864C108.924 105.12 108.742 105.419 108.614 105.76C108.508 106.08 108.444 106.411 108.422 106.752L113.894 105.856C113.83 105.429 113.596 105.003 113.19 104.576C112.785 104.149 112.188 103.936 111.398 103.936ZM128.289 112.544C128.651 112.544 129.046 112.512 129.473 112.448C129.921 112.363 130.251 112.256 130.465 112.128V109.568L128.161 109.76C127.563 109.803 127.073 109.931 126.689 110.144C126.305 110.357 126.113 110.677 126.113 111.104C126.113 111.531 126.273 111.883 126.593 112.16C126.934 112.416 127.499 112.544 128.289 112.544ZM128.033 99.968C129.185 99.968 130.23 100.085 131.169 100.32C132.129 100.555 132.939 100.917 133.601 101.408C134.283 101.877 134.806 102.485 135.169 103.232C135.531 103.957 135.713 104.821 135.713 105.824V112.992C135.713 113.547 135.553 114.005 135.233 114.368C134.934 114.709 134.571 115.008 134.145 115.264C132.758 116.096 130.806 116.512 128.289 116.512C127.158 116.512 126.134 116.405 125.217 116.192C124.321 115.979 123.542 115.659 122.881 115.232C122.241 114.805 121.739 114.261 121.377 113.6C121.035 112.939 120.865 112.171 120.865 111.296C120.865 109.824 121.302 108.693 122.177 107.904C123.051 107.115 124.406 106.624 126.241 106.432L130.433 105.984V105.76C130.433 105.141 130.155 104.704 129.601 104.448C129.067 104.171 128.289 104.032 127.265 104.032C126.454 104.032 125.665 104.117 124.897 104.288C124.129 104.459 123.435 104.672 122.817 104.928C122.539 104.736 122.305 104.448 122.113 104.064C121.921 103.659 121.825 103.243 121.825 102.816C121.825 102.261 121.953 101.824 122.209 101.504C122.486 101.163 122.902 100.875 123.457 100.64C124.075 100.405 124.801 100.235 125.633 100.128C126.486 100.021 127.286 99.968 128.033 99.968ZM148.895 106.144C148.895 105.483 148.703 105.003 148.319 104.704C147.956 104.384 147.455 104.224 146.815 104.224C146.388 104.224 145.962 104.277 145.535 104.384C145.13 104.491 144.778 104.651 144.479 104.864V115.968C144.266 116.032 143.924 116.096 143.455 116.16C143.007 116.224 142.538 116.256 142.047 116.256C141.578 116.256 141.151 116.224 140.767 116.16C140.404 116.096 140.095 115.968 139.839 115.776C139.583 115.584 139.38 115.328 139.231 115.008C139.103 114.667 139.039 114.229 139.039 113.696V104.096C139.039 103.52 139.156 103.051 139.391 102.688C139.647 102.325 139.988 101.995 140.415 101.696C141.14 101.184 142.047 100.768 143.135 100.448C144.244 100.128 145.471 99.968 146.815 99.968C149.226 99.968 151.082 100.501 152.383 101.568C153.684 102.613 154.335 104.075 154.335 105.952V115.968C154.122 116.032 153.78 116.096 153.311 116.16C152.863 116.224 152.394 116.256 151.903 116.256C151.434 116.256 151.007 116.224 150.623 116.16C150.26 116.096 149.951 115.968 149.695 115.776C149.439 115.584 149.236 115.328 149.087 115.008C148.959 114.667 148.895 114.229 148.895 113.696V106.144ZM164.518 99.584C164.518 98.6667 164.784 97.9413 165.318 97.408C165.851 96.8747 166.576 96.608 167.494 96.608H178.054C178.203 96.8427 178.331 97.152 178.438 97.536C178.566 97.92 178.63 98.3253 178.63 98.752C178.63 99.5627 178.448 100.139 178.086 100.48C177.744 100.821 177.286 100.992 176.71 100.992H169.958V103.968H177.158C177.307 104.203 177.435 104.512 177.542 104.896C177.67 105.259 177.734 105.653 177.734 106.08C177.734 106.891 177.563 107.467 177.222 107.808C176.88 108.149 176.422 108.32 175.846 108.32H169.958V111.68H178.182C178.331 111.915 178.459 112.224 178.566 112.608C178.694 112.992 178.758 113.397 178.758 113.824C178.758 114.635 178.576 115.221 178.214 115.584C177.872 115.925 177.414 116.096 176.838 116.096H167.494C166.576 116.096 165.851 115.829 165.318 115.296C164.784 114.763 164.518 114.037 164.518 113.12V99.584ZM188.289 112.544C188.651 112.544 189.046 112.512 189.473 112.448C189.921 112.363 190.251 112.256 190.465 112.128V109.568L188.161 109.76C187.563 109.803 187.073 109.931 186.689 110.144C186.305 110.357 186.113 110.677 186.113 111.104C186.113 111.531 186.273 111.883 186.593 112.16C186.934 112.416 187.499 112.544 188.289 112.544ZM188.033 99.968C189.185 99.968 190.23 100.085 191.169 100.32C192.129 100.555 192.939 100.917 193.601 101.408C194.283 101.877 194.806 102.485 195.169 103.232C195.531 103.957 195.713 104.821 195.713 105.824V112.992C195.713 113.547 195.553 114.005 195.233 114.368C194.934 114.709 194.571 115.008 194.145 115.264C192.758 116.096 190.806 116.512 188.289 116.512C187.158 116.512 186.134 116.405 185.217 116.192C184.321 115.979 183.542 115.659 182.881 115.232C182.241 114.805 181.739 114.261 181.377 113.6C181.035 112.939 180.865 112.171 180.865 111.296C180.865 109.824 181.302 108.693 182.177 107.904C183.051 107.115 184.406 106.624 186.241 106.432L190.433 105.984V105.76C190.433 105.141 190.155 104.704 189.601 104.448C189.067 104.171 188.289 104.032 187.265 104.032C186.454 104.032 185.665 104.117 184.897 104.288C184.129 104.459 183.435 104.672 182.817 104.928C182.539 104.736 182.305 104.448 182.113 104.064C181.921 103.659 181.825 103.243 181.825 102.816C181.825 102.261 181.953 101.824 182.209 101.504C182.486 101.163 182.902 100.875 183.457 100.64C184.075 100.405 184.801 100.235 185.633 100.128C186.486 100.021 187.286 99.968 188.033 99.968ZM204.479 115.968C204.266 116.032 203.924 116.096 203.455 116.16C203.007 116.224 202.538 116.256 202.047 116.256C201.578 116.256 201.151 116.224 200.767 116.16C200.404 116.096 200.095 115.968 199.839 115.776C199.583 115.584 199.38 115.328 199.231 115.008C199.103 114.667 199.039 114.229 199.039 113.696V104.096C199.039 103.605 199.124 103.189 199.295 102.848C199.487 102.485 199.754 102.165 200.095 101.888C200.436 101.611 200.852 101.365 201.343 101.152C201.855 100.917 202.399 100.715 202.975 100.544C203.551 100.373 204.148 100.245 204.767 100.16C205.386 100.053 206.004 100 206.623 100C207.647 100 208.458 100.203 209.055 100.608C209.652 100.992 209.951 101.632 209.951 102.528C209.951 102.827 209.908 103.125 209.823 103.424C209.738 103.701 209.631 103.957 209.503 104.192C209.055 104.192 208.596 104.213 208.127 104.256C207.658 104.299 207.199 104.363 206.751 104.448C206.303 104.533 205.876 104.629 205.471 104.736C205.087 104.821 204.756 104.928 204.479 105.056V115.968ZM217.635 110.656C217.635 111.211 217.806 111.605 218.147 111.84C218.51 112.075 219.011 112.192 219.651 112.192C219.971 112.192 220.302 112.171 220.643 112.128C220.985 112.064 221.283 111.989 221.539 111.904C221.731 112.139 221.891 112.405 222.019 112.704C222.169 112.981 222.243 113.323 222.243 113.728C222.243 114.539 221.934 115.2 221.315 115.712C220.718 116.224 219.651 116.48 218.115 116.48C216.238 116.48 214.787 116.053 213.763 115.2C212.761 114.347 212.259 112.96 212.259 111.04V97.344C212.494 97.28 212.825 97.216 213.251 97.152C213.699 97.0667 214.169 97.024 214.659 97.024C215.598 97.024 216.323 97.1947 216.835 97.536C217.369 97.856 217.635 98.5493 217.635 99.616V101.664H221.827C221.955 101.899 222.073 102.197 222.179 102.56C222.307 102.901 222.371 103.285 222.371 103.712C222.371 104.459 222.201 105.003 221.859 105.344C221.539 105.664 221.102 105.824 220.547 105.824H217.635V110.656ZM240.368 115.968C240.154 116.032 239.813 116.096 239.344 116.16C238.896 116.224 238.426 116.256 237.936 116.256C237.466 116.256 237.04 116.224 236.656 116.16C236.293 116.096 235.984 115.968 235.728 115.776C235.472 115.584 235.269 115.328 235.12 115.008C234.992 114.667 234.928 114.229 234.928 113.696V106.592C234.928 105.717 234.704 105.109 234.256 104.768C233.829 104.405 233.296 104.224 232.656 104.224C232.229 104.224 231.824 104.277 231.44 104.384C231.056 104.491 230.746 104.619 230.512 104.768V115.968C230.298 116.032 229.957 116.096 229.488 116.16C229.04 116.224 228.57 116.256 228.08 116.256C227.61 116.256 227.184 116.224 226.8 116.16C226.437 116.096 226.128 115.968 225.872 115.776C225.616 115.584 225.413 115.328 225.264 115.008C225.136 114.667 225.072 114.229 225.072 113.696V95.136C225.306 95.0933 225.648 95.04 226.096 94.976C226.565 94.8907 227.034 94.848 227.504 94.848C227.973 94.848 228.389 94.88 228.752 94.944C229.136 95.008 229.456 95.136 229.712 95.328C229.968 95.52 230.16 95.7867 230.288 96.128C230.437 96.448 230.512 96.8747 230.512 97.408V100.544C230.789 100.437 231.205 100.32 231.76 100.192C232.336 100.043 232.965 99.968 233.648 99.968C235.76 99.968 237.402 100.501 238.576 101.568C239.77 102.613 240.368 104.181 240.368 106.272V115.968Z" fill="#1C1C1C"/>
<path d="M241.605 388.691L165.83 426.844C162.994 428.127 159.905 428.745 156.798 428.652C151.698 428.533 103.551 414.004 94.3991 411.362L60.1612 434L60 384.831L96.5033 364.396C96.5297 364.384 96.5851 364.359 96.6872 364.313C101.942 362.075 107.785 361.648 113.306 363.098C115.028 363.497 116.181 363.856 116.181 363.856L169.64 381.201C174.491 382.775 178.875 385.235 180.017 390.829C180.78 394.764 179.54 398.822 176.713 401.647C173.568 404.648 169.066 405.722 164.918 404.461L126.272 392.154L124.819 397.517L163.484 409.824C167.89 411.18 172.645 410.786 176.771 408.723C184.609 404.766 186.962 396.981 184.975 388.781L197.208 382.567C204.665 378.779 212.284 375.209 219.617 371.185C225.185 368.357 231.512 363.647 238.073 364.732C242.086 365.327 245.598 367.756 247.59 371.311C250.788 377.537 248.363 385.192 242.174 388.409C241.986 388.506 241.795 388.599 241.603 388.687L241.605 388.691ZM231.566 317.592H197.225L197.051 295.367L173.599 271.793V264.82H188.656V254H171.645V264.82H171.665L171.664 271.783L147.994 295.279L148.081 317.598L113.45 317.593C113.45 317.593 113.446 354.591 113.463 357.583C115.325 358.015 117.323 358.609 117.524 358.672L157.452 371.627L170.982 376.017C175.582 377.254 179.644 379.991 182.532 383.798C183.062 383.489 183.607 383.212 184.125 382.949L194.447 377.707C196.948 376.436 199.468 375.19 201.989 373.943C206.869 371.53 211.914 369.033 216.704 366.405L216.779 366.364L216.856 366.325C217.858 365.816 218.921 365.221 220.046 364.592C223.624 362.367 227.509 360.685 231.575 359.601L231.566 317.592ZM135.018 354.565H124.739V344.224H135.018V354.565ZM135.018 335.479H124.739V325.138H135.018V335.479ZM153.883 354.565H143.604V344.224H153.883V354.565ZM153.883 335.479H143.604V325.138H153.883V335.479ZM172.627 290.732C176.835 290.732 180.246 294.164 180.246 298.397C180.246 302.629 176.835 306.061 172.627 306.061C168.42 306.061 165.009 302.629 165.009 298.397C165.009 294.164 168.42 290.732 172.627 290.732ZM163.437 363.666V339.017C164.622 334.985 168.383 332.282 172.559 332.46C176.905 332.262 180.771 335.218 181.746 339.483C181.916 345.701 182.088 357.375 182.259 363.594C175.985 363.618 169.711 363.642 163.437 363.667L163.437 363.666ZM202.255 354.564H191.976V344.223H202.255V354.564ZM202.255 335.478H191.976V325.137H202.255V335.478ZM220.637 354.564H210.358V344.223H220.637V354.564ZM220.637 335.478H210.358V325.137H220.637V335.478Z" fill="#FFCD00"/>
<g clip-path="url(#clip1_579_1458)">
<ellipse cx="317.584" cy="241.98" rx="28.4738" ry="28.0551" fill="#FFCD00"/>
<path d="M328.404 226.102L321.714 238.889H319.52L322.613 233.085L319.019 226.102H321.377L323.773 230.941L326.207 226.102H328.404Z" fill="white"/>
<path d="M318.082 234.384H316.126V229.825C316.126 228.898 316.026 228.523 315.944 228.347C315.865 228.122 315.712 227.929 315.511 227.798C315.309 227.666 315.069 227.604 314.828 227.62C314.6 227.625 314.376 227.682 314.175 227.788C313.973 227.894 313.8 228.045 313.668 228.229C313.325 228.702 313.291 229.409 313.291 230.119V234.387H311.334V229.825C311.334 228.898 311.235 228.523 311.152 228.347C311.072 228.123 310.92 227.93 310.719 227.799C310.517 227.667 310.278 227.605 310.037 227.62C309.808 227.625 309.584 227.682 309.383 227.788C309.181 227.894 309.008 228.045 308.877 228.229C308.533 228.702 308.499 229.409 308.499 230.119V234.387H306.539V226.105H308.499V226.873C308.742 226.564 309.055 226.314 309.412 226.144C309.769 225.973 310.161 225.886 310.558 225.889C311.002 225.881 311.44 225.991 311.825 226.208C312.21 226.424 312.529 226.739 312.748 227.12C313.032 226.731 313.407 226.416 313.842 226.204C314.277 225.991 314.758 225.886 315.244 225.899C315.726 225.883 316.203 225.995 316.626 226.224C317.048 226.452 317.401 226.788 317.646 227.197C317.977 227.843 318.129 228.562 318.086 229.284V234.397L318.082 234.384Z" fill="white"/>
<path d="M334.608 258.685L325.003 248.737V257.879H322.976V243.911L332.585 253.856V244.795H334.608V258.685Z" fill="white"/>
<path d="M306.7 246.754L305.072 247.698C304.917 247.299 304.637 246.958 304.274 246.725C303.91 246.493 303.481 246.38 303.049 246.403C301.817 246.403 301.182 247.128 301.182 247.971C301.182 248.366 301.322 249.05 302.612 249.56L303.943 250.092C306.382 251.07 307.058 252.453 307.058 253.937C307.058 256.429 305.27 258.135 302.789 258.135C302.203 258.163 301.618 258.06 301.078 257.832C300.539 257.604 300.058 257.258 299.674 256.82C299.023 256.118 298.631 255.22 298.562 254.271L300.568 253.839C300.568 254.439 300.763 255.023 301.124 255.505C301.328 255.762 301.591 255.967 301.891 256.104C302.192 256.24 302.52 256.304 302.851 256.29C303.143 256.298 303.434 256.246 303.705 256.138C303.976 256.03 304.222 255.867 304.427 255.661C304.632 255.455 304.792 255.209 304.896 254.939C305.001 254.669 305.048 254.381 305.035 254.092C305.035 252.76 304.011 252.21 303.127 251.856L301.858 251.327C300.766 250.875 299.159 249.978 299.159 248.012C299.159 246.245 300.547 244.559 303.028 244.559C303.995 244.518 304.944 244.832 305.69 245.442C306.11 245.813 306.457 246.258 306.713 246.754" fill="white"/>
<path d="M314.787 247.351C314.523 247.368 314.259 247.306 314.031 247.173C313.803 247.04 313.621 246.843 313.508 246.607C313.394 246.37 313.356 246.105 313.397 245.847C313.438 245.589 313.556 245.348 313.737 245.157C313.918 244.966 314.153 244.833 314.411 244.776C314.669 244.718 314.939 244.739 315.185 244.834C315.431 244.93 315.643 245.097 315.792 245.313C315.941 245.529 316.021 245.784 316.022 246.046C316.033 246.381 315.909 246.706 315.677 246.951C315.446 247.196 315.126 247.34 314.787 247.351Z" fill="white"/>
<path d="M311.818 244.795V252.679C311.818 253.387 311.839 254.25 312.234 254.935C312.494 255.35 312.856 255.692 313.287 255.93C313.718 256.167 314.203 256.292 314.696 256.292C315.19 256.292 315.675 256.167 316.106 255.93C316.537 255.692 316.899 255.35 317.158 254.935C317.554 254.26 317.574 253.387 317.574 252.679V244.795H319.601V253.225C319.648 254.471 319.207 255.686 318.37 256.618C317.892 257.103 317.321 257.49 316.69 257.754C316.06 258.017 315.381 258.153 314.696 258.153C314.011 258.153 313.333 258.017 312.702 257.754C312.071 257.49 311.5 257.103 311.023 256.618C310.188 255.685 309.748 254.47 309.795 253.225V244.795H311.818Z" fill="white"/>
</g>
</g>
<defs>
<clipPath id="clip0_579_1458">
<rect width="383" height="435" fill="white"/>
</clipPath>
<clipPath id="clip1_579_1458">
<rect width="57" height="57" fill="white" transform="translate(289 214)"/>
</clipPath>
</defs>
</svg>
