<svg width="308" height="452" viewBox="0 0 308 452" fill="none" xmlns="http://www.w3.org/2000/svg">
<g clip-path="url(#clip0_579_1439)">
<path d="M59.5625 451.375H90.0625V401.812H59.5625V451.375ZM71 409.437H78.625V417.062H71V409.437ZM71 424.687H78.625V432.312H71V424.687Z" fill="#FFCD00"/>
<path d="M204.437 401.812H173.938V451.375H204.437V401.812ZM193 432.312H185.375V424.687H193V432.312ZM193 417.062H185.375V409.437H193V417.062Z" fill="#FFCD00"/>
<path d="M120.562 428.5H143.437V451.375H166.312V337H158.687V325.562C158.687 323.458 156.98 321.75 154.875 321.75H135.812V306.5H128.187V321.75H109.125C107.02 321.75 105.312 323.458 105.312 325.562V337H97.6875V451.375H120.562V428.5ZM109.125 352.25H154.875V359.875H109.125V352.25ZM109.125 371.312H154.875V378.937H109.125V371.312ZM109.125 390.375H154.875V398H109.125V390.375ZM109.125 409.437H154.875V417.062H109.125V409.437Z" fill="#FFCD00"/>
<path d="M29.0625 436.003V451.382H36.6875V436.003C43.26 435.499 48.125 433.059 48.125 422.407C48.125 409.773 41.2967 390.382 32.875 390.382C24.4533 390.382 17.625 409.773 17.625 422.407C17.625 433.063 22.49 435.499 29.0625 436.003Z" fill="#FFCD00"/>
<path d="M231.125 390.375C222.703 390.375 215.875 409.765 215.875 422.4C215.875 433.056 220.74 435.492 227.312 435.995V451.375H234.937V435.995C241.51 435.492 246.375 433.052 246.375 422.4C246.375 409.765 239.547 390.375 231.125 390.375Z" fill="#FFCD00"/>
<path d="M132.619 284.36C143.565 284.36 152.436 275.212 152.436 263.924C152.436 252.636 143.565 243.487 132.619 243.487C121.673 243.487 112.802 252.636 112.802 263.924C112.802 275.212 121.673 284.36 132.619 284.36ZM121.609 270.736C121.609 265.72 125.553 261.653 130.417 261.653H132.619C128.97 261.653 126.013 258.604 126.013 254.841C126.013 251.078 128.97 248.029 132.619 248.029C136.268 248.029 139.225 251.078 139.225 254.841C139.225 258.604 136.268 261.653 132.619 261.653H134.821C139.685 261.653 143.629 265.72 143.629 270.736V275.037C140.83 277.984 136.935 279.819 132.619 279.819C128.303 279.819 124.408 277.984 121.609 275.037V270.736Z" fill="#FFCD00"/>
<path d="M203.838 284.361C193.234 284.361 184.64 292.955 184.64 303.559C184.64 314.163 193.234 322.757 203.838 322.757C214.441 322.757 223.036 314.163 223.036 303.559C223.036 292.955 214.441 284.361 203.838 284.361ZM214.503 313.998C211.792 316.767 208.019 318.49 203.838 318.49C199.657 318.49 195.883 316.767 193.172 313.998V309.958C193.172 305.246 196.993 301.425 201.705 301.425H203.838C200.303 301.425 197.438 298.561 197.438 295.026C197.438 291.491 200.303 288.627 203.838 288.627C207.372 288.627 210.237 291.491 210.237 295.026C210.237 298.561 207.372 301.425 203.838 301.425H205.971C210.683 301.425 214.503 305.246 214.503 309.958V313.998Z" fill="#FFCD00"/>
<path d="M67.5935 284.361C56.9897 284.361 48.3955 292.955 48.3955 303.559C48.3955 314.163 56.9897 322.757 67.5935 322.757C78.1972 322.757 86.7914 314.163 86.7914 303.559C86.7914 292.955 78.1972 284.361 67.5935 284.361ZM78.259 313.998C75.5478 316.767 71.7744 318.49 67.5935 318.49C63.4126 318.49 59.6392 316.767 56.9279 313.998V309.958C56.9279 305.246 60.7484 301.425 65.4604 301.425H67.5935C64.0588 301.425 61.1942 298.561 61.1942 295.026C61.1942 291.491 64.0588 288.627 67.5935 288.627C71.1282 288.627 73.9928 291.491 73.9928 295.026C73.9928 298.561 71.1282 301.425 67.5935 301.425H69.7266C74.4385 301.425 78.259 305.246 78.259 309.958V313.998Z" fill="#FFCD00"/>
<path d="M146.192 308.763C158 277 174.254 230.821 228 259C285.923 289.368 356.526 157 256 157C88.0003 157 -18 301 19.9999 139" stroke="black" stroke-dasharray="8 8"/>
<path d="M14.96 6.64C12.9067 6.64 11.3333 7.26667 10.24 8.52C9.14667 9.77333 8.6 11.5467 8.6 13.84C8.6 16.16 9.2 17.9467 10.4 19.2C11.6267 20.4533 13.2667 21.08 15.32 21.08C16.4133 21.08 17.3333 20.9333 18.08 20.64C18.8533 20.3467 19.5867 20.0133 20.28 19.64C20.7333 20.0133 21.08 20.4667 21.32 21C21.5867 21.5067 21.72 22.1067 21.72 22.8C21.72 23.8933 21.1067 24.8267 19.88 25.6C18.68 26.3467 16.84 26.72 14.36 26.72C12.5733 26.72 10.8933 26.4667 9.32 25.96C7.74667 25.4533 6.37333 24.68 5.2 23.64C4.02667 22.5733 3.09333 21.24 2.4 19.64C1.73333 18.0133 1.4 16.08 1.4 13.84C1.4 11.76 1.72 9.93333 2.36 8.36C3.02667 6.76 3.92 5.41333 5.04 4.32C6.18667 3.22667 7.52 2.4 9.04 1.84C10.56 1.28 12.1867 1 13.92 1C16.3733 1 18.2667 1.4 19.6 2.2C20.96 3 21.64 4.02667 21.64 5.28C21.64 5.97333 21.4667 6.57333 21.12 7.08C20.7733 7.58667 20.3733 7.98667 19.92 8.28C19.2267 7.82667 18.48 7.44 17.68 7.12C16.9067 6.8 16 6.64 14.96 6.64ZM23.8609 13.84C23.8609 11.76 24.1809 9.92 24.8209 8.32C25.4876 6.72 26.3809 5.38667 27.5009 4.32C28.6476 3.22667 29.9809 2.4 31.5009 1.84C33.0476 1.28 34.7143 1 36.5009 1C38.2876 1 39.9409 1.28 41.4609 1.84C43.0076 2.4 44.3543 3.22667 45.5009 4.32C46.6476 5.38667 47.5409 6.72 48.1809 8.32C48.8476 9.92 49.1809 11.76 49.1809 13.84C49.1809 15.92 48.8609 17.7733 48.2209 19.4C47.5809 21 46.6876 22.3467 45.5409 23.44C44.4209 24.5067 43.0876 25.32 41.5409 25.88C39.9943 26.44 38.3143 26.72 36.5009 26.72C34.6876 26.72 33.0076 26.44 31.4609 25.88C29.9143 25.2933 28.5809 24.4533 27.4609 23.36C26.3409 22.2667 25.4609 20.92 24.8209 19.32C24.1809 17.72 23.8609 15.8933 23.8609 13.84ZM31.0609 13.84C31.0609 16.2667 31.5543 18.08 32.5409 19.28C33.5276 20.48 34.8476 21.08 36.5009 21.08C38.1809 21.08 39.5143 20.48 40.5009 19.28C41.4876 18.08 41.9809 16.2667 41.9809 13.84C41.9809 11.44 41.4876 9.64 40.5009 8.44C39.5409 7.24 38.2209 6.64 36.5409 6.64C34.8876 6.64 33.5543 7.24 32.5409 8.44C31.5543 9.61333 31.0609 11.4133 31.0609 13.84ZM60.1459 18.16V25.84C59.8526 25.92 59.3859 26 58.7459 26.08C58.1326 26.16 57.5193 26.2 56.9059 26.2C56.2926 26.2 55.7459 26.1467 55.2659 26.04C54.8126 25.96 54.4259 25.8 54.1059 25.56C53.8126 25.32 53.5859 24.9867 53.4259 24.56C53.2659 24.1333 53.1859 23.5733 53.1859 22.88V4.04C53.1859 3.48 53.3326 3.05333 53.6259 2.76C53.9459 2.44 54.3726 2.18666 54.9059 2C55.8126 1.68 56.8659 1.45333 58.0659 1.32C59.2659 1.16 60.5459 1.08 61.9059 1.08C65.5859 1.08 68.3593 1.85333 70.2259 3.4C72.0926 4.94667 73.0259 7.04 73.0259 9.68C73.0259 11.3333 72.5993 12.7467 71.7459 13.92C70.8926 15.0933 69.8793 16 68.7059 16.64C69.6659 17.9467 70.6126 19.1733 71.5459 20.32C72.4793 21.4667 73.2126 22.5067 73.7459 23.44C73.4793 24.3733 72.9859 25.0933 72.2659 25.6C71.5726 26.08 70.7859 26.32 69.9059 26.32C69.3193 26.32 68.8126 26.2533 68.3859 26.12C67.9593 25.9867 67.5859 25.8 67.2659 25.56C66.9459 25.32 66.6526 25.0267 66.3859 24.68C66.1193 24.3333 65.8659 23.96 65.6259 23.56L62.2659 18.16H60.1459ZM62.6659 12.84C63.6793 12.84 64.4793 12.5867 65.0659 12.08C65.6526 11.5467 65.9459 10.7733 65.9459 9.76C65.9459 8.74667 65.6126 7.98667 64.9459 7.48C64.3059 6.94667 63.2793 6.68 61.8659 6.68C61.4659 6.68 61.1459 6.69333 60.9059 6.72C60.6659 6.74667 60.3993 6.78667 60.1059 6.84V12.84H62.6659ZM86.6409 13C87.7609 13 88.6143 12.7467 89.2009 12.24C89.8143 11.7067 90.1209 10.9067 90.1209 9.84C90.1209 8.82667 89.8009 8.05333 89.1609 7.52C88.5476 6.96 87.6409 6.68 86.4409 6.68C86.0143 6.68 85.6543 6.69333 85.3609 6.72C85.0943 6.72 84.8143 6.74667 84.5209 6.8V13H86.6409ZM84.5609 25.84C84.2676 25.92 83.8009 26 83.1609 26.08C82.5476 26.16 81.9343 26.2 81.3209 26.2C80.7076 26.2 80.1609 26.1467 79.6809 26.04C79.2276 25.96 78.8409 25.8 78.5209 25.56C78.2009 25.32 77.9609 24.9867 77.8009 24.56C77.6409 24.1333 77.5609 23.5733 77.5609 22.88V4.04C77.5609 3.48 77.7076 3.05333 78.0009 2.76C78.3209 2.44 78.7476 2.18666 79.2809 2C80.1876 1.68 81.2143 1.45333 82.3609 1.32C83.5343 1.16 84.7076 1.08 85.8809 1.08C89.5609 1.08 92.3743 1.86667 94.3209 3.44C96.2676 5.01333 97.2409 7.14667 97.2409 9.84C97.2409 11.1467 97.0276 12.3333 96.6009 13.4C96.2009 14.44 95.5876 15.3467 94.7609 16.12C93.9609 16.8667 92.9343 17.4533 91.6809 17.88C90.4543 18.28 89.0276 18.48 87.4009 18.48H84.5609V25.84ZM99.6031 13.84C99.6031 11.76 99.9231 9.92 100.563 8.32C101.23 6.72 102.123 5.38667 103.243 4.32C104.39 3.22667 105.723 2.4 107.243 1.84C108.79 1.28 110.456 1 112.243 1C114.03 1 115.683 1.28 117.203 1.84C118.75 2.4 120.096 3.22667 121.243 4.32C122.39 5.38667 123.283 6.72 123.923 8.32C124.59 9.92 124.923 11.76 124.923 13.84C124.923 15.92 124.603 17.7733 123.963 19.4C123.323 21 122.43 22.3467 121.283 23.44C120.163 24.5067 118.83 25.32 117.283 25.88C115.736 26.44 114.056 26.72 112.243 26.72C110.43 26.72 108.75 26.44 107.203 25.88C105.656 25.2933 104.323 24.4533 103.203 23.36C102.083 22.2667 101.203 20.92 100.563 19.32C99.9231 17.72 99.6031 15.8933 99.6031 13.84ZM106.803 13.84C106.803 16.2667 107.296 18.08 108.283 19.28C109.27 20.48 110.59 21.08 112.243 21.08C113.923 21.08 115.256 20.48 116.243 19.28C117.23 18.08 117.723 16.2667 117.723 13.84C117.723 11.44 117.23 9.64 116.243 8.44C115.283 7.24 113.963 6.64 112.283 6.64C110.63 6.64 109.296 7.24 108.283 8.44C107.296 9.61333 106.803 11.4133 106.803 13.84ZM135.888 18.16V25.84C135.595 25.92 135.128 26 134.488 26.08C133.875 26.16 133.261 26.2 132.648 26.2C132.035 26.2 131.488 26.1467 131.008 26.04C130.555 25.96 130.168 25.8 129.848 25.56C129.555 25.32 129.328 24.9867 129.168 24.56C129.008 24.1333 128.928 23.5733 128.928 22.88V4.04C128.928 3.48 129.075 3.05333 129.368 2.76C129.688 2.44 130.115 2.18666 130.648 2C131.555 1.68 132.608 1.45333 133.808 1.32C135.008 1.16 136.288 1.08 137.648 1.08C141.328 1.08 144.101 1.85333 145.968 3.4C147.835 4.94667 148.768 7.04 148.768 9.68C148.768 11.3333 148.341 12.7467 147.488 13.92C146.635 15.0933 145.621 16 144.448 16.64C145.408 17.9467 146.355 19.1733 147.288 20.32C148.221 21.4667 148.955 22.5067 149.488 23.44C149.221 24.3733 148.728 25.0933 148.008 25.6C147.315 26.08 146.528 26.32 145.648 26.32C145.061 26.32 144.555 26.2533 144.128 26.12C143.701 25.9867 143.328 25.8 143.008 25.56C142.688 25.32 142.395 25.0267 142.128 24.68C141.861 24.3333 141.608 23.96 141.368 23.56L138.008 18.16H135.888ZM138.408 12.84C139.421 12.84 140.221 12.5867 140.808 12.08C141.395 11.5467 141.688 10.7733 141.688 9.76C141.688 8.74667 141.355 7.98667 140.688 7.48C140.048 6.94667 139.021 6.68 137.608 6.68C137.208 6.68 136.888 6.69333 136.648 6.72C136.408 6.74667 136.141 6.78667 135.848 6.84V12.84H138.408ZM158.776 2.48C159.229 2.21333 159.909 1.96 160.816 1.72C161.749 1.48 162.682 1.36 163.616 1.36C164.949 1.36 166.122 1.56 167.136 1.96C168.176 2.33333 168.842 2.93333 169.136 3.76C169.616 5.14667 170.136 6.76 170.696 8.6C171.256 10.44 171.816 12.3467 172.376 14.32C172.936 16.2667 173.482 18.2 174.016 20.12C174.549 22.0133 175.016 23.6933 175.416 25.16C175.096 25.5333 174.616 25.8267 173.976 26.04C173.336 26.28 172.576 26.4 171.696 26.4C171.056 26.4 170.509 26.3467 170.056 26.24C169.629 26.1333 169.269 25.9733 168.976 25.76C168.709 25.5467 168.482 25.2667 168.296 24.92C168.136 24.5733 167.989 24.1733 167.856 23.72L167.136 20.96H159.896C159.682 21.76 159.469 22.5867 159.256 23.44C159.042 24.2933 158.829 25.12 158.616 25.92C158.242 26.0533 157.842 26.16 157.416 26.24C157.016 26.3467 156.522 26.4 155.936 26.4C154.576 26.4 153.562 26.1733 152.896 25.72C152.256 25.24 151.936 24.5867 151.936 23.76C151.936 23.3867 151.989 23.0133 152.096 22.64C152.202 22.2667 152.322 21.8267 152.456 21.32C152.642 20.6 152.896 19.7067 153.216 18.64C153.562 17.5733 153.936 16.4267 154.336 15.2C154.736 13.9467 155.162 12.6667 155.616 11.36C156.069 10.0533 156.496 8.82667 156.896 7.68C157.296 6.50667 157.656 5.46667 157.976 4.56C158.322 3.65333 158.589 2.96 158.776 2.48ZM163.576 7.64C163.202 8.76 162.776 10.0133 162.296 11.4C161.842 12.76 161.429 14.1467 161.056 15.56H166.016C165.642 14.12 165.256 12.72 164.856 11.36C164.482 9.97333 164.136 8.73333 163.816 7.64H163.576ZM176.168 7.36C175.981 7.06667 175.808 6.66667 175.648 6.16C175.488 5.65333 175.408 5.12 175.408 4.56C175.408 3.52 175.634 2.77333 176.088 2.32C176.568 1.86667 177.181 1.64 177.928 1.64H195.368C195.554 1.93333 195.728 2.33333 195.888 2.84C196.048 3.34667 196.128 3.88 196.128 4.44C196.128 5.48 195.888 6.22667 195.408 6.68C194.954 7.13333 194.354 7.36 193.608 7.36H189.168V25.84C188.874 25.92 188.408 26 187.768 26.08C187.154 26.16 186.541 26.2 185.928 26.2C185.314 26.2 184.768 26.1467 184.288 26.04C183.834 25.96 183.448 25.8 183.128 25.56C182.808 25.32 182.568 24.9867 182.408 24.56C182.248 24.1333 182.168 23.5733 182.168 22.88V7.36H176.168ZM199.514 5.48C199.514 4.33333 199.847 3.42666 200.514 2.76C201.181 2.09333 202.087 1.76 203.234 1.76H216.434C216.621 2.05333 216.781 2.44 216.914 2.92C217.074 3.4 217.154 3.90667 217.154 4.44C217.154 5.45333 216.927 6.17333 216.474 6.6C216.047 7.02667 215.474 7.24 214.754 7.24H206.314V10.96H215.314C215.501 11.2533 215.661 11.64 215.794 12.12C215.954 12.5733 216.034 13.0667 216.034 13.6C216.034 14.6133 215.821 15.3333 215.394 15.76C214.967 16.1867 214.394 16.4 213.674 16.4H206.314V20.6H216.594C216.781 20.8933 216.941 21.28 217.074 21.76C217.234 22.24 217.314 22.7467 217.314 23.28C217.314 24.2933 217.087 25.0267 216.634 25.48C216.207 25.9067 215.634 26.12 214.914 26.12H203.234C202.087 26.12 201.181 25.7867 200.514 25.12C199.847 24.4533 199.514 23.5467 199.514 22.4V5.48ZM220.108 10.2C220.108 9.08 220.455 8.14667 221.148 7.4C221.841 6.65333 222.788 6.28 223.988 6.28C225.188 6.28 226.135 6.65333 226.828 7.4C227.521 8.14667 227.868 9.08 227.868 10.2C227.868 11.32 227.521 12.2533 226.828 13C226.135 13.7467 225.188 14.12 223.988 14.12C222.788 14.12 221.841 13.7467 221.148 13C220.455 12.2533 220.108 11.32 220.108 10.2ZM220.108 22.76C220.108 21.64 220.455 20.7067 221.148 19.96C221.841 19.2133 222.788 18.84 223.988 18.84C225.188 18.84 226.135 19.2133 226.828 19.96C227.521 20.7067 227.868 21.64 227.868 22.76C227.868 23.88 227.521 24.8133 226.828 25.56C226.135 26.3067 225.188 26.68 223.988 26.68C222.788 26.68 221.841 26.3067 221.148 25.56C220.455 24.8133 220.108 23.88 220.108 22.76ZM7.648 64.728V70.872C7.41333 70.936 7.04 71 6.528 71.064C6.03733 71.128 5.54667 71.16 5.056 71.16C4.56533 71.16 4.128 71.1173 3.744 71.032C3.38133 70.968 3.072 70.84 2.816 70.648C2.58133 70.456 2.4 70.1893 2.272 69.848C2.144 69.5067 2.08 69.0587 2.08 68.504V53.432C2.08 52.984 2.19733 52.6427 2.432 52.408C2.688 52.152 3.02933 51.9493 3.456 51.8C4.18133 51.544 5.024 51.3627 5.984 51.256C6.944 51.128 7.968 51.064 9.056 51.064C12 51.064 14.2187 51.6827 15.712 52.92C17.2053 54.1573 17.952 55.832 17.952 57.944C17.952 59.2667 17.6107 60.3973 16.928 61.336C16.2453 62.2747 15.4347 63 14.496 63.512C15.264 64.5573 16.0213 65.5387 16.768 66.456C17.5147 67.3733 18.1013 68.2053 18.528 68.952C18.3147 69.6987 17.92 70.2747 17.344 70.68C16.7893 71.064 16.16 71.256 15.456 71.256C14.9867 71.256 14.5813 71.2027 14.24 71.096C13.8987 70.9893 13.6 70.84 13.344 70.648C13.088 70.456 12.8533 70.2213 12.64 69.944C12.4267 69.6667 12.224 69.368 12.032 69.048L9.344 64.728H7.648ZM9.664 60.472C10.4747 60.472 11.1147 60.2693 11.584 59.864C12.0533 59.4373 12.288 58.8187 12.288 58.008C12.288 57.1973 12.0213 56.5893 11.488 56.184C10.976 55.7573 10.1547 55.544 9.024 55.544C8.704 55.544 8.448 55.5547 8.256 55.576C8.064 55.5973 7.85067 55.6293 7.616 55.672V60.472H9.664ZM28.9193 71.512C27.6606 71.512 26.4873 71.3413 25.3993 71C24.3326 70.6373 23.3939 70.104 22.5833 69.4C21.7939 68.696 21.1646 67.8107 20.6953 66.744C20.2473 65.6773 20.0233 64.4293 20.0233 63C20.0233 61.592 20.2473 60.3867 20.6953 59.384C21.1646 58.36 21.7726 57.528 22.5193 56.888C23.2659 56.2267 24.1193 55.7467 25.0793 55.448C26.0393 55.128 27.0206 54.968 28.0233 54.968C29.1539 54.968 30.1779 55.1387 31.0953 55.48C32.0339 55.8213 32.8339 56.2907 33.4953 56.888C34.1779 57.4853 34.7006 58.2 35.0633 59.032C35.4473 59.864 35.6393 60.7707 35.6393 61.752C35.6393 62.4773 35.4366 63.032 35.0312 63.416C34.6259 63.8 34.0606 64.0453 33.3353 64.152L25.4313 65.336C25.6659 66.04 26.1459 66.5733 26.8713 66.936C27.5966 67.2773 28.4286 67.448 29.3673 67.448C30.2419 67.448 31.0633 67.3413 31.8313 67.128C32.6206 66.8933 33.2606 66.6267 33.7513 66.328C34.0926 66.5413 34.3806 66.84 34.6153 67.224C34.8499 67.608 34.9673 68.0133 34.9673 68.44C34.9673 69.4 34.5193 70.1147 33.6233 70.584C32.9406 70.9467 32.1726 71.192 31.3193 71.32C30.4659 71.448 29.6659 71.512 28.9193 71.512ZM28.0233 58.936C27.5113 58.936 27.0633 59.0213 26.6793 59.192C26.3166 59.3627 26.0179 59.5867 25.7833 59.864C25.5486 60.12 25.3673 60.4187 25.2393 60.76C25.1326 61.08 25.0686 61.4107 25.0473 61.752L30.5193 60.856C30.4553 60.4293 30.2206 60.0027 29.8153 59.576C29.4099 59.1493 28.8126 58.936 28.0233 58.936ZM45.8418 54.968C47.0578 54.968 48.1564 55.128 49.1378 55.448C50.1404 55.7467 50.9831 56.1413 51.6658 56.632C52.0924 56.9307 52.4231 57.2613 52.6578 57.624C52.9138 57.9867 53.0417 58.456 53.0417 59.032V70.232C53.0417 71.3627 52.8284 72.3333 52.4018 73.144C51.9751 73.976 51.3884 74.6587 50.6418 75.192C49.9164 75.7467 49.0524 76.152 48.0498 76.408C47.0684 76.664 46.0124 76.792 44.8818 76.792C42.9404 76.792 41.4151 76.5253 40.3058 75.992C39.1964 75.48 38.6418 74.6373 38.6418 73.464C38.6418 72.9733 38.7378 72.536 38.9298 72.152C39.1431 71.7893 39.3778 71.512 39.6338 71.32C40.2524 71.6613 40.9458 71.9493 41.7138 72.184C42.5031 72.4187 43.3138 72.536 44.1458 72.536C45.2978 72.536 46.2151 72.344 46.8978 71.96C47.5804 71.576 47.9218 70.9573 47.9218 70.104V69.592C47.0471 69.976 45.9804 70.168 44.7218 70.168C43.7618 70.168 42.8444 70.0293 41.9698 69.752C41.1164 69.4533 40.3591 69.0053 39.6978 68.408C39.0578 67.7893 38.5351 67 38.1298 66.04C37.7458 65.08 37.5538 63.9387 37.5538 62.616C37.5538 61.3147 37.7564 60.184 38.1618 59.224C38.5884 58.264 39.1644 57.4747 39.8898 56.856C40.6364 56.216 41.5111 55.7467 42.5138 55.448C43.5378 55.128 44.6471 54.968 45.8418 54.968ZM47.8258 59.608C47.6764 59.5227 47.4524 59.4373 47.1538 59.352C46.8764 59.2667 46.5244 59.224 46.0978 59.224C45.0524 59.224 44.2631 59.5227 43.7298 60.12C43.2178 60.696 42.9618 61.528 42.9618 62.616C42.9618 63.8533 43.2178 64.7493 43.7298 65.304C44.2631 65.8373 44.9351 66.104 45.7458 66.104C46.6204 66.104 47.3138 65.9013 47.8258 65.496V59.608ZM56.286 51.128C56.286 50.3173 56.5527 49.6347 57.086 49.08C57.6407 48.5253 58.366 48.248 59.262 48.248C60.158 48.248 60.8727 48.5253 61.406 49.08C61.9607 49.6347 62.238 50.3173 62.238 51.128C62.238 51.9387 61.9607 52.6213 61.406 53.176C60.8727 53.7307 60.158 54.008 59.262 54.008C58.366 54.008 57.6407 53.7307 57.086 53.176C56.5527 52.6213 56.286 51.9387 56.286 51.128ZM61.982 70.968C61.7473 71.0107 61.3953 71.064 60.926 71.128C60.478 71.2133 60.0193 71.256 59.55 71.256C59.0807 71.256 58.654 71.224 58.27 71.16C57.9073 71.096 57.598 70.968 57.342 70.776C57.086 70.584 56.8833 70.328 56.734 70.008C56.606 69.6667 56.542 69.2293 56.542 68.696V55.672C56.7767 55.6293 57.118 55.576 57.566 55.512C58.0353 55.4267 58.5047 55.384 58.974 55.384C59.4433 55.384 59.8593 55.416 60.222 55.48C60.606 55.544 60.926 55.672 61.182 55.864C61.438 56.056 61.63 56.3227 61.758 56.664C61.9073 56.984 61.982 57.4107 61.982 57.944V70.968ZM81.5413 63.224C81.5413 64.5467 81.3386 65.7307 80.9333 66.776C80.5279 67.8 79.9519 68.664 79.2053 69.368C78.4799 70.072 77.6053 70.6053 76.5813 70.968C75.5573 71.3307 74.4159 71.512 73.1573 71.512C71.8986 71.512 70.7573 71.32 69.7333 70.936C68.7093 70.552 67.8239 70.008 67.0773 69.304C66.3519 68.5787 65.7866 67.704 65.3813 66.68C64.9759 65.656 64.7733 64.504 64.7733 63.224C64.7733 61.9653 64.9759 60.824 65.3813 59.8C65.7866 58.776 66.3519 57.912 67.0773 57.208C67.8239 56.4827 68.7093 55.928 69.7333 55.544C70.7573 55.16 71.8986 54.968 73.1573 54.968C74.4159 54.968 75.5573 55.1707 76.5813 55.576C77.6053 55.96 78.4799 56.5147 79.2053 57.24C79.9519 57.944 80.5279 58.808 80.9333 59.832C81.3386 60.856 81.5413 61.9867 81.5413 63.224ZM70.3413 63.224C70.3413 64.5253 70.5866 65.528 71.0773 66.232C71.5893 66.9147 72.2933 67.256 73.1892 67.256C74.0853 67.256 74.7679 66.904 75.2373 66.2C75.7279 65.496 75.9733 64.504 75.9733 63.224C75.9733 61.944 75.7279 60.9627 75.2373 60.28C74.7466 59.576 74.0533 59.224 73.1573 59.224C72.2613 59.224 71.5679 59.576 71.0773 60.28C70.5866 60.9627 70.3413 61.944 70.3413 63.224ZM94.0513 61.144C94.0513 60.4827 93.8593 60.0027 93.4753 59.704C93.1126 59.384 92.6113 59.224 91.9713 59.224C91.5446 59.224 91.1179 59.2773 90.6913 59.384C90.2859 59.4907 89.9339 59.6507 89.6353 59.864V70.968C89.4219 71.032 89.0806 71.096 88.6113 71.16C88.1633 71.224 87.6939 71.256 87.2033 71.256C86.7339 71.256 86.3073 71.224 85.9233 71.16C85.5606 71.096 85.2513 70.968 84.9953 70.776C84.7393 70.584 84.5366 70.328 84.3873 70.008C84.2593 69.6667 84.1953 69.2293 84.1953 68.696V59.096C84.1953 58.52 84.3126 58.0507 84.5473 57.688C84.8033 57.3253 85.1446 56.9947 85.5713 56.696C86.2966 56.184 87.2033 55.768 88.2913 55.448C89.4006 55.128 90.6273 54.968 91.9713 54.968C94.3819 54.968 96.2379 55.5013 97.5393 56.568C98.8406 57.6133 99.4913 59.0747 99.4913 60.952V70.968C99.2779 71.032 98.9366 71.096 98.4673 71.16C98.0193 71.224 97.5499 71.256 97.0593 71.256C96.5899 71.256 96.1633 71.224 95.7793 71.16C95.4166 71.096 95.1073 70.968 94.8513 70.776C94.5953 70.584 94.3926 70.328 94.2433 70.008C94.1153 69.6667 94.0513 69.2293 94.0513 68.696V61.144ZM109.508 67.544C109.87 67.544 110.265 67.512 110.692 67.448C111.14 67.3627 111.47 67.256 111.684 67.128V64.568L109.38 64.76C108.782 64.8027 108.292 64.9307 107.908 65.144C107.524 65.3573 107.332 65.6773 107.332 66.104C107.332 66.5307 107.492 66.8827 107.812 67.16C108.153 67.416 108.718 67.544 109.508 67.544ZM109.252 54.968C110.404 54.968 111.449 55.0853 112.388 55.32C113.348 55.5547 114.158 55.9173 114.82 56.408C115.502 56.8773 116.025 57.4853 116.388 58.232C116.75 58.9573 116.932 59.8213 116.932 60.824V67.992C116.932 68.5467 116.772 69.0053 116.452 69.368C116.153 69.7093 115.79 70.008 115.364 70.264C113.977 71.096 112.025 71.512 109.508 71.512C108.377 71.512 107.353 71.4053 106.436 71.192C105.54 70.9787 104.761 70.6587 104.1 70.232C103.46 69.8053 102.958 69.2613 102.596 68.6C102.254 67.9387 102.084 67.1707 102.084 66.296C102.084 64.824 102.521 63.6933 103.396 62.904C104.27 62.1147 105.625 61.624 107.46 61.432L111.652 60.984V60.76C111.652 60.1413 111.374 59.704 110.82 59.448C110.286 59.1707 109.508 59.032 108.484 59.032C107.673 59.032 106.884 59.1173 106.116 59.288C105.348 59.4587 104.654 59.672 104.036 59.928C103.758 59.736 103.524 59.448 103.332 59.064C103.14 58.6587 103.044 58.2427 103.044 57.816C103.044 57.2613 103.172 56.824 103.428 56.504C103.705 56.1627 104.121 55.8747 104.676 55.64C105.294 55.4053 106.02 55.2347 106.852 55.128C107.705 55.0213 108.505 54.968 109.252 54.968ZM125.794 70.968C125.559 71.0107 125.207 71.064 124.738 71.128C124.29 71.2133 123.831 71.256 123.362 71.256C122.892 71.256 122.466 71.224 122.082 71.16C121.719 71.096 121.41 70.968 121.154 70.776C120.898 70.584 120.695 70.328 120.546 70.008C120.418 69.6667 120.354 69.2293 120.354 68.696V50.136C120.588 50.0933 120.93 50.04 121.378 49.976C121.847 49.8907 122.316 49.848 122.786 49.848C123.255 49.848 123.671 49.88 124.034 49.944C124.418 50.008 124.738 50.136 124.994 50.328C125.25 50.52 125.442 50.7867 125.57 51.128C125.719 51.448 125.794 51.8747 125.794 52.408V70.968ZM141.617 64.728V70.872C141.382 70.936 141.009 71 140.497 71.064C140.006 71.128 139.515 71.16 139.025 71.16C138.534 71.16 138.097 71.1173 137.713 71.032C137.35 70.968 137.041 70.84 136.785 70.648C136.55 70.456 136.369 70.1893 136.241 69.848C136.113 69.5067 136.049 69.0587 136.049 68.504V53.432C136.049 52.984 136.166 52.6427 136.401 52.408C136.657 52.152 136.998 51.9493 137.425 51.8C138.15 51.544 138.993 51.3627 139.953 51.256C140.913 51.128 141.937 51.064 143.025 51.064C145.969 51.064 148.187 51.6827 149.681 52.92C151.174 54.1573 151.921 55.832 151.921 57.944C151.921 59.2667 151.579 60.3973 150.897 61.336C150.214 62.2747 149.403 63 148.465 63.512C149.233 64.5573 149.99 65.5387 150.737 66.456C151.483 67.3733 152.07 68.2053 152.497 68.952C152.283 69.6987 151.889 70.2747 151.313 70.68C150.758 71.064 150.129 71.256 149.425 71.256C148.955 71.256 148.55 71.2027 148.209 71.096C147.867 70.9893 147.569 70.84 147.313 70.648C147.057 70.456 146.822 70.2213 146.609 69.944C146.395 69.6667 146.193 69.368 146.001 69.048L143.313 64.728H141.617ZM143.633 60.472C144.443 60.472 145.083 60.2693 145.553 59.864C146.022 59.4373 146.257 58.8187 146.257 58.008C146.257 57.1973 145.99 56.5893 145.457 56.184C144.945 55.7573 144.123 55.544 142.993 55.544C142.673 55.544 142.417 55.5547 142.225 55.576C142.033 55.5973 141.819 55.6293 141.585 55.672V60.472H143.633ZM155.005 51.128C155.005 50.3173 155.271 49.6347 155.805 49.08C156.359 48.5253 157.085 48.248 157.981 48.248C158.877 48.248 159.591 48.5253 160.125 49.08C160.679 49.6347 160.957 50.3173 160.957 51.128C160.957 51.9387 160.679 52.6213 160.125 53.176C159.591 53.7307 158.877 54.008 157.981 54.008C157.085 54.008 156.359 53.7307 155.805 53.176C155.271 52.6213 155.005 51.9387 155.005 51.128ZM160.701 70.968C160.466 71.0107 160.114 71.064 159.645 71.128C159.197 71.2133 158.738 71.256 158.269 71.256C157.799 71.256 157.373 71.224 156.989 71.16C156.626 71.096 156.317 70.968 156.061 70.776C155.805 70.584 155.602 70.328 155.453 70.008C155.325 69.6667 155.261 69.2293 155.261 68.696V55.672C155.495 55.6293 155.837 55.576 156.285 55.512C156.754 55.4267 157.223 55.384 157.693 55.384C158.162 55.384 158.578 55.416 158.941 55.48C159.325 55.544 159.645 55.672 159.901 55.864C160.157 56.056 160.349 56.3227 160.477 56.664C160.626 56.984 160.701 57.4107 160.701 57.944V70.968ZM174.564 70.584C174.265 70.8187 173.828 71.0107 173.252 71.16C172.676 71.3093 172.025 71.384 171.3 71.384C170.468 71.384 169.743 71.2773 169.124 71.064C168.527 70.8507 168.111 70.5093 167.876 70.04C167.684 69.6773 167.449 69.176 167.172 68.536C166.916 67.8747 166.639 67.1493 166.34 66.36C166.041 65.5493 165.732 64.6853 165.412 63.768C165.092 62.8507 164.783 61.944 164.484 61.048C164.207 60.152 163.951 59.288 163.716 58.456C163.481 57.624 163.289 56.888 163.14 56.248C163.439 55.9493 163.833 55.6933 164.324 55.48C164.836 55.2453 165.391 55.128 165.988 55.128C166.735 55.128 167.343 55.288 167.812 55.608C168.303 55.9067 168.665 56.4827 168.9 57.336L170.148 62.232C170.383 63.192 170.607 64.0667 170.82 64.856C171.033 65.624 171.193 66.2213 171.3 66.648H171.46C171.865 65.0693 172.292 63.32 172.74 61.4C173.188 59.48 173.593 57.592 173.956 55.736C174.319 55.544 174.724 55.3947 175.172 55.288C175.641 55.1813 176.089 55.128 176.516 55.128C177.263 55.128 177.892 55.288 178.404 55.608C178.916 55.928 179.172 56.4827 179.172 57.272C179.172 57.6133 179.087 58.1147 178.916 58.776C178.767 59.416 178.564 60.152 178.308 60.984C178.073 61.7947 177.785 62.6587 177.444 63.576C177.124 64.4933 176.793 65.3893 176.452 66.264C176.111 67.1387 175.769 67.96 175.428 68.728C175.108 69.4747 174.82 70.0933 174.564 70.584ZM187.945 67.544C188.308 67.544 188.702 67.512 189.129 67.448C189.577 67.3627 189.908 67.256 190.121 67.128V64.568L187.817 64.76C187.22 64.8027 186.729 64.9307 186.345 65.144C185.961 65.3573 185.769 65.6773 185.769 66.104C185.769 66.5307 185.929 66.8827 186.249 67.16C186.59 67.416 187.156 67.544 187.945 67.544ZM187.689 54.968C188.841 54.968 189.886 55.0853 190.825 55.32C191.785 55.5547 192.596 55.9173 193.257 56.408C193.94 56.8773 194.462 57.4853 194.825 58.232C195.188 58.9573 195.369 59.8213 195.369 60.824V67.992C195.369 68.5467 195.209 69.0053 194.889 69.368C194.59 69.7093 194.228 70.008 193.801 70.264C192.414 71.096 190.462 71.512 187.945 71.512C186.814 71.512 185.79 71.4053 184.873 71.192C183.977 70.9787 183.198 70.6587 182.537 70.232C181.897 69.8053 181.396 69.2613 181.033 68.6C180.692 67.9387 180.521 67.1707 180.521 66.296C180.521 64.824 180.958 63.6933 181.833 62.904C182.708 62.1147 184.062 61.624 185.897 61.432L190.089 60.984V60.76C190.089 60.1413 189.812 59.704 189.257 59.448C188.724 59.1707 187.945 59.032 186.921 59.032C186.11 59.032 185.321 59.1173 184.553 59.288C183.785 59.4587 183.092 59.672 182.473 59.928C182.196 59.736 181.961 59.448 181.769 59.064C181.577 58.6587 181.481 58.2427 181.481 57.816C181.481 57.2613 181.609 56.824 181.865 56.504C182.142 56.1627 182.558 55.8747 183.113 55.64C183.732 55.4053 184.457 55.2347 185.289 55.128C186.142 55.0213 186.942 54.968 187.689 54.968ZM204.231 70.968C203.997 71.0107 203.645 71.064 203.175 71.128C202.727 71.2133 202.269 71.256 201.799 71.256C201.33 71.256 200.903 71.224 200.519 71.16C200.157 71.096 199.847 70.968 199.591 70.776C199.335 70.584 199.133 70.328 198.983 70.008C198.855 69.6667 198.791 69.2293 198.791 68.696V50.136C199.026 50.0933 199.367 50.04 199.815 49.976C200.285 49.8907 200.754 49.848 201.223 49.848C201.693 49.848 202.109 49.88 202.471 49.944C202.855 50.008 203.175 50.136 203.431 50.328C203.687 50.52 203.879 50.7867 204.007 51.128C204.157 51.448 204.231 51.8747 204.231 52.408V70.968ZM220.784 66.36C220.784 67.9813 220.176 69.2507 218.96 70.168C217.744 71.0853 215.952 71.544 213.584 71.544C212.688 71.544 211.856 71.48 211.088 71.352C210.32 71.224 209.659 71.032 209.104 70.776C208.571 70.4987 208.144 70.1573 207.824 69.752C207.525 69.3467 207.376 68.8667 207.376 68.312C207.376 67.8 207.483 67.3733 207.696 67.032C207.909 66.6693 208.165 66.3707 208.464 66.136C209.083 66.4773 209.787 66.7867 210.576 67.064C211.387 67.32 212.315 67.448 213.36 67.448C214.021 67.448 214.523 67.352 214.864 67.16C215.227 66.968 215.408 66.712 215.408 66.392C215.408 66.0933 215.28 65.8587 215.024 65.688C214.768 65.5173 214.341 65.3787 213.744 65.272L212.784 65.08C210.928 64.7173 209.541 64.152 208.624 63.384C207.728 62.5947 207.28 61.4747 207.28 60.024C207.28 59.2347 207.451 58.52 207.792 57.88C208.133 57.24 208.613 56.7067 209.232 56.28C209.851 55.8533 210.587 55.5227 211.44 55.288C212.315 55.0533 213.275 54.936 214.32 54.936C215.109 54.936 215.845 55 216.528 55.128C217.232 55.2347 217.84 55.4053 218.352 55.64C218.864 55.8747 219.269 56.184 219.568 56.568C219.867 56.9307 220.016 57.368 220.016 57.88C220.016 58.3707 219.92 58.7973 219.728 59.16C219.557 59.5013 219.333 59.7893 219.056 60.024C218.885 59.9173 218.629 59.8107 218.288 59.704C217.947 59.576 217.573 59.4693 217.168 59.384C216.763 59.2773 216.347 59.192 215.92 59.128C215.515 59.064 215.141 59.032 214.8 59.032C214.096 59.032 213.552 59.1173 213.168 59.288C212.784 59.4373 212.592 59.6827 212.592 60.024C212.592 60.2587 212.699 60.4507 212.912 60.6C213.125 60.7493 213.531 60.888 214.128 61.016L215.12 61.24C217.168 61.7093 218.619 62.36 219.472 63.192C220.347 64.0027 220.784 65.0587 220.784 66.36ZM229.884 55.448C229.884 54.36 230.066 53.432 230.428 52.664C230.812 51.8747 231.324 51.2347 231.964 50.744C232.604 50.232 233.351 49.8587 234.204 49.624C235.079 49.3893 236.007 49.272 236.988 49.272C238.567 49.272 239.73 49.4853 240.476 49.912C241.223 50.3173 241.596 51.0213 241.596 52.024C241.596 52.4507 241.5 52.8347 241.308 53.176C241.138 53.5173 240.946 53.7733 240.732 53.944C240.327 53.8373 239.9 53.752 239.452 53.688C239.026 53.6027 238.524 53.56 237.948 53.56C237.031 53.56 236.316 53.72 235.804 54.04C235.292 54.3387 235.036 54.872 235.036 55.64V56.664H240.284C240.412 56.8987 240.53 57.1973 240.636 57.56C240.764 57.9013 240.828 58.2853 240.828 58.712C240.828 59.4587 240.658 60.0027 240.316 60.344C239.996 60.664 239.559 60.824 239.004 60.824H235.324V70.968C235.111 71.032 234.77 71.096 234.3 71.16C233.852 71.224 233.383 71.256 232.892 71.256C232.423 71.256 231.996 71.224 231.612 71.16C231.25 71.096 230.94 70.968 230.684 70.776C230.428 70.584 230.226 70.328 230.076 70.008C229.948 69.6667 229.884 69.2293 229.884 68.696V55.448ZM258.948 63.224C258.948 64.5467 258.745 65.7307 258.34 66.776C257.934 67.8 257.358 68.664 256.612 69.368C255.886 70.072 255.012 70.6053 253.988 70.968C252.964 71.3307 251.822 71.512 250.564 71.512C249.305 71.512 248.164 71.32 247.14 70.936C246.116 70.552 245.23 70.008 244.484 69.304C243.758 68.5787 243.193 67.704 242.788 66.68C242.382 65.656 242.18 64.504 242.18 63.224C242.18 61.9653 242.382 60.824 242.788 59.8C243.193 58.776 243.758 57.912 244.484 57.208C245.23 56.4827 246.116 55.928 247.14 55.544C248.164 55.16 249.305 54.968 250.564 54.968C251.822 54.968 252.964 55.1707 253.988 55.576C255.012 55.96 255.886 56.5147 256.612 57.24C257.358 57.944 257.934 58.808 258.34 59.832C258.745 60.856 258.948 61.9867 258.948 63.224ZM247.748 63.224C247.748 64.5253 247.993 65.528 248.484 66.232C248.996 66.9147 249.7 67.256 250.595 67.256C251.492 67.256 252.174 66.904 252.644 66.2C253.134 65.496 253.38 64.504 253.38 63.224C253.38 61.944 253.134 60.9627 252.644 60.28C252.153 59.576 251.46 59.224 250.564 59.224C249.668 59.224 248.974 59.576 248.484 60.28C247.993 60.9627 247.748 61.944 247.748 63.224ZM267.042 70.968C266.828 71.032 266.487 71.096 266.018 71.16C265.57 71.224 265.1 71.256 264.61 71.256C264.14 71.256 263.714 71.224 263.33 71.16C262.967 71.096 262.658 70.968 262.402 70.776C262.146 70.584 261.943 70.328 261.794 70.008C261.666 69.6667 261.602 69.2293 261.602 68.696V59.096C261.602 58.6053 261.687 58.1893 261.858 57.848C262.05 57.4853 262.316 57.1653 262.658 56.888C262.999 56.6107 263.415 56.3653 263.906 56.152C264.418 55.9173 264.962 55.7147 265.538 55.544C266.114 55.3733 266.711 55.2453 267.33 55.16C267.948 55.0533 268.567 55 269.186 55C270.21 55 271.02 55.2027 271.618 55.608C272.215 55.992 272.514 56.632 272.514 57.528C272.514 57.8267 272.471 58.1253 272.386 58.424C272.3 58.7013 272.194 58.9573 272.066 59.192C271.618 59.192 271.159 59.2133 270.69 59.256C270.22 59.2987 269.762 59.3627 269.314 59.448C268.866 59.5333 268.439 59.6293 268.034 59.736C267.65 59.8213 267.319 59.928 267.042 60.056V70.968ZM8.32 112.544C8.68267 112.544 9.07733 112.512 9.504 112.448C9.952 112.363 10.2827 112.256 10.496 112.128V109.568L8.192 109.76C7.59467 109.803 7.104 109.931 6.72 110.144C6.336 110.357 6.144 110.677 6.144 111.104C6.144 111.531 6.304 111.883 6.624 112.16C6.96533 112.416 7.53067 112.544 8.32 112.544ZM8.064 99.968C9.216 99.968 10.2613 100.085 11.2 100.32C12.16 100.555 12.9707 100.917 13.632 101.408C14.3147 101.877 14.8373 102.485 15.2 103.232C15.5627 103.957 15.744 104.821 15.744 105.824V112.992C15.744 113.547 15.584 114.005 15.264 114.368C14.9653 114.709 14.6027 115.008 14.176 115.264C12.7893 116.096 10.8373 116.512 8.32 116.512C7.18933 116.512 6.16533 116.405 5.248 116.192C4.352 115.979 3.57333 115.659 2.912 115.232C2.272 114.805 1.77067 114.261 1.408 113.6C1.06667 112.939 0.896 112.171 0.896 111.296C0.896 109.824 1.33333 108.693 2.208 107.904C3.08267 107.115 4.43733 106.624 6.272 106.432L10.464 105.984V105.76C10.464 105.141 10.1867 104.704 9.632 104.448C9.09867 104.171 8.32 104.032 7.296 104.032C6.48533 104.032 5.696 104.117 4.928 104.288C4.16 104.459 3.46667 104.672 2.848 104.928C2.57067 104.736 2.336 104.448 2.144 104.064C1.952 103.659 1.856 103.243 1.856 102.816C1.856 102.261 1.984 101.824 2.24 101.504C2.51733 101.163 2.93333 100.875 3.488 100.64C4.10667 100.405 4.832 100.235 5.664 100.128C6.51733 100.021 7.31733 99.968 8.064 99.968ZM43.4605 112.832C43.4605 113.493 43.3432 113.984 43.1085 114.304C42.8738 114.624 42.5005 114.933 41.9885 115.232C41.6898 115.403 41.3165 115.573 40.8685 115.744C40.4205 115.893 39.9298 116.021 39.3965 116.128C38.8632 116.256 38.2978 116.352 37.7005 116.416C37.1245 116.48 36.5485 116.512 35.9725 116.512C34.4365 116.512 32.9965 116.309 31.6525 115.904C30.3085 115.477 29.1352 114.848 28.1325 114.016C27.1512 113.163 26.3725 112.107 25.7965 110.848C25.2205 109.589 24.9325 108.128 24.9325 106.464C24.9325 104.715 25.2418 103.189 25.8605 101.888C26.5005 100.587 27.3325 99.5093 28.3565 98.656C29.4018 97.7813 30.5858 97.1307 31.9085 96.704C33.2525 96.2773 34.6285 96.064 36.0365 96.064C38.0632 96.064 39.6632 96.3947 40.8365 97.056C42.0312 97.696 42.6285 98.5387 42.6285 99.584C42.6285 100.139 42.4898 100.619 42.2125 101.024C41.9352 101.429 41.6152 101.749 41.2525 101.984C40.7192 101.664 40.0472 101.355 39.2365 101.056C38.4472 100.736 37.5512 100.576 36.5485 100.576C34.7565 100.576 33.3272 101.088 32.2605 102.112C31.2152 103.136 30.6925 104.555 30.6925 106.368C30.6925 107.349 30.8312 108.203 31.1085 108.928C31.4072 109.632 31.8018 110.219 32.2925 110.688C32.7832 111.136 33.3485 111.477 33.9885 111.712C34.6285 111.925 35.3112 112.032 36.0365 112.032C36.5058 112.032 36.9218 111.989 37.2845 111.904C37.6472 111.819 37.9245 111.723 38.1165 111.616V108.608H34.6925C34.5645 108.373 34.4365 108.064 34.3085 107.68C34.2018 107.296 34.1485 106.891 34.1485 106.464C34.1485 105.696 34.3192 105.141 34.6605 104.8C35.0232 104.459 35.4818 104.288 36.0365 104.288H41.4445C42.0845 104.288 42.5752 104.469 42.9165 104.832C43.2792 105.173 43.4605 105.664 43.4605 106.304V112.832ZM52.1665 115.968C51.9532 116.032 51.6118 116.096 51.1425 116.16C50.6945 116.224 50.2252 116.256 49.7345 116.256C49.2652 116.256 48.8385 116.224 48.4545 116.16C48.0918 116.096 47.7825 115.968 47.5265 115.776C47.2705 115.584 47.0678 115.328 46.9185 115.008C46.7905 114.667 46.7265 114.229 46.7265 113.696V104.096C46.7265 103.605 46.8118 103.189 46.9825 102.848C47.1745 102.485 47.4412 102.165 47.7825 101.888C48.1238 101.611 48.5398 101.365 49.0305 101.152C49.5425 100.917 50.0865 100.715 50.6625 100.544C51.2385 100.373 51.8358 100.245 52.4545 100.16C53.0732 100.053 53.6918 100 54.3105 100C55.3345 100 56.1452 100.203 56.7425 100.608C57.3398 100.992 57.6385 101.632 57.6385 102.528C57.6385 102.827 57.5958 103.125 57.5105 103.424C57.4252 103.701 57.3185 103.957 57.1905 104.192C56.7425 104.192 56.2838 104.213 55.8145 104.256C55.3452 104.299 54.8865 104.363 54.4385 104.448C53.9905 104.533 53.5638 104.629 53.1585 104.736C52.7745 104.821 52.4438 104.928 52.1665 105.056V115.968ZM67.513 116.512C66.2543 116.512 65.081 116.341 63.993 116C62.9263 115.637 61.9877 115.104 61.177 114.4C60.3877 113.696 59.7583 112.811 59.289 111.744C58.841 110.677 58.617 109.429 58.617 108C58.617 106.592 58.841 105.387 59.289 104.384C59.7583 103.36 60.3663 102.528 61.113 101.888C61.8597 101.227 62.713 100.747 63.673 100.448C64.633 100.128 65.6143 99.968 66.617 99.968C67.7477 99.968 68.7717 100.139 69.689 100.48C70.6277 100.821 71.4277 101.291 72.089 101.888C72.7717 102.485 73.2943 103.2 73.657 104.032C74.041 104.864 74.233 105.771 74.233 106.752C74.233 107.477 74.0303 108.032 73.625 108.416C73.2197 108.8 72.6543 109.045 71.929 109.152L64.025 110.336C64.2597 111.04 64.7397 111.573 65.465 111.936C66.1903 112.277 67.0223 112.448 67.961 112.448C68.8357 112.448 69.657 112.341 70.425 112.128C71.2143 111.893 71.8543 111.627 72.345 111.328C72.6863 111.541 72.9743 111.84 73.209 112.224C73.4437 112.608 73.561 113.013 73.561 113.44C73.561 114.4 73.113 115.115 72.217 115.584C71.5343 115.947 70.7663 116.192 69.913 116.32C69.0597 116.448 68.2597 116.512 67.513 116.512ZM66.617 103.936C66.105 103.936 65.657 104.021 65.273 104.192C64.9103 104.363 64.6117 104.587 64.377 104.864C64.1423 105.12 63.961 105.419 63.833 105.76C63.7263 106.08 63.6623 106.411 63.641 106.752L69.113 105.856C69.049 105.429 68.8143 105.003 68.409 104.576C68.0037 104.149 67.4063 103.936 66.617 103.936ZM85.0755 116.512C83.8168 116.512 82.6435 116.341 81.5555 116C80.4888 115.637 79.5502 115.104 78.7395 114.4C77.9502 113.696 77.3208 112.811 76.8515 111.744C76.4035 110.677 76.1795 109.429 76.1795 108C76.1795 106.592 76.4035 105.387 76.8515 104.384C77.3208 103.36 77.9288 102.528 78.6755 101.888C79.4222 101.227 80.2755 100.747 81.2355 100.448C82.1955 100.128 83.1768 99.968 84.1795 99.968C85.3102 99.968 86.3342 100.139 87.2515 100.48C88.1902 100.821 88.9902 101.291 89.6515 101.888C90.3342 102.485 90.8568 103.2 91.2195 104.032C91.6035 104.864 91.7955 105.771 91.7955 106.752C91.7955 107.477 91.5928 108.032 91.1875 108.416C90.7822 108.8 90.2168 109.045 89.4915 109.152L81.5875 110.336C81.8222 111.04 82.3022 111.573 83.0275 111.936C83.7528 112.277 84.5848 112.448 85.5235 112.448C86.3982 112.448 87.2195 112.341 87.9875 112.128C88.7768 111.893 89.4168 111.627 89.9075 111.328C90.2488 111.541 90.5368 111.84 90.7715 112.224C91.0062 112.608 91.1235 113.013 91.1235 113.44C91.1235 114.4 90.6755 115.115 89.7795 115.584C89.0968 115.947 88.3288 116.192 87.4755 116.32C86.6222 116.448 85.8222 116.512 85.0755 116.512ZM84.1795 103.936C83.6675 103.936 83.2195 104.021 82.8355 104.192C82.4728 104.363 82.1742 104.587 81.9395 104.864C81.7048 105.12 81.5235 105.419 81.3955 105.76C81.2888 106.08 81.2248 106.411 81.2035 106.752L86.6755 105.856C86.6115 105.429 86.3768 105.003 85.9715 104.576C85.5662 104.149 84.9688 103.936 84.1795 103.936ZM104.27 106.144C104.27 105.483 104.078 105.003 103.694 104.704C103.331 104.384 102.83 104.224 102.19 104.224C101.763 104.224 101.337 104.277 100.91 104.384C100.505 104.491 100.153 104.651 99.854 104.864V115.968C99.6407 116.032 99.2993 116.096 98.83 116.16C98.382 116.224 97.9127 116.256 97.422 116.256C96.9527 116.256 96.526 116.224 96.142 116.16C95.7793 116.096 95.47 115.968 95.214 115.776C94.958 115.584 94.7553 115.328 94.606 115.008C94.478 114.667 94.414 114.229 94.414 113.696V104.096C94.414 103.52 94.5313 103.051 94.766 102.688C95.022 102.325 95.3633 101.995 95.79 101.696C96.5153 101.184 97.422 100.768 98.51 100.448C99.6193 100.128 100.846 99.968 102.19 99.968C104.601 99.968 106.457 100.501 107.758 101.568C109.059 102.613 109.71 104.075 109.71 105.952V115.968C109.497 116.032 109.155 116.096 108.686 116.16C108.238 116.224 107.769 116.256 107.278 116.256C106.809 116.256 106.382 116.224 105.998 116.16C105.635 116.096 105.326 115.968 105.07 115.776C104.814 115.584 104.611 115.328 104.462 115.008C104.334 114.667 104.27 114.229 104.27 113.696V106.144ZM121.294 116.512C120.036 116.512 118.862 116.341 117.774 116C116.708 115.637 115.769 115.104 114.958 114.4C114.169 113.696 113.54 112.811 113.07 111.744C112.622 110.677 112.398 109.429 112.398 108C112.398 106.592 112.622 105.387 113.07 104.384C113.54 103.36 114.148 102.528 114.894 101.888C115.641 101.227 116.494 100.747 117.454 100.448C118.414 100.128 119.396 99.968 120.398 99.968C121.529 99.968 122.553 100.139 123.47 100.48C124.409 100.821 125.209 101.291 125.87 101.888C126.553 102.485 127.076 103.2 127.438 104.032C127.822 104.864 128.014 105.771 128.014 106.752C128.014 107.477 127.812 108.032 127.406 108.416C127.001 108.8 126.436 109.045 125.71 109.152L117.806 110.336C118.041 111.04 118.521 111.573 119.246 111.936C119.972 112.277 120.804 112.448 121.742 112.448C122.617 112.448 123.438 112.341 124.206 112.128C124.996 111.893 125.636 111.627 126.126 111.328C126.468 111.541 126.756 111.84 126.99 112.224C127.225 112.608 127.342 113.013 127.342 113.44C127.342 114.4 126.894 115.115 125.998 115.584C125.316 115.947 124.548 116.192 123.694 116.32C122.841 116.448 122.041 116.512 121.294 116.512ZM120.398 103.936C119.886 103.936 119.438 104.021 119.054 104.192C118.692 104.363 118.393 104.587 118.158 104.864C117.924 105.12 117.742 105.419 117.614 105.76C117.508 106.08 117.444 106.411 117.422 106.752L122.894 105.856C122.83 105.429 122.596 105.003 122.19 104.576C121.785 104.149 121.188 103.936 120.398 103.936ZM136.073 115.968C135.859 116.032 135.518 116.096 135.049 116.16C134.601 116.224 134.131 116.256 133.641 116.256C133.171 116.256 132.745 116.224 132.361 116.16C131.998 116.096 131.689 115.968 131.433 115.776C131.177 115.584 130.974 115.328 130.825 115.008C130.697 114.667 130.633 114.229 130.633 113.696V104.096C130.633 103.605 130.718 103.189 130.889 102.848C131.081 102.485 131.347 102.165 131.689 101.888C132.03 101.611 132.446 101.365 132.937 101.152C133.449 100.917 133.993 100.715 134.569 100.544C135.145 100.373 135.742 100.245 136.361 100.16C136.979 100.053 137.598 100 138.217 100C139.241 100 140.051 100.203 140.649 100.608C141.246 100.992 141.545 101.632 141.545 102.528C141.545 102.827 141.502 103.125 141.417 103.424C141.331 103.701 141.225 103.957 141.097 104.192C140.649 104.192 140.19 104.213 139.721 104.256C139.251 104.299 138.793 104.363 138.345 104.448C137.897 104.533 137.47 104.629 137.065 104.736C136.681 104.821 136.35 104.928 136.073 105.056V115.968ZM149.715 101.088C149.566 100.853 149.427 100.533 149.299 100.128C149.171 99.7227 149.107 99.296 149.107 98.848C149.107 98.016 149.289 97.4187 149.651 97.056C150.035 96.6933 150.526 96.512 151.123 96.512H165.075C165.225 96.7467 165.363 97.0667 165.491 97.472C165.619 97.8773 165.683 98.304 165.683 98.752C165.683 99.584 165.491 100.181 165.107 100.544C164.745 100.907 164.265 101.088 163.667 101.088H160.115V115.872C159.881 115.936 159.507 116 158.995 116.064C158.505 116.128 158.014 116.16 157.523 116.16C157.033 116.16 156.595 116.117 156.211 116.032C155.849 115.968 155.539 115.84 155.283 115.648C155.027 115.456 154.835 115.189 154.707 114.848C154.579 114.507 154.515 114.059 154.515 113.504V101.088H149.715ZM182.166 108.224C182.166 109.547 181.964 110.731 181.558 111.776C181.153 112.8 180.577 113.664 179.83 114.368C179.105 115.072 178.23 115.605 177.206 115.968C176.182 116.331 175.041 116.512 173.782 116.512C172.524 116.512 171.382 116.32 170.358 115.936C169.334 115.552 168.449 115.008 167.702 114.304C166.977 113.579 166.412 112.704 166.006 111.68C165.601 110.656 165.398 109.504 165.398 108.224C165.398 106.965 165.601 105.824 166.006 104.8C166.412 103.776 166.977 102.912 167.702 102.208C168.449 101.483 169.334 100.928 170.358 100.544C171.382 100.16 172.524 99.968 173.782 99.968C175.041 99.968 176.182 100.171 177.206 100.576C178.23 100.96 179.105 101.515 179.83 102.24C180.577 102.944 181.153 103.808 181.558 104.832C181.964 105.856 182.166 106.987 182.166 108.224ZM170.966 108.224C170.966 109.525 171.212 110.528 171.702 111.232C172.214 111.915 172.918 112.256 173.814 112.256C174.71 112.256 175.393 111.904 175.862 111.2C176.353 110.496 176.598 109.504 176.598 108.224C176.598 106.944 176.353 105.963 175.862 105.28C175.372 104.576 174.678 104.224 173.782 104.224C172.886 104.224 172.193 104.576 171.702 105.28C171.212 105.963 170.966 106.944 170.966 108.224ZM192.276 99.968C193.151 99.968 194.004 100.096 194.836 100.352C195.69 100.587 196.426 100.949 197.044 101.44C197.684 101.013 198.399 100.661 199.188 100.384C199.999 100.107 200.97 99.968 202.1 99.968C202.911 99.968 203.7 100.075 204.468 100.288C205.258 100.501 205.951 100.843 206.548 101.312C207.167 101.76 207.658 102.368 208.02 103.136C208.383 103.883 208.564 104.8 208.564 105.888V115.968C208.351 116.032 208.01 116.096 207.54 116.16C207.092 116.224 206.623 116.256 206.132 116.256C205.663 116.256 205.236 116.224 204.852 116.16C204.49 116.096 204.18 115.968 203.924 115.776C203.668 115.584 203.466 115.328 203.316 115.008C203.188 114.667 203.124 114.229 203.124 113.696V106.048C203.124 105.408 202.943 104.949 202.58 104.672C202.218 104.373 201.727 104.224 201.108 104.224C200.81 104.224 200.49 104.299 200.148 104.448C199.807 104.576 199.551 104.715 199.38 104.864C199.402 104.949 199.412 105.035 199.412 105.12C199.412 105.184 199.412 105.248 199.412 105.312V115.968C199.178 116.032 198.826 116.096 198.356 116.16C197.908 116.224 197.45 116.256 196.98 116.256C196.511 116.256 196.084 116.224 195.7 116.16C195.338 116.096 195.028 115.968 194.772 115.776C194.516 115.584 194.314 115.328 194.164 115.008C194.036 114.667 193.972 114.229 193.972 113.696V106.048C193.972 105.408 193.77 104.949 193.364 104.672C192.98 104.373 192.511 104.224 191.956 104.224C191.572 104.224 191.242 104.288 190.964 104.416C190.687 104.523 190.452 104.629 190.26 104.736V115.968C190.047 116.032 189.706 116.096 189.236 116.16C188.788 116.224 188.319 116.256 187.828 116.256C187.359 116.256 186.932 116.224 186.548 116.16C186.186 116.096 185.876 115.968 185.62 115.776C185.364 115.584 185.162 115.328 185.012 115.008C184.884 114.667 184.82 114.229 184.82 113.696V104.032C184.82 103.456 184.938 102.997 185.172 102.656C185.428 102.315 185.77 101.995 186.196 101.696C186.922 101.184 187.818 100.768 188.884 100.448C189.972 100.128 191.103 99.968 192.276 99.968ZM227.979 108.224C227.979 109.547 227.776 110.731 227.371 111.776C226.965 112.8 226.389 113.664 225.643 114.368C224.917 115.072 224.043 115.605 223.019 115.968C221.995 116.331 220.853 116.512 219.595 116.512C218.336 116.512 217.195 116.32 216.171 115.936C215.147 115.552 214.261 115.008 213.515 114.304C212.789 113.579 212.224 112.704 211.819 111.68C211.413 110.656 211.211 109.504 211.211 108.224C211.211 106.965 211.413 105.824 211.819 104.8C212.224 103.776 212.789 102.912 213.515 102.208C214.261 101.483 215.147 100.928 216.171 100.544C217.195 100.16 218.336 99.968 219.595 99.968C220.853 99.968 221.995 100.171 223.019 100.576C224.043 100.96 224.917 101.515 225.643 102.24C226.389 102.944 226.965 103.808 227.371 104.832C227.776 105.856 227.979 106.987 227.979 108.224ZM216.779 108.224C216.779 109.525 217.024 110.528 217.515 111.232C218.027 111.915 218.731 112.256 219.627 112.256C220.523 112.256 221.205 111.904 221.675 111.2C222.165 110.496 222.411 109.504 222.411 108.224C222.411 106.944 222.165 105.963 221.675 105.28C221.184 104.576 220.491 104.224 219.595 104.224C218.699 104.224 218.005 104.576 217.515 105.28C217.024 105.963 216.779 106.944 216.779 108.224ZM236.073 115.968C235.859 116.032 235.518 116.096 235.049 116.16C234.601 116.224 234.131 116.256 233.641 116.256C233.171 116.256 232.745 116.224 232.361 116.16C231.998 116.096 231.689 115.968 231.433 115.776C231.177 115.584 230.974 115.328 230.825 115.008C230.697 114.667 230.633 114.229 230.633 113.696V104.096C230.633 103.605 230.718 103.189 230.889 102.848C231.081 102.485 231.347 102.165 231.689 101.888C232.03 101.611 232.446 101.365 232.937 101.152C233.449 100.917 233.993 100.715 234.569 100.544C235.145 100.373 235.742 100.245 236.361 100.16C236.979 100.053 237.598 100 238.217 100C239.241 100 240.051 100.203 240.649 100.608C241.246 100.992 241.545 101.632 241.545 102.528C241.545 102.827 241.502 103.125 241.417 103.424C241.331 103.701 241.225 103.957 241.097 104.192C240.649 104.192 240.19 104.213 239.721 104.256C239.251 104.299 238.793 104.363 238.345 104.448C237.897 104.533 237.47 104.629 237.065 104.736C236.681 104.821 236.35 104.928 236.073 105.056V115.968ZM248.917 115.968C248.703 116.032 248.362 116.096 247.893 116.16C247.445 116.224 246.975 116.256 246.485 116.256C246.015 116.256 245.589 116.224 245.205 116.16C244.842 116.096 244.533 115.968 244.277 115.776C244.021 115.584 243.818 115.328 243.669 115.008C243.541 114.667 243.477 114.229 243.477 113.696V104.096C243.477 103.605 243.562 103.189 243.733 102.848C243.925 102.485 244.191 102.165 244.533 101.888C244.874 101.611 245.29 101.365 245.781 101.152C246.293 100.917 246.837 100.715 247.413 100.544C247.989 100.373 248.586 100.245 249.205 100.16C249.823 100.053 250.442 100 251.061 100C252.085 100 252.895 100.203 253.493 100.608C254.09 100.992 254.389 101.632 254.389 102.528C254.389 102.827 254.346 103.125 254.261 103.424C254.175 103.701 254.069 103.957 253.941 104.192C253.493 104.192 253.034 104.213 252.565 104.256C252.095 104.299 251.637 104.363 251.189 104.448C250.741 104.533 250.314 104.629 249.909 104.736C249.525 104.821 249.194 104.928 248.917 105.056V115.968ZM272.135 108.224C272.135 109.547 271.932 110.731 271.527 111.776C271.122 112.8 270.546 113.664 269.799 114.368C269.074 115.072 268.199 115.605 267.175 115.968C266.151 116.331 265.01 116.512 263.751 116.512C262.492 116.512 261.351 116.32 260.327 115.936C259.303 115.552 258.418 115.008 257.671 114.304C256.946 113.579 256.38 112.704 255.975 111.68C255.57 110.656 255.367 109.504 255.367 108.224C255.367 106.965 255.57 105.824 255.975 104.8C256.38 103.776 256.946 102.912 257.671 102.208C258.418 101.483 259.303 100.928 260.327 100.544C261.351 100.16 262.492 99.968 263.751 99.968C265.01 99.968 266.151 100.171 267.175 100.576C268.199 100.96 269.074 101.515 269.799 102.24C270.546 102.944 271.122 103.808 271.527 104.832C271.932 105.856 272.135 106.987 272.135 108.224ZM260.935 108.224C260.935 109.525 261.18 110.528 261.671 111.232C262.183 111.915 262.887 112.256 263.783 112.256C264.679 112.256 265.362 111.904 265.831 111.2C266.322 110.496 266.567 109.504 266.567 108.224C266.567 106.944 266.322 105.963 265.831 105.28C265.34 104.576 264.647 104.224 263.751 104.224C262.855 104.224 262.162 104.576 261.671 105.28C261.18 105.963 260.935 106.944 260.935 108.224ZM283.466 115.52C283.167 115.776 282.762 115.979 282.25 116.128C281.738 116.299 281.13 116.384 280.426 116.384C279.551 116.384 278.794 116.256 278.154 116C277.514 115.765 277.087 115.424 276.874 114.976C276.639 114.464 276.362 113.653 276.042 112.544C275.743 111.435 275.444 110.219 275.146 108.896C274.847 107.573 274.559 106.229 274.282 104.864C274.026 103.499 273.823 102.293 273.674 101.248C273.972 100.949 274.367 100.693 274.858 100.48C275.37 100.245 275.924 100.128 276.522 100.128C277.268 100.128 277.876 100.299 278.346 100.64C278.836 100.96 279.135 101.525 279.242 102.336C279.455 103.957 279.636 105.301 279.786 106.368C279.935 107.413 280.052 108.277 280.138 108.96C280.244 109.621 280.319 110.133 280.362 110.496C280.426 110.837 280.479 111.115 280.522 111.328H280.65C280.714 110.987 280.82 110.496 280.97 109.856C281.14 109.195 281.332 108.448 281.546 107.616C281.759 106.784 281.983 105.888 282.218 104.928C282.452 103.947 282.687 102.976 282.922 102.016C283.348 101.781 283.764 101.6 284.17 101.472C284.596 101.344 285.119 101.28 285.738 101.28C286.484 101.28 287.124 101.397 287.658 101.632C288.191 101.867 288.532 102.229 288.682 102.72C288.938 103.659 289.183 104.576 289.418 105.472C289.652 106.347 289.866 107.168 290.058 107.936C290.25 108.683 290.42 109.355 290.569 109.952C290.719 110.528 290.826 110.987 290.89 111.328H291.05C291.284 109.685 291.508 107.979 291.722 106.208C291.956 104.437 292.17 102.635 292.362 100.8C292.746 100.565 293.151 100.395 293.578 100.288C294.004 100.181 294.431 100.128 294.858 100.128C295.604 100.128 296.223 100.288 296.714 100.608C297.204 100.928 297.45 101.483 297.45 102.272C297.45 102.613 297.396 103.125 297.29 103.808C297.183 104.491 297.044 105.259 296.874 106.112C296.703 106.965 296.5 107.861 296.266 108.8C296.052 109.739 295.828 110.645 295.594 111.52C295.38 112.395 295.167 113.184 294.954 113.888C294.762 114.592 294.591 115.136 294.442 115.52C294.143 115.776 293.684 115.979 293.066 116.128C292.447 116.299 291.786 116.384 291.082 116.384C289.29 116.384 288.234 115.936 287.914 115.04C287.786 114.656 287.626 114.176 287.434 113.6C287.242 113.003 287.039 112.352 286.826 111.648C286.612 110.944 286.41 110.219 286.218 109.472C286.026 108.704 285.866 107.968 285.738 107.264C285.588 108.011 285.407 108.789 285.194 109.6C284.98 110.389 284.756 111.168 284.522 111.936C284.308 112.683 284.106 113.376 283.914 114.016C283.722 114.635 283.572 115.136 283.466 115.52Z" fill="#1C1C1C"/>
<g clip-path="url(#clip1_579_1439)">
<ellipse cx="219.584" cy="167.98" rx="28.4738" ry="28.0551" fill="#FFCD00"/>
<path d="M230.404 152.102L223.714 164.889H221.52L224.613 159.085L221.019 152.102H223.377L225.773 156.941L228.207 152.102H230.404Z" fill="white"/>
<path d="M220.082 160.384H218.126V155.825C218.126 154.898 218.026 154.523 217.944 154.347C217.865 154.122 217.712 153.929 217.511 153.798C217.309 153.666 217.069 153.604 216.828 153.62C216.6 153.625 216.376 153.682 216.175 153.788C215.973 153.894 215.8 154.045 215.668 154.229C215.325 154.702 215.291 155.409 215.291 156.119V160.387H213.334V155.825C213.334 154.898 213.235 154.523 213.152 154.347C213.072 154.123 212.92 153.93 212.719 153.799C212.517 153.667 212.278 153.605 212.037 153.62C211.808 153.625 211.584 153.682 211.383 153.788C211.181 153.894 211.008 154.045 210.877 154.229C210.533 154.702 210.499 155.409 210.499 156.119V160.387H208.539V152.105H210.499V152.873C210.742 152.564 211.055 152.314 211.412 152.144C211.769 151.973 212.161 151.886 212.558 151.889C213.002 151.881 213.44 151.991 213.825 152.208C214.21 152.424 214.529 152.739 214.748 153.12C215.032 152.731 215.407 152.416 215.842 152.204C216.277 151.991 216.758 151.886 217.244 151.899C217.726 151.883 218.203 151.995 218.626 152.224C219.048 152.452 219.401 152.788 219.646 153.197C219.977 153.843 220.129 154.562 220.086 155.284V160.397L220.082 160.384Z" fill="white"/>
<path d="M236.608 184.684L227.003 174.737V183.878H224.976V169.911L234.585 179.856V170.795H236.608V184.684Z" fill="white"/>
<path d="M208.7 172.754L207.072 173.698C206.917 173.298 206.637 172.958 206.274 172.725C205.91 172.492 205.481 172.38 205.049 172.403C203.817 172.403 203.182 173.128 203.182 173.971C203.182 174.366 203.322 175.05 204.612 175.559L205.943 176.092C208.382 177.07 209.058 178.453 209.058 179.936C209.058 182.428 207.27 184.135 204.789 184.135C204.203 184.163 203.618 184.06 203.078 183.832C202.539 183.604 202.058 183.258 201.674 182.82C201.023 182.118 200.631 181.22 200.562 180.27L202.568 179.839C202.568 180.438 202.763 181.022 203.124 181.504C203.328 181.762 203.591 181.967 203.891 182.104C204.192 182.24 204.52 182.304 204.851 182.29C205.143 182.298 205.434 182.246 205.705 182.138C205.976 182.029 206.222 181.867 206.427 181.661C206.632 181.454 206.792 181.209 206.896 180.939C207.001 180.669 207.048 180.38 207.035 180.092C207.035 178.76 206.011 178.21 205.127 177.856L203.858 177.326C202.766 176.875 201.159 175.978 201.159 174.012C201.159 172.245 202.547 170.559 205.028 170.559C205.995 170.517 206.944 170.832 207.69 171.442C208.11 171.813 208.457 172.258 208.713 172.754" fill="white"/>
<path d="M216.787 173.351C216.523 173.368 216.259 173.306 216.031 173.173C215.803 173.04 215.621 172.843 215.508 172.606C215.394 172.37 215.356 172.105 215.397 171.847C215.438 171.588 215.556 171.348 215.737 171.157C215.918 170.966 216.153 170.833 216.411 170.775C216.669 170.718 216.939 170.738 217.185 170.834C217.431 170.93 217.643 171.097 217.792 171.313C217.941 171.529 218.021 171.784 218.022 172.046C218.033 172.381 217.909 172.706 217.677 172.951C217.446 173.195 217.126 173.339 216.787 173.351Z" fill="white"/>
<path d="M213.818 170.795V178.679C213.818 179.387 213.839 180.25 214.234 180.935C214.494 181.349 214.856 181.692 215.287 181.929C215.718 182.167 216.203 182.292 216.696 182.292C217.19 182.292 217.675 182.167 218.106 181.929C218.537 181.692 218.899 181.349 219.158 180.935C219.554 180.26 219.574 179.387 219.574 178.679V170.795H221.601V179.225C221.648 180.47 221.207 181.685 220.37 182.617C219.892 183.103 219.321 183.49 218.69 183.753C218.06 184.017 217.381 184.153 216.696 184.153C216.011 184.153 215.333 184.017 214.702 183.753C214.071 183.49 213.5 183.103 213.023 182.617C212.188 181.684 211.748 180.47 211.795 179.225V170.795H213.818Z" fill="white"/>
</g>
</g>
<defs>
<clipPath id="clip0_579_1439">
<rect width="308" height="452" fill="white"/>
</clipPath>
<clipPath id="clip1_579_1439">
<rect width="57" height="57" fill="white" transform="translate(191 140)"/>
</clipPath>
</defs>
</svg>
